# Blender 4.2.0
# www.blender.org
mtllib HowToBook_Quads.mtl
o HowToBook
v 0.000000 0.095346 -0.405990
v -0.006434 0.070784 -0.405990
v -0.024147 0.050835 -0.405990
v -0.052145 0.035021 -0.405991
v -0.089434 0.022865 -0.405991
v -0.135022 0.013890 -0.405991
v -0.187915 0.007618 -0.405991
v -0.247118 0.003571 -0.405991
v -0.311640 0.001271 -0.405991
v -0.380486 0.000242 -0.405991
v -0.044598 0.134364 -0.405990
v -0.038164 0.158926 -0.405990
v -0.603036 -0.000000 -0.405991
v -0.062311 0.114415 -0.405991
v -0.090309 0.098601 -0.405991
v -0.127599 0.086446 -0.405991
v -0.173186 0.077470 -0.405991
v -0.226079 0.071198 -0.405991
v -0.285283 0.067151 -0.405991
v -0.349805 0.064851 -0.405991
v -0.418651 0.063822 -0.405991
v -0.641201 0.063580 -0.405991
v -0.000000 0.095346 0.405990
v -0.006434 0.070784 0.405990
v -0.024147 0.050835 0.405990
v -0.052145 0.035021 0.405990
v -0.089434 0.022865 0.405990
v -0.135022 0.013890 0.405990
v -0.187915 0.007618 0.405990
v -0.247119 0.003571 0.405990
v -0.311640 0.001271 0.405990
v -0.380486 0.000242 0.405990
v -0.044599 0.134364 0.405990
v -0.038165 0.158926 0.405990
v -0.603036 0.000000 0.405990
v -0.062311 0.114415 0.405990
v -0.090309 0.098601 0.405990
v -0.127599 0.086446 0.405990
v -0.173187 0.077470 0.405990
v -0.226079 0.071198 0.405990
v -0.285283 0.067151 0.405990
v -0.349805 0.064851 0.405990
v -0.418651 0.063822 0.405990
v -0.641201 0.063580 0.405990
v -0.000000 0.155047 0.405990
v 0.000000 0.155047 -0.405990
v 0.006434 0.070784 -0.405990
v 0.024147 0.050835 -0.405990
v 0.052145 0.035021 -0.405990
v 0.089434 0.022865 -0.405990
v 0.135022 0.013890 -0.405990
v 0.187915 0.007618 -0.405990
v 0.247119 0.003571 -0.405990
v 0.311640 0.001271 -0.405990
v 0.380486 0.000242 -0.405990
v 0.044599 0.134364 -0.405990
v 0.038165 0.158926 -0.405990
v 0.603036 -0.000000 -0.405990
v 0.062311 0.114415 -0.405990
v 0.090309 0.098601 -0.405990
v 0.127599 0.086446 -0.405990
v 0.173187 0.077470 -0.405990
v 0.226079 0.071198 -0.405990
v 0.285283 0.067151 -0.405990
v 0.349805 0.064851 -0.405990
v 0.418651 0.063822 -0.405990
v 0.641201 0.063580 -0.405990
v 0.006434 0.070784 0.405990
v 0.024147 0.050835 0.405990
v 0.052145 0.035021 0.405991
v 0.089434 0.022865 0.405991
v 0.135022 0.013890 0.405991
v 0.187914 0.007618 0.405991
v 0.247118 0.003571 0.405991
v 0.311640 0.001271 0.405991
v 0.380486 0.000242 0.405991
v 0.044598 0.134364 0.405990
v 0.038164 0.158926 0.405990
v 0.603036 0.000000 0.405991
v 0.062311 0.114415 0.405991
v 0.090309 0.098601 0.405991
v 0.127599 0.086446 0.405991
v 0.173186 0.077470 0.405991
v 0.226079 0.071198 0.405991
v 0.285283 0.067151 0.405991
v 0.349805 0.064851 0.405991
v 0.418651 0.063822 0.405991
v 0.641201 0.063580 0.405991
vn -0.0000 -0.0000 -1.0000
vn -0.0000 -0.0000 1.0000
vn -0.0011 1.0000 -0.0000
vn -0.0080 1.0000 -0.0000
vn -0.4029 0.9153 -0.0000
vn -0.6283 0.7779 -0.0000
vn 0.1556 -0.9878 -0.0000
vn 0.0930 -0.9957 -0.0000
vn -0.8574 -0.5147 -0.0000
vn -0.2520 0.9677 -0.0000
vn 0.0519 -0.9987 -0.0000
vn -0.1556 0.9878 -0.0000
vn 0.0253 -0.9997 -0.0000
vn -0.0930 0.9957 -0.0000
vn 0.0080 -1.0000 -0.0000
vn 0.8818 -0.4716 -0.0000
vn 0.6283 -0.7779 -0.0000
vn -0.0519 0.9987 -0.0000
vn -0.8818 0.4716 -0.0000
vn 0.4029 -0.9153 -0.0000
vn -0.0253 0.9997 -0.0000
vn -0.9674 0.2534 -0.0000
vn 0.2520 -0.9677 -0.0000
vn 0.0011 -1.0000 -0.0000
vn 0.9674 -0.2534 -0.0000
vn -0.0000 1.0000 -0.0000
vn 0.1011 0.9949 -0.0000
vn 0.0011 1.0000 -0.0000
vn 0.0080 1.0000 -0.0000
vn 0.4029 0.9153 -0.0000
vn 0.6283 0.7779 -0.0000
vn -0.1556 -0.9878 -0.0000
vn -0.0930 -0.9957 -0.0000
vn 0.8574 -0.5147 -0.0000
vn 0.2520 0.9677 -0.0000
vn -0.0519 -0.9987 -0.0000
vn 0.1556 0.9878 -0.0000
vn -0.0253 -0.9997 -0.0000
vn 0.0930 0.9957 -0.0000
vn -0.0080 -1.0000 -0.0000
vn -0.8818 -0.4716 -0.0000
vn -0.6283 -0.7779 -0.0000
vn 0.0519 0.9987 -0.0000
vn 0.8818 0.4716 -0.0000
vn -0.4029 -0.9153 -0.0000
vn 0.0253 0.9997 -0.0000
vn 0.9674 0.2534 -0.0000
vn -0.2520 -0.9677 -0.0000
vn -0.0011 -1.0000 -0.0000
vn -0.9674 -0.2534 -0.0000
vn -0.1011 0.9949 -0.0000
vt 0.076952 0.758103
vt 0.076952 0.667643
vt 0.147508 0.667643
vt 0.147508 0.758103
vt 0.076952 0.927245
vt 0.076952 0.915186
vt 0.147508 0.915186
vt 0.147508 0.927245
vt 0.076952 0.786320
vt 0.147508 0.786320
vt 0.076952 0.861140
vt 0.076952 0.838125
vt 0.147508 0.838125
vt 0.147508 0.861140
vt 0.076952 0.899957
vt 0.147508 0.899957
vt 0.076952 0.813089
vt 0.147508 0.813089
vt 0.076952 0.881846
vt 0.147508 0.881846
vt 0.076952 0.935847
vt 0.147508 0.935847
vt 0.076952 0.192495
vt 0.147508 0.192495
vt 0.147508 0.282955
vt 0.076952 0.282955
vt 0.076952 0.023354
vt 0.147508 0.023354
vt 0.147508 0.035413
vt 0.076952 0.035413
vt 0.076952 0.164279
vt 0.147508 0.164279
vt 0.076952 0.089459
vt 0.147508 0.089459
vt 0.147508 0.112474
vt 0.076952 0.112474
vt 0.147508 0.050642
vt 0.076952 0.050642
vt 0.147508 0.137509
vt 0.076952 0.137509
vt 0.147508 0.068753
vt 0.076952 0.068753
vt 0.076952 0.014751
vt 0.147508 0.014751
vt 0.312238 0.000195
vt 0.696926 0.000195
vt 0.696926 0.105631
vt 0.312238 0.105631
vt 0.312238 0.262782
vt 0.696926 0.262782
vt 0.696926 0.278016
vt 0.312238 0.278016
vt 0.919309 0.000195
vt 0.919309 0.384883
vt 0.894074 0.384883
vt 0.894074 0.000195
vt 0.312238 0.244200
vt 0.696926 0.244200
vt 0.865960 0.384883
vt 0.865960 0.000195
vt 0.312238 0.222188
vt 0.696926 0.222188
vt 0.835373 0.384883
vt 0.835373 0.000195
vt 0.312238 0.196954
vt 0.696926 0.196954
vt 0.802752 0.384883
vt 0.802752 0.000195
vt 0.987776 0.000195
vt 0.987776 0.384883
vt 0.975137 0.384883
vt 0.975137 0.000195
vt 0.312238 0.168839
vt 0.696926 0.168839
vt 0.696926 0.290655
vt 0.312238 0.290655
vt 0.959903 0.384883
vt 0.959903 0.000195
vt 0.312238 0.138252
vt 0.696926 0.138252
vt 0.696926 0.302684
vt 0.312238 0.302684
vt 0.941321 0.384883
vt 0.941321 0.000195
vt 0.697316 0.384883
vt 0.697316 0.000195
vt 0.999805 0.000195
vt 0.999805 0.384883
vt 0.696926 0.320858
vt 0.312238 0.320858
vt 0.076952 0.950404
vt 0.076952 0.000195
vt 0.193213 0.192496
vt 0.268808 0.192496
vt 0.268808 0.282955
vt 0.193213 0.282955
vt 0.193213 0.023354
vt 0.268808 0.023354
vt 0.268808 0.035413
vt 0.193213 0.035413
vt 0.193213 0.164279
vt 0.268808 0.164279
vt 0.193213 0.089459
vt 0.268808 0.089459
vt 0.268808 0.112474
vt 0.193213 0.112474
vt 0.268808 0.050642
vt 0.193213 0.050642
vt 0.268808 0.137509
vt 0.193213 0.137509
vt 0.268808 0.068753
vt 0.193213 0.068753
vt 0.193213 0.014751
vt 0.268808 0.014751
vt 0.193213 0.758103
vt 0.193213 0.667643
vt 0.268808 0.667643
vt 0.268808 0.758103
vt 0.193213 0.927245
vt 0.193213 0.915186
vt 0.268808 0.915186
vt 0.268808 0.927245
vt 0.193213 0.786320
vt 0.268808 0.786320
vt 0.193213 0.861140
vt 0.193213 0.838125
vt 0.268808 0.838125
vt 0.268808 0.861140
vt 0.193213 0.899957
vt 0.268808 0.899957
vt 0.193213 0.813089
vt 0.268808 0.813089
vt 0.193213 0.881846
vt 0.268808 0.881846
vt 0.193213 0.935847
vt 0.268808 0.935847
vt 0.312238 0.641522
vt 0.312238 0.536086
vt 0.696926 0.536086
vt 0.696926 0.641522
vt 0.312238 0.378935
vt 0.312238 0.363701
vt 0.696926 0.363701
vt 0.696926 0.378935
vt 0.777812 0.385273
vt 0.803046 0.385273
vt 0.803046 0.769961
vt 0.777812 0.769961
vt 0.312238 0.397517
vt 0.696926 0.397516
vt 0.831160 0.385273
vt 0.831160 0.769961
vt 0.312238 0.419529
vt 0.696926 0.419529
vt 0.861748 0.385273
vt 0.861748 0.769961
vt 0.312238 0.444763
vt 0.696926 0.444763
vt 0.894369 0.385273
vt 0.894369 0.769961
vt 0.709345 0.385273
vt 0.721984 0.385273
vt 0.721984 0.769961
vt 0.709345 0.769961
vt 0.312238 0.472877
vt 0.696926 0.472877
vt 0.312238 0.351062
vt 0.696926 0.351062
vt 0.737218 0.385273
vt 0.737218 0.769961
vt 0.312238 0.503465
vt 0.696926 0.503465
vt 0.312238 0.339033
vt 0.696926 0.339033
vt 0.755799 0.385273
vt 0.755800 0.769961
vt 0.999805 0.385273
vt 0.999805 0.769961
vt 0.697316 0.769961
vt 0.697316 0.385273
vt 0.193191 0.000195
vt 0.193336 0.950404
s 1
usemtl HowToBook
f 10/1/1 13/2/1 22/3/1 21/4/1
f 2/5/1 3/6/1 14/7/1 11/8/1
f 9/9/1 10/1/1 21/4/1 20/10/1
f 6/11/1 7/12/1 18/13/1 17/14/1
f 3/6/1 4/15/1 15/16/1 14/7/1
f 7/12/1 8/17/1 19/18/1 18/13/1
f 4/15/1 5/19/1 16/20/1 15/16/1
f 1/21/1 2/5/1 11/8/1 12/22/1
f 8/17/1 9/9/1 20/10/1 19/18/1
f 5/19/1 6/11/1 17/14/1 16/20/1
f 32/23/2 43/24/2 44/25/2 35/26/2
f 24/27/2 33/28/2 36/29/2 25/30/2
f 31/31/2 42/32/2 43/24/2 32/23/2
f 28/33/2 39/34/2 40/35/2 29/36/2
f 25/30/2 36/29/2 37/37/2 26/38/2
f 29/36/2 40/35/2 41/39/2 30/40/2
f 26/38/2 37/37/2 38/41/2 27/42/2
f 23/43/2 34/44/2 33/28/2 24/27/2
f 30/40/2 41/39/2 42/32/2 31/31/2
f 27/42/2 38/41/2 39/34/2 28/33/2
f 22/45/3 44/46/3 43/47/4 21/48/4
f 15/49/5 37/50/5 36/51/6 14/52/6
f 6/53/7 28/54/7 29/55/8 7/56/8
f 13/2/9 35/26/9 44/25/9 22/3/9
f 16/57/10 38/58/10 37/50/5 15/49/5
f 7/56/8 29/55/8 30/59/11 8/60/11
f 17/61/12 39/62/12 38/58/10 16/57/10
f 8/60/11 30/59/11 31/63/13 9/64/13
f 18/65/14 40/66/14 39/62/12 17/61/12
f 9/64/13 31/63/13 32/67/15 10/68/15
f 2/69/16 24/70/16 25/71/17 3/72/17
f 19/73/18 41/74/18 40/66/14 18/65/14
f 14/52/6 36/51/6 33/75/19 11/76/19
f 3/72/17 25/71/17 26/77/20 4/78/20
f 20/79/21 42/80/21 41/74/18 19/73/18
f 11/76/19 33/75/19 34/81/22 12/82/22
f 4/78/20 26/77/20 27/83/23 5/84/23
f 21/48/4 43/47/4 42/80/21 20/79/21
f 10/68/15 32/67/15 35/85/24 13/86/24
f 5/84/23 27/83/23 28/54/7 6/53/7
f 2/69/16 1/87/25 23/88/25 24/70/16
f 45/89/26 46/90/26 12/82/27 34/81/27
f 1/21/1 12/22/1 46/91/1
f 23/43/2 45/92/2 34/44/2
f 55/93/1 66/94/1 67/95/1 58/96/1
f 47/97/1 56/98/1 59/99/1 48/100/1
f 54/101/1 65/102/1 66/94/1 55/93/1
f 51/103/1 62/104/1 63/105/1 52/106/1
f 48/100/1 59/99/1 60/107/1 49/108/1
f 52/106/1 63/105/1 64/109/1 53/110/1
f 49/108/1 60/107/1 61/111/1 50/112/1
f 1/113/1 57/114/1 56/98/1 47/97/1
f 53/110/1 64/109/1 65/102/1 54/101/1
f 50/112/1 61/111/1 62/104/1 51/103/1
f 76/115/2 79/116/2 88/117/2 87/118/2
f 68/119/2 69/120/2 80/121/2 77/122/2
f 75/123/2 76/115/2 87/118/2 86/124/2
f 72/125/2 73/126/2 84/127/2 83/128/2
f 69/120/2 70/129/2 81/130/2 80/121/2
f 73/126/2 74/131/2 85/132/2 84/127/2
f 70/129/2 71/133/2 82/134/2 81/130/2
f 23/135/2 68/119/2 77/122/2 78/136/2
f 74/131/2 75/123/2 86/124/2 85/132/2
f 71/133/2 72/125/2 83/128/2 82/134/2
f 67/137/28 66/138/29 87/139/29 88/140/28
f 60/141/30 59/142/31 80/143/31 81/144/30
f 51/145/32 52/146/33 73/147/33 72/148/32
f 58/96/34 67/95/34 88/117/34 79/116/34
f 61/149/35 60/141/30 81/144/30 82/150/35
f 52/146/33 53/151/36 74/152/36 73/147/33
f 62/153/37 61/149/35 82/150/35 83/154/37
f 53/151/36 54/155/38 75/156/38 74/152/36
f 63/157/39 62/153/37 83/154/37 84/158/39
f 54/155/38 55/159/40 76/160/40 75/156/38
f 47/161/41 48/162/42 69/163/42 68/164/41
f 64/165/43 63/157/39 84/158/39 85/166/43
f 59/142/31 56/167/44 77/168/44 80/143/31
f 48/162/42 49/169/45 70/170/45 69/163/42
f 65/171/46 64/165/43 85/166/43 86/172/46
f 56/167/44 57/173/47 78/174/47 77/168/44
f 49/169/45 50/175/48 71/176/48 70/170/45
f 66/138/29 65/171/46 86/172/46 87/139/29
f 55/159/40 58/177/49 79/178/49 76/160/40
f 50/175/48 51/145/32 72/148/32 71/176/48
f 47/161/41 68/164/41 23/179/50 1/180/50
f 45/89/26 78/174/51 57/173/51 46/90/26
f 1/113/1 46/181/1 57/114/1
f 23/135/2 78/136/2 45/182/2
