# Blender 4.2.0
# www.blender.org
mtllib HowToBook_tris.mtl
o HowToBook
v 0.000000 0.095346 -0.405990
v -0.006434 0.070784 -0.405990
v -0.024147 0.050835 -0.405990
v -0.052145 0.035021 -0.405991
v -0.089434 0.022865 -0.405991
v -0.135022 0.013890 -0.405991
v -0.187915 0.007618 -0.405991
v -0.247118 0.003571 -0.405991
v -0.311640 0.001271 -0.405991
v -0.380486 0.000242 -0.405991
v -0.044598 0.134364 -0.405990
v -0.038164 0.158926 -0.405990
v -0.603036 -0.000000 -0.405991
v -0.062311 0.114415 -0.405991
v -0.090309 0.098601 -0.405991
v -0.127599 0.086446 -0.405991
v -0.173186 0.077470 -0.405991
v -0.226079 0.071198 -0.405991
v -0.285283 0.067151 -0.405991
v -0.349805 0.064851 -0.405991
v -0.418651 0.063822 -0.405991
v -0.641201 0.063580 -0.405991
v -0.000000 0.095346 0.405990
v -0.006434 0.070784 0.405990
v -0.024147 0.050835 0.405990
v -0.052145 0.035021 0.405990
v -0.089434 0.022865 0.405990
v -0.135022 0.013890 0.405990
v -0.187915 0.007618 0.405990
v -0.247119 0.003571 0.405990
v -0.311640 0.001271 0.405990
v -0.380486 0.000242 0.405990
v -0.044599 0.134364 0.405990
v -0.038165 0.158926 0.405990
v -0.603036 0.000000 0.405990
v -0.062311 0.114415 0.405990
v -0.090309 0.098601 0.405990
v -0.127599 0.086446 0.405990
v -0.173187 0.077470 0.405990
v -0.226079 0.071198 0.405990
v -0.285283 0.067151 0.405990
v -0.349805 0.064851 0.405990
v -0.418651 0.063822 0.405990
v -0.641201 0.063580 0.405990
v -0.000000 0.155047 0.405990
v 0.000000 0.155047 -0.405990
v 0.006434 0.070784 -0.405990
v 0.024147 0.050835 -0.405990
v 0.052145 0.035021 -0.405990
v 0.089434 0.022865 -0.405990
v 0.135022 0.013890 -0.405990
v 0.187915 0.007618 -0.405990
v 0.247119 0.003571 -0.405990
v 0.311640 0.001271 -0.405990
v 0.380486 0.000242 -0.405990
v 0.044599 0.134364 -0.405990
v 0.038165 0.158926 -0.405990
v 0.603036 -0.000000 -0.405990
v 0.062311 0.114415 -0.405990
v 0.090309 0.098601 -0.405990
v 0.127599 0.086446 -0.405990
v 0.173187 0.077470 -0.405990
v 0.226079 0.071198 -0.405990
v 0.285283 0.067151 -0.405990
v 0.349805 0.064851 -0.405990
v 0.418651 0.063822 -0.405990
v 0.641201 0.063580 -0.405990
v 0.006434 0.070784 0.405990
v 0.024147 0.050835 0.405990
v 0.052145 0.035021 0.405991
v 0.089434 0.022865 0.405991
v 0.135022 0.013890 0.405991
v 0.187914 0.007618 0.405991
v 0.247118 0.003571 0.405991
v 0.311640 0.001271 0.405991
v 0.380486 0.000242 0.405991
v 0.044598 0.134364 0.405990
v 0.038164 0.158926 0.405990
v 0.603036 0.000000 0.405991
v 0.062311 0.114415 0.405991
v 0.090309 0.098601 0.405991
v 0.127599 0.086446 0.405991
v 0.173186 0.077470 0.405991
v 0.226079 0.071198 0.405991
v 0.285283 0.067151 0.405991
v 0.349805 0.064851 0.405991
v 0.418651 0.063822 0.405991
v 0.641201 0.063580 0.405991
vn -0.0000 -0.0000 -1.0000
vn -0.0000 -0.0000 1.0000
vn -0.0011 1.0000 -0.0000
vn -0.0080 1.0000 -0.0000
vn -0.4029 0.9153 -0.0000
vn -0.6283 0.7779 -0.0000
vn 0.1556 -0.9878 -0.0000
vn 0.0930 -0.9957 -0.0000
vn -0.8574 -0.5147 -0.0000
vn -0.2520 0.9677 -0.0000
vn 0.0519 -0.9987 -0.0000
vn -0.1556 0.9878 -0.0000
vn 0.0253 -0.9997 -0.0000
vn -0.0930 0.9957 -0.0000
vn 0.0080 -1.0000 -0.0000
vn 0.8818 -0.4716 -0.0000
vn 0.6283 -0.7779 -0.0000
vn -0.0519 0.9987 -0.0000
vn -0.6284 0.7779 -0.0000
vn -0.8818 0.4716 -0.0000
vn 0.4029 -0.9153 -0.0000
vn -0.0253 0.9997 -0.0000
vn -0.9674 0.2534 -0.0000
vn 0.2520 -0.9677 -0.0000
vn 0.0011 -1.0000 -0.0000
vn 0.9674 -0.2534 -0.0000
vn -0.0000 1.0000 -0.0000
vn 0.1011 0.9949 -0.0000
vn 0.0080 1.0000 -0.0000
vn 0.0011 1.0000 -0.0000
vn 0.6283 0.7779 -0.0000
vn 0.4029 0.9153 -0.0000
vn -0.0930 -0.9957 -0.0000
vn -0.1556 -0.9878 -0.0000
vn 0.8574 -0.5147 -0.0000
vn 0.2520 0.9677 -0.0000
vn -0.0519 -0.9987 -0.0000
vn 0.1556 0.9878 -0.0000
vn -0.0253 -0.9997 -0.0000
vn 0.0930 0.9957 -0.0000
vn -0.0080 -1.0000 -0.0000
vn -0.6283 -0.7779 -0.0000
vn -0.8818 -0.4716 -0.0000
vn 0.0519 0.9987 -0.0000
vn 0.8818 0.4716 -0.0000
vn 0.6284 0.7779 -0.0000
vn -0.4029 -0.9153 -0.0000
vn 0.0253 0.9997 -0.0000
vn 0.9674 0.2534 -0.0000
vn -0.2520 -0.9677 -0.0000
vn -0.0011 -1.0000 -0.0000
vn -0.9674 -0.2534 -0.0000
vn -0.1011 0.9949 -0.0000
vt 0.076952 0.667643
vt 0.147508 0.758103
vt 0.076952 0.758103
vt 0.076952 0.927245
vt 0.147508 0.915186
vt 0.147508 0.927245
vt 0.147508 0.786320
vt 0.076952 0.786320
vt 0.076952 0.838125
vt 0.147508 0.861140
vt 0.076952 0.861140
vt 0.076952 0.899957
vt 0.076952 0.915186
vt 0.076952 0.813089
vt 0.147508 0.838125
vt 0.076952 0.881846
vt 0.147508 0.899957
vt 0.076952 0.935847
vt 0.147508 0.935847
vt 0.147508 0.813089
vt 0.147508 0.881846
vt 0.147508 0.192495
vt 0.076952 0.282955
vt 0.076952 0.192495
vt 0.076952 0.023354
vt 0.147508 0.035413
vt 0.076952 0.035413
vt 0.147508 0.164279
vt 0.076952 0.164279
vt 0.147508 0.089459
vt 0.076952 0.112474
vt 0.076952 0.089459
vt 0.076952 0.050642
vt 0.147508 0.112474
vt 0.076952 0.137509
vt 0.147508 0.050642
vt 0.076952 0.068753
vt 0.076952 0.014751
vt 0.147508 0.023354
vt 0.147508 0.137509
vt 0.147508 0.068753
vt 0.696926 0.000195
vt 0.312238 0.105631
vt 0.312238 0.000195
vt 0.696926 0.262782
vt 0.312238 0.278016
vt 0.312238 0.262782
vt 0.919309 0.384883
vt 0.894074 0.000195
vt 0.919309 0.000195
vt 0.147508 0.667643
vt 0.696926 0.244200
vt 0.312238 0.244200
vt 0.894074 0.384883
vt 0.865960 0.000195
vt 0.696926 0.222188
vt 0.312238 0.222188
vt 0.865960 0.384883
vt 0.835373 0.000195
vt 0.696926 0.196954
vt 0.312238 0.196954
vt 0.835373 0.384883
vt 0.802752 0.000195
vt 0.987776 0.384883
vt 0.975137 0.000195
vt 0.987776 0.000195
vt 0.696926 0.168839
vt 0.312238 0.168839
vt 0.696926 0.278016
vt 0.312238 0.290655
vt 0.959903 0.384883
vt 0.959903 0.000195
vt 0.696926 0.138252
vt 0.312238 0.138252
vt 0.696926 0.290655
vt 0.312238 0.302684
vt 0.941321 0.000195
vt 0.696926 0.105631
vt 0.802752 0.384883
vt 0.697316 0.000195
vt 0.999805 0.000195
vt 0.312238 0.320858
vt 0.696926 0.302684
vt 0.696926 0.320858
vt 0.076952 0.950404
vt 0.076952 0.000195
vt 0.147508 0.014751
vt 0.268808 0.192496
vt 0.193213 0.282955
vt 0.193213 0.192496
vt 0.193213 0.023354
vt 0.268808 0.035413
vt 0.193213 0.035413
vt 0.268808 0.164279
vt 0.193213 0.164279
vt 0.268808 0.089459
vt 0.193213 0.112474
vt 0.193213 0.089459
vt 0.193213 0.050642
vt 0.268808 0.112474
vt 0.193213 0.137509
vt 0.268808 0.050642
vt 0.193213 0.068753
vt 0.193213 0.014751
vt 0.268808 0.023354
vt 0.268808 0.137509
vt 0.268808 0.068753
vt 0.193213 0.667643
vt 0.268808 0.758103
vt 0.193213 0.758103
vt 0.193213 0.927245
vt 0.268808 0.915186
vt 0.268808 0.927245
vt 0.268808 0.786320
vt 0.193213 0.786320
vt 0.193213 0.838125
vt 0.268808 0.861140
vt 0.193213 0.861140
vt 0.193213 0.899957
vt 0.193213 0.915186
vt 0.193213 0.813089
vt 0.268808 0.838125
vt 0.193213 0.881846
vt 0.268808 0.899957
vt 0.193213 0.935847
vt 0.268808 0.935847
vt 0.268808 0.813089
vt 0.268808 0.881846
vt 0.312238 0.536086
vt 0.696926 0.641522
vt 0.312238 0.641522
vt 0.312238 0.363701
vt 0.696926 0.378935
vt 0.312238 0.378935
vt 0.803046 0.385273
vt 0.777812 0.769961
vt 0.777812 0.385273
vt 0.268808 0.282955
vt 0.696926 0.397516
vt 0.312238 0.397517
vt 0.831160 0.385273
vt 0.803046 0.769961
vt 0.696926 0.419529
vt 0.312238 0.419529
vt 0.861748 0.385273
vt 0.831160 0.769961
vt 0.696926 0.444763
vt 0.312238 0.444763
vt 0.894369 0.385273
vt 0.861748 0.769961
vt 0.721984 0.385273
vt 0.709345 0.769961
vt 0.709345 0.385273
vt 0.696926 0.472877
vt 0.312238 0.472877
vt 0.312238 0.351062
vt 0.696926 0.363701
vt 0.737218 0.769961
vt 0.721984 0.769961
vt 0.696926 0.503465
vt 0.312238 0.503465
vt 0.312238 0.339033
vt 0.696926 0.351062
vt 0.755799 0.385273
vt 0.737218 0.385273
vt 0.696926 0.536086
vt 0.999805 0.385273
vt 0.894369 0.769961
vt 0.755800 0.769961
vt 0.697316 0.385273
vt 0.696926 0.339033
vt 0.193191 0.000195
vt 0.268808 0.014751
vt 0.193336 0.950404
vt 0.147508 0.282955
vt 0.975137 0.384883
vt 0.941321 0.384883
vt 0.697316 0.384883
vt 0.999805 0.384883
vt 0.268808 0.667643
vt 0.999805 0.769961
vt 0.697316 0.769961
s 1
usemtl HowToBook
f 13/1/1 21/2/1 10/3/1
f 2/4/1 14/5/1 11/6/1
f 10/3/1 20/7/1 9/8/1
f 7/9/1 17/10/1 6/11/1
f 4/12/1 14/5/1 3/13/1
f 8/14/1 18/15/1 7/9/1
f 5/16/1 15/17/1 4/12/1
f 1/18/1 11/6/1 12/19/1
f 9/8/1 19/20/1 8/14/1
f 6/11/1 16/21/1 5/16/1
f 43/22/2 35/23/2 32/24/2
f 24/25/2 36/26/2 25/27/2
f 42/28/2 32/24/2 31/29/2
f 39/30/2 29/31/2 28/32/2
f 36/26/2 26/33/2 25/27/2
f 40/34/2 30/35/2 29/31/2
f 37/36/2 27/37/2 26/33/2
f 23/38/2 33/39/2 24/25/2
f 41/40/2 31/29/2 30/35/2
f 38/41/2 28/32/2 27/37/2
f 44/42/3 21/43/4 22/44/3
f 37/45/5 14/46/6 15/47/5
f 28/48/7 7/49/8 6/50/7
f 35/23/9 22/51/9 13/1/9
f 38/52/10 15/47/5 16/53/10
f 29/54/8 8/55/11 7/49/8
f 39/56/12 16/53/10 17/57/12
f 30/58/11 9/59/13 8/55/11
f 40/60/14 17/57/12 18/61/14
f 31/62/13 10/63/15 9/59/13
f 24/64/16 3/65/17 2/66/16
f 41/67/18 18/61/14 19/68/18
f 36/69/19 11/70/20 14/46/6
f 3/65/17 26/71/21 4/72/21
f 42/73/22 19/68/18 20/74/22
f 33/75/20 12/76/23 11/70/20
f 26/71/21 5/77/24 4/72/21
f 43/78/4 20/74/22 21/43/4
f 32/79/15 13/80/25 10/63/15
f 5/77/24 28/48/7 6/50/7
f 1/81/26 24/64/16 2/66/16
f 46/82/27 34/83/28 45/84/27
f 1/18/1 12/19/1 46/85/1
f 23/38/2 45/86/2 34/87/2
f 66/88/1 58/89/1 55/90/1
f 47/91/1 59/92/1 48/93/1
f 65/94/1 55/90/1 54/95/1
f 62/96/1 52/97/1 51/98/1
f 59/92/1 49/99/1 48/93/1
f 63/100/1 53/101/1 52/97/1
f 60/102/1 50/103/1 49/99/1
f 1/104/1 56/105/1 47/91/1
f 64/106/1 54/95/1 53/101/1
f 61/107/1 51/98/1 50/103/1
f 79/108/2 87/109/2 76/110/2
f 68/111/2 80/112/2 77/113/2
f 76/110/2 86/114/2 75/115/2
f 73/116/2 83/117/2 72/118/2
f 70/119/2 80/112/2 69/120/2
f 74/121/2 84/122/2 73/116/2
f 71/123/2 81/124/2 70/119/2
f 23/125/2 77/113/2 78/126/2
f 75/115/2 85/127/2 74/121/2
f 72/118/2 82/128/2 71/123/2
f 66/129/29 88/130/30 67/131/30
f 59/132/31 81/133/32 60/134/32
f 52/135/33 72/136/34 51/137/34
f 67/138/35 79/108/35 58/89/35
f 60/134/32 82/139/36 61/140/36
f 53/141/37 73/142/33 52/135/33
f 61/140/36 83/143/38 62/144/38
f 54/145/39 74/146/37 53/141/37
f 62/144/38 84/147/40 63/148/40
f 55/149/41 75/150/39 54/145/39
f 48/151/42 68/152/43 47/153/43
f 63/148/40 85/154/44 64/155/44
f 56/156/45 80/157/46 59/132/31
f 48/151/42 70/158/47 69/159/42
f 64/155/44 86/160/48 65/161/48
f 57/162/49 77/163/45 56/156/45
f 50/164/50 70/158/47 49/165/47
f 65/161/48 87/166/29 66/129/29
f 58/167/51 76/168/41 55/149/41
f 50/164/50 72/136/34 71/169/50
f 68/152/43 1/170/52 47/153/43
f 78/171/53 46/82/27 45/84/27
f 1/104/1 46/172/1 57/173/1
f 23/125/2 78/126/2 45/174/2
f 13/1/1 22/51/1 21/2/1
f 2/4/1 3/13/1 14/5/1
f 10/3/1 21/2/1 20/7/1
f 7/9/1 18/15/1 17/10/1
f 4/12/1 15/17/1 14/5/1
f 8/14/1 19/20/1 18/15/1
f 5/16/1 16/21/1 15/17/1
f 1/18/1 2/4/1 11/6/1
f 9/8/1 20/7/1 19/20/1
f 6/11/1 17/10/1 16/21/1
f 43/22/2 44/175/2 35/23/2
f 24/25/2 33/39/2 36/26/2
f 42/28/2 43/22/2 32/24/2
f 39/30/2 40/34/2 29/31/2
f 36/26/2 37/36/2 26/33/2
f 40/34/2 41/40/2 30/35/2
f 37/36/2 38/41/2 27/37/2
f 23/38/2 34/87/2 33/39/2
f 41/40/2 42/28/2 31/29/2
f 38/41/2 39/30/2 28/32/2
f 44/42/3 43/78/4 21/43/4
f 37/45/5 36/69/19 14/46/6
f 28/48/7 29/54/8 7/49/8
f 35/23/9 44/175/9 22/51/9
f 38/52/10 37/45/5 15/47/5
f 29/54/8 30/58/11 8/55/11
f 39/56/12 38/52/10 16/53/10
f 30/58/11 31/62/13 9/59/13
f 40/60/14 39/56/12 17/57/12
f 31/62/13 32/79/15 10/63/15
f 24/64/16 25/176/17 3/65/17
f 41/67/18 40/60/14 18/61/14
f 36/69/19 33/75/20 11/70/20
f 3/65/17 25/176/17 26/71/21
f 42/73/22 41/67/18 19/68/18
f 33/75/20 34/83/23 12/76/23
f 26/71/21 27/177/24 5/77/24
f 43/78/4 42/73/22 20/74/22
f 32/79/15 35/178/25 13/80/25
f 5/77/24 27/177/24 28/48/7
f 1/81/26 23/179/26 24/64/16
f 46/82/27 12/76/28 34/83/28
f 66/88/1 67/138/1 58/89/1
f 47/91/1 56/105/1 59/92/1
f 65/94/1 66/88/1 55/90/1
f 62/96/1 63/100/1 52/97/1
f 59/92/1 60/102/1 49/99/1
f 63/100/1 64/106/1 53/101/1
f 60/102/1 61/107/1 50/103/1
f 1/104/1 57/173/1 56/105/1
f 64/106/1 65/94/1 54/95/1
f 61/107/1 62/96/1 51/98/1
f 79/108/2 88/180/2 87/109/2
f 68/111/2 69/120/2 80/112/2
f 76/110/2 87/109/2 86/114/2
f 73/116/2 84/122/2 83/117/2
f 70/119/2 81/124/2 80/112/2
f 74/121/2 85/127/2 84/122/2
f 71/123/2 82/128/2 81/124/2
f 23/125/2 68/111/2 77/113/2
f 75/115/2 86/114/2 85/127/2
f 72/118/2 83/117/2 82/128/2
f 66/129/29 87/166/29 88/130/30
f 59/132/31 80/157/46 81/133/32
f 52/135/33 73/142/33 72/136/34
f 67/138/35 88/180/35 79/108/35
f 60/134/32 81/133/32 82/139/36
f 53/141/37 74/146/37 73/142/33
f 61/140/36 82/139/36 83/143/38
f 54/145/39 75/150/39 74/146/37
f 62/144/38 83/143/38 84/147/40
f 55/149/41 76/168/41 75/150/39
f 48/151/42 69/159/42 68/152/43
f 63/148/40 84/147/40 85/154/44
f 56/156/45 77/163/45 80/157/46
f 48/151/42 49/165/47 70/158/47
f 64/155/44 85/154/44 86/160/48
f 57/162/49 78/171/49 77/163/45
f 50/164/50 71/169/50 70/158/47
f 65/161/48 86/160/48 87/166/29
f 58/167/51 79/181/51 76/168/41
f 50/164/50 51/137/34 72/136/34
f 68/152/43 23/182/52 1/170/52
f 78/171/53 57/162/53 46/82/27
