# 3ds Max Wavefront OBJ Exporter v0.97b - (c)2007 guruware
# File Created: 22.05.2023 19:14:28

mtllib Nail.mtl

#
# object Nail
#

v  -0.0677 -0.3624 0.1778
v  -0.0663 -0.3685 0.1684
v  -0.0677 -0.3770 0.1601
v  -0.0733 -0.3816 0.1517
v  -0.0825 -0.3820 0.1441
v  -0.0930 -0.3834 0.1400
v  -0.1032 -0.3882 0.1409
v  -0.1128 -0.3935 0.1456
v  -0.1221 -0.3933 0.1517
v  -0.1301 -0.3878 0.1585
v  -0.1349 -0.3826 0.1675
v  -0.1352 -0.3811 0.1787
v  -0.1318 -0.3806 0.1902
v  -0.1262 -0.3760 0.1985
v  -0.1190 -0.3676 0.2030
v  -0.1096 -0.3617 0.2053
v  -0.0983 -0.3614 0.2062
v  -0.0868 -0.3641 0.2046
v  -0.0775 -0.3642 0.1985
v  -0.0714 -0.3618 0.1886
v  -0.2627 0.4484 -0.1407
v  -0.2618 0.4446 -0.1511
v  -0.2642 0.4401 -0.1609
v  -0.2698 0.4355 -0.1693
v  -0.2780 0.4311 -0.1754
v  -0.2879 0.4275 -0.1786
v  -0.2987 0.4249 -0.1786
v  -0.3093 0.4236 -0.1754
v  -0.3185 0.4238 -0.1693
v  -0.3256 0.4254 -0.1609
v  -0.3298 0.4282 -0.1511
v  -0.3307 0.4321 -0.1407
v  -0.3283 0.4365 -0.1309
v  -0.3227 0.4412 -0.1225
v  -0.3145 0.4455 -0.1164
v  -0.3046 0.4492 -0.1132
v  -0.2938 0.4518 -0.1132
v  -0.2832 0.4531 -0.1164
v  -0.2740 0.4529 -0.1225
v  -0.2669 0.4513 -0.1309
v  -0.2468 0.4650 -0.1422
v  -0.2454 0.4590 -0.1582
v  -0.2492 0.4521 -0.1735
v  -0.2579 0.4449 -0.1865
v  -0.2705 0.4381 -0.1960
v  -0.2860 0.4325 -0.2009
v  -0.3027 0.4285 -0.2009
v  -0.3191 0.4265 -0.1960
v  -0.3334 0.4267 -0.1865
v  -0.3444 0.4292 -0.1735
v  -0.3510 0.4336 -0.1582
v  -0.3524 0.4396 -0.1422
v  -0.3486 0.4465 -0.1269
v  -0.3399 0.4537 -0.1139
v  -0.3272 0.4605 -0.1044
v  -0.3118 0.4661 -0.0995
v  -0.2951 0.4702 -0.0995
v  -0.2787 0.4721 -0.1044
v  -0.2643 0.4719 -0.1139
v  -0.2533 0.4694 -0.1269
v  -0.2196 0.4732 -0.1380
v  -0.2174 0.4641 -0.1624
v  -0.2232 0.4536 -0.1857
v  -0.2364 0.4426 -0.2055
v  -0.2557 0.4323 -0.2199
v  -0.2793 0.4237 -0.2274
v  -0.3047 0.4176 -0.2274
v  -0.3296 0.4146 -0.2199
v  -0.3515 0.4149 -0.2055
v  -0.3682 0.4187 -0.1857
v  -0.3782 0.4254 -0.1624
v  -0.3804 0.4345 -0.1380
v  -0.3746 0.4451 -0.1147
v  -0.3614 0.4560 -0.0949
v  -0.3420 0.4663 -0.0805
v  -0.3185 0.4749 -0.0730
v  -0.2930 0.4811 -0.0730
v  -0.2682 0.4841 -0.0805
v  -0.2463 0.4837 -0.0949
v  -0.2295 0.4799 -0.1147
v  -0.2211 0.4794 -0.1685
v  -0.2269 0.4689 -0.1917
v  -0.2594 0.4476 -0.2259
v  -0.2829 0.4390 -0.2334
v  -0.3084 0.4329 -0.2334
v  -0.3333 0.4298 -0.2259
v  -0.3719 0.4340 -0.1917
v  -0.3819 0.4407 -0.1684
v  -0.3650 0.4713 -0.1009
v  -0.3222 0.4902 -0.0790
v  -0.2967 0.4963 -0.0790
v  -0.2500 0.4990 -0.1009
v  -0.0691 -0.3876 0.1858
v  -0.0660 -0.3916 0.1736
v  -0.0633 -0.3953 0.1627
v  -0.0657 -0.3966 0.1608
v  -0.0770 -0.4000 0.1590
v  -0.0895 -0.4038 0.1571
v  -0.1020 -0.4075 0.1552
v  -0.1133 -0.4109 0.1534
v  -0.1166 -0.4113 0.1544
v  -0.1194 -0.4077 0.1654
v  -0.1225 -0.4036 0.1776
v  -0.1256 -0.3996 0.1898
v  -0.1284 -0.3960 0.2008
v  -0.1258 -0.3946 0.2027
v  -0.1145 -0.3912 0.2044
v  -0.1020 -0.3874 0.2063
v  -0.0895 -0.3836 0.2083
v  -0.0782 -0.3803 0.2100
v  -0.0750 -0.3799 0.2090
v  -0.0722 -0.3835 0.1980
v  -0.0766 -0.4638 0.2092
v  -0.0764 -0.4642 0.2083
v  -0.0762 -0.4644 0.2074
v  -0.0767 -0.4649 0.2066
v  -0.0776 -0.4651 0.2065
v  -0.0785 -0.4654 0.2063
v  -0.0795 -0.4657 0.2062
v  -0.0804 -0.4660 0.2061
v  -0.0813 -0.4660 0.2066
v  -0.0815 -0.4657 0.2075
v  -0.0817 -0.4654 0.2084
v  -0.0820 -0.4651 0.2094
v  -0.0822 -0.4648 0.2102
v  -0.0817 -0.4643 0.2110
v  -0.0808 -0.4641 0.2112
v  -0.0798 -0.4638 0.2113
v  -0.0788 -0.4635 0.2115
v  -0.0780 -0.4632 0.2116
v  -0.0771 -0.4633 0.2110
v  -0.0769 -0.4635 0.2102
v  -0.3119 0.4768 -0.1193
v  -0.3026 0.4646 -0.1562
v  -0.2932 0.4524 -0.1931
v  -0.3184 0.4455 -0.1952
v  -0.3276 0.4571 -0.1601
v  -0.3362 0.4688 -0.1248
v  -0.2868 0.4837 -0.1172
v  -0.2775 0.4721 -0.1523
v  -0.2689 0.4604 -0.1876
v  -0.2609 0.4895 -0.1182
v  -0.2518 0.4799 -0.1484
v  -0.2455 0.4694 -0.1790
v  -0.3442 0.4397 -0.1942
v  -0.3533 0.4493 -0.1640
v  -0.3597 0.4598 -0.1334
v  -0.2233 0.4885 -0.1440
v  -0.2401 0.4579 -0.2115
v  -0.3552 0.4302 -0.2115
v  -0.3840 0.4498 -0.1440
v  -0.3782 0.4604 -0.1207
v  -0.3457 0.4816 -0.0865
v  -0.2718 0.4994 -0.0866
v  -0.2332 0.4952 -0.1207
# 155 vertices

vn 0.9669 0.1800 0.1807
vn 0.9919 0.1148 -0.0548
vn 0.9491 -0.3101 0.0556
vn 0.9266 -0.2166 0.3073
vn 0.9919 0.1148 -0.0548
vn 0.8888 0.1049 -0.4461
vn 0.8895 -0.4184 -0.1837
vn 0.9491 -0.3101 0.0556
vn 0.8888 0.1049 -0.4461
vn 0.7276 -0.0594 -0.6834
vn 0.7537 -0.5310 -0.3872
vn 0.8895 -0.4184 -0.1837
vn 0.7276 -0.0594 -0.6834
vn 0.4877 -0.3224 -0.8113
vn 0.5550 -0.6369 -0.5351
vn 0.7537 -0.5310 -0.3872
vn 0.4877 -0.3224 -0.8113
vn 0.2577 -0.4262 -0.8671
vn 0.3129 -0.7257 -0.6128
vn 0.5550 -0.6369 -0.5351
vn 0.2577 -0.4262 -0.8671
vn 0.0222 -0.4733 -0.8806
vn 0.0510 -0.7886 -0.6128
vn 0.3129 -0.7257 -0.6128
vn 0.0222 -0.4733 -0.8806
vn -0.3623 -0.3940 -0.8447
vn -0.2050 -0.8196 -0.5350
vn 0.0510 -0.7886 -0.6128
vn -0.3623 -0.3940 -0.8447
vn -0.6309 -0.3613 -0.6866
vn -0.4301 -0.8156 -0.3871
vn -0.2050 -0.8196 -0.5350
vn -0.6309 -0.3613 -0.6866
vn -0.8343 -0.4237 -0.3526
vn -0.6022 -0.7770 -0.1835
vn -0.4301 -0.8156 -0.3871
vn -0.8343 -0.4237 -0.3526
vn -0.9188 -0.3815 -0.1015
vn -0.7044 -0.7076 0.0558
vn -0.6022 -0.7770 -0.1835
vn -0.9188 -0.3815 -0.1015
vn -0.9523 -0.2803 0.1205
vn -0.7269 -0.6141 0.3074
vn -0.7044 -0.7076 0.0558
vn -0.9523 -0.2803 0.1205
vn -0.9154 0.0092 0.4025
vn -0.6673 -0.5058 0.5467
vn -0.7269 -0.6141 0.3074
vn -0.9154 0.0092 0.4025
vn -0.7405 0.1165 0.6619
vn -0.5315 -0.3932 0.7503
vn -0.6673 -0.5058 0.5467
vn -0.7405 0.1165 0.6619
vn -0.4396 0.1226 0.8898
vn -0.3328 -0.2873 0.8982
vn -0.5315 -0.3932 0.7503
vn -0.4396 0.1226 0.8898
vn -0.1992 0.1826 0.9628
vn -0.0907 -0.1986 0.9759
vn -0.3328 -0.2873 0.8982
vn -0.1992 0.1826 0.9628
vn 0.0304 0.2542 0.9667
vn 0.1712 -0.1356 0.9759
vn -0.0907 -0.1986 0.9759
vn 0.0304 0.2542 0.9667
vn 0.3524 0.4350 0.8286
vn 0.4272 -0.1046 0.8981
vn 0.1712 -0.1356 0.9759
vn 0.3524 0.4350 0.8286
vn 0.6095 0.4576 0.6474
vn 0.6523 -0.1086 0.7502
vn 0.4272 -0.1046 0.8981
vn 0.6095 0.4576 0.6474
vn 0.8688 0.2808 0.4079
vn 0.8244 -0.1472 0.5466
vn 0.6523 -0.1086 0.7502
vn 0.8688 0.2808 0.4079
vn 0.9669 0.1800 0.1807
vn 0.9266 -0.2166 0.3073
vn 0.8244 -0.1472 0.5466
vn 0.9266 -0.2166 0.3073
vn 0.9491 -0.3101 0.0556
vn 0.6976 -0.6797 0.2266
vn 0.6839 -0.6227 0.3803
vn 0.9491 -0.3101 0.0556
vn 0.8895 -0.4184 -0.1837
vn 0.6612 -0.7459 0.0805
vn 0.6976 -0.6797 0.2266
vn 0.8895 -0.4184 -0.1837
vn 0.7537 -0.5310 -0.3872
vn 0.5782 -0.8147 -0.0439
vn 0.6612 -0.7459 0.0805
vn 0.7537 -0.5310 -0.3872
vn 0.5550 -0.6369 -0.5351
vn 0.4569 -0.8793 -0.1342
vn 0.5782 -0.8147 -0.0439
vn 0.5550 -0.6369 -0.5351
vn 0.3129 -0.7257 -0.6128
vn 0.3090 -0.9336 -0.1816
vn 0.4569 -0.8793 -0.1342
vn 0.3129 -0.7257 -0.6128
vn 0.0510 -0.7886 -0.6128
vn 0.1490 -0.9720 -0.1816
vn 0.3090 -0.9336 -0.1816
vn 0.0510 -0.7886 -0.6128
vn -0.2050 -0.8196 -0.5350
vn -0.0073 -0.9909 -0.1341
vn 0.1490 -0.9720 -0.1816
vn -0.2050 -0.8196 -0.5350
vn -0.4301 -0.8156 -0.3871
vn -0.1448 -0.9885 -0.0438
vn -0.0073 -0.9909 -0.1341
vn -0.4301 -0.8156 -0.3871
vn -0.6022 -0.7770 -0.1835
vn -0.2499 -0.9649 0.0806
vn -0.1448 -0.9885 -0.0438
vn -0.6022 -0.7770 -0.1835
vn -0.7044 -0.7076 0.0558
vn -0.3124 -0.9225 0.2267
vn -0.2499 -0.9649 0.0806
vn -0.7044 -0.7076 0.0558
vn -0.7269 -0.6141 0.3074
vn -0.3261 -0.8654 0.3804
vn -0.3124 -0.9225 0.2267
vn -0.7269 -0.6141 0.3074
vn -0.6673 -0.5058 0.5467
vn -0.2897 -0.7993 0.5266
vn -0.3261 -0.8654 0.3804
vn -0.6673 -0.5058 0.5467
vn -0.5315 -0.3932 0.7503
vn -0.2067 -0.7305 0.6509
vn -0.2897 -0.7993 0.5266
vn -0.5315 -0.3932 0.7503
vn -0.3328 -0.2873 0.8982
vn -0.0854 -0.6658 0.7412
vn -0.2067 -0.7305 0.6509
vn -0.3328 -0.2873 0.8982
vn -0.0907 -0.1986 0.9759
vn 0.0625 -0.6116 0.7887
vn -0.0854 -0.6658 0.7412
vn -0.0907 -0.1986 0.9759
vn 0.1712 -0.1356 0.9759
vn 0.2225 -0.5732 0.7887
vn 0.0625 -0.6116 0.7887
vn 0.1712 -0.1356 0.9759
vn 0.4272 -0.1046 0.8981
vn 0.3788 -0.5542 0.7412
vn 0.2225 -0.5732 0.7887
vn 0.4272 -0.1046 0.8981
vn 0.6523 -0.1086 0.7502
vn 0.5163 -0.5567 0.6508
vn 0.3788 -0.5542 0.7412
vn 0.6523 -0.1086 0.7502
vn 0.8244 -0.1472 0.5466
vn 0.6214 -0.5802 0.5265
vn 0.5163 -0.5567 0.6508
vn 0.8244 -0.1472 0.5466
vn 0.9266 -0.2166 0.3073
vn 0.6839 -0.6227 0.3803
vn 0.6214 -0.5802 0.5265
vn 0.2184 -0.9083 0.3568
vn 0.2184 -0.9083 0.3568
vn 0.2184 -0.9083 0.3568
vn 0.2184 -0.9083 0.3568
vn 0.2184 -0.9083 0.3568
vn 0.2184 -0.9083 0.3568
vn 0.2184 -0.9083 0.3568
vn 0.2184 -0.9083 0.3568
vn 0.2184 -0.9083 0.3568
vn 0.2184 -0.9083 0.3568
vn 0.2184 -0.9083 0.3568
vn 0.2184 -0.9083 0.3568
vn 0.2184 -0.9083 0.3568
vn 0.2184 -0.9083 0.3568
vn 0.2184 -0.9083 0.3568
vn 0.2184 -0.9083 0.3568
vn 0.2184 -0.9083 0.3568
vn 0.2184 -0.9083 0.3568
vn 0.2184 -0.9083 0.3568
vn 0.2184 -0.9083 0.3568
vn 0.2184 -0.9083 0.3568
vn 0.2184 -0.9083 0.3568
vn 0.2184 -0.9083 0.3568
vn 0.2184 -0.9083 0.3568
vn 0.2184 -0.9083 0.3568
vn 0.2184 -0.9083 0.3568
vn 0.2184 -0.9083 0.3568
vn 0.2184 -0.9083 0.3568
vn 0.2184 -0.9083 0.3568
vn 0.2184 -0.9083 0.3568
vn 0.2184 -0.9083 0.3568
vn 0.2184 -0.9083 0.3568
vn 0.2184 -0.9083 0.3568
vn 0.2184 -0.9083 0.3568
vn 0.2184 -0.9083 0.3568
vn 0.2184 -0.9083 0.3568
vn 0.2184 -0.9083 0.3568
vn 0.2184 -0.9083 0.3568
vn 0.2184 -0.9083 0.3568
vn 0.2184 -0.9083 0.3568
vn 0.2184 -0.9083 0.3568
vn 0.2184 -0.9083 0.3568
vn 0.2184 -0.9083 0.3568
vn 0.2184 -0.9083 0.3568
vn 0.2184 -0.9083 0.3568
vn 0.2184 -0.9083 0.3568
vn 0.2184 -0.9083 0.3568
vn 0.2184 -0.9083 0.3568
vn 0.2184 -0.9083 0.3568
vn 0.2184 -0.9083 0.3568
vn 0.2184 -0.9083 0.3568
vn 0.2184 -0.9083 0.3568
vn 0.2184 -0.9083 0.3568
vn 0.2184 -0.9083 0.3568
vn 0.2184 -0.9083 0.3568
vn 0.2184 -0.9083 0.3568
vn 0.2184 -0.9083 0.3568
vn 0.2184 -0.9083 0.3568
vn 0.2184 -0.9083 0.3568
vn 0.2184 -0.9083 0.3568
vn 0.2184 -0.9083 0.3568
vn 0.2184 -0.9083 0.3568
vn 0.2184 -0.9083 0.3568
vn 0.2184 -0.9083 0.3568
vn 0.2184 -0.9083 0.3568
vn 0.2184 -0.9083 0.3568
vn 0.2184 -0.9083 0.3568
vn 0.2184 -0.9083 0.3568
vn 0.2184 -0.9083 0.3568
vn 0.2184 -0.9083 0.3568
vn 0.2184 -0.9083 0.3568
vn 0.2184 -0.9083 0.3568
vn 0.2184 -0.9083 0.3568
vn 0.2184 -0.9083 0.3568
vn 0.2184 -0.9083 0.3568
vn 0.2184 -0.9083 0.3568
vn 0.2184 -0.9083 0.3568
vn 0.2184 -0.9083 0.3568
vn 0.2184 -0.9083 0.3568
vn 0.2184 -0.9083 0.3568
vn 0.9473 0.2851 0.1460
vn 0.9734 0.1766 -0.1462
vn 0.9734 0.1766 -0.1462
vn 0.9473 0.2851 0.1460
vn 0.9734 0.1766 -0.1462
vn 0.9041 0.0507 -0.4242
vn 0.9041 0.0507 -0.4242
vn 0.9734 0.1766 -0.1462
vn 0.9041 0.0507 -0.4242
vn 0.7464 -0.0801 -0.6606
vn 0.7464 -0.0801 -0.6606
vn 0.9041 0.0507 -0.4242
vn 0.7464 -0.0801 -0.6606
vn 0.5156 -0.2030 -0.8324
vn 0.5156 -0.2030 -0.8324
vn 0.7464 -0.0801 -0.6606
vn 0.5156 -0.2030 -0.8324
vn 0.2344 -0.3061 -0.9227
vn 0.2344 -0.3061 -0.9227
vn 0.5156 -0.2030 -0.8324
vn 0.2344 -0.3061 -0.9227
vn -0.0698 -0.3793 -0.9227
vn -0.0698 -0.3793 -0.9227
vn 0.2344 -0.3061 -0.9227
vn -0.0698 -0.3793 -0.9227
vn -0.3672 -0.4153 -0.8323
vn -0.3672 -0.4153 -0.8323
vn -0.0698 -0.3793 -0.9227
vn -0.3672 -0.4153 -0.8323
vn -0.6286 -0.4106 -0.6605
vn -0.6286 -0.4106 -0.6605
vn -0.3672 -0.4153 -0.8323
vn -0.6286 -0.4106 -0.6605
vn -0.8285 -0.3658 -0.4240
vn -0.8285 -0.3658 -0.4240
vn -0.6286 -0.4106 -0.6605
vn -0.8285 -0.3658 -0.4240
vn -0.9473 -0.2851 -0.1460
vn -0.9473 -0.2851 -0.1460
vn -0.8285 -0.3658 -0.4240
vn -0.9473 -0.2851 -0.1460
vn -0.9734 -0.1766 0.1462
vn -0.9734 -0.1766 0.1462
vn -0.9473 -0.2851 -0.1460
vn -0.9734 -0.1766 0.1462
vn -0.9041 -0.0507 0.4242
vn -0.9041 -0.0507 0.4242
vn -0.9734 -0.1766 0.1462
vn -0.9041 -0.0507 0.4242
vn -0.7464 0.0801 0.6606
vn -0.7464 0.0801 0.6606
vn -0.9041 -0.0507 0.4242
vn -0.7464 0.0801 0.6606
vn -0.5156 0.2030 0.8324
vn -0.5156 0.2030 0.8324
vn -0.7464 0.0801 0.6606
vn -0.5156 0.2030 0.8324
vn -0.2344 0.3061 0.9227
vn -0.2344 0.3061 0.9227
vn -0.5156 0.2030 0.8324
vn -0.2344 0.3061 0.9227
vn 0.0698 0.3793 0.9227
vn 0.0698 0.3793 0.9227
vn -0.2344 0.3061 0.9227
vn 0.0698 0.3793 0.9227
vn 0.3672 0.4153 0.8323
vn 0.3672 0.4153 0.8323
vn 0.0698 0.3793 0.9227
vn 0.3672 0.4153 0.8323
vn 0.6286 0.4106 0.6605
vn 0.6286 0.4106 0.6605
vn 0.3672 0.4153 0.8323
vn 0.6286 0.4106 0.6605
vn 0.8285 0.3658 0.4240
vn 0.8285 0.3658 0.4240
vn 0.6286 0.4106 0.6605
vn 0.8285 0.3658 0.4240
vn 0.9473 0.2851 0.1460
vn 0.9473 0.2851 0.1460
vn 0.8285 0.3658 0.4240
vn 0.9919 0.1148 -0.0548
vn 0.9669 0.1800 0.1807
vn 0.9713 0.0071 0.2378
vn 0.9707 0.0214 0.2395
vn 0.8888 0.1049 -0.4461
vn 0.9919 0.1148 -0.0548
vn 0.9707 0.0214 0.2395
vn 0.9428 -0.1301 -0.3071
vn 0.7276 -0.0594 -0.6834
vn 0.8888 0.1049 -0.4461
vn 0.9428 -0.1301 -0.3071
vn 0.5471 -0.4021 -0.7342
vn 0.4877 -0.3224 -0.8113
vn 0.7276 -0.0594 -0.6834
vn 0.5471 -0.4021 -0.7342
vn 0.2941 -0.5649 -0.7710
vn 0.2577 -0.4262 -0.8671
vn 0.4877 -0.3224 -0.8113
vn 0.2941 -0.5649 -0.7710
vn 0.2853 -0.5718 -0.7692
vn 0.0222 -0.4733 -0.8806
vn 0.2577 -0.4262 -0.8671
vn 0.2853 -0.5718 -0.7692
vn 0.2886 -0.5620 -0.7752
vn -0.3623 -0.3940 -0.8447
vn 0.0222 -0.4733 -0.8806
vn 0.2886 -0.5620 -0.7752
vn -0.0403 -0.5376 -0.8422
vn -0.6309 -0.3613 -0.6866
vn -0.3623 -0.3940 -0.8447
vn -0.0403 -0.5376 -0.8422
vn -0.5815 -0.5607 -0.5895
vn -0.8343 -0.4237 -0.3526
vn -0.6309 -0.3613 -0.6866
vn -0.5815 -0.5607 -0.5895
vn -0.8459 -0.5314 -0.0452
vn -0.9188 -0.3815 -0.1015
vn -0.8343 -0.4237 -0.3526
vn -0.8459 -0.5314 -0.0452
vn -0.8457 -0.5328 -0.0313
vn -0.9523 -0.2803 0.1205
vn -0.9188 -0.3815 -0.1015
vn -0.8457 -0.5328 -0.0313
vn -0.8506 -0.5241 -0.0422
vn -0.9154 0.0092 0.4025
vn -0.9523 -0.2803 0.1205
vn -0.8506 -0.5241 -0.0422
vn -0.8457 -0.2550 0.4688
vn -0.7405 0.1165 0.6619
vn -0.9154 0.0092 0.4025
vn -0.8457 -0.2550 0.4688
vn -0.4369 0.0017 0.8995
vn -0.4396 0.1226 0.8898
vn -0.7405 0.1165 0.6619
vn -0.4369 0.0017 0.8995
vn -0.1621 0.0157 0.9867
vn -0.1992 0.1826 0.9628
vn -0.4396 0.1226 0.8898
vn -0.1621 0.0157 0.9867
vn -0.1511 0.0135 0.9884
vn 0.0304 0.2542 0.9667
vn -0.1992 0.1826 0.9628
vn -0.1511 0.0135 0.9884
vn -0.1589 0.0225 0.9870
vn 0.3524 0.4350 0.8286
vn 0.0304 0.2542 0.9667
vn -0.1589 0.0225 0.9870
vn 0.1276 0.2119 0.9689
vn 0.6095 0.4576 0.6474
vn 0.3524 0.4350 0.8286
vn 0.1276 0.2119 0.9689
vn 0.6634 0.2446 0.7072
vn 0.8688 0.2808 0.4079
vn 0.6095 0.4576 0.6474
vn 0.6634 0.2446 0.7072
vn 0.9689 0.0169 0.2470
vn 0.9669 0.1800 0.1807
vn 0.8688 0.2808 0.4079
vn 0.9689 0.0169 0.2470
vn 0.9713 0.0071 0.2378
vn 0.9707 0.0214 0.2395
vn 0.9713 0.0071 0.2378
vn 0.9676 -0.0180 0.2518
vn 0.9676 -0.0180 0.2518
vn 0.9428 -0.1301 -0.3071
vn 0.9707 0.0214 0.2395
vn 0.9676 -0.0180 0.2518
vn 0.9799 -0.1968 -0.0312
vn 0.5471 -0.4021 -0.7342
vn 0.9428 -0.1301 -0.3071
vn 0.9799 -0.1968 -0.0312
vn 0.5919 -0.5129 -0.6218
vn 0.2941 -0.5649 -0.7710
vn 0.5471 -0.4021 -0.7342
vn 0.5919 -0.5129 -0.6218
vn 0.2893 -0.5654 -0.7724
vn 0.2853 -0.5718 -0.7692
vn 0.2941 -0.5649 -0.7710
vn 0.2893 -0.5654 -0.7724
vn 0.2893 -0.5654 -0.7724
vn 0.2886 -0.5620 -0.7752
vn 0.2853 -0.5718 -0.7692
vn 0.2893 -0.5654 -0.7724
vn 0.2893 -0.5654 -0.7724
vn -0.0403 -0.5376 -0.8422
vn 0.2886 -0.5620 -0.7752
vn 0.2893 -0.5654 -0.7724
vn -0.0121 -0.6991 -0.7150
vn -0.5815 -0.5607 -0.5895
vn -0.0403 -0.5376 -0.8422
vn -0.0121 -0.6991 -0.7150
vn -0.6604 -0.6960 -0.2817
vn -0.8459 -0.5314 -0.0452
vn -0.5815 -0.5607 -0.5895
vn -0.6604 -0.6960 -0.2817
vn -0.8285 -0.5595 -0.0248
vn -0.8457 -0.5328 -0.0313
vn -0.8459 -0.5314 -0.0452
vn -0.8285 -0.5595 -0.0248
vn -0.8285 -0.5595 -0.0248
vn -0.8506 -0.5241 -0.0422
vn -0.8457 -0.5328 -0.0313
vn -0.8285 -0.5595 -0.0248
vn -0.8285 -0.5595 -0.0248
vn -0.8457 -0.2550 0.4688
vn -0.8506 -0.5241 -0.0422
vn -0.8285 -0.5595 -0.0248
vn -0.8121 -0.4953 0.3086
vn -0.4369 0.0017 0.8995
vn -0.8457 -0.2550 0.4688
vn -0.8121 -0.4953 0.3086
vn -0.4258 -0.1625 0.8901
vn -0.1621 0.0157 0.9867
vn -0.4369 0.0017 0.8995
vn -0.4258 -0.1625 0.8901
vn -0.1578 0.0185 0.9873
vn -0.1511 0.0135 0.9884
vn -0.1621 0.0157 0.9867
vn -0.1578 0.0185 0.9873
vn -0.1578 0.0185 0.9873
vn -0.1589 0.0225 0.9870
vn -0.1511 0.0135 0.9884
vn -0.1578 0.0185 0.9873
vn -0.1578 0.0185 0.9873
vn 0.1276 0.2119 0.9689
vn -0.1589 0.0225 0.9870
vn -0.1578 0.0185 0.9873
vn 0.1807 0.0141 0.9834
vn 0.6634 0.2446 0.7072
vn 0.1276 0.2119 0.9689
vn 0.1807 0.0141 0.9834
vn 0.8320 -0.0072 0.5547
vn 0.9689 0.0169 0.2470
vn 0.6634 0.2446 0.7072
vn 0.8320 -0.0072 0.5547
vn 0.9676 -0.0180 0.2518
vn 0.9713 0.0071 0.2378
vn 0.9689 0.0169 0.2470
vn 0.9676 -0.0180 0.2518
vn 0.9676 -0.0180 0.2518
vn 0.2184 -0.9083 0.3568
vn 0.2184 -0.9083 0.3568
vn 0.2184 -0.9083 0.3568
vn 0.2184 -0.9083 0.3568
vn 0.2184 -0.9083 0.3568
vn 0.2184 -0.9083 0.3568
vn 0.2184 -0.9083 0.3568
vn 0.2184 -0.9083 0.3568
vn 0.2184 -0.9083 0.3568
vn 0.2184 -0.9083 0.3568
vn 0.2184 -0.9083 0.3568
vn 0.2184 -0.9083 0.3568
vn 0.2184 -0.9083 0.3568
vn 0.2184 -0.9083 0.3568
vn 0.2184 -0.9083 0.3568
vn 0.2184 -0.9083 0.3568
vn 0.2184 -0.9083 0.3568
vn 0.2184 -0.9083 0.3568
vn 0.2184 -0.9083 0.3568
vn 0.2184 -0.9083 0.3568
vn 0.2184 -0.9083 0.3568
vn 0.2184 -0.9083 0.3568
vn 0.2184 -0.9083 0.3568
vn 0.2184 -0.9083 0.3568
vn 0.2184 -0.9083 0.3568
vn 0.2184 -0.9083 0.3568
vn 0.2184 -0.9083 0.3568
vn 0.2184 -0.9083 0.3568
vn 0.2184 -0.9083 0.3568
vn 0.2184 -0.9083 0.3568
vn 0.2184 -0.9083 0.3568
vn 0.2184 -0.9083 0.3568
vn 0.2184 -0.9083 0.3568
vn 0.2184 -0.9083 0.3568
vn 0.2184 -0.9083 0.3568
vn 0.2184 -0.9083 0.3568
vn -0.2184 0.9083 -0.3568
vn -0.2184 0.9083 -0.3568
vn -0.2184 0.9083 -0.3568
vn -0.2184 0.9083 -0.3568
vn -0.2184 0.9083 -0.3568
vn -0.2184 0.9083 -0.3568
vn -0.2184 0.9083 -0.3568
vn -0.2184 0.9083 -0.3568
vn -0.2184 0.9083 -0.3568
vn -0.2184 0.9083 -0.3568
vn -0.2184 0.9083 -0.3568
vn -0.2184 0.9083 -0.3568
vn -0.2184 0.9083 -0.3568
vn -0.2184 0.9083 -0.3568
vn -0.2184 0.9083 -0.3568
vn -0.2184 0.9083 -0.3568
vn -0.2184 0.9083 -0.3568
vn -0.2184 0.9083 -0.3568
vn -0.2184 0.9083 -0.3568
vn -0.2184 0.9083 -0.3568
vn -0.2184 0.9083 -0.3568
vn -0.2184 0.9083 -0.3568
vn -0.2184 0.9083 -0.3568
vn -0.2184 0.9083 -0.3568
vn -0.2184 0.9083 -0.3568
vn -0.2184 0.9083 -0.3568
vn -0.2184 0.9083 -0.3568
vn -0.2184 0.9083 -0.3568
vn -0.2184 0.9083 -0.3568
vn -0.2184 0.9083 -0.3568
vn -0.2184 0.9083 -0.3568
vn -0.2184 0.9083 -0.3568
vn -0.2184 0.9083 -0.3568
vn -0.2184 0.9083 -0.3568
vn -0.2184 0.9083 -0.3568
vn -0.2184 0.9083 -0.3568
vn -0.2184 0.9083 -0.3568
vn -0.2184 0.9083 -0.3568
vn -0.2184 0.9083 -0.3568
vn -0.2184 0.9083 -0.3568
vn -0.2184 0.9083 -0.3568
vn -0.2184 0.9083 -0.3568
vn -0.2184 0.9083 -0.3568
vn -0.2184 0.9083 -0.3568
vn -0.2184 0.9083 -0.3568
vn -0.2184 0.9083 -0.3568
vn -0.2184 0.9083 -0.3568
vn -0.2184 0.9083 -0.3568
vn -0.2184 0.9083 -0.3568
vn -0.2184 0.9083 -0.3568
vn -0.2184 0.9083 -0.3568
vn -0.2184 0.9083 -0.3568
vn -0.2184 0.9083 -0.3568
vn -0.2184 0.9083 -0.3568
vn -0.2184 0.9083 -0.3568
vn -0.2184 0.9083 -0.3568
vn -0.2184 0.9083 -0.3568
vn -0.2184 0.9083 -0.3568
vn -0.2184 0.9083 -0.3568
vn -0.2184 0.9083 -0.3568
vn -0.2184 0.9083 -0.3568
vn -0.2184 0.9083 -0.3568
vn -0.2184 0.9083 -0.3568
vn -0.2184 0.9083 -0.3568
vn -0.2184 0.9083 -0.3568
vn -0.2184 0.9083 -0.3568
vn -0.2184 0.9083 -0.3568
vn -0.2184 0.9083 -0.3568
vn -0.2184 0.9083 -0.3568
vn -0.2184 0.9083 -0.3568
vn -0.2184 0.9083 -0.3568
vn -0.2184 0.9083 -0.3568
vn -0.2184 0.9083 -0.3568
vn -0.2184 0.9083 -0.3568
vn -0.2184 0.9083 -0.3568
vn -0.2184 0.9083 -0.3568
vn -0.2184 0.9083 -0.3568
vn -0.2184 0.9083 -0.3568
vn -0.2184 0.9083 -0.3568
vn -0.2184 0.9083 -0.3568
vn -0.2184 0.9083 -0.3568
vn -0.2184 0.9083 -0.3568
vn -0.2184 0.9083 -0.3568
vn -0.2184 0.9083 -0.3568
vn -0.2184 0.9083 -0.3568
vn -0.2184 0.9083 -0.3568
vn -0.2184 0.9083 -0.3568
vn -0.2184 0.9083 -0.3568
vn -0.2184 0.9083 -0.3568
vn -0.2184 0.9083 -0.3568
vn -0.2184 0.9083 -0.3568
vn -0.2184 0.9083 -0.3568
vn -0.2184 0.9083 -0.3568
vn -0.2184 0.9083 -0.3568
vn -0.2184 0.9083 -0.3568
vn -0.2184 0.9083 -0.3568
# 612 vertex normals

vt 0.1106 0.1104 0.0000
vt 0.1209 0.1075 0.0000
vt 0.1209 0.9925 0.0000
vt 0.1106 0.9929 0.0000
vt 0.1311 0.1025 0.0000
vt 0.1312 0.9918 0.0000
vt 0.1417 0.1015 0.0000
vt 0.1415 0.9908 0.0000
vt 0.1522 0.1044 0.0000
vt 0.1518 0.9893 0.0000
vt 0.1624 0.1050 0.0000
vt 0.1621 0.9875 0.0000
vt 0.1721 0.1004 0.0000
vt 0.1723 0.9854 0.0000
vt 0.1815 0.0937 0.0000
vt 0.1824 0.9830 0.0000
vt 0.1920 0.0909 0.0000
vt 0.1925 0.9803 0.0000
vt 0.2029 0.0921 0.0000
vt 0.2029 0.9777 0.0000
vt 0.3339 0.6654 0.0000
vt 0.3232 0.6670 0.0000
vt 0.3166 0.6450 0.0000
vt 0.3339 0.6425 0.0000
vt 0.3134 0.6716 0.0000
vt 0.3008 0.6524 0.0000
vt 0.3054 0.6787 0.0000
vt 0.2878 0.6641 0.0000
vt 0.2998 0.6879 0.0000
vt 0.2787 0.6790 0.0000
vt 0.2971 0.6983 0.0000
vt 0.2743 0.6959 0.0000
vt 0.2975 0.7091 0.0000
vt 0.2750 0.7133 0.0000
vt 0.3010 0.7193 0.0000
vt 0.2807 0.7298 0.0000
vt 0.3073 0.7280 0.0000
vt 0.2909 0.7440 0.0000
vt 0.3160 0.7345 0.0000
vt 0.3047 0.7545 0.0000
vt 0.2136 0.0919 0.0000
vt 0.3262 0.7384 0.0000
vt 0.3208 0.7606 0.0000
vt 0.3516 0.7345 0.0000
vt 0.3628 0.7546 0.0000
vt 0.3602 0.7280 0.0000
vt 0.3767 0.7441 0.0000
vt 0.3666 0.7193 0.0000
vt 0.3869 0.7299 0.0000
vt 0.3701 0.7092 0.0000
vt 0.3926 0.7135 0.0000
vt 0.3706 0.6984 0.0000
vt 0.3933 0.6960 0.0000
vt 0.3679 0.6880 0.0000
vt 0.3890 0.6791 0.0000
vt 0.3623 0.6788 0.0000
vt 0.3799 0.6642 0.0000
vt 0.3543 0.6716 0.0000
vt 0.3670 0.6525 0.0000
vt 0.3445 0.6670 0.0000
vt 0.3512 0.6451 0.0000
vt 0.3084 0.6176 0.0000
vt 0.3339 0.6139 0.0000
vt 0.2850 0.6285 0.0000
vt 0.2658 0.6458 0.0000
vt 0.2523 0.6678 0.0000
vt 0.2458 0.6928 0.0000
vt 0.2468 0.7186 0.0000
vt 0.2552 0.7430 0.0000
vt 0.2704 0.7640 0.0000
vt 0.2910 0.7797 0.0000
vt 0.3155 0.7886 0.0000
vt 0.3765 0.7798 0.0000
vt 0.3971 0.7642 0.0000
vt 0.4123 0.7432 0.0000
vt 0.4208 0.7188 0.0000
vt 0.4218 0.6930 0.0000
vt 0.4154 0.6680 0.0000
vt 0.4020 0.6459 0.0000
vt 0.3828 0.6287 0.0000
vt 0.3594 0.6177 0.0000
vt 0.4103 0.7966 0.0000
vt 0.3975 0.7837 0.0000
vt 0.4024 0.7837 0.0000
vt 0.2255 0.6174 0.0000
vt 0.2266 0.5880 0.0000
vt 0.2454 0.5887 0.0000
vt 0.2443 0.6177 0.0000
vt 0.2277 0.5589 0.0000
vt 0.2465 0.5594 0.0000
vt 0.2282 0.5299 0.0000
vt 0.2470 0.5300 0.0000
vt 0.2283 0.5008 0.0000
vt 0.2470 0.5007 0.0000
vt 0.2279 0.4717 0.0000
vt 0.2467 0.4714 0.0000
vt 0.2273 0.4425 0.0000
vt 0.2461 0.4421 0.0000
vt 0.2265 0.4134 0.0000
vt 0.2452 0.4128 0.0000
vt 0.2256 0.3842 0.0000
vt 0.2443 0.3836 0.0000
vt 0.2246 0.3550 0.0000
vt 0.2434 0.3544 0.0000
vt 0.2236 0.3258 0.0000
vt 0.2138 0.9765 0.0000
vt 0.0167 0.0964 0.0000
vt 0.0167 0.9819 0.0000
vt 0.0277 0.0948 0.0000
vt 0.0272 0.9842 0.0000
vt 0.0384 0.0973 0.0000
vt 0.0376 0.9865 0.0000
vt 0.0481 0.1036 0.0000
vt 0.0480 0.9885 0.0000
vt 0.0581 0.1077 0.0000
vt 0.0584 0.9902 0.0000
vt 0.0686 0.1066 0.0000
vt 0.0689 0.9916 0.0000
vt 0.0792 0.1032 0.0000
vt 0.0793 0.9925 0.0000
vt 0.0900 0.1037 0.0000
vt 0.0899 0.9930 0.0000
vt 0.1004 0.1081 0.0000
vt 0.1003 0.9931 0.0000
vt 0.1099 0.0843 0.0000
vt 0.1225 0.0843 0.0000
vt 0.4103 0.7917 0.0000
vt 0.3925 0.8096 0.0000
vt 0.3881 0.8096 0.0000
vt 0.3845 0.8060 0.0000
vt 0.3845 0.8016 0.0000
vt 0.1332 0.0845 0.0000
vt 0.3975 0.8096 0.0000
vt 0.3845 0.7966 0.0000
vt 0.4024 0.8096 0.0000
vt 0.3845 0.7917 0.0000
vt 0.4068 0.8096 0.0000
vt 0.3845 0.7873 0.0000
vt 0.4103 0.8060 0.0000
vt 0.3881 0.7837 0.0000
vt 0.4103 0.8016 0.0000
vt 0.3925 0.7837 0.0000
vt 0.4068 0.7837 0.0000
vt 0.4103 0.7873 0.0000
vt 0.3236 0.8437 0.0000
vt 0.3236 0.8906 0.0000
vt 0.2925 0.8906 0.0000
vt 0.2929 0.8459 0.0000
vt 0.3236 0.9376 0.0000
vt 0.3547 0.8906 0.0000
vt 0.3543 0.9354 0.0000
vt 0.3848 0.8520 0.0000
vt 0.3865 0.8906 0.0000
vt 0.3543 0.8459 0.0000
vt 0.2624 0.9293 0.0000
vt 0.2606 0.8906 0.0000
vt 0.2929 0.9354 0.0000
vt 0.3236 0.9889 0.0000
vt 0.2932 0.9841 0.0000
vt 0.2932 0.7972 0.0000
vt 0.3236 0.7924 0.0000
vt 0.3540 0.7972 0.0000
vt 0.3540 0.9841 0.0000
vt 0.3848 0.9293 0.0000
vt 0.3814 0.9702 0.0000
vt 0.3814 0.8111 0.0000
vt 0.2624 0.8520 0.0000
vt 0.2658 0.8111 0.0000
vt 0.2658 0.9702 0.0000
vt 0.4171 0.9210 0.0000
vt 0.4031 0.9484 0.0000
vt 0.4219 0.8906 0.0000
vt 0.4171 0.8603 0.0000
vt 0.4031 0.8329 0.0000
vt 0.2301 0.8603 0.0000
vt 0.2441 0.8329 0.0000
vt 0.2253 0.8906 0.0000
vt 0.2301 0.9210 0.0000
vt 0.2441 0.9484 0.0000
vt 0.2424 0.3252 0.0000
vt 0.2754 0.3562 0.0000
vt 0.2566 0.3567 0.0000
vt 0.2762 0.3854 0.0000
vt 0.2575 0.3859 0.0000
vt 0.2770 0.4146 0.0000
vt 0.2582 0.4151 0.0000
vt 0.2776 0.4440 0.0000
vt 0.2588 0.4442 0.0000
vt 0.2778 0.4733 0.0000
vt 0.2590 0.4733 0.0000
vt 0.2775 0.5027 0.0000
vt 0.2587 0.5023 0.0000
vt 0.2766 0.5321 0.0000
vt 0.2579 0.5313 0.0000
vt 0.2749 0.5616 0.0000
vt 0.2562 0.5602 0.0000
vt 0.2722 0.5910 0.0000
vt 0.2536 0.5889 0.0000
vt 0.2684 0.6204 0.0000
vt 0.2745 0.3269 0.0000
vt 0.2558 0.3275 0.0000
vt 0.2498 0.6175 0.0000
vt 0.1351 0.0847 0.0000
vt 0.1450 0.0820 0.0000
vt 0.1568 0.0792 0.0000
vt 0.1690 0.0769 0.0000
vt 0.1799 0.0752 0.0000
vt 0.1824 0.0758 0.0000
vt 0.1911 0.0710 0.0000
vt 0.2014 0.0643 0.0000
vt 0.0274 0.0748 0.0000
vt 0.0365 0.0792 0.0000
vt 0.0390 0.0788 0.0000
vt 0.0500 0.0800 0.0000
vt 0.0623 0.0817 0.0000
vt 0.0745 0.0839 0.0000
vt 0.0848 0.0860 0.0000
vt 0.0867 0.0861 0.0000
vt 0.0974 0.0850 0.0000
vt 0.1051 0.0052 0.0000
vt 0.1089 0.0052 0.0000
vt 0.1131 0.0050 0.0000
vt 0.1180 0.0050 0.0000
vt 0.1227 0.0055 0.0000
vt 0.1271 0.0062 0.0000
vt 0.1309 0.0067 0.0000
vt 0.1342 0.0071 0.0000
vt 0.1375 0.0075 0.0000
vt 0.1404 0.0082 0.0000
vt 0.1422 0.0083 0.0000
vt 0.0730 0.0083 0.0000
vt 0.0757 0.0075 0.0000
vt 0.0787 0.0071 0.0000
vt 0.0816 0.0067 0.0000
vt 0.0850 0.0061 0.0000
vt 0.0887 0.0055 0.0000
vt 0.0927 0.0049 0.0000
vt 0.0970 0.0047 0.0000
vt 0.1010 0.0050 0.0000
vt 0.0059 0.0964 0.0000
vt 0.0058 0.9808 0.0000
vt 0.0167 0.0686 0.0000
vt 0.0713 0.0085 0.0000
vt 0.3413 0.7385 0.0000
vt 0.3467 0.7606 0.0000
vt 0.3520 0.7886 0.0000
# 246 texture coords

g Nail
usemtl Nail
s 2
f 1/1/1 2/2/2 22/3/3 21/4/4 
f 2/2/5 3/5/6 23/6/7 22/3/8 
f 3/5/9 4/7/10 24/8/11 23/6/12 
f 4/7/13 5/9/14 25/10/15 24/8/16 
f 5/9/17 6/11/18 26/12/19 25/10/20 
f 6/11/21 7/13/22 27/14/23 26/12/24 
f 7/13/25 8/15/26 28/16/27 27/14/28 
f 8/15/29 9/17/30 29/18/31 28/16/32 
f 9/17/33 10/19/34 30/20/35 29/18/36 
f 10/19/37 11/41/38 31/106/39 30/20/40 
f 11/240/41 12/107/42 32/108/43 31/241/44 
f 12/107/45 13/109/46 33/110/47 32/108/48 
f 13/109/49 14/111/50 34/112/51 33/110/52 
f 14/111/53 15/113/54 35/114/55 34/112/56 
f 15/113/57 16/115/58 36/116/59 35/114/60 
f 16/115/61 17/117/62 37/118/63 36/116/64 
f 17/117/65 18/119/66 38/120/67 37/118/68 
f 18/119/69 19/121/70 39/122/71 38/120/72 
f 19/121/73 20/123/74 40/124/75 39/122/76 
f 20/123/77 1/1/78 21/4/79 40/124/80 
f 21/21/81 22/22/82 42/23/83 41/24/84 
f 22/22/85 23/25/86 43/26/87 42/23/88 
f 23/25/89 24/27/90 44/28/91 43/26/92 
f 24/27/93 25/29/94 45/30/95 44/28/96 
f 25/29/97 26/31/98 46/32/99 45/30/100 
f 26/31/101 27/33/102 47/34/103 46/32/104 
f 27/33/105 28/35/106 48/36/107 47/34/108 
f 28/35/109 29/37/110 49/38/111 48/36/112 
f 29/37/113 30/39/114 50/40/115 49/38/116 
f 30/39/117 31/42/118 51/43/119 50/40/120 
f 31/244/121 32/44/122 52/45/123 51/245/124 
f 32/44/125 33/46/126 53/47/127 52/45/128 
f 33/46/129 34/48/130 54/49/131 53/47/132 
f 34/48/133 35/50/134 55/51/135 54/49/136 
f 35/50/137 36/52/138 56/53/139 55/51/140 
f 36/52/141 37/54/142 57/55/143 56/53/144 
f 37/54/145 38/56/146 58/57/147 57/55/148 
f 38/56/149 39/58/150 59/59/151 58/57/152 
f 39/58/153 40/60/154 60/61/155 59/59/156 
f 40/60/157 21/21/158 41/24/159 60/61/160 
s 1
f 41/24/161 42/23/162 62/62/163 61/63/164 
f 42/23/165 43/26/166 63/64/167 62/62/168 
f 43/26/169 44/28/170 64/65/171 63/64/172 
f 44/28/173 45/30/174 65/66/175 64/65/176 
f 45/30/177 46/32/178 66/67/179 65/66/180 
f 46/32/181 47/34/182 67/68/183 66/67/184 
f 47/34/185 48/36/186 68/69/187 67/68/188 
f 48/36/189 49/38/190 69/70/191 68/69/192 
f 49/38/193 50/40/194 70/71/195 69/70/196 
f 50/40/197 51/43/198 71/72/199 70/71/200 
f 51/245/201 52/45/202 72/73/203 71/246/204 
f 52/45/205 53/47/206 73/74/207 72/73/208 
f 53/47/209 54/49/210 74/75/211 73/74/212 
f 54/49/213 55/51/214 75/76/215 74/75/216 
f 55/51/217 56/53/218 76/77/219 75/76/220 
f 56/53/221 57/55/222 77/78/223 76/77/224 
f 57/55/225 58/57/226 78/79/227 77/78/228 
f 58/57/229 59/59/230 79/80/231 78/79/232 
f 59/59/233 60/61/234 80/81/235 79/80/236 
f 60/61/237 41/24/238 61/63/239 80/81/240 
s 4
f 61/85/241 62/86/242 81/87/243 148/88/244 
f 62/86/245 63/89/246 82/90/247 81/87/248 
f 63/89/249 64/91/250 149/92/251 82/90/252 
f 64/91/253 65/93/254 83/94/255 149/92/256 
f 65/93/257 66/95/258 84/96/259 83/94/260 
f 66/95/261 67/97/262 85/98/263 84/96/264 
f 67/97/265 68/99/266 86/100/267 85/98/268 
f 68/99/269 69/101/270 150/102/271 86/100/272 
f 69/101/273 70/103/274 87/104/275 150/102/276 
f 70/103/277 71/105/278 88/180/279 87/104/280 
f 71/200/281 72/181/282 151/182/283 88/201/284 
f 72/181/285 73/183/286 152/184/287 151/182/288 
f 73/183/289 74/185/290 89/186/291 152/184/292 
f 74/185/293 75/187/294 153/188/295 89/186/296 
f 75/187/297 76/189/298 90/190/299 153/188/300 
f 76/189/301 77/191/302 91/192/303 90/190/304 
f 77/191/305 78/193/306 154/194/307 91/192/308 
f 78/193/309 79/195/310 92/196/311 154/194/312 
f 79/195/313 80/197/314 155/198/315 92/196/316 
f 80/197/317 61/199/318 148/202/319 155/198/320 
s 2
f 2/2/321 1/1/322 93/125/323 94/126/324 
f 3/5/325 2/2/326 94/126/327 95/132/328 
f 4/7/329 3/5/330 95/132/331 96/203/332 
f 5/9/333 4/7/334 96/203/335 97/204/336 
f 6/11/337 5/9/338 97/204/339 98/205/340 
f 7/13/341 6/11/342 98/205/343 99/206/344 
f 8/15/345 7/13/346 99/206/347 100/207/348 
f 9/17/349 8/15/350 100/207/351 101/208/352 
f 10/19/353 9/17/354 101/208/355 102/209/356 
f 11/41/357 10/19/358 102/209/359 103/210/360 
f 12/107/361 11/240/362 103/242/363 104/211/364 
f 13/109/365 12/107/366 104/211/367 105/212/368 
f 14/111/369 13/109/370 105/212/371 106/213/372 
f 15/113/373 14/111/374 106/213/375 107/214/376 
f 16/115/377 15/113/378 107/214/379 108/215/380 
f 17/117/381 16/115/382 108/215/383 109/216/384 
f 18/119/385 17/117/386 109/216/387 110/217/388 
f 19/121/389 18/119/390 110/217/391 111/218/392 
f 20/123/393 19/121/394 111/218/395 112/219/396 
f 1/1/397 20/123/398 112/219/399 93/125/400 
f 94/126/401 93/125/402 113/220/403 114/221/404 
f 95/132/405 94/126/406 114/221/407 115/222/408 
f 96/203/409 95/132/410 115/222/411 116/223/412 
f 97/204/413 96/203/414 116/223/415 117/224/416 
f 98/205/417 97/204/418 117/224/419 118/225/420 
f 99/206/421 98/205/422 118/225/423 119/226/424 
f 100/207/425 99/206/426 119/226/427 120/227/428 
f 101/208/429 100/207/430 120/227/431 121/228/432 
f 102/209/433 101/208/434 121/228/435 122/229/436 
f 103/210/437 102/209/438 122/229/439 123/230/440 
f 104/211/441 103/242/442 123/243/443 124/231/444 
f 105/212/445 104/211/446 124/231/447 125/232/448 
f 106/213/449 105/212/450 125/232/451 126/233/452 
f 107/214/453 106/213/454 126/233/455 127/234/456 
f 108/215/457 107/214/458 127/234/459 128/235/460 
f 109/216/461 108/215/462 128/235/463 129/236/464 
f 110/217/465 109/216/466 129/236/467 130/237/468 
f 111/218/469 110/217/470 130/237/471 131/238/472 
f 112/219/473 111/218/474 131/238/475 132/239/476 
f 93/125/477 112/219/478 132/239/479 113/220/480 
s 1
f 113/82/481 118/83/482 117/84/483 114/127/484 
f 127/128/485 126/129/486 125/130/487 124/131/488 
f 128/133/489 127/128/490 124/131/491 123/134/492 
f 129/135/493 128/133/494 123/134/495 122/136/496 
f 130/137/497 129/135/498 122/136/499 121/138/500 
f 131/139/501 130/137/502 121/138/503 120/140/504 
f 132/141/505 131/139/506 120/140/507 119/142/508 
f 113/82/509 132/141/510 119/142/511 118/83/512 
f 117/84/513 116/143/514 115/144/515 114/127/516 
f 133/145/517 134/146/518 137/147/519 138/148/520 
f 135/149/521 134/146/522 140/150/523 141/151/524 
f 142/152/525 143/153/526 140/150/527 139/154/528 
f 145/155/529 146/156/530 137/147/531 136/157/532 
f 135/149/533 84/158/534 85/159/535 136/157/536 
f 134/146/537 135/149/538 136/157/539 137/147/540 
f 138/148/541 153/160/542 90/161/543 133/145/544 
f 133/145/545 90/161/546 91/162/547 139/154/548 
f 134/146/549 133/145/550 139/154/551 140/150/552 
f 141/151/553 83/163/554 84/158/555 135/149/556 
f 144/164/557 149/165/558 83/163/559 141/151/560 
f 143/153/561 144/164/562 141/151/563 140/150/564 
f 139/154/565 91/162/566 154/166/567 142/152/568 
f 147/167/569 89/168/570 153/160/571 138/148/572 
f 146/156/573 147/167/574 138/148/575 137/147/576 
f 136/157/577 85/159/578 86/169/579 145/155/580 
f 81/170/581 82/171/582 149/165/583 144/164/584 
f 148/172/585 81/170/586 144/164/587 143/153/588 
f 143/153/589 142/152/590 155/173/591 148/172/592 
f 92/174/593 155/173/594 142/152/595 154/166/596 
f 151/175/597 152/176/598 89/168/599 147/167/600 
f 147/167/601 146/156/602 88/177/603 151/175/604 
f 87/178/605 88/177/606 146/156/607 145/155/608 
f 145/155/609 86/169/610 150/179/611 87/178/612 
# 153 polygons

#
# object NailRust
#

v  0.1807 -0.3949 0.0894
v  0.1781 -0.4002 0.0797
v  0.1721 -0.4065 0.0716
v  0.1639 -0.4077 0.0642
v  0.1543 -0.4038 0.0583
v  0.1436 -0.4005 0.0562
v  0.1326 -0.4011 0.0588
v  0.1226 -0.4027 0.0650
v  0.1152 -0.3996 0.0727
v  0.1112 -0.3920 0.0810
v  0.1104 -0.3863 0.0908
v  0.1124 -0.3859 0.1020
v  0.1174 -0.3879 0.1126
v  0.1256 -0.3867 0.1200
v  0.1362 -0.3823 0.1234
v  0.1474 -0.3807 0.1241
v  0.1579 -0.3849 0.1229
v  0.1670 -0.3917 0.1192
v  0.1743 -0.3949 0.1115
v  0.1793 -0.3940 0.1007
v  0.2794 0.4554 -0.1640
v  0.2770 0.4525 -0.1745
v  0.2715 0.4504 -0.1839
v  0.2633 0.4491 -0.1912
v  0.2533 0.4489 -0.1959
v  0.2423 0.4498 -0.1973
v  0.2315 0.4516 -0.1954
v  0.2220 0.4542 -0.1904
v  0.2146 0.4573 -0.1827
v  0.2102 0.4607 -0.1731
v  0.2090 0.4639 -0.1626
v  0.2113 0.4668 -0.1522
v  0.2168 0.4690 -0.1428
v  0.2250 0.4702 -0.1354
v  0.2351 0.4704 -0.1308
v  0.2461 0.4696 -0.1294
v  0.2569 0.4678 -0.1312
v  0.2664 0.4651 -0.1363
v  0.2737 0.4620 -0.1439
v  0.2782 0.4586 -0.1535
v  0.3001 0.4645 -0.1679
v  0.2965 0.4601 -0.1841
v  0.2879 0.4567 -0.1986
v  0.2752 0.4548 -0.2100
v  0.2596 0.4545 -0.2172
v  0.2426 0.4558 -0.2195
v  0.2259 0.4586 -0.2165
v  0.2111 0.4626 -0.2087
v  0.1997 0.4675 -0.1968
v  0.1927 0.4727 -0.1820
v  0.1910 0.4778 -0.1657
v  0.1945 0.4822 -0.1494
v  0.2031 0.4856 -0.1349
v  0.2158 0.4875 -0.1235
v  0.2315 0.4878 -0.1163
v  0.2485 0.4865 -0.1141
v  0.2652 0.4837 -0.1170
v  0.2800 0.4797 -0.1248
v  0.2914 0.4748 -0.1367
v  0.2983 0.4696 -0.1515
v  0.3286 0.4610 -0.1684
v  0.3231 0.4543 -0.1931
v  0.3101 0.4492 -0.2153
v  0.2907 0.4463 -0.2327
v  0.2669 0.4458 -0.2436
v  0.2410 0.4478 -0.2470
v  0.2156 0.4520 -0.2425
v  0.1931 0.4582 -0.2307
v  0.1757 0.4656 -0.2126
v  0.1651 0.4736 -0.1900
v  0.1625 0.4813 -0.1651
v  0.1679 0.4880 -0.1404
v  0.1809 0.4931 -0.1182
v  0.2003 0.4960 -0.1009
v  0.2241 0.4965 -0.0899
v  0.2500 0.4946 -0.0865
v  0.2754 0.4903 -0.0910
v  0.2980 0.4841 -0.1028
v  0.3153 0.4767 -0.1209
v  0.3259 0.4688 -0.1436
v  0.3250 0.4703 -0.1979
v  0.3120 0.4652 -0.2201
v  0.2688 0.4618 -0.2484
v  0.2429 0.4638 -0.2518
v  0.2175 0.4681 -0.2473
v  0.1949 0.4742 -0.2355
v  0.1670 0.4896 -0.1947
v  0.1643 0.4973 -0.1699
v  0.2022 0.5121 -0.1056
v  0.2519 0.5106 -0.0913
v  0.2773 0.5063 -0.0957
v  0.3172 0.4928 -0.1257
v  0.1706 -0.4182 0.0968
v  0.1699 -0.4219 0.0841
v  0.1693 -0.4252 0.0727
v  0.1662 -0.4253 0.0712
v  0.1544 -0.4239 0.0715
v  0.1413 -0.4223 0.0717
v  0.1282 -0.4207 0.0720
v  0.1164 -0.4192 0.0722
v  0.1134 -0.4184 0.0738
v  0.1140 -0.4151 0.0853
v  0.1147 -0.4114 0.0979
v  0.1154 -0.4077 0.1106
v  0.1160 -0.4044 0.1220
v  0.1193 -0.4043 0.1234
v  0.1311 -0.4058 0.1232
v  0.1442 -0.4074 0.1229
v  0.1573 -0.4090 0.1227
v  0.1691 -0.4104 0.1224
v  0.1720 -0.4112 0.1208
v  0.1713 -0.4145 0.1094
v  0.1370 -0.4875 0.1189
v  0.1369 -0.4878 0.1179
v  0.1369 -0.4881 0.1170
v  0.1361 -0.4882 0.1163
v  0.1352 -0.4881 0.1163
v  0.1342 -0.4880 0.1163
v  0.1331 -0.4878 0.1163
v  0.1322 -0.4877 0.1164
v  0.1315 -0.4874 0.1171
v  0.1316 -0.4872 0.1180
v  0.1316 -0.4869 0.1190
v  0.1317 -0.4866 0.1200
v  0.1317 -0.4863 0.1208
v  0.1325 -0.4862 0.1215
v  0.1334 -0.4863 0.1215
v  0.1344 -0.4864 0.1215
v  0.1355 -0.4866 0.1215
v  0.1364 -0.4867 0.1215
v  0.1371 -0.4870 0.1207
v  0.1370 -0.4872 0.1198
v  0.2495 0.4984 -0.1332
v  0.2474 0.4872 -0.1715
v  0.2452 0.4760 -0.2099
v  0.2194 0.4797 -0.2076
v  0.2211 0.4904 -0.1710
v  0.2235 0.5010 -0.1345
v  0.2753 0.4947 -0.1355
v  0.2736 0.4840 -0.1721
v  0.2713 0.4734 -0.2086
v  0.3009 0.4901 -0.1410
v  0.3006 0.4807 -0.1726
v  0.2974 0.4717 -0.2041
v  0.1939 0.4843 -0.2021
v  0.1942 0.4937 -0.1705
v  0.1974 0.5027 -0.1389
v  0.3304 0.4771 -0.1732
v  0.2926 0.4623 -0.2374
v  0.1776 0.4816 -0.2173
v  0.1698 0.5041 -0.1452
v  0.1828 0.5092 -0.1230
v  0.2260 0.5126 -0.0947
v  0.2998 0.5002 -0.1076
v  0.3278 0.4848 -0.1483
# 155 vertices

vn 0.9735 -0.2285 0.0074
vn 0.9335 -0.2745 -0.2306
vn 0.7421 -0.6581 -0.1270
vn 0.7982 -0.5888 0.1272
vn 0.9335 -0.2745 -0.2306
vn 0.7759 -0.2045 -0.5968
vn 0.6080 -0.7104 -0.3546
vn 0.7421 -0.6581 -0.1270
vn 0.7759 -0.2045 -0.5968
vn 0.5279 -0.2689 -0.8056
vn 0.4088 -0.7406 -0.5334
vn 0.6080 -0.7104 -0.3546
vn 0.5279 -0.2689 -0.8056
vn 0.1862 -0.4039 -0.8957
vn 0.1641 -0.7457 -0.6458
vn 0.4088 -0.7406 -0.5334
vn 0.1862 -0.4039 -0.8957
vn -0.0717 -0.4042 -0.9119
vn -0.1022 -0.7253 -0.6809
vn 0.1641 -0.7457 -0.6458
vn -0.0717 -0.4042 -0.9119
vn -0.3054 -0.3545 -0.8838
vn -0.3640 -0.6813 -0.6351
vn -0.1022 -0.7253 -0.6809
vn -0.3054 -0.3545 -0.8838
vn -0.6156 -0.1362 -0.7762
vn -0.5956 -0.6180 -0.5131
vn -0.3640 -0.6813 -0.6351
vn -0.6156 -0.1362 -0.7762
vn -0.8207 -0.0176 -0.5711
vn -0.7745 -0.5417 -0.3267
vn -0.5956 -0.6180 -0.5131
vn -0.8207 -0.0176 -0.5711
vn -0.9778 -0.0292 -0.2077
vn -0.8830 -0.4598 -0.0942
vn -0.7745 -0.5417 -0.3267
vn -0.9778 -0.0292 -0.2077
vn -0.9983 0.0174 0.0557
vn -0.9106 -0.3803 0.1617
vn -0.8830 -0.4598 -0.0942
vn -0.9983 0.0174 0.0557
vn -0.9538 0.1009 0.2830
vn -0.8546 -0.3111 0.4159
vn -0.9106 -0.3803 0.1617
vn -0.9538 0.1009 0.2830
vn -0.7610 0.3237 0.5622
vn -0.7204 -0.2588 0.6435
vn -0.8546 -0.3111 0.4159
vn -0.7610 0.3237 0.5622
vn -0.5200 0.3283 0.7886
vn -0.5212 -0.2286 0.8222
vn -0.7204 -0.2588 0.6435
vn -0.5200 0.3283 0.7886
vn -0.2104 0.1943 0.9581
vn -0.2765 -0.2235 0.9347
vn -0.5212 -0.2286 0.8222
vn -0.2104 0.1943 0.9581
vn 0.0421 0.1487 0.9880
vn -0.0102 -0.2439 0.9697
vn -0.2765 -0.2235 0.9347
vn 0.0421 0.1487 0.9880
vn 0.2787 0.1247 0.9522
vn 0.2516 -0.2879 0.9240
vn -0.0102 -0.2439 0.9697
vn 0.2787 0.1247 0.9522
vn 0.6205 0.1792 0.7635
vn 0.4832 -0.3512 0.8020
vn 0.2516 -0.2879 0.9240
vn 0.6205 0.1792 0.7635
vn 0.8338 0.1181 0.5393
vn 0.6620 -0.4275 0.6156
vn 0.4832 -0.3512 0.8020
vn 0.8338 0.1181 0.5393
vn 0.9603 -0.1207 0.2515
vn 0.7706 -0.5094 0.3831
vn 0.6620 -0.4275 0.6156
vn 0.9603 -0.1207 0.2515
vn 0.9735 -0.2285 0.0074
vn 0.7982 -0.5888 0.1272
vn 0.7706 -0.5094 0.3831
vn 0.7982 -0.5888 0.1272
vn 0.7421 -0.6581 -0.1270
vn 0.3936 -0.9161 0.0757
vn 0.4279 -0.8738 0.2310
vn 0.7421 -0.6581 -0.1270
vn 0.6080 -0.7104 -0.3546
vn 0.3117 -0.9481 -0.0633
vn 0.3936 -0.9161 0.0757
vn 0.6080 -0.7104 -0.3546
vn 0.4088 -0.7406 -0.5334
vn 0.1900 -0.9665 -0.1725
vn 0.3117 -0.9481 -0.0633
vn 0.4088 -0.7406 -0.5334
vn 0.1641 -0.7457 -0.6458
vn 0.0405 -0.9696 -0.2412
vn 0.1900 -0.9665 -0.1725
vn 0.1641 -0.7457 -0.6458
vn -0.1022 -0.7253 -0.6809
vn -0.1221 -0.9572 -0.2626
vn 0.0405 -0.9696 -0.2412
vn -0.1022 -0.7253 -0.6809
vn -0.3640 -0.6813 -0.6351
vn -0.2820 -0.9303 -0.2347
vn -0.1221 -0.9572 -0.2626
vn -0.3640 -0.6813 -0.6351
vn -0.5956 -0.6180 -0.5131
vn -0.4235 -0.8917 -0.1601
vn -0.2820 -0.9303 -0.2347
vn -0.5956 -0.6180 -0.5131
vn -0.7745 -0.5417 -0.3267
vn -0.5327 -0.8450 -0.0463
vn -0.4235 -0.8917 -0.1601
vn -0.7745 -0.5417 -0.3267
vn -0.8830 -0.4598 -0.0942
vn -0.5990 -0.7950 0.0957
vn -0.5327 -0.8450 -0.0463
vn -0.8830 -0.4598 -0.0942
vn -0.9106 -0.3803 0.1617
vn -0.6158 -0.7465 0.2520
vn -0.5990 -0.7950 0.0957
vn -0.9106 -0.3803 0.1617
vn -0.8546 -0.3111 0.4159
vn -0.5816 -0.7042 0.4073
vn -0.6158 -0.7465 0.2520
vn -0.8546 -0.3111 0.4159
vn -0.7204 -0.2588 0.6435
vn -0.4997 -0.6722 0.5463
vn -0.5816 -0.7042 0.4073
vn -0.7204 -0.2588 0.6435
vn -0.5212 -0.2286 0.8222
vn -0.3780 -0.6538 0.6555
vn -0.4997 -0.6722 0.5463
vn -0.5212 -0.2286 0.8222
vn -0.2765 -0.2235 0.9347
vn -0.2285 -0.6507 0.7241
vn -0.3780 -0.6538 0.6555
vn -0.2765 -0.2235 0.9347
vn -0.0102 -0.2439 0.9697
vn -0.0659 -0.6632 0.7456
vn -0.2285 -0.6507 0.7241
vn -0.0102 -0.2439 0.9697
vn 0.2516 -0.2879 0.9240
vn 0.0940 -0.6900 0.7176
vn -0.0659 -0.6632 0.7456
vn 0.2516 -0.2879 0.9240
vn 0.4832 -0.3512 0.8020
vn 0.2355 -0.7287 0.6431
vn 0.0940 -0.6900 0.7176
vn 0.4832 -0.3512 0.8020
vn 0.6620 -0.4275 0.6156
vn 0.3447 -0.7753 0.5293
vn 0.2355 -0.7287 0.6431
vn 0.6620 -0.4275 0.6156
vn 0.7706 -0.5094 0.3831
vn 0.4110 -0.8253 0.3873
vn 0.3447 -0.7753 0.5293
vn 0.7706 -0.5094 0.3831
vn 0.7982 -0.5888 0.1272
vn 0.4279 -0.8738 0.2310
vn 0.4110 -0.8253 0.3873
vn -0.1105 -0.9525 0.2839
vn -0.1105 -0.9525 0.2839
vn -0.1105 -0.9525 0.2839
vn -0.1105 -0.9525 0.2839
vn -0.1105 -0.9525 0.2839
vn -0.1105 -0.9525 0.2839
vn -0.1105 -0.9525 0.2839
vn -0.1105 -0.9525 0.2839
vn -0.1105 -0.9525 0.2839
vn -0.1105 -0.9525 0.2839
vn -0.1105 -0.9525 0.2839
vn -0.1105 -0.9525 0.2839
vn -0.1105 -0.9525 0.2839
vn -0.1105 -0.9525 0.2839
vn -0.1105 -0.9525 0.2839
vn -0.1105 -0.9525 0.2839
vn -0.1105 -0.9525 0.2839
vn -0.1105 -0.9525 0.2839
vn -0.1105 -0.9525 0.2839
vn -0.1105 -0.9525 0.2839
vn -0.1105 -0.9525 0.2839
vn -0.1105 -0.9525 0.2839
vn -0.1105 -0.9525 0.2839
vn -0.1105 -0.9525 0.2839
vn -0.1105 -0.9525 0.2839
vn -0.1105 -0.9525 0.2839
vn -0.1105 -0.9525 0.2839
vn -0.1105 -0.9525 0.2839
vn -0.1105 -0.9525 0.2839
vn -0.1105 -0.9525 0.2839
vn -0.1105 -0.9525 0.2839
vn -0.1105 -0.9525 0.2839
vn -0.1105 -0.9525 0.2839
vn -0.1105 -0.9525 0.2839
vn -0.1105 -0.9525 0.2839
vn -0.1105 -0.9525 0.2839
vn -0.1105 -0.9525 0.2839
vn -0.1105 -0.9525 0.2839
vn -0.1105 -0.9525 0.2839
vn -0.1105 -0.9525 0.2839
vn -0.1105 -0.9525 0.2839
vn -0.1105 -0.9525 0.2839
vn -0.1105 -0.9525 0.2839
vn -0.1105 -0.9525 0.2839
vn -0.1105 -0.9525 0.2839
vn -0.1105 -0.9525 0.2839
vn -0.1105 -0.9525 0.2839
vn -0.1105 -0.9525 0.2839
vn -0.1105 -0.9525 0.2839
vn -0.1105 -0.9525 0.2839
vn -0.1105 -0.9525 0.2839
vn -0.1105 -0.9525 0.2839
vn -0.1105 -0.9525 0.2839
vn -0.1105 -0.9525 0.2839
vn -0.1105 -0.9525 0.2839
vn -0.1105 -0.9525 0.2839
vn -0.1105 -0.9525 0.2839
vn -0.1105 -0.9525 0.2839
vn -0.1105 -0.9525 0.2839
vn -0.1105 -0.9525 0.2839
vn -0.1105 -0.9525 0.2839
vn -0.1105 -0.9525 0.2839
vn -0.1105 -0.9525 0.2839
vn -0.1105 -0.9525 0.2839
vn -0.1105 -0.9525 0.2839
vn -0.1105 -0.9525 0.2839
vn -0.1105 -0.9525 0.2839
vn -0.1105 -0.9525 0.2839
vn -0.1105 -0.9525 0.2839
vn -0.1105 -0.9525 0.2839
vn -0.1105 -0.9525 0.2839
vn -0.1105 -0.9525 0.2839
vn -0.1105 -0.9525 0.2839
vn -0.1105 -0.9525 0.2839
vn -0.1105 -0.9525 0.2839
vn -0.1105 -0.9525 0.2839
vn -0.1105 -0.9525 0.2839
vn -0.1105 -0.9525 0.2839
vn -0.1105 -0.9525 0.2839
vn -0.1105 -0.9525 0.2839
vn 0.9924 -0.1211 -0.0200
vn 0.9274 -0.2016 -0.3153
vn 0.9274 -0.2016 -0.3153
vn 0.9924 -0.1211 -0.0200
vn 0.9274 -0.2016 -0.3153
vn 0.7715 -0.2623 -0.5797
vn 0.7715 -0.2623 -0.5797
vn 0.9274 -0.2016 -0.3153
vn 0.7715 -0.2623 -0.5797
vn 0.5401 -0.2973 -0.7873
vn 0.5401 -0.2973 -0.7873
vn 0.7715 -0.2623 -0.5797
vn 0.5401 -0.2973 -0.7873
vn 0.2559 -0.3033 -0.9179
vn 0.2559 -0.3033 -0.9179
vn 0.5401 -0.2973 -0.7873
vn 0.2559 -0.3033 -0.9179
vn -0.0534 -0.2796 -0.9586
vn -0.0534 -0.2796 -0.9586
vn 0.2559 -0.3033 -0.9179
vn -0.0534 -0.2796 -0.9586
vn -0.3575 -0.2284 -0.9055
vn -0.3575 -0.2284 -0.9055
vn -0.0534 -0.2796 -0.9586
vn -0.3575 -0.2284 -0.9055
vn -0.6266 -0.1550 -0.7638
vn -0.6266 -0.1550 -0.7638
vn -0.3575 -0.2284 -0.9055
vn -0.6266 -0.1550 -0.7638
vn -0.8343 -0.0663 -0.5473
vn -0.8343 -0.0663 -0.5473
vn -0.6266 -0.1550 -0.7638
vn -0.8343 -0.0663 -0.5473
vn -0.9604 0.0288 -0.2772
vn -0.9604 0.0288 -0.2772
vn -0.8343 -0.0663 -0.5473
vn -0.9604 0.0288 -0.2772
vn -0.9924 0.1211 0.0200
vn -0.9924 0.1211 0.0200
vn -0.9604 0.0288 -0.2772
vn -0.9924 0.1211 0.0200
vn -0.9274 0.2016 0.3153
vn -0.9274 0.2016 0.3153
vn -0.9924 0.1211 0.0200
vn -0.9274 0.2016 0.3153
vn -0.7715 0.2623 0.5797
vn -0.7715 0.2623 0.5797
vn -0.9274 0.2016 0.3153
vn -0.7715 0.2623 0.5797
vn -0.5401 0.2973 0.7873
vn -0.5401 0.2973 0.7873
vn -0.7715 0.2623 0.5797
vn -0.5401 0.2973 0.7873
vn -0.2559 0.3033 0.9179
vn -0.2559 0.3033 0.9179
vn -0.5401 0.2973 0.7873
vn -0.2559 0.3033 0.9179
vn 0.0534 0.2796 0.9586
vn 0.0534 0.2796 0.9586
vn -0.2559 0.3033 0.9179
vn 0.0534 0.2796 0.9586
vn 0.3575 0.2284 0.9055
vn 0.3575 0.2284 0.9055
vn 0.0534 0.2796 0.9586
vn 0.3575 0.2284 0.9055
vn 0.6266 0.1550 0.7638
vn 0.6266 0.1550 0.7638
vn 0.3575 0.2284 0.9055
vn 0.6266 0.1550 0.7638
vn 0.8343 0.0663 0.5473
vn 0.8343 0.0663 0.5473
vn 0.6266 0.1550 0.7638
vn 0.8343 0.0663 0.5473
vn 0.9604 -0.0288 0.2772
vn 0.9604 -0.0288 0.2772
vn 0.8343 0.0663 0.5473
vn 0.9604 -0.0288 0.2772
vn 0.9924 -0.1211 -0.0200
vn 0.9924 -0.1211 -0.0200
vn 0.9604 -0.0288 0.2772
vn 0.9335 -0.2745 -0.2306
vn 0.9735 -0.2285 0.0074
vn 0.9172 -0.3943 0.0575
vn 0.9226 -0.3811 0.0597
vn 0.7759 -0.2045 -0.5968
vn 0.9335 -0.2745 -0.2306
vn 0.9226 -0.3811 0.0597
vn 0.7522 -0.4546 -0.4769
vn 0.5279 -0.2689 -0.8056
vn 0.7759 -0.2045 -0.5968
vn 0.7522 -0.4546 -0.4769
vn 0.2199 -0.5076 -0.8330
vn 0.1862 -0.4039 -0.8957
vn 0.5279 -0.2689 -0.8056
vn 0.2199 -0.5076 -0.8330
vn -0.0794 -0.5549 -0.8281
vn -0.0717 -0.4042 -0.9119
vn 0.1862 -0.4039 -0.8957
vn -0.0794 -0.5549 -0.8281
vn -0.0899 -0.5580 -0.8249
vn -0.3054 -0.3545 -0.8838
vn -0.0717 -0.4042 -0.9119
vn -0.0899 -0.5580 -0.8249
vn -0.0838 -0.5497 -0.8312
vn -0.6156 -0.1362 -0.7762
vn -0.3054 -0.3545 -0.8838
vn -0.0838 -0.5497 -0.8312
vn -0.3817 -0.3930 -0.8366
vn -0.8207 -0.0176 -0.5711
vn -0.6156 -0.1362 -0.7762
vn -0.3817 -0.3930 -0.8366
vn -0.8407 -0.2292 -0.4906
vn -0.9778 -0.0292 -0.2077
vn -0.8207 -0.0176 -0.5711
vn -0.8407 -0.2292 -0.4906
vn -0.9837 -0.1539 0.0934
vn -0.9983 0.0174 0.0557
vn -0.9778 -0.0292 -0.2077
vn -0.9837 -0.1539 0.0934
vn -0.9819 -0.1567 0.1069
vn -0.9538 0.1009 0.2830
vn -0.9983 0.0174 0.0557
vn -0.9819 -0.1567 0.1069
vn -0.9845 -0.1458 0.0974
vn -0.7610 0.3237 0.5622
vn -0.9538 0.1009 0.2830
vn -0.9845 -0.1458 0.0974
vn -0.7934 0.0480 0.6068
vn -0.5200 0.3283 0.7886
vn -0.7610 0.3237 0.5622
vn -0.7934 0.0480 0.6068
vn -0.2548 0.0816 0.9635
vn -0.2104 0.1943 0.9581
vn -0.5200 0.3283 0.7886
vn -0.2548 0.0816 0.9635
vn 0.0126 -0.0210 0.9997
vn 0.0421 0.1487 0.9880
vn -0.2104 0.1943 0.9581
vn 0.0126 -0.0210 0.9997
vn 0.0219 -0.0274 0.9994
vn 0.2787 0.1247 0.9522
vn 0.0421 0.1487 0.9880
vn 0.0219 -0.0274 0.9994
vn 0.0182 -0.0160 0.9997
vn 0.6205 0.1792 0.7635
vn 0.2787 0.1247 0.9522
vn 0.0182 -0.0160 0.9997
vn 0.3499 0.0481 0.9355
vn 0.8338 0.1181 0.5393
vn 0.6205 0.1792 0.7635
vn 0.3499 0.0481 0.9355
vn 0.8065 -0.1039 0.5820
vn 0.9603 -0.1207 0.2515
vn 0.8338 0.1181 0.5393
vn 0.8065 -0.1039 0.5820
vn 0.9203 -0.3853 0.0673
vn 0.9735 -0.2285 0.0074
vn 0.9603 -0.1207 0.2515
vn 0.9203 -0.3853 0.0673
vn 0.9172 -0.3943 0.0575
vn 0.9226 -0.3811 0.0597
vn 0.9172 -0.3943 0.0575
vn 0.9060 -0.4172 0.0712
vn 0.9060 -0.4172 0.0712
vn 0.7522 -0.4546 -0.4769
vn 0.9226 -0.3811 0.0597
vn 0.9060 -0.4172 0.0712
vn 0.8018 -0.5577 -0.2146
vn 0.2199 -0.5076 -0.8330
vn 0.7522 -0.4546 -0.4769
vn 0.8018 -0.5577 -0.2146
vn 0.2335 -0.6378 -0.7340
vn -0.0794 -0.5549 -0.8281
vn 0.2199 -0.5076 -0.8330
vn 0.2335 -0.6378 -0.7340
vn -0.0842 -0.5534 -0.8287
vn -0.0899 -0.5580 -0.8249
vn -0.0794 -0.5549 -0.8281
vn -0.0842 -0.5534 -0.8287
vn -0.0842 -0.5534 -0.8287
vn -0.0838 -0.5497 -0.8312
vn -0.0899 -0.5580 -0.8249
vn -0.0842 -0.5534 -0.8287
vn -0.0842 -0.5534 -0.8287
vn -0.3817 -0.3930 -0.8366
vn -0.0838 -0.5497 -0.8312
vn -0.0842 -0.5534 -0.8287
vn -0.4010 -0.5645 -0.7215
vn -0.8407 -0.2292 -0.4906
vn -0.3817 -0.3930 -0.8366
vn -0.4010 -0.5645 -0.7215
vn -0.9185 -0.3532 -0.1777
vn -0.9837 -0.1539 0.0934
vn -0.8407 -0.2292 -0.4906
vn -0.9185 -0.3532 -0.1777
vn -0.9760 -0.1884 0.1093
vn -0.9819 -0.1567 0.1069
vn -0.9837 -0.1539 0.0934
vn -0.9760 -0.1884 0.1093
vn -0.9760 -0.1884 0.1093
vn -0.9845 -0.1458 0.0974
vn -0.9819 -0.1567 0.1069
vn -0.9760 -0.1884 0.1093
vn -0.9760 -0.1884 0.1093
vn -0.7934 0.0480 0.6068
vn -0.9845 -0.1458 0.0974
vn -0.9760 -0.1884 0.1093
vn -0.8839 -0.1693 0.4360
vn -0.2548 0.0816 0.9635
vn -0.7934 0.0480 0.6068
vn -0.8839 -0.1693 0.4360
vn -0.3118 -0.0722 0.9474
vn 0.0126 -0.0210 0.9997
vn -0.2548 0.0816 0.9635
vn -0.3118 -0.0722 0.9474
vn 0.0177 -0.0201 0.9996
vn 0.0219 -0.0274 0.9994
vn 0.0126 -0.0210 0.9997
vn 0.0177 -0.0201 0.9996
vn 0.0177 -0.0201 0.9996
vn 0.0182 -0.0160 0.9997
vn 0.0219 -0.0274 0.9994
vn 0.0177 -0.0201 0.9996
vn 0.0177 -0.0201 0.9996
vn 0.3499 0.0481 0.9355
vn 0.0182 -0.0160 0.9997
vn 0.0177 -0.0201 0.9996
vn 0.3211 -0.1552 0.9342
vn 0.8065 -0.1039 0.5820
vn 0.3499 0.0481 0.9355
vn 0.3211 -0.1552 0.9342
vn 0.8347 -0.3848 0.3939
vn 0.9203 -0.3853 0.0673
vn 0.8065 -0.1039 0.5820
vn 0.8347 -0.3848 0.3939
vn 0.9060 -0.4172 0.0712
vn 0.9172 -0.3943 0.0575
vn 0.9203 -0.3853 0.0673
vn 0.9060 -0.4172 0.0712
vn 0.9060 -0.4172 0.0712
vn -0.1105 -0.9525 0.2839
vn -0.1105 -0.9525 0.2839
vn -0.1105 -0.9525 0.2839
vn -0.1105 -0.9525 0.2839
vn -0.1105 -0.9525 0.2839
vn -0.1105 -0.9525 0.2839
vn -0.1105 -0.9525 0.2839
vn -0.1105 -0.9525 0.2839
vn -0.1105 -0.9525 0.2839
vn -0.1105 -0.9525 0.2839
vn -0.1105 -0.9525 0.2839
vn -0.1105 -0.9525 0.2839
vn -0.1105 -0.9525 0.2839
vn -0.1105 -0.9525 0.2839
vn -0.1105 -0.9525 0.2839
vn -0.1105 -0.9525 0.2839
vn -0.1105 -0.9525 0.2839
vn -0.1105 -0.9525 0.2839
vn -0.1105 -0.9525 0.2839
vn -0.1105 -0.9525 0.2839
vn -0.1105 -0.9525 0.2839
vn -0.1105 -0.9525 0.2839
vn -0.1105 -0.9525 0.2839
vn -0.1105 -0.9525 0.2839
vn -0.1105 -0.9525 0.2839
vn -0.1105 -0.9525 0.2839
vn -0.1105 -0.9525 0.2839
vn -0.1105 -0.9525 0.2839
vn -0.1105 -0.9525 0.2839
vn -0.1105 -0.9525 0.2839
vn -0.1105 -0.9525 0.2839
vn -0.1105 -0.9525 0.2839
vn -0.1105 -0.9525 0.2839
vn -0.1105 -0.9525 0.2839
vn -0.1105 -0.9525 0.2839
vn -0.1105 -0.9525 0.2839
vn 0.1105 0.9525 -0.2839
vn 0.1105 0.9525 -0.2839
vn 0.1105 0.9525 -0.2839
vn 0.1105 0.9525 -0.2839
vn 0.1105 0.9525 -0.2839
vn 0.1105 0.9525 -0.2839
vn 0.1105 0.9525 -0.2839
vn 0.1105 0.9525 -0.2839
vn 0.1105 0.9525 -0.2839
vn 0.1105 0.9525 -0.2839
vn 0.1105 0.9525 -0.2839
vn 0.1105 0.9525 -0.2839
vn 0.1105 0.9525 -0.2839
vn 0.1105 0.9525 -0.2839
vn 0.1105 0.9525 -0.2839
vn 0.1105 0.9525 -0.2839
vn 0.1105 0.9525 -0.2839
vn 0.1105 0.9525 -0.2839
vn 0.1105 0.9525 -0.2839
vn 0.1105 0.9525 -0.2839
vn 0.1105 0.9525 -0.2839
vn 0.1105 0.9525 -0.2839
vn 0.1105 0.9525 -0.2839
vn 0.1105 0.9525 -0.2839
vn 0.1105 0.9525 -0.2839
vn 0.1105 0.9525 -0.2839
vn 0.1105 0.9525 -0.2839
vn 0.1105 0.9525 -0.2839
vn 0.1105 0.9525 -0.2839
vn 0.1105 0.9525 -0.2839
vn 0.1105 0.9525 -0.2839
vn 0.1105 0.9525 -0.2839
vn 0.1105 0.9525 -0.2839
vn 0.1105 0.9525 -0.2839
vn 0.1105 0.9525 -0.2839
vn 0.1105 0.9525 -0.2839
vn 0.1105 0.9525 -0.2839
vn 0.1105 0.9525 -0.2839
vn 0.1105 0.9525 -0.2839
vn 0.1105 0.9525 -0.2839
vn 0.1105 0.9525 -0.2839
vn 0.1105 0.9525 -0.2839
vn 0.1105 0.9525 -0.2839
vn 0.1105 0.9525 -0.2839
vn 0.1105 0.9525 -0.2839
vn 0.1105 0.9525 -0.2839
vn 0.1105 0.9525 -0.2839
vn 0.1105 0.9525 -0.2839
vn 0.1105 0.9525 -0.2839
vn 0.1105 0.9525 -0.2839
vn 0.1105 0.9525 -0.2839
vn 0.1105 0.9525 -0.2839
vn 0.1105 0.9525 -0.2839
vn 0.1105 0.9525 -0.2839
vn 0.1105 0.9525 -0.2839
vn 0.1105 0.9525 -0.2839
vn 0.1105 0.9525 -0.2839
vn 0.1105 0.9525 -0.2839
vn 0.1105 0.9525 -0.2839
vn 0.1105 0.9525 -0.2839
vn 0.1105 0.9525 -0.2839
vn 0.1105 0.9525 -0.2839
vn 0.1105 0.9525 -0.2839
vn 0.1105 0.9525 -0.2839
vn 0.1105 0.9525 -0.2839
vn 0.1105 0.9525 -0.2839
vn 0.1105 0.9525 -0.2839
vn 0.1105 0.9525 -0.2839
vn 0.1105 0.9525 -0.2839
vn 0.1105 0.9525 -0.2839
vn 0.1105 0.9525 -0.2839
vn 0.1105 0.9525 -0.2839
vn 0.1105 0.9525 -0.2839
vn 0.1105 0.9525 -0.2839
vn 0.1105 0.9525 -0.2839
vn 0.1105 0.9525 -0.2839
vn 0.1105 0.9525 -0.2839
vn 0.1105 0.9525 -0.2839
vn 0.1105 0.9525 -0.2839
vn 0.1105 0.9525 -0.2839
vn 0.1105 0.9525 -0.2839
vn 0.1105 0.9525 -0.2839
vn 0.1105 0.9525 -0.2839
vn 0.1105 0.9525 -0.2839
vn 0.1105 0.9525 -0.2839
vn 0.1105 0.9525 -0.2839
vn 0.1105 0.9525 -0.2839
vn 0.1105 0.9525 -0.2839
vn 0.1105 0.9525 -0.2839
vn 0.1105 0.9525 -0.2839
vn 0.1105 0.9525 -0.2839
vn 0.1105 0.9525 -0.2839
vn 0.1105 0.9525 -0.2839
vn 0.1105 0.9525 -0.2839
vn 0.1105 0.9525 -0.2839
vn 0.1105 0.9525 -0.2839
# 612 vertex normals

vt 0.1106 0.1104 0.0000
vt 0.1209 0.1075 0.0000
vt 0.1209 0.9925 0.0000
vt 0.1106 0.9929 0.0000
vt 0.1311 0.1025 0.0000
vt 0.1312 0.9918 0.0000
vt 0.1417 0.1015 0.0000
vt 0.1415 0.9908 0.0000
vt 0.1522 0.1044 0.0000
vt 0.1518 0.9893 0.0000
vt 0.1624 0.1050 0.0000
vt 0.1621 0.9875 0.0000
vt 0.1721 0.1004 0.0000
vt 0.1723 0.9854 0.0000
vt 0.1815 0.0937 0.0000
vt 0.1824 0.9830 0.0000
vt 0.1920 0.0909 0.0000
vt 0.1925 0.9803 0.0000
vt 0.2029 0.0921 0.0000
vt 0.2029 0.9777 0.0000
vt 0.3339 0.6654 0.0000
vt 0.3232 0.6670 0.0000
vt 0.3166 0.6450 0.0000
vt 0.3339 0.6425 0.0000
vt 0.3134 0.6716 0.0000
vt 0.3008 0.6524 0.0000
vt 0.3054 0.6787 0.0000
vt 0.2878 0.6641 0.0000
vt 0.2998 0.6879 0.0000
vt 0.2787 0.6790 0.0000
vt 0.2971 0.6983 0.0000
vt 0.2743 0.6959 0.0000
vt 0.2975 0.7091 0.0000
vt 0.2750 0.7133 0.0000
vt 0.3010 0.7193 0.0000
vt 0.2807 0.7298 0.0000
vt 0.3073 0.7280 0.0000
vt 0.2909 0.7440 0.0000
vt 0.3160 0.7345 0.0000
vt 0.3047 0.7545 0.0000
vt 0.2136 0.0919 0.0000
vt 0.3262 0.7384 0.0000
vt 0.3208 0.7606 0.0000
vt 0.3516 0.7345 0.0000
vt 0.3628 0.7546 0.0000
vt 0.3602 0.7280 0.0000
vt 0.3767 0.7441 0.0000
vt 0.3666 0.7193 0.0000
vt 0.3869 0.7299 0.0000
vt 0.3701 0.7092 0.0000
vt 0.3926 0.7135 0.0000
vt 0.3706 0.6984 0.0000
vt 0.3933 0.6960 0.0000
vt 0.3679 0.6880 0.0000
vt 0.3890 0.6791 0.0000
vt 0.3623 0.6788 0.0000
vt 0.3799 0.6642 0.0000
vt 0.3543 0.6716 0.0000
vt 0.3670 0.6525 0.0000
vt 0.3445 0.6670 0.0000
vt 0.3512 0.6451 0.0000
vt 0.3084 0.6176 0.0000
vt 0.3339 0.6139 0.0000
vt 0.2850 0.6285 0.0000
vt 0.2658 0.6458 0.0000
vt 0.2523 0.6678 0.0000
vt 0.2458 0.6928 0.0000
vt 0.2468 0.7186 0.0000
vt 0.2552 0.7430 0.0000
vt 0.2704 0.7640 0.0000
vt 0.2910 0.7797 0.0000
vt 0.3155 0.7886 0.0000
vt 0.3765 0.7798 0.0000
vt 0.3971 0.7642 0.0000
vt 0.4123 0.7432 0.0000
vt 0.4208 0.7188 0.0000
vt 0.4218 0.6930 0.0000
vt 0.4154 0.6680 0.0000
vt 0.4020 0.6459 0.0000
vt 0.3828 0.6287 0.0000
vt 0.3594 0.6177 0.0000
vt 0.4103 0.7966 0.0000
vt 0.3975 0.7837 0.0000
vt 0.4024 0.7837 0.0000
vt 0.2255 0.6174 0.0000
vt 0.2266 0.5880 0.0000
vt 0.2454 0.5887 0.0000
vt 0.2443 0.6177 0.0000
vt 0.2277 0.5589 0.0000
vt 0.2465 0.5594 0.0000
vt 0.2282 0.5299 0.0000
vt 0.2470 0.5300 0.0000
vt 0.2283 0.5008 0.0000
vt 0.2470 0.5007 0.0000
vt 0.2279 0.4717 0.0000
vt 0.2467 0.4714 0.0000
vt 0.2273 0.4425 0.0000
vt 0.2461 0.4421 0.0000
vt 0.2265 0.4134 0.0000
vt 0.2452 0.4128 0.0000
vt 0.2256 0.3842 0.0000
vt 0.2443 0.3836 0.0000
vt 0.2246 0.3550 0.0000
vt 0.2434 0.3544 0.0000
vt 0.2236 0.3258 0.0000
vt 0.2138 0.9765 0.0000
vt 0.0167 0.0964 0.0000
vt 0.0167 0.9819 0.0000
vt 0.0277 0.0948 0.0000
vt 0.0272 0.9842 0.0000
vt 0.0384 0.0973 0.0000
vt 0.0376 0.9865 0.0000
vt 0.0481 0.1036 0.0000
vt 0.0480 0.9885 0.0000
vt 0.0581 0.1077 0.0000
vt 0.0584 0.9902 0.0000
vt 0.0686 0.1066 0.0000
vt 0.0689 0.9916 0.0000
vt 0.0792 0.1032 0.0000
vt 0.0793 0.9925 0.0000
vt 0.0900 0.1037 0.0000
vt 0.0899 0.9930 0.0000
vt 0.1004 0.1081 0.0000
vt 0.1003 0.9931 0.0000
vt 0.1099 0.0843 0.0000
vt 0.1225 0.0843 0.0000
vt 0.4103 0.7917 0.0000
vt 0.3925 0.8096 0.0000
vt 0.3881 0.8096 0.0000
vt 0.3845 0.8060 0.0000
vt 0.3845 0.8016 0.0000
vt 0.1332 0.0845 0.0000
vt 0.3975 0.8096 0.0000
vt 0.3845 0.7966 0.0000
vt 0.4024 0.8096 0.0000
vt 0.3845 0.7917 0.0000
vt 0.4068 0.8096 0.0000
vt 0.3845 0.7873 0.0000
vt 0.4103 0.8060 0.0000
vt 0.3881 0.7837 0.0000
vt 0.4103 0.8016 0.0000
vt 0.3925 0.7837 0.0000
vt 0.4068 0.7837 0.0000
vt 0.4103 0.7873 0.0000
vt 0.3236 0.8437 0.0000
vt 0.3236 0.8906 0.0000
vt 0.2925 0.8906 0.0000
vt 0.2929 0.8459 0.0000
vt 0.3236 0.9376 0.0000
vt 0.3547 0.8906 0.0000
vt 0.3543 0.9354 0.0000
vt 0.3848 0.8520 0.0000
vt 0.3865 0.8906 0.0000
vt 0.3543 0.8459 0.0000
vt 0.2624 0.9293 0.0000
vt 0.2606 0.8906 0.0000
vt 0.2929 0.9354 0.0000
vt 0.3236 0.9889 0.0000
vt 0.2932 0.9841 0.0000
vt 0.2932 0.7972 0.0000
vt 0.3236 0.7924 0.0000
vt 0.3540 0.7972 0.0000
vt 0.3540 0.9841 0.0000
vt 0.3848 0.9293 0.0000
vt 0.3814 0.9702 0.0000
vt 0.3814 0.8111 0.0000
vt 0.2624 0.8520 0.0000
vt 0.2658 0.8111 0.0000
vt 0.2658 0.9702 0.0000
vt 0.4171 0.9210 0.0000
vt 0.4031 0.9484 0.0000
vt 0.4219 0.8906 0.0000
vt 0.4171 0.8603 0.0000
vt 0.4031 0.8329 0.0000
vt 0.2301 0.8603 0.0000
vt 0.2441 0.8329 0.0000
vt 0.2253 0.8906 0.0000
vt 0.2301 0.9210 0.0000
vt 0.2441 0.9484 0.0000
vt 0.2424 0.3252 0.0000
vt 0.2754 0.3562 0.0000
vt 0.2566 0.3567 0.0000
vt 0.2762 0.3854 0.0000
vt 0.2575 0.3859 0.0000
vt 0.2770 0.4146 0.0000
vt 0.2582 0.4151 0.0000
vt 0.2776 0.4440 0.0000
vt 0.2588 0.4442 0.0000
vt 0.2778 0.4733 0.0000
vt 0.2590 0.4733 0.0000
vt 0.2775 0.5027 0.0000
vt 0.2587 0.5023 0.0000
vt 0.2766 0.5321 0.0000
vt 0.2579 0.5313 0.0000
vt 0.2749 0.5616 0.0000
vt 0.2562 0.5602 0.0000
vt 0.2722 0.5910 0.0000
vt 0.2536 0.5889 0.0000
vt 0.2684 0.6204 0.0000
vt 0.2745 0.3269 0.0000
vt 0.2558 0.3275 0.0000
vt 0.2498 0.6175 0.0000
vt 0.1351 0.0847 0.0000
vt 0.1450 0.0820 0.0000
vt 0.1568 0.0792 0.0000
vt 0.1690 0.0769 0.0000
vt 0.1799 0.0752 0.0000
vt 0.1824 0.0758 0.0000
vt 0.1911 0.0710 0.0000
vt 0.2014 0.0643 0.0000
vt 0.0274 0.0748 0.0000
vt 0.0365 0.0792 0.0000
vt 0.0390 0.0788 0.0000
vt 0.0500 0.0800 0.0000
vt 0.0623 0.0817 0.0000
vt 0.0745 0.0839 0.0000
vt 0.0848 0.0860 0.0000
vt 0.0867 0.0861 0.0000
vt 0.0974 0.0850 0.0000
vt 0.1051 0.0052 0.0000
vt 0.1089 0.0052 0.0000
vt 0.1131 0.0050 0.0000
vt 0.1180 0.0050 0.0000
vt 0.1227 0.0055 0.0000
vt 0.1271 0.0062 0.0000
vt 0.1309 0.0067 0.0000
vt 0.1342 0.0071 0.0000
vt 0.1375 0.0075 0.0000
vt 0.1404 0.0082 0.0000
vt 0.1422 0.0083 0.0000
vt 0.0730 0.0083 0.0000
vt 0.0757 0.0075 0.0000
vt 0.0787 0.0071 0.0000
vt 0.0816 0.0067 0.0000
vt 0.0850 0.0061 0.0000
vt 0.0887 0.0055 0.0000
vt 0.0927 0.0049 0.0000
vt 0.0970 0.0047 0.0000
vt 0.1010 0.0050 0.0000
vt 0.0059 0.0964 0.0000
vt 0.0058 0.9808 0.0000
vt 0.0167 0.0686 0.0000
vt 0.0713 0.0085 0.0000
vt 0.3413 0.7385 0.0000
vt 0.3467 0.7606 0.0000
vt 0.3520 0.7886 0.0000
# 246 texture coords

g NailRust
usemtl NailRust
s 2
f 156/247/613 157/248/614 177/249/615 176/250/616 
f 157/248/617 158/251/618 178/252/619 177/249/620 
f 158/251/621 159/253/622 179/254/623 178/252/624 
f 159/253/625 160/255/626 180/256/627 179/254/628 
f 160/255/629 161/257/630 181/258/631 180/256/632 
f 161/257/633 162/259/634 182/260/635 181/258/636 
f 162/259/637 163/261/638 183/262/639 182/260/640 
f 163/261/641 164/263/642 184/264/643 183/262/644 
f 164/263/645 165/265/646 185/266/647 184/264/648 
f 165/265/649 166/287/650 186/352/651 185/266/652 
f 166/486/653 167/353/654 187/354/655 186/487/656 
f 167/353/657 168/355/658 188/356/659 187/354/660 
f 168/355/661 169/357/662 189/358/663 188/356/664 
f 169/357/665 170/359/666 190/360/667 189/358/668 
f 170/359/669 171/361/670 191/362/671 190/360/672 
f 171/361/673 172/363/674 192/364/675 191/362/676 
f 172/363/677 173/365/678 193/366/679 192/364/680 
f 173/365/681 174/367/682 194/368/683 193/366/684 
f 174/367/685 175/369/686 195/370/687 194/368/688 
f 175/369/689 156/247/690 176/250/691 195/370/692 
f 176/267/693 177/268/694 197/269/695 196/270/696 
f 177/268/697 178/271/698 198/272/699 197/269/700 
f 178/271/701 179/273/702 199/274/703 198/272/704 
f 179/273/705 180/275/706 200/276/707 199/274/708 
f 180/275/709 181/277/710 201/278/711 200/276/712 
f 181/277/713 182/279/714 202/280/715 201/278/716 
f 182/279/717 183/281/718 203/282/719 202/280/720 
f 183/281/721 184/283/722 204/284/723 203/282/724 
f 184/283/725 185/285/726 205/286/727 204/284/728 
f 185/285/729 186/288/730 206/289/731 205/286/732 
f 186/490/733 187/290/734 207/291/735 206/491/736 
f 187/290/737 188/292/738 208/293/739 207/291/740 
f 188/292/741 189/294/742 209/295/743 208/293/744 
f 189/294/745 190/296/746 210/297/747 209/295/748 
f 190/296/749 191/298/750 211/299/751 210/297/752 
f 191/298/753 192/300/754 212/301/755 211/299/756 
f 192/300/757 193/302/758 213/303/759 212/301/760 
f 193/302/761 194/304/762 214/305/763 213/303/764 
f 194/304/765 195/306/766 215/307/767 214/305/768 
f 195/306/769 176/267/770 196/270/771 215/307/772 
s 1
f 196/270/773 197/269/774 217/308/775 216/309/776 
f 197/269/777 198/272/778 218/310/779 217/308/780 
f 198/272/781 199/274/782 219/311/783 218/310/784 
f 199/274/785 200/276/786 220/312/787 219/311/788 
f 200/276/789 201/278/790 221/313/791 220/312/792 
f 201/278/793 202/280/794 222/314/795 221/313/796 
f 202/280/797 203/282/798 223/315/799 222/314/800 
f 203/282/801 204/284/802 224/316/803 223/315/804 
f 204/284/805 205/286/806 225/317/807 224/316/808 
f 205/286/809 206/289/810 226/318/811 225/317/812 
f 206/491/813 207/291/814 227/319/815 226/492/816 
f 207/291/817 208/293/818 228/320/819 227/319/820 
f 208/293/821 209/295/822 229/321/823 228/320/824 
f 209/295/825 210/297/826 230/322/827 229/321/828 
f 210/297/829 211/299/830 231/323/831 230/322/832 
f 211/299/833 212/301/834 232/324/835 231/323/836 
f 212/301/837 213/303/838 233/325/839 232/324/840 
f 213/303/841 214/305/842 234/326/843 233/325/844 
f 214/305/845 215/307/846 235/327/847 234/326/848 
f 215/307/849 196/270/850 216/309/851 235/327/852 
s 4
f 216/331/853 217/332/854 236/333/855 303/334/856 
f 217/332/857 218/335/858 237/336/859 236/333/860 
f 218/335/861 219/337/862 304/338/863 237/336/864 
f 219/337/865 220/339/866 238/340/867 304/338/868 
f 220/339/869 221/341/870 239/342/871 238/340/872 
f 221/341/873 222/343/874 240/344/875 239/342/876 
f 222/343/877 223/345/878 241/346/879 240/344/880 
f 223/345/881 224/347/882 305/348/883 241/346/884 
f 224/347/885 225/349/886 242/350/887 305/348/888 
f 225/349/889 226/351/890 243/426/891 242/350/892 
f 226/446/893 227/427/894 306/428/895 243/447/896 
f 227/427/897 228/429/898 307/430/899 306/428/900 
f 228/429/901 229/431/902 244/432/903 307/430/904 
f 229/431/905 230/433/906 308/434/907 244/432/908 
f 230/433/909 231/435/910 245/436/911 308/434/912 
f 231/435/913 232/437/914 246/438/915 245/436/916 
f 232/437/917 233/439/918 309/440/919 246/438/920 
f 233/439/921 234/441/922 247/442/923 309/440/924 
f 234/441/925 235/443/926 310/444/927 247/442/928 
f 235/443/929 216/445/930 303/448/931 310/444/932 
s 2
f 157/248/933 156/247/934 248/371/935 249/372/936 
f 158/251/937 157/248/938 249/372/939 250/378/940 
f 159/253/941 158/251/942 250/378/943 251/449/944 
f 160/255/945 159/253/946 251/449/947 252/450/948 
f 161/257/949 160/255/950 252/450/951 253/451/952 
f 162/259/953 161/257/954 253/451/955 254/452/956 
f 163/261/957 162/259/958 254/452/959 255/453/960 
f 164/263/961 163/261/962 255/453/963 256/454/964 
f 165/265/965 164/263/966 256/454/967 257/455/968 
f 166/287/969 165/265/970 257/455/971 258/456/972 
f 167/353/973 166/486/974 258/488/975 259/457/976 
f 168/355/977 167/353/978 259/457/979 260/458/980 
f 169/357/981 168/355/982 260/458/983 261/459/984 
f 170/359/985 169/357/986 261/459/987 262/460/988 
f 171/361/989 170/359/990 262/460/991 263/461/992 
f 172/363/993 171/361/994 263/461/995 264/462/996 
f 173/365/997 172/363/998 264/462/999 265/463/1000 
f 174/367/1001 173/365/1002 265/463/1003 266/464/1004 
f 175/369/1005 174/367/1006 266/464/1007 267/465/1008 
f 156/247/1009 175/369/1010 267/465/1011 248/371/1012 
f 249/372/1013 248/371/1014 268/466/1015 269/467/1016 
f 250/378/1017 249/372/1018 269/467/1019 270/468/1020 
f 251/449/1021 250/378/1022 270/468/1023 271/469/1024 
f 252/450/1025 251/449/1026 271/469/1027 272/470/1028 
f 253/451/1029 252/450/1030 272/470/1031 273/471/1032 
f 254/452/1033 253/451/1034 273/471/1035 274/472/1036 
f 255/453/1037 254/452/1038 274/472/1039 275/473/1040 
f 256/454/1041 255/453/1042 275/473/1043 276/474/1044 
f 257/455/1045 256/454/1046 276/474/1047 277/475/1048 
f 258/456/1049 257/455/1050 277/475/1051 278/476/1052 
f 259/457/1053 258/488/1054 278/489/1055 279/477/1056 
f 260/458/1057 259/457/1058 279/477/1059 280/478/1060 
f 261/459/1061 260/458/1062 280/478/1063 281/479/1064 
f 262/460/1065 261/459/1066 281/479/1067 282/480/1068 
f 263/461/1069 262/460/1070 282/480/1071 283/481/1072 
f 264/462/1073 263/461/1074 283/481/1075 284/482/1076 
f 265/463/1077 264/462/1078 284/482/1079 285/483/1080 
f 266/464/1081 265/463/1082 285/483/1083 286/484/1084 
f 267/465/1085 266/464/1086 286/484/1087 287/485/1088 
f 248/371/1089 267/465/1090 287/485/1091 268/466/1092 
s 1
f 268/328/1093 273/329/1094 272/330/1095 269/373/1096 
f 282/374/1097 281/375/1098 280/376/1099 279/377/1100 
f 283/379/1101 282/374/1102 279/377/1103 278/380/1104 
f 284/381/1105 283/379/1106 278/380/1107 277/382/1108 
f 285/383/1109 284/381/1110 277/382/1111 276/384/1112 
f 286/385/1113 285/383/1114 276/384/1115 275/386/1116 
f 287/387/1117 286/385/1118 275/386/1119 274/388/1120 
f 268/328/1121 287/387/1122 274/388/1123 273/329/1124 
f 272/330/1125 271/389/1126 270/390/1127 269/373/1128 
f 288/391/1129 289/392/1130 292/393/1131 293/394/1132 
f 290/395/1133 289/392/1134 295/396/1135 296/397/1136 
f 297/398/1137 298/399/1138 295/396/1139 294/400/1140 
f 300/401/1141 301/402/1142 292/393/1143 291/403/1144 
f 290/395/1145 239/404/1146 240/405/1147 291/403/1148 
f 289/392/1149 290/395/1150 291/403/1151 292/393/1152 
f 293/394/1153 308/406/1154 245/407/1155 288/391/1156 
f 288/391/1157 245/407/1158 246/408/1159 294/400/1160 
f 289/392/1161 288/391/1162 294/400/1163 295/396/1164 
f 296/397/1165 238/409/1166 239/404/1167 290/395/1168 
f 299/410/1169 304/411/1170 238/409/1171 296/397/1172 
f 298/399/1173 299/410/1174 296/397/1175 295/396/1176 
f 294/400/1177 246/408/1178 309/412/1179 297/398/1180 
f 302/413/1181 244/414/1182 308/406/1183 293/394/1184 
f 301/402/1185 302/413/1186 293/394/1187 292/393/1188 
f 291/403/1189 240/405/1190 241/415/1191 300/401/1192 
f 236/416/1193 237/417/1194 304/411/1195 299/410/1196 
f 303/418/1197 236/416/1198 299/410/1199 298/399/1200 
f 298/399/1201 297/398/1202 310/419/1203 303/418/1204 
f 247/420/1205 310/419/1206 297/398/1207 309/412/1208 
f 306/421/1209 307/422/1210 244/414/1211 302/413/1212 
f 302/413/1213 301/402/1214 243/423/1215 306/421/1216 
f 242/424/1217 243/423/1218 301/402/1219 300/401/1220 
f 300/401/1221 241/415/1222 305/425/1223 242/424/1224 
# 153 polygons

