{
  "accessors": [
    {
      "bufferView": 2,
      "componentType": 5126,
      "count": 267,
      "max": [
        0.08369621634483337,
        0.083696149289608,
        0.5115178823471069
      ],
      "min": [
        -0.08369621634483337,
        -0.08369627594947815,
        -0.5115178823471069
      ],
      "type": "VEC3"
    },
    {
      "bufferView": 2,
      "byteOffset": 3204,
      "componentType": 5126,
      "count": 267,
      "max": [
        1.0,
        1.0,
        1.0
      ],
      "min": [
        -1.0,
        -1.0,
        -1.0
      ],
      "type": "VEC3"
    },
    {
      "bufferView": 3,
      "componentType": 5126,
      "count": 267,
      "max": [
        1.0,
        0.9999262094497681,
        0.9999999403953552,
        1.0
      ],
      "min": [
        -0.9989748597145081,
        -0.9999986886978149,
        -0.9999933838844299,
        1.0
      ],
      "type": "VEC4"
    },
    {
      "bufferView": 1,
      "componentType": 5126,
      "count": 267,
      "max": [
        0.42189154028892517,
        0.9930967092514038
      ],
      "min": [
        0.005784995853900909,
        0.004718855023384094
      ],
      "type": "VEC2"
    },
    {
      "bufferView": 1,
      "byteOffset": 2136,
      "componentType": 5126,
      "count": 267,
      "max": [
        0.42189154028892517,
        0.9930967092514038
      ],
      "min": [
        0.005784995853900909,
        0.004718855023384094
      ],
      "type": "VEC2"
    },
    {
      "bufferView": 1,
      "byteOffset": 4272,
      "componentType": 5126,
      "count": 267,
      "max": [
        0.42189154028892517,
        0.9930967092514038
      ],
      "min": [
        0.005784995853900909,
        0.004718855023384094
      ],
      "type": "VEC2"
    },
    {
      "bufferView": 0,
      "componentType": 5125,
      "count": 918,
      "type": "SCALAR"
    },
    {
      "bufferView": 2,
      "byteOffset": 6408,
      "componentType": 5126,
      "count": 267,
      "max": [
        0.08369621634483337,
        0.083696149289608,
        0.5115178823471069
      ],
      "min": [
        -0.08369621634483337,
        -0.08369627594947815,
        -0.5115178823471069
      ],
      "type": "VEC3"
    },
    {
      "bufferView": 2,
      "byteOffset": 9612,
      "componentType": 5126,
      "count": 267,
      "max": [
        1.0,
        1.0,
        1.0
      ],
      "min": [
        -1.0,
        -1.0,
        -1.0
      ],
      "type": "VEC3"
    },
    {
      "bufferView": 3,
      "byteOffset": 4272,
      "componentType": 5126,
      "count": 267,
      "max": [
        1.0,
        0.9999262094497681,
        0.9999999403953552,
        1.0
      ],
      "min": [
        -0.9989748597145081,
        -0.9999986886978149,
        -0.9999933838844299,
        1.0
      ],
      "type": "VEC4"
    },
    {
      "bufferView": 1,
      "byteOffset": 6408,
      "componentType": 5126,
      "count": 267,
      "max": [
        0.42189154028892517,
        0.9930967092514038
      ],
      "min": [
        0.005784995853900909,
        0.004718855023384094
      ],
      "type": "VEC2"
    },
    {
      "bufferView": 1,
      "byteOffset": 8544,
      "componentType": 5126,
      "count": 267,
      "max": [
        0.42189154028892517,
        0.9930967092514038
      ],
      "min": [
        0.005784995853900909,
        0.004718855023384094
      ],
      "type": "VEC2"
    },
    {
      "bufferView": 1,
      "byteOffset": 10680,
      "componentType": 5126,
      "count": 267,
      "max": [
        0.42189154028892517,
        0.9930967092514038
      ],
      "min": [
        0.005784995853900909,
        0.004718855023384094
      ],
      "type": "VEC2"
    },
    {
      "bufferView": 0,
      "byteOffset": 3672,
      "componentType": 5125,
      "count": 918,
      "type": "SCALAR"
    }
  ],
  "asset": {
    "extras": {
      "author": "plaggy (https://sketchfab.com/plaggy)",
      "license": "CC-BY-4.0 (http://creativecommons.org/licenses/by/4.0/)",
      "source": "https://sketchfab.com/3d-models/cc0-nail-d995fda6a49b4772ad093f74801c37c2",
      "title": "CC0 - Nail"
    },
    "generator": "Sketchfab-15.24.0",
    "version": "2.0"
  },
  "bufferViews": [
    {
      "buffer": 0,
      "byteLength": 7344,
      "name": "floatBufferViews",
      "target": 34963
    },
    {
      "buffer": 0,
      "byteLength": 12816,
      "byteOffset": 7344,
      "byteStride": 8,
      "name": "floatBufferViews",
      "target": 34962
    },
    {
      "buffer": 0,
      "byteLength": 12816,
      "byteOffset": 20160,
      "byteStride": 12,
      "name": "floatBufferViews",
      "target": 34962
    },
    {
      "buffer": 0,
      "byteLength": 8544,
      "byteOffset": 32976,
      "byteStride": 16,
      "name": "floatBufferViews",
      "target": 34962
    }
  ],
  "buffers": [
    {
      "byteLength": 41520,
      "uri": "scene.bin"
    }
  ],
  "images": [
    {
      "uri": "textures/Nail_baseColor.png"
    },
    {
      "uri": "textures/Nail_metallicRoughness.png"
    },
    {
      "uri": "textures/Nail_normal.png"
    },
    {
      "uri": "textures/NailRust_baseColor.png"
    },
    {
      "uri": "textures/NailRust_metallicRoughness.png"
    },
    {
      "uri": "textures/NailRust_normal.png"
    }
  ],
  "materials": [
    {
      "name": "Nail",
      "normalTexture": {
        "index": 2
      },
      "occlusionTexture": {
        "index": 1
      },
      "pbrMetallicRoughness": {
        "baseColorTexture": {
          "index": 0
        },
        "metallicRoughnessTexture": {
          "index": 1
        }
      }
    },
    {
      "name": "NailRust",
      "normalTexture": {
        "index": 5
      },
      "occlusionTexture": {
        "index": 4
      },
      "pbrMetallicRoughness": {
        "baseColorTexture": {
          "index": 3
        },
        "metallicRoughnessTexture": {
          "index": 4
        }
      }
    }
  ],
  "meshes": [
    {
      "name": "Nail_Nail_0",
      "primitives": [
        {
          "attributes": {
            "NORMAL": 1,
            "POSITION": 0,
            "TANGENT": 2,
            "TEXCOORD_0": 3,
            "TEXCOORD_1": 4,
            "TEXCOORD_2": 5
          },
          "indices": 6,
          "material": 0,
          "mode": 4
        }
      ]
    },
    {
      "name": "NailRust_NailRust_0",
      "primitives": [
        {
          "attributes": {
            "NORMAL": 8,
            "POSITION": 7,
            "TANGENT": 9,
            "TEXCOORD_0": 10,
            "TEXCOORD_1": 11,
            "TEXCOORD_2": 12
          },
          "indices": 13,
          "material": 1,
          "mode": 4
        }
      ]
    }
  ],
  "nodes": [
    {
      "children": [
        1
      ],
      "matrix": [
        1.0,
        0.0,
        0.0,
        0.0,
        0.0,
        2.220446049250313e-16,
        -1.0,
        0.0,
        0.0,
        1.0,
        2.220446049250313e-16,
        0.0,
        0.0,
        0.0,
        0.0,
        1.0
      ],
      "name": "Sketchfab_model"
    },
    {
      "children": [
        2
      ],
      "matrix": [
        0.02539999969303608,
        0.0,
        0.0,
        0.0,
        0.0,
        0.0,
        0.02539999969303608,
        0.0,
        0.0,
        -0.02539999969303608,
        0.0,
        0.0,
        0.0,
        0.0,
        0.0,
        1.0
      ],
      "name": "bba0b10787544be6ba357550912afbc3.fbx"
    },
    {
      "children": [
        3,
        5
      ],
      "name": "RootNode"
    },
    {
      "children": [
        4
      ],
      "matrix": [
        0.9472984651049317,
        0.28513371882592553,
        0.14602869717400999,
        0.0,
        0.23437960725944376,
        -0.3061330840336973,
        -0.9226856098156764,
        0.0,
        -0.21838456381060808,
        0.9082848106450507,
        -0.35682892965780577,
        0.0,
        -0.1908588856458664,
        -1.862645149230957e-08,
        0.02631181664764881,
        1.0
      ],
      "name": "Nail"
    },
    {
      "mesh": 0,
      "name": "Nail_Nail_0"
    },
    {
      "children": [
        6
      ],
      "matrix": [
        0.9924387813390184,
        -0.1211001635047346,
        -0.02000039233241524,
        0.0,
        -0.05343121522296527,
        -0.27955362701093844,
        -0.9586422037782534,
        0.0,
        0.11050054540191714,
        0.9524623457250978,
        -0.283910389809396,
        0.0,
        0.19085879623889923,
        -1.862645149230957e-08,
        -0.026311932131648064,
        1.0
      ],
      "name": "NailRust"
    },
    {
      "mesh": 1,
      "name": "NailRust_NailRust_0"
    }
  ],
  "samplers": [
    {
      "magFilter": 9729,
      "minFilter": 9987,
      "wrapS": 10497,
      "wrapT": 10497
    }
  ],
  "scene": 0,
  "scenes": [
    {
      "name": "Sketchfab_Scene",
      "nodes": [
        0
      ]
    }
  ],
  "textures": [
    {
      "sampler": 0,
      "source": 0
    },
    {
      "sampler": 0,
      "source": 1
    },
    {
      "sampler": 0,
      "source": 2
    },
    {
      "sampler": 0,
      "source": 3
    },
    {
      "sampler": 0,
      "source": 4
    },
    {
      "sampler": 0,
      "source": 5
    }
  ]
}
