# File produced by Amaz3D Software. 

o ProjektM_Large_high_meshId0_name.001
v -0.553933 -0.451567 0.893740
v -0.578291 -0.461569 0.890842
v -0.387774 -0.506110 0.685272
v -0.392287 -0.451012 0.716423
v -0.290214 -0.433806 0.773167
v -0.235854 -0.474876 0.834577
v -0.319726 -0.492888 0.723414
v -0.147950 0.491496 0.486669
v -0.009919 0.470479 0.476562
v -0.441559 -0.361773 0.737837
v -0.519102 -0.392920 0.695654
v -0.525865 -0.455073 0.633725
v 0.313929 -0.470676 0.792491
v 0.348597 -0.484977 0.760175
v 0.324880 -0.513635 0.780550
v 0.267484 -0.536582 0.724513
v 0.154169 -0.349084 0.676058
v -0.477789 -0.335919 0.690558
v -0.403369 -0.020307 0.559258
v -0.452608 -0.109138 0.528380
v 0.398045 -0.164233 0.070435
v 0.393901 -0.083061 0.223290
v -0.349325 -0.352665 0.693752
v 0.113664 -0.516058 0.662700
v -0.229796 -0.501330 0.638690
v 0.224049 0.426013 -0.095671
v 0.235167 0.488949 -0.128160
v 0.280516 0.475790 -0.131539
v 0.241190 0.434256 -0.154792
v -0.262848 -0.381878 0.642140
v -0.324465 -0.219328 0.686890
v 0.252263 -0.319354 0.650584
v -0.417362 0.391253 -0.139984
v -0.388712 0.310505 -0.199350
v 0.296784 -0.376481 -0.476431
v 0.262552 -0.444536 -0.476572
v 0.213958 -0.392721 -0.478611
v 0.306260 -0.408024 0.538186
v 0.804472 -0.406663 0.080660
v 0.761850 -0.370933 0.189947
v 0.766882 -0.492236 0.176594
v 0.842666 -0.444015 0.109101
v 0.301177 -0.522603 0.668912
v -0.127390 0.115983 0.528736
v -0.496550 -0.482432 0.644372
v -0.196460 0.178100 0.537418
v -0.333976 0.026681 0.583962
v -0.002190 -0.517404 0.618340
v -0.014902 -0.475917 0.625282
v 0.065865 -0.051543 0.534285
v 0.020233 -0.400980 0.645404
v 0.284321 0.431906 0.287402
v 0.338703 0.334528 0.076667
v 0.310805 0.527116 0.202787
v -0.198634 -0.177321 0.585042
v 0.106443 0.499797 -0.253865
v 0.141305 0.425567 -0.193654
v 0.118682 0.484640 -0.291260
v -0.102159 -0.501985 0.562844
v -0.317928 -0.034118 -0.429524
v -0.096665 0.222080 -0.322839
v -0.093301 0.115735 -0.334458
v -0.192606 -0.064114 -0.414245
v -0.038958 -0.325419 0.581218
v 0.220704 -0.035143 0.424948
v 0.232570 -0.525900 0.597522
v -0.041821 0.480065 -0.348930
v -0.089692 0.472443 -0.288940
v -0.041517 0.015376 0.467598
v 0.182363 -0.063358 0.523400
v -0.352414 0.215233 0.455457
v -0.392908 -0.166222 -0.501163
v -0.412796 -0.357599 -0.682548
v -0.504078 -0.363857 -0.640565
v -0.453967 0.491847 -0.136654
v -0.436679 0.189204 -0.132248
v -0.525621 0.181052 -0.065668
v -0.536993 -0.402553 0.444574
v -0.995163 -0.440856 0.120811
v -0.950055 -0.495448 0.129480
v -0.870613 -0.419544 0.201115
v 0.748591 -0.498369 0.535250
v 0.728299 -0.522241 0.491172
v 0.759682 -0.461701 0.506845
v -0.008529 0.225772 -0.354959
v -0.089845 0.429647 -0.333568
v 0.060948 0.173531 0.490606
v -0.467659 0.080937 0.329920
v -0.539221 0.100600 0.271963
v 0.066295 0.457739 0.467191
v 0.029316 0.310680 0.488354
v 0.189567 0.129998 0.468862
v 0.022076 0.459006 0.442041
v 0.103048 0.409080 0.393088
v 0.564370 -0.310858 0.372495
v 0.738455 -0.330364 0.332162
v 0.692591 -0.302156 0.225666
v 0.445534 -0.207029 0.312114
v -0.293044 0.507128 0.429256
v -0.031737 -0.449755 -0.616685
v -0.122065 -0.344865 -0.515847
v -0.033681 -0.400452 -0.647179
v 0.376956 -0.313041 -0.364707
v 0.353069 -0.334905 -0.434017
v 0.270411 -0.284759 -0.405433
v -0.040579 0.163108 0.458494
v 0.791027 -0.455243 0.046702
v 0.713219 -0.496056 0.102542
v 0.554359 -0.408275 0.015971
v 0.398897 -0.464166 -0.523366
v 0.463733 -0.471988 -0.367506
v 0.278861 -0.064152 -0.210943
v 0.279506 0.007068 -0.173708
v -0.474542 0.341702 0.327226
v -0.537511 0.379166 0.237844
v -0.593230 0.107474 0.178462
v -0.403599 -0.045927 -0.418803
v -0.420704 -0.049688 0.396855
v -0.401225 0.297724 0.329131
v 0.210252 -0.126927 0.336044
v -0.187820 0.506071 0.438339
v -0.126691 0.450455 0.430752
v 0.282173 -0.042300 0.312001
v 0.289754 -0.469109 0.445228
v 0.278005 -0.346578 0.416323
v 0.737175 -0.451847 0.377276
v 0.291800 0.479158 0.008573
v 0.244256 0.417834 0.169091
v -0.392359 0.407160 0.379895
v -0.266170 0.269531 0.508066
v 0.728195 -0.437021 0.493023
v -0.893899 -0.519932 0.075203
v -0.984816 -0.465277 0.056397
v -0.903276 -0.495209 0.017903
v -0.517590 -0.452697 0.387536
v 0.352668 -0.433184 0.406443
v 0.577397 -0.480692 0.377323
v 0.530372 -0.427563 0.397305
v 0.333108 -0.477509 0.383560
v 0.236716 -0.475414 0.426866
v -0.555882 -0.415776 0.395138
v 0.924327 -0.395347 0.380277
v 0.903197 -0.444921 0.392549
v -0.894733 -0.437949 0.406081
v -0.855162 -0.468921 0.401357
v -0.619496 -0.407349 0.337635
v -0.925256 -0.451274 0.371377
v -0.891948 -0.491220 0.387832
v 0.755331 -0.453262 0.339008
v -0.688461 -0.445128 0.328979
v -0.368199 0.489962 0.343457
v 0.208069 0.123707 0.336605
v 0.330616 -0.171274 0.344764
v 0.063826 -0.475893 -0.789466
v 0.123791 -0.475893 -0.743417
v 0.102915 -0.501411 -0.702733
v -0.344649 0.442446 0.332927
v 0.179050 0.462124 0.391548
v 0.225805 0.377653 0.364528
v -0.468993 0.485331 0.069376
v -0.391912 0.428748 0.342228
v -0.648083 -0.157476 0.271961
v -0.621943 -0.311906 0.323882
v -0.724401 -0.279748 0.265311
v 0.128107 0.439571 -0.259289
v 0.213035 0.423581 0.264598
v -0.819845 -0.259210 0.132407
v -0.500245 -0.112569 0.376974
v 0.943372 -0.374657 0.311318
v -0.695368 -0.365953 -0.172692
v -0.634317 -0.215596 -0.094700
v -0.615941 -0.370885 -0.194554
v 0.225477 0.411237 0.307974
v -0.349156 0.229911 -0.286130
v -0.260298 0.220687 -0.351336
v 0.816649 -0.484747 0.104113
v 0.999697 -0.436446 0.321678
v 0.659792 -0.489106 0.372322
v 0.798793 -0.490230 0.294094
v -0.804275 -0.443021 0.265665
v 0.243759 0.533184 0.299933
v 0.582813 -0.279719 0.130461
v 0.472068 -0.197911 0.235013
v -0.023025 0.051162 -0.404597
v 0.290662 0.125898 0.283051
v -0.390254 0.179008 -0.238195
v -0.469927 -0.123735 -0.362622
v -0.819149 -0.320937 0.195142
v -0.171691 0.345227 -0.365677
v 0.514378 -0.298801 0.047962
v -0.737590 -0.457780 0.236874
v -0.416114 0.441863 0.256937
v -0.539720 -0.512739 -0.820171
v -0.582873 -0.469314 -0.861429
v -0.003556 -0.478390 -0.540967
v -0.712449 -0.528172 -0.600652
v -0.753729 -0.477148 -0.665784
v -0.553007 -0.367579 -0.598258
v -0.562469 -0.497623 -0.575758
v 0.321954 0.535377 0.034796
v 0.411187 -0.403608 -0.561689
v 0.324324 0.113673 0.143055
v 0.310831 0.115636 0.077895
v 0.115672 0.124276 -0.285547
v 0.154067 -0.086646 -0.351905
v 0.063911 -0.017359 -0.418275
v -0.586882 0.189415 0.061856
v -0.855831 -0.288379 0.084075
v -0.519134 -0.128022 -0.169049
v -0.680922 -0.115661 -0.023771
v 0.986797 -0.444838 0.379420
v 0.937088 -0.481541 0.339404
v 0.295394 0.037282 -0.121171
v 0.357330 -0.154387 -0.192294
v 0.064037 -0.428994 -0.824332
v 0.037073 -0.365488 -0.686529
v 0.120197 -0.402745 -0.667539
v -0.509629 -0.405534 -0.776120
v -0.542465 -0.458451 -0.745603
v 0.461603 -0.268286 -0.210293
v 0.331641 -0.231589 -0.062457
v -0.338302 0.470143 -0.266479
v -0.506307 0.492220 0.016986
v -0.561395 0.370266 0.106269
v 0.275312 0.204246 -0.137291
v -0.529824 -0.487548 -0.626018
v 0.304826 0.415199 0.021796
v 0.325078 0.478508 -0.059141
v 0.262362 0.038526 -0.011379
v -0.775366 -0.485549 -0.639744
v 0.530974 -0.474311 -0.015042
v -0.493796 0.491806 0.228807
v -0.718254 -0.214373 -0.038109
v -0.462293 0.428378 -0.014373
v -0.393163 0.471240 -0.145820
v 0.573729 -0.384559 0.415162
v 0.664263 -0.436784 -0.297260
v 0.484158 -0.473227 -0.089845
v -0.732983 -0.474498 -0.072512
v -0.762243 -0.423643 -0.079776
v -0.741661 -0.492805 -0.194414
v -0.861533 -0.330785 0.025180
v -0.382469 0.185272 -0.128003
v 0.485954 -0.480500 -0.160349
v 0.604281 -0.494563 -0.316122
v -0.525528 -0.341803 -0.176294
v 0.049450 0.432285 -0.247140
v -0.431779 -0.089002 -0.178405
v -0.832137 -0.469357 -0.247943
v -0.773662 -0.426140 -0.150906
v -0.585952 -0.460632 -0.179436
v -0.773034 -0.481127 -0.265597
v 0.398928 -0.248017 -0.316464
v -0.236273 0.470610 -0.259728
v -0.271805 0.426398 -0.235866
v -0.048868 0.431269 -0.283182
v 0.637448 -0.408547 -0.367297
v -0.514060 -0.422878 -0.321070
v -0.477319 -0.457314 -0.278762
v -0.477029 -0.342420 -0.230755
v 0.280848 0.517295 0.016414
v 0.155925 -0.461091 -0.585911
v 0.160078 -0.301611 -0.553832
v 0.644914 -0.459756 -0.352535
v -0.564101 -0.348328 -0.420509
v -0.533239 -0.461130 -0.406505
v 0.044190 -0.489883 -0.712296
v 0.452637 -0.425002 -0.390433
v -0.127306 -0.179198 -0.441001
v 0.445980 -0.397813 -0.528041
v -0.525073 -0.240461 -0.456396
v -0.645210 -0.368702 -0.551847
v 0.250299 -0.468434 -0.431618
v 0.122834 -0.474512 -0.490586
v -0.108275 -0.438726 -0.534667
v 0.025686 -0.287688 -0.608057
v -0.591067 -0.496477 -0.522066
v -0.104500 -0.463814 -0.482665
v -0.358504 -0.455952 -0.707297
v -0.495813 -0.474662 -0.862291
v -0.515289 -0.437689 -0.870893
v 0.389235 -0.371524 -0.065496
v 0.442233 -0.439075 -0.536684
v 0.361683 -0.472065 -0.435689
v -0.370300 -0.500888 -0.688806
v 0.250365 0.427576 0.022206
v 0.036197 0.439684 0.175109
v -0.331471 0.439569 0.001668
v -0.142679 0.426141 0.326318
v -0.464805 0.425947 0.137645
v -0.297341 0.444248 0.383174
#291 Vertices

vn 0.428023 0.440318 0.789251
vn -0.987113 -0.156756 -0.032185
vn 0.365807 -0.719331 0.590549
vn 0.244993 -0.010538 0.969468
vn -0.018446 0.747724 0.663754
vn 0.721359 -0.247255 0.646920
vn -0.131788 -0.934855 0.329664
vn -0.019310 0.469001 0.882987
vn -0.930733 0.346369 0.117319
vn -0.976788 -0.176815 -0.120922
vn -0.723994 0.403383 0.559566
vn -0.946395 0.285425 0.151225
vn -0.665923 0.430801 0.609063
vn 0.985036 0.146072 0.091470
vn 0.870342 0.399923 0.287344
vn 0.819796 0.422062 -0.387037
vn 0.334198 0.260957 0.905656
vn -0.192036 0.322322 0.926947
vn -0.451174 -0.095268 0.887337
vn -0.265624 0.306013 0.914221
vn 0.444058 -0.619217 0.647598
vn 0.544641 0.238304 -0.804100
vn -0.296661 0.953788 0.047749
vn -0.592277 0.804593 0.042879
vn 0.717166 0.123123 -0.685940
vn 0.436611 0.261701 0.860746
vn 0.331979 0.181297 0.925700
vn 0.742249 0.142022 -0.654901
vn -0.189692 0.476775 -0.858314
vn -0.325523 -0.276151 -0.904309
vn 0.988581 0.150560 0.006218
vn 0.981443 0.184292 -0.052967
vn 0.714309 0.519660 0.468740
vn 0.945054 0.091219 0.313929
vn 0.420709 0.708102 -0.567093
vn 0.757092 0.500140 -0.420323
vn 0.747233 -0.420232 -0.514828
vn 0.693703 -0.690052 -0.206406
vn 0.064728 0.260464 0.963311
vn -0.340954 0.407621 0.847110
vn -0.108097 -0.814194 0.570441
vn -0.061973 0.066270 0.995875
vn 0.442647 0.064758 0.894355
vn -0.200713 0.319796 0.925983
vn -0.389257 0.272566 0.879879
vn 0.999311 -0.006876 0.036468
vn 0.905051 0.369133 0.211243
vn 0.876548 0.026899 0.480563
vn 0.502949 0.220069 -0.835830
vn -0.127380 0.732241 0.669027
vn 0.117064 0.894037 0.432427
vn 0.714482 0.147457 -0.683938
vn -0.081268 -0.988410 -0.128226
vn 0.294101 0.424420 -0.856372
vn 0.090523 0.312648 -0.945546
vn 0.074176 0.124601 -0.989430
vn -0.143021 0.289602 -0.946401
vn 0.087188 0.277818 0.956669
vn 0.979487 0.166182 0.113968
vn 0.274635 -0.935874 -0.220716
vn 0.233490 -0.952841 -0.193848
vn 0.914086 -0.396878 0.083275
vn 0.115580 0.292119 -0.949372
vn -0.229685 0.921976 0.311776
vn 0.027428 0.226582 0.973606
vn 0.458912 0.132486 0.878548
vn 0.366504 0.370168 0.853610
vn -0.750768 0.300501 0.588257
vn -0.272604 0.647547 -0.711597
vn 0.162950 0.666546 -0.727436
vn -0.656213 0.591435 -0.468603
vn -0.365083 0.105075 -0.925026
vn -0.782371 0.205758 -0.587843
vn -0.793228 0.251400 -0.554606
vn -0.976054 0.211842 0.049420
vn -0.545395 -0.144138 0.825693
vn -0.810625 0.490706 0.319523
vn -0.552540 -0.647386 0.524967
vn 0.997453 0.002766 -0.071267
vn -0.504439 -0.425382 0.751393
vn 0.574532 -0.772962 -0.269151
vn -0.127994 0.315216 -0.940349
vn 0.244464 0.068032 -0.967269
vn 0.182254 0.256438 0.949222
vn -0.032974 0.082680 0.996030
vn 0.570405 0.150395 0.807478
vn -0.010260 0.995533 -0.093856
vn 0.107056 0.828400 -0.549811
vn -0.107713 0.977448 -0.181640
vn 0.462328 0.760979 0.455153
vn 0.105948 0.409618 0.906084
vn 0.298260 0.781952 0.547351
vn 0.415409 0.903625 -0.104386
vn -0.664487 0.305608 -0.681954
vn -0.752561 -0.518233 -0.406309
vn 0.199458 0.358842 -0.911838
vn 0.191219 0.004317 0.981538
vn 0.410506 0.563747 -0.716711
vn 0.480514 0.676321 -0.558297
vn 0.134656 0.817075 -0.560585
vn 0.415302 0.155335 0.896323
vn 0.205632 -0.390316 -0.897423
vn 0.213343 -0.649550 -0.729774
vn 0.416954 0.236751 -0.877553
vn 0.916775 0.297894 0.266051
vn 0.136843 -0.982104 -0.129409
vn -0.284689 -0.650858 -0.703801
vn 0.508793 -0.810061 -0.291428
vn 0.643153 -0.652962 -0.399994
vn -0.905051 0.343231 0.251148
vn -0.708905 0.211756 0.672765
vn -0.638285 0.115894 0.761026
vn -0.906309 0.184686 0.380125
vn -0.559218 0.463252 -0.687513
vn -0.821703 0.159488 0.547145
vn -0.523549 0.121966 0.843221
vn -0.555026 0.206607 0.805767
vn -0.930727 0.223012 0.289850
vn 0.852214 0.247137 0.461146
vn -0.470911 0.407765 0.782286
vn -0.037121 0.248809 0.967841
vn 0.248193 0.737526 -0.628057
vn 0.176603 0.901760 -0.394512
vn 0.462500 0.313621 0.829298
vn 0.955919 -0.283432 -0.076713
vn 0.106170 -0.988975 0.103228
vn -0.287007 0.955844 -0.063160
vn -0.518645 0.853871 -0.043719
vn -0.341566 0.934634 0.098959
vn -0.747669 0.174047 0.640858
vn -0.407691 0.259313 0.875525
vn -0.409661 -0.665382 -0.624055
vn -0.239556 -0.905092 -0.351314
vn -0.696243 0.082235 -0.713080
vn -0.922894 -0.301224 0.239854
vn -0.645165 0.135672 0.751901
vn 0.123151 0.150106 0.980970
vn -0.206963 -0.741858 0.637818
vn -0.304701 -0.105866 0.946546
vn 0.161608 -0.649660 0.742849
vn -0.064996 0.527174 0.847268
vn 0.214473 -0.464398 0.859265
vn 0.026507 -0.008339 0.999614
vn 0.057664 0.522441 0.850723
vn -0.019410 -0.242124 0.970051
vn -0.139752 -0.573609 0.807120
vn 0.151636 -0.513112 0.844821
vn -0.163680 0.833956 -0.526998
vn -0.497477 0.547247 0.673081
vn -0.071386 0.143190 0.987117
vn 0.814108 0.025893 0.580136
vn -0.418287 -0.877723 -0.233748
vn -0.653517 -0.588457 -0.476060
vn 0.883887 -0.228099 -0.408307
vn 0.518242 -0.850900 -0.085991
vn 0.152041 0.920258 -0.360568
vn 0.586922 0.545024 0.598725
vn 0.967416 0.063477 0.245107
vn 0.705222 0.185683 0.684239
vn 0.100388 0.313095 0.944401
vn 0.123383 0.991570 -0.039572
vn 0.399351 0.901693 0.165734
vn 0.781261 0.621596 0.057010
vn -0.353469 -0.899160 -0.258012
vn -0.664767 0.297603 0.685214
vn -0.198335 0.402163 0.893828
vn -0.451633 0.687446 0.568723
vn -0.771750 0.482541 0.414193
vn -0.724356 0.461743 0.511959
vn 0.514684 0.724990 -0.457701
vn -0.039947 0.419630 -0.906816
vn -0.359933 0.680152 -0.638624
vn -0.601756 0.406887 -0.687264
vn -0.486196 0.284632 -0.826195
vn -0.142708 0.265860 -0.953390
vn -0.709745 0.258988 -0.655124
vn 0.374519 -0.907770 -0.188914
vn 0.006008 0.993627 0.112562
vn 0.703975 -0.462014 -0.539409
vn 0.584647 -0.275323 0.763141
vn 0.178356 -0.975846 0.126150
vn 0.168974 -0.968237 0.184293
vn -0.759406 0.634648 0.143262
vn 0.372200 0.856710 -0.357091
vn 0.606834 0.781337 -0.145825
vn -0.961516 0.268729 0.057206
vn -0.963007 0.231788 -0.137445
vn -0.917042 0.378413 -0.125848
vn -0.682551 -0.590067 -0.431215
vn -0.194280 0.139032 -0.971043
vn 0.496486 0.641004 -0.585334
vn -0.453393 -0.817629 0.354849
vn 0.624091 0.777346 -0.079011
vn -0.984777 0.158209 -0.072004
vn 0.114166 0.621108 -0.775365
vn -0.154179 -0.904896 -0.396726
vn -0.442283 -0.871050 -0.213679
vn 0.371675 -0.722325 -0.583184
vn 0.177916 -0.401685 -0.898329
vn 0.094867 -0.461869 -0.881860
vn -0.166614 -0.975951 0.140565
vn 0.101339 0.094343 -0.990369
vn -0.219562 0.467205 -0.856453
vn -0.318238 0.159981 -0.934415
vn 0.636642 0.178705 -0.750168
vn 0.690838 0.413142 -0.593343
vn 0.552176 0.501100 -0.666334
vn 0.886229 0.074023 -0.457296
vn -0.528057 0.182615 -0.829342
vn -0.797695 0.399132 -0.452080
vn 0.796570 0.603854 -0.028921
vn 0.704584 0.239330 -0.668044
vn 0.994621 0.049098 0.091210
vn 0.046356 0.683729 -0.728262
vn -0.060854 0.830628 -0.553492
vn 0.567378 0.496417 -0.657003
vn -0.504854 0.844543 -0.178521
vn -0.895664 0.429785 0.114325
vn 0.695531 0.510142 0.505956
vn 0.896503 0.409968 -0.167955
vn 0.844756 0.534932 -0.015344
vn 0.954813 0.242231 -0.172212
vn 0.992844 -0.089033 -0.079585
vn 0.968173 0.114127 -0.222747
vn -0.546961 0.362911 -0.754407
vn -0.976675 -0.026119 -0.213131
vn -0.745502 0.027024 -0.665955
vn -0.785415 0.586828 -0.196867
vn -0.652010 0.419048 -0.631887
vn -0.790108 0.606900 -0.086039
vn -0.964739 0.219114 -0.145832
vn -0.999110 -0.015030 0.039415
vn 0.972263 0.118955 -0.201384
vn -0.601516 0.722111 0.341664
vn 0.503719 0.822623 0.263738
vn 0.200682 -0.965399 0.166529
vn 0.325760 0.746487 0.580204
vn -0.129646 0.609304 0.782267
vn 0.805485 0.275037 0.524928
vn 0.835563 0.262967 0.482371
vn 0.707741 0.057257 -0.704148
vn -0.231563 -0.614604 0.754083
vn -0.473234 -0.719821 -0.507846
vn -0.784794 0.030140 -0.619024
vn -0.346797 -0.931400 0.110568
vn 0.017446 -0.994525 0.103037
vn 0.415247 -0.901511 -0.121853
vn -0.978012 0.132526 -0.161026
vn -0.394466 0.202272 -0.896372
vn 0.853898 0.118613 0.506743
vn -0.985361 0.139688 -0.097726
vn -0.801018 0.550777 -0.234553
vn 0.587457 0.490705 -0.643509
vn -0.784360 0.052912 0.618045
vn -0.113866 -0.062426 -0.991533
vn 0.168531 0.008339 -0.985661
vn 0.353475 0.627900 -0.693395
vn 0.196871 0.920951 0.336290
vn 0.128131 0.971943 0.197256
vn 0.004551 0.998682 0.051126
vn 0.511438 0.682254 -0.522456
vn -0.932244 0.203456 -0.299208
vn -0.938946 0.090628 0.331913
vn -0.246242 0.958673 -0.142518
vn -0.963502 0.049561 -0.263072
vn -0.915928 0.226365 -0.331413
vn -0.817715 0.543341 -0.190063
vn 0.881549 -0.449131 -0.145438
vn 0.787361 0.391313 -0.476379
vn 0.303982 -0.570943 -0.762639
vn -0.834812 0.188074 0.517413
vn -0.695339 -0.313807 0.646552
vn 0.435344 0.236404 -0.868671
vn 0.635685 0.722734 -0.271221
vn -0.776201 0.592011 -0.216875
vn -0.150232 0.453434 -0.878537
vn -0.440280 0.376877 -0.814934
vn -0.613965 0.753198 -0.236093
vn -0.943667 0.279515 -0.177098
vn 0.004438 -0.795265 -0.606246
vn 0.615723 -0.742465 -0.263878
vn 0.133172 -0.973318 0.186860
vn -0.101747 0.547402 -0.830662
vn 0.534192 0.243842 -0.809432
vn 0.703811 -0.080060 -0.705861
vn -0.661115 -0.744516 -0.092857
vn 0.645368 0.125341 -0.753518
vn 0.556793 -0.602222 -0.572110
vn 0.026621 0.999417 0.021379
vn -0.023142 0.999730 0.002209
vn 0.013720 0.999905 -0.001563
#291 Normals

vt 0.408489 0.527677
vt 0.411546 0.526903
vt 0.393932 0.567300
vt 0.383417 0.563405
vt 0.384043 0.593675
vt 0.400451 0.604482
vt 0.393150 0.575708
vt 0.366071 0.541008
vt 0.372245 0.509341
vt 0.378375 0.487797
vt 0.241173 0.516311
vt 0.268704 0.494999
vt 0.354595 0.522213
vt 0.353236 0.573322
vt 0.400363 0.632699
vt 0.377789 0.634423
vt 0.348118 0.608842
vt 0.308561 0.566062
vt 0.404730 0.646274
vt 0.157811 0.573137
vt 0.223233 0.540093
vt 0.171607 0.605374
vt 0.388365 0.673173
vt 0.365866 0.699309
vt 0.308935 0.675867
vt 0.192528 0.654294
vt 0.275843 0.611261
vt 0.152642 0.502309
vt 0.349883 0.441004
vt 0.144011 0.638517
vt 0.043732 0.602665
vt 0.121180 0.455364
vt 0.193164 0.431388
vt 0.258609 0.433980
vt 0.236830 0.459474
vt 0.056579 0.511084
vt 0.052420 0.559039
vt 0.044813 0.542062
vt 0.035622 0.616592
vt 0.018900 0.559901
vt 0.033100 0.494107
vt 0.086359 0.475974
vt 0.131650 0.539149
vt 0.364317 0.423306
vt 0.350138 0.424644
vt 0.057637 0.476438
vt 0.075586 0.465531
vt 0.043056 0.470349
vt 0.354332 0.692900
vt 0.386443 0.487028
vt 0.851571 0.103699
vt 0.815159 0.059352
vt 0.881739 0.034731
vt 0.894111 0.036159
vt 0.938148 0.096955
vt 0.888000 0.106987
vt 0.923841 0.041445
vt 0.781905 0.074327
vt 0.784354 0.087814
vt 0.846157 0.220934
vt 0.804641 0.104408
vt 0.789881 0.139032
vt 0.917931 0.230485
vt 0.952742 0.044709
vt 0.988836 0.087325
vt 0.973409 0.095423
vt 0.885565 0.212191
vt 0.813690 0.253882
vt 0.862037 0.382514
vt 0.847827 0.340847
vt 0.892983 0.281522
vt 0.880323 0.408860
vt 0.851726 0.400366
vt 0.851301 0.390778
vt 0.821031 0.298832
vt 0.963054 0.135122
vt 0.954529 0.213819
vt 0.853300 0.297519
vt 0.934956 0.286882
vt 0.896435 0.383630
vt 0.913800 0.362903
vt 0.926765 0.378898
vt 0.919380 0.020420
vt 0.875410 0.022164
vt 0.893263 0.024861
vt 0.850884 0.024698
vt 0.930656 0.402243
vt 0.078959 0.079734
vt 0.144624 0.115560
vt 0.110887 0.179749
vt 0.246942 0.306607
vt 0.239922 0.304560
vt 0.252129 0.276471
vt 0.262201 0.306449
vt 0.044590 0.049063
vt 0.043656 0.023459
vt 0.055018 0.021038
vt 0.344874 0.232937
vt 0.351011 0.243350
vt 0.340839 0.251006
vt 0.211370 0.129807
vt 0.273921 0.170659
vt 0.282947 0.237284
vt 0.245039 0.241312
vt 0.238723 0.317977
vt 0.218069 0.346234
vt 0.153075 0.301055
vt 0.150113 0.057347
vt 0.313483 0.243423
vt 0.314383 0.254222
vt 0.036377 0.012315
vt 0.027692 0.033937
vt 0.023677 0.023538
vt 0.319198 0.065050
vt 0.347553 0.163491
vt 0.323275 0.149132
vt 0.275539 0.030658
vt 0.178911 0.028831
vt 0.344120 0.056203
vt 0.329976 0.026964
vt 0.347307 0.010650
vt 0.303901 0.276502
vt 0.309677 0.247877
vt 0.308753 0.270196
vt 0.199824 0.075172
vt 0.293232 0.282918
vt 0.261698 0.322454
vt 0.249869 0.311567
vt 0.300282 0.290663
vt 0.307332 0.290471
vt 0.298667 0.301192
vt 0.314051 0.250482
vt 0.056017 0.014045
vt 0.108110 0.023875
vt 0.048249 0.018421
vt 0.190200 0.235247
vt 0.186700 0.158953
vt 0.271563 0.305337
vt 0.146823 0.248953
vt 0.063761 0.088366
vt 0.318454 0.269924
vt 0.314978 0.280380
vt 0.030816 0.030882
vt 0.032384 0.042559
vt 0.043383 0.118085
vt 0.054367 0.220714
vt 0.359357 0.230149
vt 0.338482 0.224030
vt 0.308069 0.172736
vt 0.099548 0.047418
vt 0.046611 0.010595
vt 0.028834 0.030190
vt 0.073732 0.286977
vt 0.141095 0.329208
vt 0.366365 0.174882
vt 0.367970 0.215956
vt 0.106531 0.339385
vt 0.429738 0.302612
vt 0.404121 0.292226
vt 0.418477 0.293062
vt 0.425389 0.289053
vt 0.695369 0.422087
vt 0.706451 0.405085
vt 0.709801 0.423510
vt 0.679326 0.387269
vt 0.704356 0.360630
vt 0.708104 0.383426
vt 0.759205 0.383044
vt 0.752235 0.396031
vt 0.744503 0.398221
vt 0.755423 0.370681
vt 0.733261 0.403662
vt 0.735243 0.414629
vt 0.646887 0.294439
vt 0.577969 0.302583
vt 0.566017 0.279480
vt 0.702381 0.288650
vt 0.656977 0.236632
vt 0.705338 0.221735
vt 0.417334 0.252857
vt 0.437041 0.242706
vt 0.424975 0.268834
vt 0.787346 0.304345
vt 0.754029 0.224383
vt 0.395024 0.260645
vt 0.506202 0.292890
vt 0.776300 0.232165
vt 0.807794 0.292435
vt 0.606021 0.316621
vt 0.691102 0.334415
vt 0.781836 0.325804
vt 0.798335 0.315046
vt 0.744115 0.368288
vt 0.737745 0.397525
vt 0.712818 0.431982
vt 0.698053 0.445353
vt 0.792708 0.338176
vt 0.793628 0.357297
vt 0.558143 0.237969
vt 0.530513 0.370943
vt 0.425789 0.357023
vt 0.740217 0.406147
vt 0.406038 0.336574
vt 0.604178 0.384716
vt 0.730496 0.429813
vt 0.249604 0.874880
vt 0.249365 0.827304
vt 0.351178 0.898566
vt 0.317185 0.901923
vt 0.191052 0.811097
vt 0.103402 0.827345
vt 0.103524 0.793251
vt 0.241607 0.794837
vt 0.347732 0.836203
vt 0.355576 0.795828
vt 0.223216 0.755987
vt 0.342883 0.767040
vt 0.388863 0.867996
vt 0.045645 0.793339
vt 0.043946 0.806495
vt 0.048700 0.783045
vt 0.081440 0.770956
vt 0.066379 0.750481
vt 0.073431 0.737732
vt 0.107495 0.771919
vt 0.068117 0.806714
vt 0.067935 0.790911
vt 0.434704 0.810760
vt 0.393242 0.767897
vt 0.428058 0.753723
vt 0.083151 0.772072
vt 0.358634 0.729242
vt 0.071940 0.733605
vt 0.457443 0.775994
vt 0.446320 0.840783
vt 0.463024 0.828985
vt 0.453913 0.907779
vt 0.265694 0.705969
vt 0.156168 0.686234
vt 0.155936 0.668179
vt 0.190567 0.679478
vt 0.419123 0.894231
vt 0.148326 0.724414
vt 0.134505 0.696152
vt 0.168417 0.758059
vt 0.112971 0.742699
vt 0.216386 0.905336
vt 0.163341 0.923638
vt 0.108370 0.701733
vt 0.080192 0.716036
vt 0.072319 0.774358
vt 0.139229 0.940112
vt 0.130463 0.954440
vt 0.080956 0.858332
vt 0.039378 0.817488
vt 0.023401 0.829848
vt 0.473426 0.766920
vt 0.440824 0.892810
vt 0.070980 0.867927
vt 0.736089 0.050226
vt 0.740316 0.047960
vt 0.756062 0.060458
vt 0.736727 0.060768
vt 0.721771 0.021897
vt 0.728405 0.008519
vt 0.713195 0.009913
vt 0.663697 0.041531
vt 0.659649 0.014087
vt 0.429432 0.076381
vt 0.416632 0.061036
vt 0.463261 0.027927
vt 0.389784 0.167473
vt 0.387912 0.144244
vt 0.406711 0.151780
vt 0.406541 0.166013
vt 0.750228 0.035432
vt 0.401285 0.038276
vt 0.424778 0.011224
vt 0.432868 0.027118
vt 0.656008 0.097168
vt 0.591908 0.134301
vt 0.590801 0.087381
vt 0.390138 0.128013
vt 0.433764 0.107729
vt 0.437977 0.142460
vt 0.740707 0.013018
vt 0.492346 0.191278
vt 0.446834 0.180950
vt 0.491616 0.145809
vt 0.383179 0.112035
vt 0.389594 0.089375
vt 0.606085 0.050717
vt 0.523909 0.020482
vt 0.453902 0.214920
vt 0.472915 0.094350
vt 0.628349 0.017746
vt 0.642986 0.667121
vt 0.632912 0.632274
vt 0.722913 0.644387
vt 0.609047 0.543268
vt 0.617084 0.506398
vt 0.693107 0.506528
vt 0.693719 0.538858
vt 0.753730 0.568922
vt 0.750324 0.615427
vt 0.732451 0.589762
vt 0.524035 0.496420
vt 0.483123 0.456018
vt 0.464461 0.406791
vt 0.622665 0.475354
vt 0.690140 0.480487
vt 0.447488 0.527841
vt 0.464414 0.552331
vt 0.563552 0.445409
vt 0.475632 0.497765
vt 0.749599 0.528671
vt 0.542057 0.681385
vt 0.503352 0.647659
vt 0.526296 0.611207
vt 0.449738 0.567757
vt 0.436861 0.587439
vt 0.720684 0.602850
vt 0.686025 0.575750
vt 0.723533 0.544202
vt 0.732318 0.656375
vt 0.478653 0.702155
vt 0.563556 0.703147
vt 0.484193 0.725175
vt 0.702407 0.661879
vt 0.631382 0.585439
vt 0.727831 0.496166
vt 0.646452 0.683469
vt 0.748918 0.493635
vt 0.452455 0.390417
vt 0.453418 0.437164
vt 0.429103 0.436548
vt 0.492645 0.617225
vt 0.427722 0.644358
vt 0.026305 0.362679
vt 0.056360 0.390628
vt 0.047819 0.407901
vt 0.088157 0.411381
vt 0.074384 0.430429
vt 0.067011 0.397157
vt 0.039388 0.323816
vt 0.145713 0.386234
vt 0.100407 0.351129
vt 0.067404 0.310790
vt 0.083241 0.328505
vt 0.152169 0.408502
vt 0.724592 0.190062
vt 0.717504 0.196319
vt 0.625422 0.160249
vt 0.647988 0.192450
vt 0.731753 0.199574
vt 0.642006 0.129053
vt 0.684628 0.114506
vt 0.724869 0.108789
vt 0.732189 0.188258
vt 0.751224 0.122805
vt 0.745879 0.150938
vt 0.758273 0.148538
vt 0.757586 0.123899
vt 0.358616 0.382133
vt 0.364588 0.354118
vt 0.401399 0.354558
vt 0.419046 0.381410
vt 0.377298 0.296029
vt 0.377077 0.313409
vt 0.342599 0.291434
vt 0.368143 0.413241
vt 0.318853 0.315143
vt 0.355961 0.320658
vt 0.326259 0.395107
vt 0.317811 0.333147
vt 0.303562 0.350615
vt 0.361816 0.435643
vt 0.324686 0.436859
vt 0.753854 0.666780
vt 0.673196 0.737546
vt 0.711483 0.691416
vt 0.660439 0.793542
vt 0.661908 0.863719
vt 0.756906 0.868071
vt 0.798851 0.650335
vt 0.925241 0.788340
vt 0.900252 0.674457
vt 0.985024 0.781783
vt 0.675685 0.909472
vt 0.724415 0.972159
vt 0.837122 0.941818
vt 0.985024 0.854243
vt 0.829837 0.992765
vt 0.907507 0.970605
vt 0.929398 0.946998
vt 0.962451 0.911372
#396 Texture Coordinates

f 1/1/1 2/2/2 3/3/3
f 1/1/1 3/3/3 4/4/4
f 5/5/5 4/4/4 6/6/6
f 4/4/4 7/7/7 6/6/6
f 1/1/1 10/8/8 11/9/9
f 11/9/9 12/10/10 2/2/2
f 19/11/11 20/12/12 18/13/13
f 202/88/14 22/89/15 21/90/16
f 23/14/17 4/4/4 5/5/5
f 17/51/18 24/52/19 13/53/20
f 7/15/7 25/16/21 6/6/6
f 29/158/22 26/159/23 27/160/24
f 27/160/24 28/161/25 29/158/22
f 5/5/5 30/17/26 23/14/17
f 23/14/17 31/18/27 10/8/8
f 37/162/28 35/163/29 36/164/30
f 14/54/31 38/55/32 32/56/33
f 42/91/34 39/92/35 40/93/36
f 40/93/36 41/94/37 42/91/34
f 43/57/38 38/55/32 14/54/31
f 3/19/3 25/16/21 7/15/7
f 31/18/27 46/20/39 47/21/40
f 48/58/41 24/52/19 49/59/42
f 44/22/43 46/20/39 31/18/27
f 17/51/18 50/60/44 51/61/45
f 53/95/46 54/96/47 52/97/48
f 58/260/49 56/261/50 57/262/51
f 57/262/51 165/263/52 58/260/49
f 11/9/9 18/13/13 20/12/12
f 59/23/53 48/24/41 25/16/21
f 63/206/54 60/207/55 61/208/56
f 61/208/56 62/209/57 63/206/54
f 51/61/45 64/62/58 49/59/42
f 65/63/59 32/56/33 38/55/32
f 43/57/38 66/64/60 140/65/61
f 140/65/61 124/66/62 43/57/38
f 58/260/49 67/264/63 68/265/64
f 68/265/64 56/261/50 58/260/49
f 64/25/58 69/26/65 55/27/66
f 32/56/33 65/63/59 70/67/67
f 71/28/68 19/11/11 47/21/40
f 50/60/44 69/68/65 51/61/45
f 72/210/69 73/211/70 74/212/71
f 76/297/72 77/298/73 75/299/74
f 11/9/9 20/12/12 78/29/75
f 81/339/76 79/340/77 80/341/78
f 84/98/79 82/99/80 83/100/81
f 86/266/82 67/264/63 85/267/83
f 85/267/83 61/268/56 86/266/82
f 90/69/84 91/70/85 92/71/86
f 94/72/87 122/73/88 93/74/89
f 71/28/68 20/12/12 19/11/11
f 98/101/90 95/102/91 96/103/92
f 96/103/92 97/104/93 98/101/90
f 102/269/94 100/270/95 101/271/96
f 90/69/84 106/75/97 91/70/85
f 105/165/98 103/166/99 104/167/100
f 104/167/100 35/163/29 105/165/98
f 44/22/43 106/30/97 9/31/101
f 107/105/102 108/106/103 109/107/104
f 125/76/105 38/55/32 124/66/62
f 284/168/106 110/169/107 283/170/108
f 283/170/108 111/171/109 284/168/106
f 116/300/110 89/301/111 114/302/112
f 114/302/112 115/303/113 116/300/110
f 72/210/69 117/213/114 60/207/55
f 119/32/115 88/33/116 168/34/117
f 168/34/117 118/35/118 119/32/115
f 92/71/86 70/67/67 65/63/59
f 38/55/32 125/76/105 120/77/119
f 99/36/120 8/37/121 121/38/122
f 9/31/101 93/39/89 121/38/122
f 121/38/122 8/37/121 9/31/101
f 121/38/122 122/40/88 291/41/123
f 123/108/124 98/101/90 22/89/15
f 126/109/125 83/100/81 178/110/126
f 128/111/127 127/112/128 286/113/129
f 129/42/130 71/28/68 130/43/131
f 134/342/132 132/343/133 80/341/78
f 80/341/78 133/344/134 134/342/132
f 135/44/135 78/29/75 141/45/136
f 136/114/137 137/115/138 138/116/139
f 30/17/26 5/5/5 6/6/6
f 129/42/130 130/43/131 99/36/120
f 130/43/131 8/37/121 99/36/120
f 125/117/105 136/114/137 120/118/119
f 136/114/137 139/119/140 137/115/138
f 139/119/140 124/120/62 140/121/61
f 141/45/136 118/35/118 168/34/117
f 144/351/141 145/352/142 146/353/143
f 142/122/144 149/123/145 143/124/146
f 145/352/142 150/354/147 146/353/143
f 129/42/130 151/46/148 161/47/149
f 87/78/150 91/70/85 106/75/97
f 65/63/59 120/77/119 152/79/151
f 267/272/152 154/273/153 155/274/154
f 155/274/154 156/275/155 267/272/152
f 151/46/148 291/41/123 157/48/156
f 158/80/157 159/81/158 173/82/159
f 119/32/115 129/42/130 161/47/149
f 95/102/91 98/101/90 153/125/160
f 58/260/49 85/267/83 67/264/63
f 290/304/161 234/305/162 160/306/163
f 148/355/164 150/354/147 145/352/142
f 87/78/150 70/67/67 92/71/86
f 159/81/158 152/79/151 173/82/159
f 162/307/165 163/308/166 141/309/136
f 163/356/166 164/357/167 144/351/141
f 88/310/116 119/311/115 114/302/112
f 188/312/168 162/307/165 167/313/169
f 168/314/117 162/307/165 141/309/136
f 142/122/144 169/126/170 96/103/92
f 172/364/171 170/365/172 233/366/173
f 233/366/173 171/367/174 172/364/171
f 175/214/175 60/207/55 117/213/114
f 117/213/114 174/215/176 175/214/175
f 108/127/103 107/105/102 176/128/177
f 176/128/177 41/94/37 108/127/103
f 247/276/178 56/261/50 68/265/64
f 177/129/179 211/130/180 212/131/181
f 178/110/126 179/132/182 149/123/145
f 97/104/93 96/103/92 169/126/170
f 173/133/159 152/134/151 52/97/48
f 162/307/165 164/315/167 163/308/166
f 173/133/159 52/97/48 181/135/183
f 182/136/184 183/137/185 97/104/93
f 89/301/111 88/310/116 114/302/112
f 177/129/179 212/131/181 179/138/182
f 187/216/186 186/217/187 174/215/176
f 174/215/176 117/213/114 187/216/186
f 41/94/37 177/129/179 179/138/182
f 89/301/111 162/307/165 168/314/117
f 93/39/89 9/31/101 106/30/97
f 164/357/167 188/358/168 147/359/188
f 188/358/168 81/360/76 180/361/189
f 162/307/165 188/312/168 164/315/167
f 175/214/175 189/218/190 61/208/56
f 169/126/170 40/93/36 97/104/93
f 109/107/104 190/139/191 39/92/35
f 39/92/35 107/105/102 109/107/104
f 89/301/111 116/300/110 162/307/165
f 180/361/189 81/360/76 191/362/192
f 188/345/168 79/340/77 81/339/76
f 81/360/76 80/363/78 191/362/192
f 160/306/163 192/316/193 290/304/161
f 40/93/36 39/92/35 97/104/93
f 194/219/194 281/220/195 193/221/196
f 158/80/157 92/71/86 159/81/158
f 195/277/197 278/278/198 275/279/199
f 275/279/199 100/270/95 195/277/197
f 39/92/35 182/136/184 97/104/93
f 145/352/142 144/351/141 147/359/188
f 147/359/188 148/355/164 145/352/142
f 199/222/200 196/223/201 197/224/202
f 197/224/202 198/225/203 199/222/200
f 35/163/29 201/172/204 110/173/107
f 110/173/107 36/164/30 35/163/29
f 44/22/43 9/31/101 8/37/121
f 8/37/121 46/20/39 44/22/43
f 204/280/205 205/281/206 206/282/207
f 47/21/40 18/13/13 10/8/8
f 10/8/8 31/18/27 47/21/40
f 53/95/46 202/88/14 203/140/208
f 209/317/209 171/318/174 210/319/210
f 212/141/181 211/142/180 143/124/146
f 214/174/211 113/175/212 213/176/213
f 215/283/214 216/284/215 217/285/216
f 74/212/71 218/226/217 219/227/218
f 220/177/219 221/178/220 282/179/221
f 200/143/222 227/144/223 127/112/128
f 229/145/224 203/140/208 21/90/16
f 174/215/176 222/228/225 189/218/190
f 189/218/190 175/214/175 174/215/176
f 174/215/176 34/229/226 33/230/227
f 33/230/227 222/228/225 174/215/176
f 221/146/220 229/145/224 21/90/16
f 208/320/228 210/319/210 242/321/229
f 223/322/230 75/299/74 224/323/231
f 199/222/200 198/225/203 74/212/71
f 74/212/71 226/231/232 199/222/200
f 127/180/128 227/181/223 228/182/233
f 232/324/234 223/322/230 224/323/231
f 234/305/162 235/325/235 160/306/163
f 227/181/223 213/176/213 228/182/233
f 107/105/102 42/91/34 176/128/177
f 77/298/73 209/317/209 210/319/210
f 16/83/236 66/64/60 43/57/38
f 82/147/80 131/148/237 236/149/238
f 236/149/238 138/116/139 82/147/80
f 21/90/16 203/140/208 202/88/14
f 237/183/239 220/177/219 238/184/240
f 286/185/129 127/180/128 27/160/24
f 27/160/24 26/159/23 286/185/129
f 212/141/181 143/124/146 179/132/182
f 225/186/241 213/176/213 113/175/212
f 24/52/19 15/84/242 13/53/20
f 239/368/243 240/369/244 241/370/245
f 30/17/26 6/6/6 25/16/21
f 240/346/244 133/344/134 242/347/229
f 238/184/240 244/187/246 245/188/247
f 34/229/226 186/217/187 243/232/248
f 209/317/209 246/326/249 171/318/174
f 172/364/171 171/367/174 246/371/249
f 247/379/178 26/380/23 57/381/51
f 227/144/223 53/95/46 203/140/208
f 152/134/151 123/108/124 22/89/15
f 22/89/15 185/150/250 152/134/151
f 41/94/37 176/128/177 42/91/34
f 249/372/251 250/373/252 170/365/172
f 238/184/240 245/188/247 237/183/239
f 112/189/253 113/175/212 214/174/211
f 197/224/202 196/223/201 230/233/254
f 21/90/16 190/139/191 221/146/220
f 126/109/125 131/148/237 84/98/79
f 43/57/38 124/66/62 38/55/32
f 251/374/255 252/375/256 172/364/171
f 252/375/256 251/374/255 241/376/245
f 214/174/211 253/190/257 112/189/253
f 252/375/256 249/372/251 170/365/172
f 222/228/225 235/234/235 254/235/258
f 56/261/50 247/276/178 57/262/51
f 252/375/256 241/376/245 249/372/251
f 254/235/258 255/236/259 256/237/260
f 183/137/185 182/136/184 190/139/191
f 190/139/191 21/90/16 183/137/185
f 257/191/261 214/174/211 220/177/219
f 249/372/251 240/369/244 250/373/252
f 247/276/178 68/265/64 256/286/260
f 257/191/261 220/177/219 237/183/239
f 187/216/186 248/238/262 243/232/248
f 258/239/263 248/238/262 187/216/186
f 180/361/189 148/355/164 147/359/188
f 128/111/127 166/151/264 181/135/183
f 257/191/261 253/190/257 214/174/211
f 259/240/265 260/241/266 258/239/263
f 246/326/249 209/317/209 248/327/262
f 248/327/262 260/328/266 246/326/249
f 86/242/82 222/228/225 254/235/258
f 128/111/127 181/135/183 261/152/267
f 261/152/267 127/112/128 128/111/127
f 37/287/28 262/288/268 217/285/216
f 217/285/216 263/289/269 37/287/28
f 17/51/18 51/61/45 49/59/42
f 49/59/42 24/52/19 17/51/18
f 257/191/261 237/183/239 264/192/270
f 218/226/217 74/212/71 73/211/70
f 20/12/12 71/28/68 119/32/115
f 119/32/115 118/35/118 20/12/12
f 180/361/189 191/362/192 148/355/164
f 79/340/77 167/348/169 208/349/228
f 124/120/62 139/119/140 136/114/137
f 219/227/218 218/226/217 194/219/194
f 187/216/186 265/243/271 258/239/263
f 259/240/265 258/239/263 266/244/272
f 175/214/175 61/208/56 60/207/55
f 100/270/95 102/269/94 154/290/153
f 154/290/153 267/291/152 100/270/95
f 90/69/84 158/80/157 93/74/89
f 103/166/99 268/193/273 270/194/274
f 126/109/125 149/123/145 96/103/92
f 235/325/235 33/329/227 75/299/74
f 72/210/69 271/245/275 117/213/114
f 184/292/276 102/269/94 269/293/277
f 265/243/271 271/245/275 272/246/278
f 119/32/115 71/28/68 129/42/130
f 37/162/28 105/165/98 35/163/29
f 104/167/100 103/166/99 270/194/274
f 116/300/110 115/303/113 224/323/231
f 224/323/231 207/330/279 116/300/110
f 37/162/28 273/195/280 274/196/281
f 69/26/65 106/30/97 44/22/43
f 168/314/117 88/310/116 89/301/111
f 63/206/54 269/247/277 101/248/96
f 265/243/271 272/246/278 230/233/254
f 262/288/268 37/287/28 274/294/281
f 277/249/282 266/244/272 196/250/201
f 82/147/80 84/98/79 131/148/237
f 102/269/94 184/292/276 276/295/283
f 230/233/254 196/250/201 266/244/272
f 199/222/200 277/251/282 196/223/201
f 272/246/278 72/210/69 198/225/203
f 275/252/199 278/253/198 279/254/284
f 134/342/132 240/346/244 239/350/243
f 239/350/243 132/343/133 134/342/132
f 30/17/26 49/49/42 64/25/58
f 64/25/58 55/27/66 30/17/26
f 72/210/69 74/212/71 198/225/203
f 198/225/203 197/224/202 272/246/278
f 101/248/96 279/254/284 63/206/54
f 133/344/134 80/341/78 79/340/77
f 102/269/94 276/295/283 216/284/215
f 233/366/173 170/365/172 250/373/252
f 250/373/252 240/369/244 233/366/173
f 262/288/268 155/274/154 217/285/216
f 217/285/216 216/284/215 276/295/283
f 63/206/54 279/254/284 73/211/70
f 262/288/268 156/275/155 155/274/154
f 11/9/9 78/29/75 135/44/135
f 135/44/135 12/10/10 11/9/9
f 74/212/71 219/227/218 226/231/232
f 220/177/219 282/179/221 238/184/240
f 271/245/275 187/216/186 117/213/114
f 270/194/274 268/193/273 111/171/109
f 111/171/109 283/170/108 270/194/274
f 215/283/214 102/269/94 216/284/215
f 268/193/273 264/197/270 245/198/247
f 245/198/247 111/171/109 268/193/273
f 232/324/234 224/323/231 115/303/113
f 73/211/70 279/254/284 280/255/285
f 215/283/214 217/285/216 155/274/154
f 226/231/232 219/227/218 194/219/194
f 281/220/195 218/226/217 73/211/70
f 20/12/12 118/35/118 78/29/75
f 281/220/195 194/219/194 218/226/217
f 263/289/269 206/282/207 205/281/206
f 281/220/195 280/255/285 193/256/196
f 2/2/2 1/1/1 11/9/9
f 1/1/1 4/4/4 10/8/8
f 13/53/20 15/85/242 14/54/31
f 112/189/253 253/190/257 103/166/99
f 4/4/4 3/3/3 7/7/7
f 10/8/8 4/4/4 23/14/17
f 35/163/29 104/167/100 270/194/274
f 270/194/274 201/172/204 35/163/29
f 2/2/2 12/10/10 45/50/286
f 24/52/19 16/86/236 15/84/242
f 14/54/31 32/56/33 13/53/20
f 232/324/234 115/303/113 114/302/112
f 114/302/112 161/331/149 232/324/234
f 47/21/40 19/11/11 18/13/13
f 30/17/26 25/16/21 49/49/42
f 69/68/65 50/60/44 87/78/150
f 87/78/150 106/75/97 69/68/65
f 49/49/42 25/16/21 48/24/41
f 44/22/43 31/18/27 55/27/66
f 224/323/231 75/299/74 77/298/73
f 77/298/73 207/330/279 224/323/231
f 51/61/45 69/68/65 64/62/58
f 130/43/131 71/28/68 47/21/40
f 44/22/43 55/27/66 69/26/65
f 12/10/10 135/44/135 45/50/286
f 70/67/67 87/78/150 50/60/44
f 245/188/247 264/192/270 237/183/239
f 130/43/131 46/20/39 8/37/121
f 92/71/86 91/70/85 87/78/150
f 90/69/84 93/74/89 106/75/97
f 92/71/86 158/80/157 90/69/84
f 92/71/86 65/63/59 159/81/158
f 33/329/227 243/332/248 76/297/72
f 76/297/72 75/299/74 33/329/227
f 68/265/64 67/264/63 86/266/82
f 93/39/89 122/40/88 121/38/122
f 82/147/80 138/116/139 137/115/138
f 124/120/62 136/114/137 125/117/105
f 65/63/59 38/55/32 120/77/119
f 78/29/75 118/35/118 141/45/136
f 116/300/110 207/330/279 210/319/210
f 210/319/210 208/320/228 116/300/110
f 99/36/120 151/46/148 129/42/130
f 95/102/91 136/114/137 138/116/139
f 143/124/146 211/142/180 142/122/144
f 121/38/122 151/46/148 99/36/120
f 151/46/148 121/38/122 291/41/123
f 96/103/92 131/148/237 126/109/125
f 93/74/89 158/80/157 166/87/264
f 158/80/157 173/82/159 166/87/264
f 152/79/151 159/81/158 65/63/59
f 147/359/188 144/351/141 164/357/167
f 161/47/149 151/46/148 157/48/156
f 166/87/264 94/72/87 93/74/89
f 144/351/141 146/353/143 163/356/166
f 260/377/266 251/374/255 246/371/249
f 142/122/144 96/103/92 149/123/145
f 213/176/213 229/199/224 221/178/220
f 221/178/220 214/174/211 213/176/213
f 126/109/125 178/110/126 149/123/145
f 181/135/183 166/151/264 173/133/159
f 149/123/145 179/132/182 143/124/146
f 114/302/112 119/311/115 161/331/149
f 160/306/163 235/325/235 75/299/74
f 75/299/74 223/322/230 160/306/163
f 161/331/149 157/333/156 192/316/193
f 123/108/124 152/134/151 120/118/119
f 161/331/149 192/316/193 232/324/234
f 152/134/151 185/150/250 52/97/48
f 39/92/35 190/139/191 182/136/184
f 236/149/238 131/148/237 96/103/92
f 96/103/92 95/102/91 236/149/238
f 13/53/20 32/56/33 17/51/18
f 52/97/48 185/150/250 202/88/14
f 97/104/93 183/137/185 98/101/90
f 147/359/188 188/358/168 180/361/189
f 202/88/14 185/150/250 22/89/15
f 192/316/193 160/306/163 232/324/234
f 160/306/163 223/322/230 232/324/234
f 221/146/220 190/139/191 109/107/104
f 109/107/104 282/153/221 221/146/220
f 162/307/165 116/300/110 167/313/169
f 135/334/135 141/309/136 146/335/143
f 146/335/143 150/336/147 135/334/135
f 228/182/233 28/161/25 27/160/24
f 27/160/24 127/180/128 228/182/233
f 52/97/48 202/88/14 53/95/46
f 188/345/168 167/348/169 79/340/77
f 225/186/241 204/200/205 165/201/52
f 165/201/52 29/158/22 225/186/241
f 184/292/276 62/296/57 61/268/56
f 61/268/56 85/267/83 184/292/276
f 108/106/103 231/154/287 109/107/104
f 167/313/169 116/300/110 208/320/228
f 82/147/80 137/115/138 178/155/126
f 178/155/126 83/156/81 82/147/80
f 283/202/108 110/173/107 201/172/204
f 200/143/222 54/96/47 53/95/46
f 254/235/258 235/234/235 255/236/259
f 107/105/102 39/92/35 42/91/34
f 227/144/223 200/143/222 53/95/46
f 17/51/18 32/56/33 70/67/67
f 70/67/67 50/60/44 17/51/18
f 261/152/267 200/143/222 127/112/128
f 229/145/224 227/144/223 203/140/208
f 153/125/160 98/101/90 123/108/124
f 123/108/124 120/118/119 153/125/160
f 207/330/279 77/298/73 210/319/210
f 242/321/229 210/319/210 233/337/173
f 126/109/125 84/98/79 83/100/81
f 133/344/134 240/346/244 134/342/132
f 141/309/136 163/308/166 146/335/143
f 14/54/31 15/85/242 16/83/236
f 16/83/236 43/57/38 14/54/31
f 240/338/244 242/321/229 233/337/173
f 282/153/221 109/107/104 238/157/240
f 238/157/240 109/107/104 231/154/287
f 174/215/176 186/217/187 34/229/226
f 233/337/173 210/319/210 171/318/174
f 225/186/241 228/182/233 213/176/213
f 225/186/241 28/161/25 228/182/233
f 214/174/211 221/178/220 220/177/219
f 243/232/248 33/230/227 34/229/226
f 209/317/209 77/298/73 76/297/72
f 235/234/235 234/257/162 255/236/259
f 29/158/22 28/161/25 225/186/241
f 248/327/262 76/297/72 243/332/248
f 248/327/262 209/317/209 76/297/72
f 26/159/23 29/158/22 165/201/52
f 30/17/26 55/27/66 31/18/27
f 31/18/27 23/14/17 30/17/26
f 235/234/235 222/228/225 33/230/227
f 165/201/52 57/203/51 26/159/23
f 246/371/249 251/374/255 172/364/171
f 204/200/205 113/175/212 112/189/253
f 112/189/253 205/204/206 204/200/205
f 183/137/185 22/89/15 98/101/90
f 259/378/265 251/374/255 260/377/266
f 172/364/171 252/375/256 170/365/172
f 204/200/205 225/186/241 113/175/212
f 260/241/266 248/238/262 258/239/263
f 243/232/248 186/217/187 187/216/186
f 112/189/253 103/166/99 105/165/98
f 105/165/98 205/204/206 112/189/253
f 52/97/48 54/96/47 181/135/183
f 256/237/260 68/258/64 254/235/258
f 177/129/179 169/126/170 142/122/144
f 142/122/144 211/130/180 177/129/179
f 204/280/205 58/260/49 165/263/52
f 68/258/64 86/242/82 254/235/258
f 189/218/190 222/228/225 86/242/82
f 18/13/13 11/9/9 10/8/8
f 79/340/77 208/349/228 242/347/229
f 242/347/229 133/344/134 79/340/77
f 86/242/82 61/208/56 189/218/190
f 85/267/83 58/260/49 204/280/205
f 204/280/205 184/292/276 85/267/83
f 103/166/99 253/190/257 268/193/273
f 258/239/263 265/243/271 266/244/272
f 269/293/277 62/296/57 184/292/276
f 63/206/54 62/209/57 269/247/277
f 253/190/257 257/191/261 268/193/273
f 268/193/273 257/191/261 264/197/270
f 187/216/186 271/245/275 265/243/271
f 138/116/139 236/149/238 95/102/91
f 184/292/276 204/280/205 206/282/207
f 205/204/206 105/165/98 37/162/28
f 227/181/223 229/199/224 213/176/213
f 37/162/28 36/164/30 273/195/280
f 36/164/30 110/173/107 273/195/280
f 110/173/107 284/205/106 273/195/280
f 266/244/272 265/243/271 230/233/254
f 63/206/54 72/210/69 60/207/55
f 72/210/69 272/246/278 271/245/275
f 205/281/206 37/287/28 263/289/269
f 269/293/277 102/269/94 101/271/96
f 201/172/204 270/194/274 283/202/108
f 184/292/276 206/282/207 217/285/216
f 275/279/199 101/271/96 100/270/95
f 72/210/69 63/206/54 73/211/70
f 21/90/16 22/89/15 183/137/185
f 46/20/39 130/43/131 47/21/40
f 230/233/254 272/246/278 197/224/202
f 279/254/284 101/248/96 275/252/199
f 136/114/137 95/102/91 153/125/160
f 153/125/160 120/118/119 136/114/137
f 156/275/155 262/288/268 274/294/281
f 261/152/267 181/135/183 54/96/47
f 54/96/47 200/143/222 261/152/267
f 267/291/152 195/277/197 100/270/95
f 285/259/288 279/254/284 278/253/198
f 102/269/94 215/283/214 154/290/153
f 169/126/170 177/129/179 41/94/37
f 41/94/37 40/93/36 169/126/170
f 285/259/288 280/255/285 279/254/284
f 280/255/285 285/259/288 193/256/196
f 226/231/232 194/219/194 193/221/196
f 215/283/214 155/274/154 154/273/153
f 280/255/285 281/220/195 73/211/70
f 286/382/129 26/380/23 247/379/178
f 128/383/127 286/382/129 247/379/178
f 247/379/178 287/384/289 128/383/127
f 287/384/289 247/379/178 256/385/260
f 256/385/260 288/386/290 287/384/289
f 288/386/290 256/385/260 255/387/259
f 255/387/259 234/388/162 288/386/290
f 166/389/264 128/383/127 287/384/289
f 94/390/87 166/389/264 287/384/289
f 287/384/289 289/391/291 94/390/87
f 289/391/291 287/384/289 288/386/290
f 288/386/290 290/392/161 289/391/291
f 290/392/161 288/386/290 234/388/162
f 122/393/88 94/390/87 289/391/291
f 289/391/291 291/394/123 122/393/88
f 291/394/123 289/391/291 290/392/161
f 290/392/161 157/395/156 291/394/123
f 290/392/161 192/396/193 157/395/156
f 263/289/269 217/285/216 206/282/207
f 217/285/216 276/295/283 184/292/276
f 249/372/251 241/370/245 240/369/244
#536 polygons

