# 3ds Max Wavefront OBJ Exporter v0.97b - (c)2007 guruware
# File Created: 29.06.2017 16:01:10

mtllib BusStop.mtl

#
# object cam
#

v  2.9266 5.8259 88.7585
v  2.9266 5.8259 88.3647
v  46.2337 5.8259 88.3647
v  46.2337 5.8259 88.7585
v  2.9266 64.8810 88.7585
v  46.2337 64.8810 88.7585
v  46.2337 64.8810 88.3647
v  2.9266 64.8810 88.3647
v  49.5204 5.8259 85.5840
v  49.1266 5.8259 85.5840
v  49.1266 5.8259 42.2770
v  49.5204 5.8259 42.2770
v  49.5204 64.8810 85.5840
v  49.5204 64.8810 42.2770
v  49.1266 64.8810 42.2770
v  49.1266 64.8810 85.5840
v  49.5204 5.8259 36.4573
v  49.1266 5.8259 36.4573
v  49.1266 5.8259 -6.8498
v  49.5204 5.8259 -6.8498
v  49.5204 64.8810 36.4573
v  49.5204 64.8810 -6.8498
v  49.1266 64.8810 -6.8498
v  49.1266 64.8810 36.4573
v  49.5204 5.8259 -12.7425
v  49.1266 5.8259 -12.7425
v  49.1266 5.8259 -56.0496
v  49.5204 5.8259 -56.0496
v  49.5204 64.8810 -12.7425
v  49.5204 64.8810 -56.0496
v  49.1266 64.8810 -56.0496
v  49.1266 64.8810 -12.7425
v  2.9266 5.8259 -58.8440
v  2.9266 5.8259 -59.2377
v  46.2337 5.8259 -59.2377
v  46.2337 5.8259 -58.8440
v  2.9266 64.8810 -58.8440
v  46.2337 64.8810 -58.8440
v  46.2337 64.8810 -59.2377
v  2.9266 64.8810 -59.2377
v  47.3939 11.4766 87.8294
v  47.3939 59.3895 87.8294
v  48.4593 59.3895 86.7640
v  48.4593 11.4766 86.7640
v  47.3939 11.4766 89.3360
v  47.3939 59.3895 89.3360
v  48.4593 11.4766 90.4013
v  48.4593 59.3895 90.4013
v  49.9659 11.4766 90.4013
v  49.9659 59.3895 90.4013
v  51.0313 11.4766 89.3360
v  51.0313 59.3895 89.3360
v  51.0313 11.4766 87.8294
v  51.0313 59.3895 87.8294
v  49.9659 11.4766 86.7640
v  49.9659 59.3895 86.7640
v  49.9659 0.0000 86.7640
v  51.0313 0.0000 87.8294
v  51.0313 0.0000 89.3360
v  49.9659 0.0000 90.4013
v  48.4593 0.0000 90.4013
v  47.3939 0.0000 89.3360
v  47.3939 0.0000 87.8294
v  48.4593 0.0000 86.7640
v  48.9249 72.1538 87.8881
v  48.5180 72.1538 88.2950
v  48.5180 72.1538 88.8704
v  48.9249 72.1538 89.2773
v  49.5003 72.1538 89.2773
v  49.9072 72.1538 88.8704
v  49.9072 72.1538 88.2950
v  49.5003 72.1538 87.8881
v  47.3939 60.0000 87.8294
v  47.3939 70.8661 87.8294
v  48.4593 70.8661 86.7640
v  48.4593 60.0000 86.7640
v  48.4593 10.8661 86.7640
v  47.3939 10.8661 87.8294
v  47.3939 60.0000 89.3360
v  47.3939 70.8661 89.3360
v  47.3939 10.8661 89.3360
v  48.4593 60.0000 90.4013
v  48.4593 70.8661 90.4013
v  48.4593 10.8661 90.4013
v  49.9659 60.0000 90.4013
v  49.9659 70.8661 90.4013
v  49.9659 10.8661 90.4013
v  51.0313 60.0000 89.3360
v  51.0313 70.8661 89.3360
v  51.0313 10.8661 89.3360
v  51.0313 60.0000 87.8294
v  51.0313 70.8661 87.8294
v  51.0313 10.8661 87.8294
v  49.9659 60.0000 86.7640
v  49.9659 70.8661 86.7640
v  49.9659 10.8661 86.7640
v  45.0334 59.3895 89.3360
v  45.0334 60.0000 89.3360
v  45.0334 60.0000 87.8294
v  45.0334 59.3895 87.8294
v  45.0334 11.4766 87.8294
v  45.0334 10.8661 87.8294
v  45.0334 10.8661 89.3360
v  45.0334 11.4766 89.3360
v  48.4593 59.3895 84.7145
v  48.4593 60.0000 84.7145
v  49.9659 60.0000 84.7145
v  49.9659 59.3895 84.7145
v  49.9659 11.4766 84.7145
v  49.9659 10.8661 84.7145
v  48.4593 10.8661 84.7145
v  48.4593 11.4766 84.7145
v  47.3939 11.4766 38.6168
v  47.3939 59.3895 38.6168
v  48.4593 59.3895 37.5514
v  48.4593 11.4766 37.5514
v  47.3939 11.4766 40.1234
v  47.3939 59.3895 40.1234
v  48.4593 11.4766 41.1887
v  48.4593 59.3895 41.1887
v  49.9659 11.4766 41.1887
v  49.9659 59.3895 41.1887
v  51.0313 11.4766 40.1234
v  51.0313 59.3895 40.1234
v  51.0313 11.4766 38.6168
v  51.0313 59.3895 38.6168
v  49.9659 11.4766 37.5514
v  49.9659 59.3895 37.5514
v  49.9659 0.0000 37.5514
v  51.0313 0.0000 38.6168
v  51.0313 0.0000 40.1234
v  49.9659 0.0000 41.1887
v  48.4593 0.0000 41.1887
v  47.3939 0.0000 40.1234
v  47.3939 0.0000 38.6168
v  48.4593 0.0000 37.5514
v  48.9249 72.1538 38.6755
v  48.5180 72.1538 39.0824
v  48.5180 72.1538 39.6578
v  48.9249 72.1538 40.0647
v  49.5003 72.1538 40.0647
v  49.9072 72.1538 39.6578
v  49.9072 72.1538 39.0824
v  49.5003 72.1538 38.6755
v  47.3939 60.0000 38.6168
v  47.3939 70.8661 38.6168
v  48.4593 70.8661 37.5514
v  48.4593 60.0000 37.5514
v  48.4593 10.8661 37.5514
v  47.3939 10.8661 38.6168
v  47.3939 60.0000 40.1234
v  47.3939 70.8661 40.1234
v  47.3939 10.8661 40.1234
v  48.4593 60.0000 41.1887
v  48.4593 70.8661 41.1887
v  48.4593 10.8661 41.1887
v  49.9659 60.0000 41.1887
v  49.9659 70.8661 41.1887
v  49.9659 10.8661 41.1887
v  51.0313 60.0000 40.1234
v  51.0313 70.8661 40.1234
v  51.0313 10.8661 40.1234
v  51.0313 60.0000 38.6168
v  51.0313 70.8661 38.6168
v  51.0313 10.8661 38.6168
v  49.9659 60.0000 37.5514
v  49.9659 70.8661 37.5514
v  49.9659 10.8661 37.5514
v  49.9659 59.3895 43.4368
v  49.9659 60.0000 43.4368
v  48.4593 60.0000 43.4368
v  48.4593 59.3895 43.4368
v  48.4593 11.4766 43.4368
v  48.4593 10.8661 43.4368
v  49.9659 10.8661 43.4368
v  49.9659 11.4766 43.4368
v  48.4593 59.3895 35.5019
v  48.4593 60.0000 35.5019
v  49.9659 60.0000 35.5019
v  49.9659 59.3895 35.5019
v  49.9659 11.4766 35.5019
v  49.9659 10.8661 35.5019
v  48.4593 10.8661 35.5019
v  48.4593 11.4766 35.5019
v  47.3939 11.4766 -10.5958
v  47.3939 59.3895 -10.5958
v  48.4593 59.3895 -11.6612
v  48.4593 11.4766 -11.6612
v  47.3939 11.4766 -9.0892
v  47.3939 59.3895 -9.0892
v  48.4593 11.4766 -8.0239
v  48.4593 59.3895 -8.0239
v  49.9659 11.4766 -8.0238
v  49.9659 59.3895 -8.0238
v  51.0313 11.4766 -9.0892
v  51.0313 59.3895 -9.0892
v  51.0313 11.4766 -10.5958
v  51.0313 59.3895 -10.5958
v  49.9659 11.4766 -11.6612
v  49.9659 59.3895 -11.6612
v  49.9659 0.0000 -11.6612
v  51.0313 0.0000 -10.5958
v  51.0313 0.0000 -9.0892
v  49.9659 0.0000 -8.0238
v  48.4593 0.0000 -8.0239
v  47.3939 0.0000 -9.0892
v  47.3939 0.0000 -10.5958
v  48.4593 0.0000 -11.6612
v  48.9249 72.1538 -10.5371
v  48.5180 72.1538 -10.1302
v  48.5180 72.1538 -9.5548
v  48.9249 72.1538 -9.1479
v  49.5003 72.1538 -9.1479
v  49.9072 72.1538 -9.5548
v  49.9072 72.1538 -10.1302
v  49.5003 72.1538 -10.5371
v  47.3939 60.0000 -10.5958
v  47.3939 70.8661 -10.5958
v  48.4593 70.8661 -11.6612
v  48.4593 60.0000 -11.6612
v  48.4593 10.8661 -11.6612
v  47.3939 10.8661 -10.5958
v  47.3939 60.0000 -9.0892
v  47.3939 70.8661 -9.0892
v  47.3939 10.8661 -9.0892
v  48.4593 60.0000 -8.0239
v  48.4593 70.8661 -8.0239
v  48.4593 10.8661 -8.0239
v  49.9659 60.0000 -8.0238
v  49.9659 70.8661 -8.0238
v  49.9659 10.8661 -8.0238
v  51.0313 60.0000 -9.0892
v  51.0313 70.8661 -9.0892
v  51.0313 10.8661 -9.0892
v  51.0313 60.0000 -10.5958
v  51.0313 70.8661 -10.5958
v  51.0313 10.8661 -10.5958
v  49.9659 60.0000 -11.6612
v  49.9659 70.8661 -11.6612
v  49.9659 10.8661 -11.6612
v  49.9659 59.3895 -5.8881
v  49.9659 60.0000 -5.8881
v  48.4593 60.0000 -5.8881
v  48.4593 59.3895 -5.8881
v  48.4593 11.4766 -5.8881
v  48.4593 10.8661 -5.8881
v  49.9659 10.8661 -5.8881
v  49.9659 11.4766 -5.8881
v  48.4593 59.3895 -13.7107
v  48.4593 60.0000 -13.7107
v  49.9659 60.0000 -13.7107
v  49.9659 59.3895 -13.7107
v  49.9659 11.4766 -13.7107
v  49.9659 10.8661 -13.7107
v  48.4593 10.8661 -13.7107
v  48.4593 11.4766 -13.7107
v  0.7533 11.4766 86.7640
v  0.7533 59.3895 86.7640
v  1.8187 59.3895 87.8294
v  1.8187 11.4766 87.8294
v  -0.7533 11.4766 86.7640
v  -0.7533 59.3895 86.7640
v  -1.8187 11.4766 87.8294
v  -1.8187 59.3895 87.8294
v  -1.8187 11.4766 89.3360
v  -1.8187 59.3895 89.3360
v  -0.7533 11.4766 90.4014
v  -0.7533 59.3895 90.4014
v  0.7533 11.4766 90.4014
v  0.7533 59.3895 90.4014
v  1.8187 11.4766 89.3360
v  1.8187 59.3895 89.3360
v  1.8187 0.0000 89.3360
v  0.7533 0.0000 90.4014
v  -0.7533 0.0000 90.4014
v  -1.8187 0.0000 89.3360
v  -1.8187 0.0000 87.8294
v  -0.7533 0.0000 86.7640
v  0.7533 0.0000 86.7640
v  1.8187 0.0000 87.8294
v  0.6946 72.1538 88.2950
v  0.2877 72.1538 87.8881
v  -0.2877 72.1538 87.8881
v  -0.6946 72.1538 88.2950
v  -0.6946 72.1538 88.8704
v  -0.2877 72.1538 89.2773
v  0.2877 72.1538 89.2773
v  0.6946 72.1538 88.8704
v  0.7533 60.0000 86.7640
v  0.7533 70.8661 86.7640
v  1.8187 70.8661 87.8294
v  1.8187 60.0000 87.8294
v  1.8187 10.8661 87.8294
v  0.7533 10.8661 86.7640
v  -0.7533 60.0000 86.7640
v  -0.7533 70.8661 86.7640
v  -0.7533 10.8661 86.7640
v  -1.8187 60.0000 87.8294
v  -1.8187 70.8661 87.8294
v  -1.8187 10.8661 87.8294
v  -1.8187 60.0000 89.3360
v  -1.8187 70.8661 89.3360
v  -1.8187 10.8661 89.3360
v  -0.7533 60.0000 90.4014
v  -0.7533 70.8661 90.4014
v  -0.7533 10.8661 90.4014
v  0.7533 60.0000 90.4014
v  0.7533 70.8661 90.4014
v  0.7533 10.8661 90.4014
v  1.8187 60.0000 89.3360
v  1.8187 70.8661 89.3360
v  1.8187 10.8661 89.3360
v  3.8682 59.3895 87.8294
v  3.8682 60.0000 87.8294
v  3.8682 60.0000 89.3360
v  3.8682 59.3895 89.3360
v  3.8682 11.4766 89.3360
v  3.8682 10.8661 89.3360
v  3.8682 10.8661 87.8294
v  3.8682 11.4766 87.8294
v  48.4593 11.4766 -57.2365
v  48.4593 59.3895 -57.2365
v  47.3939 59.3895 -58.3018
v  47.3939 11.4766 -58.3018
v  49.9659 11.4766 -57.2365
v  49.9659 59.3895 -57.2365
v  51.0313 11.4766 -58.3018
v  51.0313 59.3895 -58.3018
v  51.0313 11.4766 -59.8084
v  51.0313 59.3895 -59.8084
v  49.9659 11.4766 -60.8738
v  49.9659 59.3895 -60.8738
v  48.4593 11.4766 -60.8738
v  48.4593 59.3895 -60.8738
v  47.3939 11.4766 -59.8084
v  47.3939 59.3895 -59.8084
v  47.3939 0.0000 -59.8084
v  48.4593 0.0000 -60.8738
v  49.9659 0.0000 -60.8738
v  51.0313 0.0000 -59.8084
v  51.0313 0.0000 -58.3018
v  49.9659 0.0000 -57.2365
v  48.4593 0.0000 -57.2365
v  47.3939 0.0000 -58.3018
v  48.5180 72.1538 -58.7674
v  48.9249 72.1538 -58.3605
v  49.5003 72.1538 -58.3605
v  49.9072 72.1538 -58.7674
v  49.9072 72.1538 -59.3428
v  49.5003 72.1538 -59.7497
v  48.9249 72.1538 -59.7497
v  48.5180 72.1538 -59.3428
v  48.4593 60.0000 -57.2365
v  48.4593 70.8661 -57.2365
v  47.3939 70.8661 -58.3018
v  47.3939 60.0000 -58.3018
v  47.3939 10.8661 -58.3018
v  48.4593 10.8661 -57.2365
v  49.9659 60.0000 -57.2365
v  49.9659 70.8661 -57.2365
v  49.9659 10.8661 -57.2365
v  51.0313 60.0000 -58.3018
v  51.0313 70.8661 -58.3018
v  51.0313 10.8661 -58.3018
v  51.0313 60.0000 -59.8084
v  51.0313 70.8661 -59.8084
v  51.0313 10.8661 -59.8084
v  49.9659 60.0000 -60.8738
v  49.9659 70.8661 -60.8738
v  49.9659 10.8661 -60.8738
v  48.4593 60.0000 -60.8738
v  48.4593 70.8661 -60.8738
v  48.4593 10.8661 -60.8738
v  47.3939 60.0000 -59.8084
v  47.3939 70.8661 -59.8084
v  47.3939 10.8661 -59.8084
v  49.9659 59.3895 -54.8759
v  49.9659 60.0000 -54.8759
v  48.4593 60.0000 -54.8760
v  48.4593 59.3895 -54.8760
v  48.4593 11.4766 -54.8760
v  48.4593 10.8661 -54.8760
v  49.9659 10.8661 -54.8759
v  49.9659 11.4766 -54.8759
v  45.3444 59.3895 -58.3018
v  45.3444 60.0000 -58.3018
v  45.3444 60.0000 -59.8084
v  45.3444 59.3895 -59.8084
v  45.3444 11.4766 -59.8084
v  45.3444 10.8661 -59.8084
v  45.3444 10.8661 -58.3018
v  45.3444 11.4766 -58.3018
v  0.7533 11.4766 -60.8738
v  0.7533 59.3895 -60.8738
v  1.8187 59.3895 -59.8084
v  1.8187 11.4766 -59.8084
v  -0.7533 11.4766 -60.8738
v  -0.7533 59.3895 -60.8738
v  -1.8187 11.4766 -59.8084
v  -1.8187 59.3895 -59.8084
v  -1.8187 11.4766 -58.3018
v  -1.8187 59.3895 -58.3018
v  -0.7533 11.4766 -57.2365
v  -0.7533 59.3895 -57.2365
v  0.7533 11.4766 -57.2364
v  0.7533 59.3895 -57.2364
v  1.8187 11.4766 -58.3018
v  1.8187 59.3895 -58.3018
v  1.8187 0.0000 -58.3018
v  0.7533 0.0000 -57.2364
v  -0.7533 0.0000 -57.2365
v  -1.8187 0.0000 -58.3018
v  -1.8187 0.0000 -59.8084
v  -0.7533 0.0000 -60.8738
v  0.7533 0.0000 -60.8738
v  1.8187 0.0000 -59.8084
v  0.6946 72.1538 -59.3428
v  0.2877 72.1538 -59.7497
v  -0.2877 72.1538 -59.7497
v  -0.6946 72.1538 -59.3428
v  -0.6946 72.1538 -58.7674
v  -0.2877 72.1538 -58.3605
v  0.2877 72.1538 -58.3605
v  0.6946 72.1538 -58.7674
v  0.7533 60.0000 -60.8738
v  0.7533 70.8661 -60.8738
v  1.8187 70.8661 -59.8084
v  1.8187 60.0000 -59.8084
v  1.8187 10.8661 -59.8084
v  0.7533 10.8661 -60.8738
v  -0.7533 60.0000 -60.8738
v  -0.7533 70.8661 -60.8738
v  -0.7533 10.8661 -60.8738
v  -1.8187 60.0000 -59.8084
v  -1.8187 70.8661 -59.8084
v  -1.8187 10.8661 -59.8084
v  -1.8187 60.0000 -58.3018
v  -1.8187 70.8661 -58.3018
v  -1.8187 10.8661 -58.3018
v  -0.7533 60.0000 -57.2365
v  -0.7533 70.8661 -57.2365
v  -0.7533 10.8661 -57.2365
v  0.7533 60.0000 -57.2364
v  0.7533 70.8661 -57.2364
v  0.7533 10.8661 -57.2364
v  1.8187 60.0000 -58.3018
v  1.8187 70.8661 -58.3018
v  1.8187 10.8661 -58.3018
v  3.8681 59.3895 -59.8084
v  3.8681 60.0000 -59.8084
v  3.8682 60.0000 -58.3018
v  3.8682 59.3895 -58.3018
v  3.8682 11.4766 -58.3018
v  3.8682 10.8661 -58.3018
v  3.8681 10.8661 -59.8084
v  3.8681 11.4766 -59.8084
v  48.6811 72.3074 88.5683
v  48.6811 72.3074 -59.0695
v  49.8622 72.3074 -59.0695
v  49.8622 72.3074 88.5683
v  48.6811 73.4885 88.5683
v  49.8622 73.4885 88.5683
v  49.8622 73.4885 -59.0695
v  48.6811 73.4885 -59.0695
v  38.8425 76.0781 88.5683
v  38.8425 76.0781 -59.0695
v  40.0236 76.0781 -59.0695
v  40.0236 76.0781 88.5683
v  38.8425 77.2592 88.5683
v  40.0236 77.2592 88.5683
v  40.0236 77.2592 -59.0695
v  38.8425 77.2592 -59.0695
v  24.0349 78.5601 88.5683
v  24.0349 78.5601 -59.0695
v  25.2160 78.5601 -59.0695
v  25.2160 78.5601 88.5683
v  24.0349 79.7412 88.5683
v  25.2160 79.7412 88.5683
v  25.2160 79.7412 -59.0695
v  24.0349 79.7412 -59.0695
v  9.4240 75.9481 88.5683
v  9.4240 75.9481 -59.0695
v  10.6051 75.9481 -59.0695
v  10.6051 75.9481 88.5683
v  9.4240 77.1292 88.5683
v  10.6051 77.1292 88.5683
v  10.6051 77.1292 -59.0695
v  9.4240 77.1292 -59.0695
v  -0.6921 72.2116 88.5683
v  -0.6921 72.2116 -59.0695
v  0.4890 72.2116 -59.0695
v  0.4890 72.2116 88.5683
v  -0.6921 73.3927 88.5683
v  0.4890 73.3927 88.5683
v  0.4890 73.3927 -59.0695
v  -0.6921 73.3927 -59.0695
v  9.8891 75.6382 87.3888
v  24.6529 78.2602 87.3888
v  24.6529 78.2602 89.3573
v  9.8891 75.6382 89.3573
v  9.8891 77.6067 89.3573
v  24.6529 80.2287 89.3573
v  24.6529 80.2287 87.3888
v  9.8891 77.6067 87.3888
v  54.1804 70.0825 89.3573
v  54.1804 70.0825 87.3888
v  54.1804 72.0510 87.3888
v  54.1804 72.0510 89.3573
v  39.4166 75.6382 87.3888
v  39.4166 77.6067 87.3888
v  -4.8747 70.0825 87.3888
v  -4.8747 70.0825 89.3573
v  -4.8747 72.0510 89.3573
v  -4.8747 72.0510 87.3888
v  39.4166 75.6382 89.3573
v  39.4166 77.6067 89.3573
v  9.8891 75.6382 38.1762
v  24.6529 78.2602 38.1762
v  24.6529 78.2602 40.1447
v  9.8891 75.6382 40.1447
v  9.8891 77.6067 40.1447
v  24.6529 80.2287 40.1447
v  24.6529 80.2287 38.1762
v  9.8891 77.6067 38.1762
v  54.1804 70.0825 40.1447
v  54.1804 70.0825 38.1762
v  54.1804 72.0510 38.1762
v  54.1804 72.0510 40.1447
v  39.4166 75.6382 38.1762
v  39.4166 77.6067 38.1762
v  -4.8747 70.0825 38.1762
v  -4.8747 70.0825 40.1447
v  -4.8747 72.0510 40.1447
v  -4.8747 72.0510 38.1762
v  39.4166 75.6382 40.1447
v  39.4166 77.6067 40.1447
v  9.8891 75.6382 -11.0364
v  24.6529 78.2602 -11.0364
v  24.6529 78.2602 -9.0679
v  9.8891 75.6382 -9.0679
v  9.8891 77.6067 -9.0679
v  24.6529 80.2287 -9.0679
v  24.6529 80.2287 -11.0364
v  9.8891 77.6067 -11.0364
v  54.1804 70.0825 -9.0679
v  54.1804 70.0825 -11.0364
v  54.1804 72.0510 -11.0364
v  54.1804 72.0510 -9.0679
v  39.4166 75.6382 -11.0364
v  39.4166 77.6067 -11.0364
v  -4.8747 70.0825 -11.0364
v  -4.8747 70.0825 -9.0679
v  -4.8747 72.0510 -9.0679
v  -4.8747 72.0510 -11.0364
v  39.4166 75.6382 -9.0679
v  39.4166 77.6067 -9.0679
v  9.8891 75.6382 -60.2489
v  24.6529 78.2602 -60.2489
v  24.6529 78.2602 -58.2804
v  9.8891 75.6382 -58.2804
v  9.8891 77.6067 -58.2804
v  24.6529 80.2287 -58.2804
v  24.6529 80.2287 -60.2489
v  9.8891 77.6067 -60.2489
v  54.1804 70.0825 -58.2804
v  54.1804 70.0825 -60.2489
v  54.1804 72.0510 -60.2489
v  54.1804 72.0510 -58.2804
v  39.4166 75.6382 -60.2489
v  39.4166 77.6067 -60.2489
v  -4.8747 70.0825 -60.2489
v  -4.8747 70.0825 -58.2804
v  -4.8747 72.0510 -58.2804
v  -4.8747 72.0510 -60.2489
v  39.4166 75.6382 -58.2804
v  39.4166 77.6067 -58.2804
v  -4.8473 72.0253 94.2863
v  -4.8473 72.0253 -63.1940
v  9.9165 77.5206 -63.1940
v  9.9165 77.5206 94.2863
v  24.6803 80.1707 -63.1940
v  24.6803 80.1707 94.2863
v  39.4440 77.5206 -63.1940
v  39.4440 77.5206 94.2863
v  54.2078 72.0253 -63.1940
v  54.2078 72.0253 94.2863
v  -4.8473 72.8127 94.2863
v  9.9165 78.3080 94.2863
v  9.9165 78.3080 -63.1940
v  -4.8473 72.8127 -63.1940
v  24.6803 80.9581 94.2863
v  24.6803 80.9581 -63.1940
v  39.4440 78.3080 94.2863
v  39.4440 78.3080 -63.1940
v  54.2078 72.8127 94.2863
v  54.2078 72.8127 -63.1940
v  28.4782 12.2215 38.3022
v  28.4782 12.2215 -8.9419
v  44.2262 12.2215 -8.9419
v  44.2262 12.2215 38.3022
v  28.4782 14.1900 38.3022
v  44.2262 14.1900 38.3022
v  44.2262 14.1900 -8.9419
v  28.4782 14.1900 -8.9419
v  44.5768 12.7136 38.5701
v  28.1276 12.7136 38.5701
v  44.6499 13.2057 38.6717
v  28.0545 13.2057 38.6717
v  44.5768 13.6979 38.5701
v  28.1276 13.6979 38.5701
v  44.5768 12.7136 -9.2098
v  44.6499 13.2057 -9.3115
v  44.5768 13.6979 -9.2098
v  28.1276 12.7136 -9.2098
v  28.0545 13.2057 -9.3115
v  28.1276 13.6979 -9.2098
v  28.6018 0.0139 -6.1301
v  28.6018 0.0139 -7.3099
v  31.7514 0.0000 -7.8025
v  31.7514 0.0000 -5.6375
v  34.9010 0.0000 -8.0979
v  34.9010 0.0000 -5.3420
v  38.0506 0.0000 -8.0979
v  38.0506 0.0000 -5.3420
v  41.2002 0.0000 -7.8025
v  41.2002 0.0000 -5.6375
v  44.3499 0.0000 -7.3099
v  44.3499 0.0000 -6.1301
v  28.6018 0.3021 -6.1301
v  31.7514 0.7532 -5.6375
v  31.7514 0.7532 -7.8025
v  28.6018 0.3021 -7.3099
v  34.9010 1.1644 -5.3420
v  34.9010 1.1644 -8.0979
v  35.1258 12.2926 -1.3327
v  37.8258 12.2926 -1.3327
v  37.8258 12.2926 -3.6390
v  35.1258 12.2926 -3.6390
v  38.0506 1.1644 -5.3420
v  41.2002 0.7532 -5.6375
v  41.2002 0.7532 -7.8025
v  38.0506 1.1644 -8.0979
v  44.3499 0.3160 -6.1301
v  44.3499 0.3160 -7.3099
v  35.8003 1.1644 -6.2413
v  35.8003 1.1644 -7.1987
v  37.1514 1.1644 -6.2413
v  37.1514 1.1644 -7.1987
v  35.8003 11.5057 -2.0071
v  35.8003 11.5057 -2.9645
v  37.1514 11.5057 -2.0071
v  37.1514 11.5057 -2.9645
v  44.3499 0.0139 35.2494
v  44.3499 0.0139 36.4291
v  41.2002 0.0000 36.9217
v  41.2002 0.0000 34.7567
v  38.0506 0.0000 37.2172
v  38.0506 0.0000 34.4613
v  34.9010 0.0000 37.2172
v  34.9010 0.0000 34.4613
v  31.7514 0.0000 36.9217
v  31.7514 0.0000 34.7567
v  28.6018 0.0000 36.4291
v  28.6018 0.0000 35.2494
v  44.3499 0.3021 35.2494
v  41.2002 0.7532 34.7567
v  41.2002 0.7532 36.9217
v  44.3499 0.3021 36.4291
v  38.0506 1.1644 34.4613
v  38.0506 1.1644 37.2172
v  37.8258 12.2926 30.4519
v  35.1258 12.2926 30.4519
v  35.1258 12.2926 32.7582
v  37.8258 12.2926 32.7582
v  34.9010 1.1644 34.4613
v  31.7514 0.7532 34.7567
v  31.7514 0.7532 36.9217
v  34.9010 1.1644 37.2172
v  28.6018 0.3160 35.2494
v  28.6018 0.3160 36.4291
v  37.1514 1.1644 35.3605
v  37.1514 1.1644 36.3179
v  35.8003 1.1644 35.3605
v  35.8003 1.1644 36.3179
v  37.1514 11.5057 31.1264
v  37.1514 11.5057 32.0838
v  35.8003 11.5057 31.1264
v  35.8003 11.5057 32.0838
# 688 vertices

vn 0.0000 -1.0000 -0.0000
vn 0.0000 1.0000 -0.0000
vn 0.0000 0.0000 1.0000
vn 1.0000 0.0000 -0.0000
vn 0.0000 0.0000 -1.0000
vn -1.0000 0.0000 -0.0000
vn -0.8629 0.0000 -0.5054
vn -0.5055 0.0000 -0.8629
vn -0.8629 0.0000 0.5054
vn -0.3827 0.0000 0.9239
vn 0.3827 0.0000 0.9239
vn 0.9239 0.0000 0.3827
vn 0.9239 0.0000 -0.3827
vn 0.5055 0.0000 -0.8629
vn -0.9239 0.0000 -0.3827
vn -0.3827 0.0000 -0.9239
vn -0.9239 0.0000 0.3827
vn 0.3827 0.0000 -0.9239
vn -1.0000 0.0000 0.0000
vn -0.5054 0.0000 -0.8629
vn -0.5054 0.0000 0.8629
vn 0.5054 0.0000 0.8629
vn 0.5054 0.0000 -0.8629
vn -0.5055 0.0000 0.8629
vn 0.5055 0.0000 0.8629
vn -0.0000 0.0000 -1.0000
vn 1.0000 0.0000 0.0000
vn 0.8629 0.0000 -0.5055
vn 0.8629 0.0000 0.5055
vn -0.8629 0.0000 -0.5055
vn -0.0000 0.0000 1.0000
vn 0.8629 0.0000 0.5054
vn -0.5327 0.6576 -0.5327
vn -0.7533 0.6576 -0.0000
vn -0.5327 0.6576 0.5327
vn 0.0000 0.6576 0.7533
vn 0.5327 0.6576 0.5327
vn 0.7533 0.6576 -0.0000
vn 0.5327 0.6576 -0.5327
vn 0.0000 0.6576 -0.7533
vn -0.7533 0.6576 0.0000
vn -0.0000 0.6576 0.7533
vn 0.7533 0.6576 0.0000
vn -0.0000 0.6576 -0.7533
vn 0.2646 -0.9643 -0.0000
vn -0.0000 -1.0000 -0.0000
vn -0.2646 0.9643 -0.0000
vn -0.2646 -0.9643 -0.0000
vn -0.3522 -0.9359 -0.0000
vn 0.3522 -0.9359 -0.0000
vn 0.2646 0.9643 -0.0000
vn 0.3522 0.9359 -0.0000
vn -0.3522 0.9359 -0.0000
vn 0.3488 -0.9372 -0.0000
vn 0.2638 -0.9646 -0.0000
vn -0.2638 -0.9646 -0.0000
vn -0.3488 -0.9372 -0.0000
vn -0.3488 0.9372 -0.0000
vn -0.2638 0.9646 -0.0000
vn -0.0000 1.0000 -0.0000
vn 0.2638 0.9646 -0.0000
vn 0.3488 0.9372 -0.0000
vn 0.0000 -0.4782 0.8783
vn 0.0000 -0.3077 0.9515
vn 0.0000 -0.0000 1.0000
vn 0.0000 0.3077 0.9515
vn 0.0000 0.4782 0.8783
vn 0.8145 -0.5802 -0.0000
vn 0.9452 -0.3264 -0.0000
vn 1.0000 -0.0000 -0.0000
vn 0.9452 0.3264 -0.0000
vn 0.8145 0.5802 -0.0000
vn 0.0000 -0.4782 -0.8783
vn 0.0000 -0.3077 -0.9515
vn 0.0000 0.3077 -0.9515
vn 0.0000 0.4782 -0.8783
vn -0.8145 -0.5802 -0.0000
vn -0.9452 -0.3264 -0.0000
vn -1.0000 -0.0000 -0.0000
vn -0.9452 0.3264 -0.0000
vn -0.8145 0.5802 -0.0000
vn -0.0044 -1.0000 -0.0000
vn -0.0020 -1.0000 -0.0000
vn -0.1418 0.9899 -0.0000
vn -0.1351 0.9908 -0.0000
vn -0.1295 0.9916 -0.0000
vn 0.1295 0.9916 -0.0000
vn 0.1332 0.9911 -0.0000
vn 0.1375 0.9905 -0.0000
vn -0.1545 0.0000 0.9880
vn -0.1240 0.0000 0.9923
vn -0.1214 0.0000 0.9926
vn -0.0467 0.0000 0.9989
vn -0.0447 0.0000 0.9990
vn 0.0467 0.0000 0.9989
vn 0.0447 0.0000 0.9990
vn 0.1240 0.0000 0.9923
vn 0.1214 0.0000 0.9926
vn 0.1545 0.0000 0.9880
vn 0.1545 0.0000 -0.9880
vn 0.1240 0.0000 -0.9923
vn 0.1214 0.0000 -0.9926
vn 0.0467 0.0000 -0.9989
vn 0.0447 0.0000 -0.9990
vn -0.0467 0.0000 -0.9989
vn -0.0447 0.0000 -0.9990
vn -0.1240 0.0000 -0.9923
vn -0.1214 0.0000 -0.9926
vn -0.1545 0.0000 -0.9880
vn 0.0000 -0.3789 0.9254
vn 0.0000 0.3789 -0.9254
vn -0.7593 -0.6508 -0.0000
vn 0.0000 -0.6508 0.7593
vn 0.7593 -0.6508 -0.0000
vn 0.0000 -0.6508 -0.7593
vn 0.0044 -1.0000 -0.0000
vn 0.0020 -1.0000 -0.0000
vn 0.1418 0.9899 -0.0000
vn 0.1351 0.9908 -0.0000
vn -0.1332 0.9911 -0.0000
vn -0.1375 0.9905 -0.0000
vn 0.0000 -0.3789 -0.9254
vn 0.0000 0.3789 0.9254
vn -0.7593 -0.6508 0.0000
# 124 vertex normals

vt 1.0000 0.0000 0.0000
vt 1.0000 1.0000 0.0000
vt 0.0000 1.0000 0.0000
vt 0.0000 0.0000 0.0000
vt 0.8750 0.1619 1.0000
vt 0.8750 0.8381 1.0000
vt 0.7500 0.8381 1.0000
vt 0.7500 0.1619 1.0000
vt 1.0000 0.1619 1.0000
vt 1.0000 0.8381 1.0000
vt 0.1250 0.1619 1.0000
vt 0.1250 0.8381 1.0000
vt 0.0000 0.8381 1.0000
vt 0.0000 0.1619 1.0000
vt 0.2500 0.1619 1.0000
vt 0.2500 0.8381 1.0000
vt 0.3750 0.1619 1.0000
vt 0.3750 0.8381 1.0000
vt 0.5000 0.1619 1.0000
vt 0.5000 0.8381 1.0000
vt 0.6250 0.1619 1.0000
vt 0.6250 0.8381 1.0000
vt 0.8536 0.8536 -0.2500
vt 1.0000 0.5000 -0.2500
vt 0.8536 0.1464 -0.2500
vt 0.5000 0.0000 -0.2500
vt 0.1464 0.1464 -0.2500
vt 0.0000 0.5000 -0.2500
vt 0.1464 0.8536 -0.2500
vt 0.5000 1.0000 -0.2500
vt 0.5000 1.0000 0.2500
vt 0.1464 0.8536 0.2500
vt 0.0000 0.5000 0.2500
vt 0.1464 0.1464 0.2500
vt 0.5000 0.0000 0.2500
vt 0.8536 0.1464 0.2500
vt 1.0000 0.5000 0.2500
vt 0.8536 0.8536 0.2500
vt 0.8750 0.8467 1.0000
vt 0.8750 1.0000 1.0000
vt 0.7500 1.0000 1.0000
vt 0.7500 0.8467 1.0000
vt 0.7500 0.1533 1.0000
vt 0.7500 0.0000 1.0000
vt 0.8750 0.0000 1.0000
vt 0.8750 0.1533 1.0000
vt 1.0000 0.8467 1.0000
vt 1.0000 1.0000 1.0000
vt 1.0000 0.0000 1.0000
vt 1.0000 0.1533 1.0000
vt 0.1250 0.8467 1.0000
vt 0.1250 1.0000 1.0000
vt 0.0000 1.0000 1.0000
vt 0.0000 0.8467 1.0000
vt 0.0000 0.1533 1.0000
vt 0.0000 0.0000 1.0000
vt 0.1250 0.0000 1.0000
vt 0.1250 0.1533 1.0000
vt 0.2500 0.8467 1.0000
vt 0.2500 1.0000 1.0000
vt 0.2500 0.0000 1.0000
vt 0.2500 0.1533 1.0000
vt 0.3750 0.8467 1.0000
vt 0.3750 1.0000 1.0000
vt 0.3750 0.0000 1.0000
vt 0.3750 0.1533 1.0000
vt 0.5000 0.8467 1.0000
vt 0.5000 1.0000 1.0000
vt 0.5000 0.0000 1.0000
vt 0.5000 0.1533 1.0000
vt 0.6250 0.8467 1.0000
vt 0.6250 1.0000 1.0000
vt 0.6250 0.0000 1.0000
vt 0.6250 0.1533 1.0000
vt 0.7500 1.0000 0.0000
vt 0.5000 1.0000 0.0000
vt 0.5000 0.0000 0.0000
vt 0.7500 0.0000 0.0000
vt 0.2500 0.0000 0.0000
vt 0.2500 1.0000 0.0000
vt -0.2289 -1.8553 0.0000
vt -0.2289 1.9449 0.0000
vt -1.4956 1.9449 0.0000
vt -1.4956 -1.8553 0.0000
vt 1.0494 1.9449 0.0000
vt -0.2173 1.9449 0.0000
vt -0.2173 -1.8553 0.0000
vt 1.0494 -1.8553 0.0000
vt 1.4609 0.7277 0.0000
vt 1.4609 1.9944 0.0000
vt 1.4213 2.0226 0.0000
vt 1.4213 0.6995 0.0000
vt 1.3817 2.0285 0.0000
vt 1.3817 0.6936 0.0000
vt 1.3421 2.0226 0.0000
vt 1.3421 0.6995 0.0000
vt 1.3026 1.9944 0.0000
vt 1.3026 0.7277 0.0000
vt 1.1740 -1.8256 0.0000
vt 1.1740 1.9746 0.0000
vt 1.1254 1.9961 0.0000
vt 1.1254 -1.8471 0.0000
vt 1.0898 2.0043 0.0000
vt 1.0898 -1.8553 0.0000
vt 1.0610 1.9961 0.0000
vt 1.0610 -1.8471 0.0000
vt 2.0995 -1.8553 0.0000
vt 2.0995 1.9880 0.0000
vt 2.0509 1.9664 0.0000
vt 2.0509 -1.8337 0.0000
vt 1.6903 -0.5468 0.0000
vt 1.6903 0.7199 0.0000
vt 1.6507 0.7481 0.0000
vt 1.6507 -0.5750 0.0000
vt 1.6111 0.7540 0.0000
vt 1.6111 -0.5808 0.0000
vt 1.5715 0.7481 0.0000
vt 1.5715 -0.5750 0.0000
vt 1.5319 0.7199 0.0000
vt 1.5319 -0.5468 0.0000
vt 1.2948 -1.8256 0.0000
vt 1.2948 1.9746 0.0000
vt 1.2462 1.9961 0.0000
vt 1.2462 -1.8471 0.0000
vt 1.2106 2.0043 0.0000
vt 1.2106 -1.8553 0.0000
vt 1.1818 1.9961 0.0000
vt 1.1818 -1.8471 0.0000
vt 2.0432 -1.8553 0.0000
vt 2.0432 1.9880 0.0000
vt 1.9946 1.9664 0.0000
vt 1.9946 -1.8337 0.0000
vt 1.3659 -1.8553 0.0000
vt 1.4608 -1.8553 0.0000
vt 1.5005 -1.6019 0.0000
vt 1.3263 -1.6019 0.0000
vt 1.5242 -1.3486 0.0000
vt 1.3026 -1.3486 0.0000
vt 1.5242 -1.0953 0.0000
vt 1.3026 -1.0953 0.0000
vt 1.5005 -0.8419 0.0000
vt 1.3263 -0.8419 0.0000
vt 1.4608 -0.5886 0.0000
vt 1.3659 -0.5886 0.0000
vt 1.4608 -0.5808 0.0000
vt 1.5005 -0.3275 0.0000
vt 1.3263 -0.3275 0.0000
vt 1.3659 -0.5808 0.0000
vt 1.5242 -0.0742 0.0000
vt 1.3026 -0.0742 0.0000
vt 1.4881 2.0362 0.0000
vt 1.4881 2.2533 0.0000
vt 1.3026 2.2533 0.0000
vt 1.3026 2.0362 0.0000
vt 1.5242 0.1792 0.0000
vt 1.5005 0.4325 0.0000
vt 1.3263 0.4325 0.0000
vt 1.3026 0.1792 0.0000
vt 1.4608 0.6859 0.0000
vt 1.3659 0.6859 0.0000
vt 1.8539 1.4182 0.0000
vt 1.8550 1.6715 0.0000
vt 1.7944 1.6715 0.0000
vt 1.8307 1.4182 0.0000
vt 1.8550 1.9249 0.0000
vt 1.7613 1.9249 0.0000
vt 1.8550 2.1782 0.0000
vt 1.7613 2.1782 0.0000
vt 1.8550 2.4315 0.0000
vt 1.7944 2.4315 0.0000
vt 1.8550 2.6849 0.0000
vt 1.8296 2.6849 0.0000
vt 2.2369 -1.8553 0.0000
vt 2.2369 -1.7604 0.0000
vt 2.2115 -1.7604 0.0000
vt 2.2115 -1.8553 0.0000
vt 2.2009 -1.8553 0.0000
vt 2.2009 -1.6019 0.0000
vt 2.1403 -1.6019 0.0000
vt 2.1755 -1.8553 0.0000
vt 2.2009 -1.3486 0.0000
vt 2.1072 -1.3486 0.0000
vt 2.2009 -1.0953 0.0000
vt 2.1072 -1.0953 0.0000
vt 2.2009 -0.8419 0.0000
vt 2.1403 -0.8419 0.0000
vt 2.1998 -0.5886 0.0000
vt 2.1766 -0.5886 0.0000
vt 2.2369 -0.7274 0.0000
vt 2.2369 -0.6325 0.0000
vt 2.2138 -0.6325 0.0000
vt 2.2138 -0.7274 0.0000
vt 1.4519 -0.0018 0.0000
vt 1.3749 -0.0018 0.0000
vt 1.4519 0.1068 0.0000
vt 1.3749 0.1068 0.0000
vt 1.6341 1.7684 0.0000
vt 1.5627 1.7396 0.0000
vt 1.5585 0.8407 0.0000
vt 1.6299 0.8696 0.0000
vt -0.8493 2.8515 0.0000
vt -0.9580 2.8515 0.0000
vt -0.9580 2.0197 0.0000
vt -0.8493 2.0197 0.0000
vt -1.4186 2.8515 0.0000
vt -1.4956 2.8515 0.0000
vt -1.1550 2.0197 0.0000
vt -1.0780 2.0197 0.0000
vt 0.4290 2.8515 0.0000
vt 0.3203 2.8515 0.0000
vt 0.3203 2.0197 0.0000
vt 0.4290 2.0197 0.0000
vt 1.5319 0.7617 0.0000
vt 1.7039 0.8312 0.0000
vt -1.0122 1.9564 0.0000
vt -0.7950 1.9564 0.0000
vt -1.2093 1.9564 0.0000
vt -1.0238 1.9564 0.0000
vt 0.2661 1.9564 0.0000
vt 0.4833 1.9564 0.0000
vt 1.6902 -0.5886 0.0000
vt 1.5953 -0.5886 0.0000
vt 1.5557 -0.8419 0.0000
vt 1.7299 -0.8419 0.0000
vt 1.5319 -1.0953 0.0000
vt 1.7536 -1.0953 0.0000
vt 1.5319 -1.3486 0.0000
vt 1.7536 -1.3486 0.0000
vt 1.5557 -1.6019 0.0000
vt 1.7299 -1.6019 0.0000
vt 1.5953 -1.8553 0.0000
vt 1.6902 -1.8553 0.0000
vt 1.8247 -0.6012 0.0000
vt 1.7851 -0.8571 0.0000
vt 1.9592 -0.8571 0.0000
vt 1.9196 -0.6012 0.0000
vt 1.7613 -1.1126 0.0000
vt 1.9830 -1.1126 0.0000
vt 0.4948 2.1736 0.0000
vt 0.4948 1.9564 0.0000
vt 0.6803 1.9564 0.0000
vt 0.6803 2.1736 0.0000
vt 1.7613 -1.3634 0.0000
vt 1.7851 -1.6095 0.0000
vt 1.9592 -1.6095 0.0000
vt 1.9830 -1.3634 0.0000
vt 1.8247 -1.8553 0.0000
vt 1.9196 -1.8553 0.0000
vt 2.1998 -0.5808 0.0000
vt 2.2009 -0.3275 0.0000
vt 2.1403 -0.3275 0.0000
vt 2.1766 -0.5808 0.0000
vt 2.2009 -0.0742 0.0000
vt 2.1072 -0.0742 0.0000
vt 2.2009 0.1792 0.0000
vt 2.1072 0.1792 0.0000
vt 2.2009 0.4325 0.0000
vt 2.1403 0.4325 0.0000
vt 2.2009 0.6859 0.0000
vt 2.1755 0.6859 0.0000
vt 2.2369 -0.8261 0.0000
vt 2.2369 -0.7312 0.0000
vt 2.2115 -0.7312 0.0000
vt 2.2115 -0.8261 0.0000
vt 2.3023 -1.8553 0.0000
vt 2.3023 -1.6019 0.0000
vt 2.2417 -1.6019 0.0000
vt 2.2769 -1.8553 0.0000
vt 2.3023 -1.3486 0.0000
vt 2.2086 -1.3486 0.0000
vt 2.3023 -1.0953 0.0000
vt 2.2086 -1.0953 0.0000
vt 2.3023 -0.8419 0.0000
vt 2.2417 -0.8419 0.0000
vt 2.3012 -0.5886 0.0000
vt 2.2780 -0.5886 0.0000
vt 2.2369 -1.7565 0.0000
vt 2.2369 -1.6616 0.0000
vt 2.2138 -1.6616 0.0000
vt 2.2138 -1.7565 0.0000
vt 1.8337 -1.1842 0.0000
vt 1.9107 -1.1842 0.0000
vt 1.8337 -1.2918 0.0000
vt 1.9107 -1.2918 0.0000
vt 1.8635 1.4066 0.0000
vt 1.7921 1.3777 0.0000
vt 1.7879 0.4789 0.0000
vt 1.8593 0.5078 0.0000
vt 1.9243 0.3883 0.0000
vt 1.8156 0.3883 0.0000
vt 1.8156 -0.5105 0.0000
vt 1.9243 -0.5105 0.0000
vt -0.1403 2.8515 0.0000
vt -0.2173 2.8515 0.0000
vt 0.1232 2.0197 0.0000
vt 0.2003 2.0197 0.0000
vt -0.6748 2.8553 0.0000
vt -0.7835 2.8553 0.0000
vt -0.7835 1.9564 0.0000
vt -0.6748 1.9564 0.0000
vt 1.7613 0.3999 0.0000
vt 1.9333 0.4694 0.0000
vt 1.7613 -0.5896 0.0000
vt 1.9785 -0.5896 0.0000
vt 0.0690 1.9564 0.0000
vt 0.2545 1.9564 0.0000
vt 1.1443 2.0663 0.0000
vt 1.1443 2.1750 0.0000
vt 1.0610 2.2292 0.0000
vt 1.0610 2.0120 0.0000
# 310 texture coords

g cam
usemtl 01___Default
s 2
f 1/1/1 2/2/1 3/3/1 4/4/1 
s 4
f 5/4/2 6/1/2 7/2/2 8/3/2 
s 8
f 1/4/3 4/1/3 6/2/3 5/3/3 
s 16
f 4/4/4 3/1/4 7/2/4 6/3/4 
s 32
f 3/4/5 2/1/5 8/2/5 7/3/5 
s 64
f 2/4/6 1/1/6 5/2/6 8/3/6 
s 2
f 9/1/1 10/2/1 11/3/1 12/4/1 
s 4
f 13/4/2 14/1/2 15/2/2 16/3/2 
s 8
f 9/4/4 12/1/4 14/2/4 13/3/4 
s 16
f 12/4/5 11/1/5 15/2/5 14/3/5 
s 32
f 11/4/6 10/1/6 16/2/6 15/3/6 
s 64
f 10/4/3 9/1/3 13/2/3 16/3/3 
s 2
f 17/1/1 18/2/1 19/3/1 20/4/1 
s 4
f 21/4/2 22/1/2 23/2/2 24/3/2 
s 8
f 17/4/4 20/1/4 22/2/4 21/3/4 
s 16
f 20/4/5 19/1/5 23/2/5 22/3/5 
s 32
f 19/4/6 18/1/6 24/2/6 23/3/6 
s 64
f 18/4/3 17/1/3 21/2/3 24/3/3 
s 2
f 25/1/1 26/2/1 27/3/1 28/4/1 
s 4
f 29/4/2 30/1/2 31/2/2 32/3/2 
s 8
f 25/4/4 28/1/4 30/2/4 29/3/4 
s 16
f 28/4/5 27/1/5 31/2/5 30/3/5 
s 32
f 27/4/6 26/1/6 32/2/6 31/3/6 
s 64
f 26/4/3 25/1/3 29/2/3 32/3/3 
s 2
f 33/1/1 34/2/1 35/3/1 36/4/1 
s 4
f 37/4/2 38/1/2 39/2/2 40/3/2 
s 8
f 33/4/3 36/1/3 38/2/3 37/3/3 
s 16
f 36/4/4 35/1/4 39/2/4 38/3/4 
s 32
f 35/4/5 34/1/5 40/2/5 39/3/5 
s 64
f 34/4/6 33/1/6 37/2/6 40/3/6 
usemtl 02___Default
s 8
f 41/5/7 42/6/7 43/7/8 44/8/8 
f 45/9/9 46/10/9 42/6/7 41/5/7 
f 47/11/10 48/12/10 46/13/9 45/14/9 
f 49/15/11 50/16/11 48/12/10 47/11/10 
f 51/17/12 52/18/12 50/16/11 49/15/11 
f 53/19/13 54/20/13 52/18/12 51/17/12 
f 55/21/14 56/22/14 54/20/13 53/19/13 
f 44/8/8 43/7/8 56/22/14 55/21/14 
s 1
f 57/23/1 58/24/1 59/25/1 60/26/1 61/27/1 62/28/1 63/29/1 64/30/1 
f 65/31/2 66/32/2 67/33/2 68/34/2 69/35/2 70/36/2 71/37/2 72/38/2 
s 8
f 73/39/7 74/40/15 75/41/16 76/42/8 
f 77/43/8 64/44/16 63/45/15 78/46/7 
f 79/47/9 80/48/17 74/40/15 73/39/7 
f 78/46/7 63/45/15 62/49/17 81/50/9 
f 82/51/10 83/52/10 80/53/17 79/54/9 
f 81/55/9 62/56/17 61/57/10 84/58/10 
f 85/59/11 86/60/11 83/52/10 82/51/10 
f 84/58/10 61/57/10 60/61/11 87/62/11 
f 88/63/12 89/64/12 86/60/11 85/59/11 
f 87/62/11 60/61/11 59/65/12 90/66/12 
f 91/67/13 92/68/13 89/64/12 88/63/12 
f 90/66/12 59/65/12 58/69/13 93/70/13 
f 94/71/14 95/72/18 92/68/13 91/67/13 
f 93/70/13 58/69/13 57/73/18 96/74/14 
f 76/42/8 75/41/16 95/72/18 94/71/14 
f 96/74/14 57/73/18 64/44/16 77/43/8 
f 42/6/7 73/39/7 76/42/8 43/7/8 
f 44/8/8 77/43/8 78/46/7 41/5/7 
f 97/10/6 98/47/6 99/39/6 100/6/6 
f 101/5/6 102/46/6 103/50/6 104/9/6 
f 48/12/10 82/51/10 79/54/9 46/13/9 
f 45/14/9 81/55/9 84/58/10 47/11/10 
f 50/16/11 85/59/11 82/51/10 48/12/10 
f 47/11/10 84/58/10 87/62/11 49/15/11 
f 52/18/12 88/63/12 85/59/11 50/16/11 
f 49/15/11 87/62/11 90/66/12 51/17/12 
f 54/20/13 91/67/13 88/63/12 52/18/12 
f 51/17/12 90/66/12 93/70/13 53/19/13 
f 56/22/14 94/71/14 91/67/13 54/20/13 
f 53/19/13 93/70/13 96/74/14 55/21/14 
f 105/7/5 106/42/5 107/71/5 108/22/5 
f 109/21/5 110/74/5 111/43/5 112/8/5 
s off
f 43/7/19 76/42/19 106/42/19 105/7/19 
f 76/42/2 94/71/2 107/71/2 106/42/2 
f 94/71/4 56/22/4 108/22/4 107/71/4 
f 56/22/1 43/7/1 105/7/1 108/22/1 
f 55/21/4 96/74/4 110/74/4 109/21/4 
f 96/74/1 77/43/1 111/43/1 110/74/1 
f 77/43/19 44/8/19 112/8/19 111/43/19 
f 44/8/2 55/21/2 109/21/2 112/8/2 
f 79/47/2 73/39/2 99/39/2 98/47/2 
f 73/39/5 42/6/5 100/6/5 99/39/5 
f 42/6/1 46/10/1 97/10/1 100/6/1 
f 46/10/3 79/47/3 98/47/3 97/10/3 
f 41/5/5 78/46/5 102/46/5 101/5/5 
f 78/46/1 81/50/1 103/50/1 102/46/1 
f 81/50/3 45/9/3 104/9/3 103/50/3 
f 45/9/2 41/5/2 101/5/2 104/9/2 
s 8
f 113/5/15 114/6/15 115/7/20 116/8/20 
f 117/9/17 118/10/17 114/6/15 113/5/15 
f 119/11/21 120/12/21 118/13/17 117/14/17 
f 121/15/22 122/16/22 120/12/21 119/11/21 
f 123/17/12 124/18/12 122/16/22 121/15/22 
f 125/19/13 126/20/13 124/18/12 123/17/12 
f 127/21/23 128/22/23 126/20/13 125/19/13 
f 116/8/20 115/7/20 128/22/23 127/21/23 
s 1
f 129/23/1 130/24/1 131/25/1 132/26/1 133/27/1 134/28/1 135/29/1 136/30/1 
f 137/31/2 138/32/2 139/33/2 140/34/2 141/35/2 142/36/2 143/37/2 144/38/2 
s 8
f 145/39/15 146/40/15 147/41/16 148/42/20 
f 149/43/20 136/44/16 135/45/15 150/46/15 
f 151/47/17 152/48/17 146/40/15 145/39/15 
f 150/46/15 135/45/15 134/49/17 153/50/17 
f 154/51/21 155/52/10 152/53/17 151/54/17 
f 153/55/17 134/56/17 133/57/10 156/58/21 
f 157/59/22 158/60/11 155/52/10 154/51/21 
f 156/58/21 133/57/10 132/61/11 159/62/22 
f 160/63/12 161/64/12 158/60/11 157/59/22 
f 159/62/22 132/61/11 131/65/12 162/66/12 
f 163/67/13 164/68/13 161/64/12 160/63/12 
f 162/66/12 131/65/12 130/69/13 165/70/13 
f 166/71/23 167/72/18 164/68/13 163/67/13 
f 165/70/13 130/69/13 129/73/18 168/74/23 
f 148/42/20 147/41/16 167/72/18 166/71/23 
f 168/74/23 129/73/18 136/44/16 149/43/20 
f 114/6/15 145/39/15 148/42/20 115/7/20 
f 116/8/20 149/43/20 150/46/15 113/5/15 
f 118/10/17 151/47/17 145/39/15 114/6/15 
f 113/5/15 150/46/15 153/50/17 117/9/17 
f 120/12/21 154/51/21 151/54/17 118/13/17 
f 117/14/17 153/55/17 156/58/21 119/11/21 
f 169/16/3 170/59/3 171/51/3 172/12/3 
f 173/11/3 174/58/3 175/62/3 176/15/3 
f 124/18/12 160/63/12 157/59/22 122/16/22 
f 121/15/22 159/62/22 162/66/12 123/17/12 
f 126/20/13 163/67/13 160/63/12 124/18/12 
f 123/17/12 162/66/12 165/70/13 125/19/13 
f 128/22/23 166/71/23 163/67/13 126/20/13 
f 125/19/13 165/70/13 168/74/23 127/21/23 
f 177/7/5 178/42/5 179/71/5 180/22/5 
f 181/21/5 182/74/5 183/43/5 184/8/5 
s off
f 115/7/19 148/42/19 178/42/19 177/7/19 
f 148/42/2 166/71/2 179/71/2 178/42/2 
f 166/71/4 128/22/4 180/22/4 179/71/4 
f 128/22/1 115/7/1 177/7/1 180/22/1 
f 127/21/4 168/74/4 182/74/4 181/21/4 
f 168/74/1 149/43/1 183/43/1 182/74/1 
f 149/43/19 116/8/19 184/8/19 183/43/19 
f 116/8/2 127/21/2 181/21/2 184/8/2 
f 157/59/2 154/51/2 171/51/2 170/59/2 
f 154/51/6 120/12/6 172/12/6 171/51/6 
f 120/12/1 122/16/1 169/16/1 172/12/1 
f 122/16/4 157/59/4 170/59/4 169/16/4 
f 119/11/6 156/58/6 174/58/6 173/11/6 
f 156/58/1 159/62/1 175/62/1 174/58/1 
f 159/62/4 121/15/4 176/15/4 175/62/4 
f 121/15/2 119/11/2 173/11/2 176/15/2 
s 8
f 185/5/15 186/6/15 187/7/20 188/8/20 
f 189/9/17 190/10/17 186/6/15 185/5/15 
f 191/11/24 192/12/24 190/13/17 189/14/17 
f 193/15/25 194/16/25 192/12/24 191/11/24 
f 195/17/12 196/18/12 194/16/25 193/15/25 
f 197/19/13 198/20/13 196/18/12 195/17/12 
f 199/21/23 200/22/23 198/20/13 197/19/13 
f 188/8/20 187/7/20 200/22/23 199/21/23 
s 1
f 201/23/1 202/24/1 203/25/1 204/26/1 205/27/1 206/28/1 207/29/1 208/30/1 
f 209/31/2 210/32/2 211/33/2 212/34/2 213/35/2 214/36/2 215/37/2 216/38/2 
s 8
f 217/39/15 218/40/15 219/41/16 220/42/20 
f 221/43/20 208/44/16 207/45/15 222/46/15 
f 223/47/17 224/48/17 218/40/15 217/39/15 
f 222/46/15 207/45/15 206/49/17 225/50/17 
f 226/51/24 227/52/10 224/53/17 223/54/17 
f 225/55/17 206/56/17 205/57/10 228/58/24 
f 229/59/25 230/60/11 227/52/10 226/51/24 
f 228/58/24 205/57/10 204/61/11 231/62/25 
f 232/63/12 233/64/12 230/60/11 229/59/25 
f 231/62/25 204/61/11 203/65/12 234/66/12 
f 235/67/13 236/68/13 233/64/12 232/63/12 
f 234/66/12 203/65/12 202/69/13 237/70/13 
f 238/71/23 239/72/18 236/68/13 235/67/13 
f 237/70/13 202/69/13 201/73/18 240/74/23 
f 220/42/20 219/41/16 239/72/18 238/71/23 
f 240/74/23 201/73/18 208/44/16 221/43/20 
f 186/6/15 217/39/15 220/42/20 187/7/20 
f 188/8/20 221/43/20 222/46/15 185/5/15 
f 190/10/17 223/47/17 217/39/15 186/6/15 
f 185/5/15 222/46/15 225/50/17 189/9/17 
f 192/12/24 226/51/24 223/54/17 190/13/17 
f 189/14/17 225/55/17 228/58/24 191/11/24 
f 241/16/3 242/59/3 243/51/3 244/12/3 
f 245/11/3 246/58/3 247/62/3 248/15/3 
f 196/18/12 232/63/12 229/59/25 194/16/25 
f 193/15/25 231/62/25 234/66/12 195/17/12 
f 198/20/13 235/67/13 232/63/12 196/18/12 
f 195/17/12 234/66/12 237/70/13 197/19/13 
f 200/22/23 238/71/23 235/67/13 198/20/13 
f 197/19/13 237/70/13 240/74/23 199/21/23 
f 249/7/26 250/42/26 251/71/26 252/22/26 
f 253/21/26 254/74/26 255/43/26 256/8/26 
s off
f 187/7/19 220/42/19 250/42/19 249/7/19 
f 220/42/2 238/71/2 251/71/2 250/42/2 
f 238/71/27 200/22/27 252/22/27 251/71/27 
f 200/22/1 187/7/1 249/7/1 252/22/1 
f 199/21/27 240/74/27 254/74/27 253/21/27 
f 240/74/1 221/43/1 255/43/1 254/74/1 
f 221/43/19 188/8/19 256/8/19 255/43/19 
f 188/8/2 199/21/2 253/21/2 256/8/2 
f 229/59/2 226/51/2 243/51/2 242/59/2 
f 226/51/6 192/12/6 244/12/6 243/51/6 
f 192/12/1 194/16/1 241/16/1 244/12/1 
f 194/16/4 229/59/4 242/59/4 241/16/4 
f 191/11/6 228/58/6 246/58/6 245/11/6 
f 228/58/1 231/62/1 247/62/1 246/58/1 
f 231/62/4 193/15/4 248/15/4 247/62/4 
f 193/15/2 191/11/2 245/11/2 248/15/2 
s 8
f 257/5/23 258/6/23 259/7/28 260/8/28 
f 261/9/20 262/10/20 258/6/23 257/5/23 
f 263/11/15 264/12/15 262/13/20 261/14/20 
f 265/15/17 266/16/17 264/12/15 263/11/15 
f 267/17/10 268/18/10 266/16/17 265/15/17 
f 269/19/11 270/20/11 268/18/10 267/17/10 
f 271/21/29 272/22/29 270/20/11 269/19/11 
f 260/8/28 259/7/28 272/22/29 271/21/29 
s 1
f 273/23/1 274/24/1 275/25/1 276/26/1 277/27/1 278/28/1 279/29/1 280/30/1 
f 281/31/2 282/32/2 283/33/2 284/34/2 285/35/2 286/36/2 287/37/2 288/38/2 
s 8
f 289/39/23 290/40/18 291/41/13 292/42/28 
f 293/43/28 280/44/13 279/45/18 294/46/23 
f 295/47/20 296/48/16 290/40/18 289/39/23 
f 294/46/23 279/45/18 278/49/16 297/50/20 
f 298/51/15 299/52/15 296/53/16 295/54/20 
f 297/55/20 278/56/16 277/57/15 300/58/15 
f 301/59/17 302/60/17 299/52/15 298/51/15 
f 300/58/15 277/57/15 276/61/17 303/62/17 
f 304/63/10 305/64/10 302/60/17 301/59/17 
f 303/62/17 276/61/17 275/65/10 306/66/10 
f 307/67/11 308/68/11 305/64/10 304/63/10 
f 306/66/10 275/65/10 274/69/11 309/70/11 
f 310/71/29 311/72/12 308/68/11 307/67/11 
f 309/70/11 274/69/11 273/73/12 312/74/29 
f 292/42/28 291/41/13 311/72/12 310/71/29 
f 312/74/29 273/73/12 280/44/13 293/43/28 
f 258/6/23 289/39/23 292/42/28 259/7/28 
f 260/8/28 293/43/28 294/46/23 257/5/23 
f 264/12/15 298/51/15 295/54/20 262/13/20 
f 261/14/20 297/55/20 300/58/15 263/11/15 
f 266/16/17 301/59/17 298/51/15 264/12/15 
f 263/11/15 300/58/15 303/62/17 265/15/17 
f 268/18/10 304/63/10 301/59/17 266/16/17 
f 265/15/17 303/62/17 306/66/10 267/17/10 
f 270/20/11 307/67/11 304/63/10 268/18/10 
f 267/17/10 306/66/10 309/70/11 269/19/11 
f 272/22/29 310/71/29 307/67/11 270/20/11 
f 269/19/11 309/70/11 312/74/29 271/21/29 
f 313/7/4 314/42/4 315/71/4 316/22/4 
f 317/21/4 318/74/4 319/43/4 320/8/4 
s off
f 259/7/5 292/42/5 314/42/5 313/7/5 
f 292/42/2 310/71/2 315/71/2 314/42/2 
f 310/71/3 272/22/3 316/22/3 315/71/3 
f 272/22/1 259/7/1 313/7/1 316/22/1 
f 271/21/3 312/74/3 318/74/3 317/21/3 
f 312/74/1 293/43/1 319/43/1 318/74/1 
f 293/43/5 260/8/5 320/8/5 319/43/5 
f 260/8/2 271/21/2 317/21/2 320/8/2 
s 8
f 321/5/24 322/6/24 323/7/9 324/8/9 
f 325/9/25 326/10/25 322/6/24 321/5/24 
f 327/11/12 328/12/12 326/13/25 325/14/25 
f 329/15/13 330/16/13 328/12/12 327/11/12 
f 331/17/18 332/18/18 330/16/13 329/15/13 
f 333/19/16 334/20/16 332/18/18 331/17/18 
f 335/21/30 336/22/30 334/20/16 333/19/16 
f 324/8/9 323/7/9 336/22/30 335/21/30 
s 1
f 337/23/1 338/24/1 339/25/1 340/26/1 341/27/1 342/28/1 343/29/1 344/30/1 
f 345/31/2 346/32/2 347/33/2 348/34/2 349/35/2 350/36/2 351/37/2 352/38/2 
s 8
f 353/39/24 354/40/10 355/41/17 356/42/9 
f 357/43/9 344/44/17 343/45/10 358/46/24 
f 359/47/25 360/48/11 354/40/10 353/39/24 
f 358/46/24 343/45/10 342/49/11 361/50/25 
f 362/51/12 363/52/12 360/53/11 359/54/25 
f 361/55/25 342/56/11 341/57/12 364/58/12 
f 365/59/13 366/60/13 363/52/12 362/51/12 
f 364/58/12 341/57/12 340/61/13 367/62/13 
f 368/63/18 369/64/18 366/60/13 365/59/13 
f 367/62/13 340/61/13 339/65/18 370/66/18 
f 371/67/16 372/68/16 369/64/18 368/63/18 
f 370/66/18 339/65/18 338/69/16 373/70/16 
f 374/71/30 375/72/15 372/68/16 371/67/16 
f 373/70/16 338/69/16 337/73/15 376/74/30 
f 356/42/9 355/41/17 375/72/15 374/71/30 
f 376/74/30 337/73/15 344/44/17 357/43/9 
f 322/6/24 353/39/24 356/42/9 323/7/9 
f 324/8/9 357/43/9 358/46/24 321/5/24 
f 377/10/31 378/47/31 379/39/31 380/6/31 
f 381/5/31 382/46/31 383/50/31 384/9/31 
f 328/12/12 362/51/12 359/54/25 326/13/25 
f 325/14/25 361/55/25 364/58/12 327/11/12 
f 330/16/13 365/59/13 362/51/12 328/12/12 
f 327/11/12 364/58/12 367/62/13 329/15/13 
f 332/18/18 368/63/18 365/59/13 330/16/13 
f 329/15/13 367/62/13 370/66/18 331/17/18 
f 334/20/16 371/67/16 368/63/18 332/18/18 
f 331/17/18 370/66/18 373/70/16 333/19/16 
f 336/22/30 374/71/30 371/67/16 334/20/16 
f 333/19/16 373/70/16 376/74/30 335/21/30 
f 385/7/19 386/42/19 387/71/19 388/22/19 
f 389/21/19 390/74/19 391/43/19 392/8/19 
s off
f 323/7/3 356/42/3 386/42/3 385/7/3 
f 356/42/2 374/71/2 387/71/2 386/42/2 
f 374/71/5 336/22/5 388/22/5 387/71/5 
f 336/22/1 323/7/1 385/7/1 388/22/1 
f 335/21/5 376/74/5 390/74/5 389/21/5 
f 376/74/1 357/43/1 391/43/1 390/74/1 
f 357/43/3 324/8/3 392/8/3 391/43/3 
f 324/8/2 335/21/2 389/21/2 392/8/2 
f 359/47/2 353/39/2 379/39/2 378/47/2 
f 353/39/6 322/6/6 380/6/6 379/39/6 
f 322/6/1 326/10/1 377/10/1 380/6/1 
f 326/10/4 359/47/4 378/47/4 377/10/4 
f 321/5/6 358/46/6 382/46/6 381/5/6 
f 358/46/1 361/50/1 383/50/1 382/46/1 
f 361/50/4 325/9/4 384/9/4 383/50/4 
f 325/9/2 321/5/2 381/5/2 384/9/2 
s 8
f 393/5/23 394/6/23 395/7/28 396/8/28 
f 397/9/8 398/10/8 394/6/23 393/5/23 
f 399/11/15 400/12/15 398/13/8 397/14/8 
f 401/15/17 402/16/17 400/12/15 399/11/15 
f 403/17/10 404/18/10 402/16/17 401/15/17 
f 405/19/11 406/20/11 404/18/10 403/17/10 
f 407/21/32 408/22/32 406/20/11 405/19/11 
f 396/8/28 395/7/28 408/22/32 407/21/32 
s 1
f 409/23/1 410/24/1 411/25/1 412/26/1 413/27/1 414/28/1 415/29/1 416/30/1 
f 417/31/2 418/32/2 419/33/2 420/34/2 421/35/2 422/36/2 423/37/2 424/38/2 
s 8
f 425/39/23 426/40/18 427/41/13 428/42/28 
f 429/43/28 416/44/13 415/45/18 430/46/23 
f 431/47/8 432/48/16 426/40/18 425/39/23 
f 430/46/23 415/45/18 414/49/16 433/50/8 
f 434/51/15 435/52/15 432/53/16 431/54/8 
f 433/55/8 414/56/16 413/57/15 436/58/15 
f 437/59/17 438/60/17 435/52/15 434/51/15 
f 436/58/15 413/57/15 412/61/17 439/62/17 
f 440/63/10 441/64/10 438/60/17 437/59/17 
f 439/62/17 412/61/17 411/65/10 442/66/10 
f 443/67/11 444/68/11 441/64/10 440/63/10 
f 442/66/10 411/65/10 410/69/11 445/70/11 
f 446/71/32 447/72/12 444/68/11 443/67/11 
f 445/70/11 410/69/11 409/73/12 448/74/32 
f 428/42/28 427/41/13 447/72/12 446/71/32 
f 448/74/32 409/73/12 416/44/13 429/43/28 
f 394/6/23 425/39/23 428/42/28 395/7/28 
f 396/8/28 429/43/28 430/46/23 393/5/23 
f 400/12/15 434/51/15 431/54/8 398/13/8 
f 397/14/8 433/55/8 436/58/15 399/11/15 
f 402/16/17 437/59/17 434/51/15 400/12/15 
f 399/11/15 436/58/15 439/62/17 401/15/17 
f 404/18/10 440/63/10 437/59/17 402/16/17 
f 401/15/17 439/62/17 442/66/10 403/17/10 
f 406/20/11 443/67/11 440/63/10 404/18/10 
f 403/17/10 442/66/10 445/70/11 405/19/11 
f 408/22/32 446/71/32 443/67/11 406/20/11 
f 405/19/11 445/70/11 448/74/32 407/21/32 
f 449/7/4 450/42/4 451/71/4 452/22/4 
f 453/21/4 454/74/4 455/43/4 456/8/4 
s off
f 395/7/5 428/42/5 450/42/5 449/7/5 
f 428/42/2 446/71/2 451/71/2 450/42/2 
f 446/71/31 408/22/31 452/22/31 451/71/31 
f 408/22/1 395/7/1 449/7/1 452/22/1 
f 407/21/31 448/74/31 454/74/31 453/21/31 
f 448/74/1 429/43/1 455/43/1 454/74/1 
f 429/43/5 396/8/5 456/8/5 455/43/5 
f 396/8/2 407/21/2 453/21/2 456/8/2 
f 430/46/5 433/55/5 397/9/5 393/5/5 
f 394/6/5 398/10/5 431/47/5 425/39/5 
f 258/6/5 262/10/5 295/47/5 289/39/5 
f 294/46/5 297/55/5 261/9/5 257/5/5 
f 75/31/33 74/32/33 66/32/33 65/31/33 
f 74/32/34 80/33/34 67/33/34 66/32/34 
f 80/33/35 83/34/35 68/34/35 67/33/35 
f 83/34/36 86/35/36 69/35/36 68/34/36 
f 86/35/37 89/36/37 70/36/37 69/35/37 
f 89/36/38 92/37/38 71/37/38 70/36/38 
f 92/37/39 95/38/39 72/38/39 71/37/39 
f 95/38/40 75/31/40 65/31/40 72/38/40 
f 147/31/33 146/32/33 138/32/33 137/31/33 
f 146/32/41 152/33/41 139/33/41 138/32/41 
f 152/33/35 155/34/35 140/34/35 139/33/35 
f 155/34/36 158/35/36 141/35/36 140/34/36 
f 158/35/37 161/36/37 142/36/37 141/35/37 
f 161/36/38 164/37/38 143/37/38 142/36/38 
f 164/37/39 167/38/39 144/38/39 143/37/39 
f 167/38/40 147/31/40 137/31/40 144/38/40 
f 219/31/33 218/32/33 210/32/33 209/31/33 
f 218/32/41 224/33/41 211/33/41 210/32/41 
f 224/33/35 227/34/35 212/34/35 211/33/35 
f 227/34/42 230/35/42 213/35/42 212/34/42 
f 230/35/37 233/36/37 214/36/37 213/35/37 
f 233/36/38 236/37/38 215/37/38 214/36/38 
f 236/37/39 239/38/39 216/38/39 215/37/39 
f 239/38/40 219/31/40 209/31/40 216/38/40 
f 291/31/39 290/32/39 282/32/39 281/31/39 
f 290/32/40 296/33/40 283/33/40 282/32/40 
f 296/33/33 299/34/33 284/34/33 283/33/33 
f 299/34/34 302/35/34 285/35/34 284/34/34 
f 302/35/35 305/36/35 286/36/35 285/35/35 
f 305/36/36 308/37/36 287/37/36 286/36/36 
f 308/37/37 311/38/37 288/38/37 287/37/37 
f 311/38/43 291/31/43 281/31/43 288/38/43 
f 355/31/35 354/32/35 346/32/35 345/31/35 
f 354/32/36 360/33/36 347/33/36 346/32/36 
f 360/33/37 363/34/37 348/34/37 347/33/37 
f 363/34/38 366/35/38 349/35/38 348/34/38 
f 366/35/39 369/36/39 350/36/39 349/35/39 
f 369/36/40 372/37/40 351/37/40 350/36/40 
f 372/37/33 375/38/33 352/38/33 351/37/33 
f 375/38/34 355/31/34 345/31/34 352/38/34 
f 427/31/39 426/32/39 418/32/39 417/31/39 
f 426/32/44 432/33/44 419/33/44 418/32/44 
f 432/33/33 435/34/33 420/34/33 419/33/33 
f 435/34/34 438/35/34 421/35/34 420/34/34 
f 438/35/35 441/36/35 422/36/35 421/35/35 
f 441/36/42 444/37/42 423/37/42 422/36/42 
f 444/37/37 447/38/37 424/38/37 423/37/37 
f 447/38/38 427/31/38 417/31/38 424/38/38 
s 2
f 457/1/1 458/2/1 459/3/1 460/4/1 
s 4
f 461/4/2 462/1/2 463/2/2 464/3/2 
s 8
f 457/4/3 460/1/3 462/2/3 461/3/3 
s 16
f 460/4/4 459/1/4 463/2/4 462/3/4 
s 32
f 459/4/5 458/1/5 464/2/5 463/3/5 
s 64
f 458/4/6 457/1/6 461/2/6 464/3/6 
s 2
f 465/1/1 466/2/1 467/3/1 468/4/1 
s 4
f 469/4/2 470/1/2 471/2/2 472/3/2 
s 8
f 465/4/3 468/1/3 470/2/3 469/3/3 
s 16
f 468/4/4 467/1/4 471/2/4 470/3/4 
s 32
f 467/4/5 466/1/5 472/2/5 471/3/5 
s 64
f 466/4/6 465/1/6 469/2/6 472/3/6 
s 2
f 473/1/1 474/2/1 475/3/1 476/4/1 
s 4
f 477/4/2 478/1/2 479/2/2 480/3/2 
s 8
f 473/4/3 476/1/3 478/2/3 477/3/3 
s 16
f 476/4/4 475/1/4 479/2/4 478/3/4 
s 32
f 475/4/5 474/1/5 480/2/5 479/3/5 
s 64
f 474/4/6 473/1/6 477/2/6 480/3/6 
s 2
f 481/1/1 482/2/1 483/3/1 484/4/1 
s 4
f 485/4/2 486/1/2 487/2/2 488/3/2 
s 8
f 481/4/3 484/1/3 486/2/3 485/3/3 
s 16
f 484/4/4 483/1/4 487/2/4 486/3/4 
s 32
f 483/4/5 482/1/5 488/2/5 487/3/5 
s 64
f 482/4/6 481/1/6 485/2/6 488/3/6 
s 2
f 489/1/1 490/2/1 491/3/1 492/4/1 
s 4
f 493/4/2 494/1/2 495/2/2 496/3/2 
s 8
f 489/4/3 492/1/3 494/2/3 493/3/3 
s 16
f 492/4/4 491/1/4 495/2/4 494/3/4 
s 32
f 491/4/5 490/1/5 496/2/5 495/3/5 
s 64
f 490/4/6 489/1/6 493/2/6 496/3/6 
s 2
f 497/75/45 498/76/1 499/77/46 500/78/45 
s 4
f 501/79/47 502/77/2 503/76/2 504/80/47 
s 8
f 500/79/3 499/77/3 502/76/3 501/80/3 
s 16
f 505/4/4 506/1/4 507/2/4 508/3/4 
s 32
f 509/79/5 498/77/5 503/76/5 510/80/5 
s 64
f 511/4/6 512/1/6 513/2/6 514/3/6 
s 2
f 509/80/48 506/3/49 505/4/49 515/79/48 
f 498/76/1 509/80/48 515/79/48 499/77/46 
f 500/78/45 512/1/50 511/2/50 497/75/45 
s 4
f 516/78/51 508/1/52 507/2/52 510/75/51 
f 502/77/2 516/78/51 510/75/51 503/76/2 
f 504/80/47 514/3/53 513/4/53 501/79/47 
s 8
f 515/78/3 505/1/3 508/2/3 516/75/3 
f 499/77/3 515/78/3 516/75/3 502/76/3 
f 501/80/3 513/3/3 512/4/3 500/79/3 
s 32
f 497/78/5 511/1/5 514/2/5 504/75/5 
f 498/77/5 497/78/5 504/75/5 503/76/5 
f 510/80/5 507/3/5 506/4/5 509/79/5 
s 2
f 517/75/45 518/76/1 519/77/46 520/78/45 
s 4
f 521/79/47 522/77/2 523/76/2 524/80/47 
s 8
f 520/79/3 519/77/3 522/76/3 521/80/3 
s 16
f 525/4/4 526/1/4 527/2/4 528/3/4 
s 32
f 529/79/5 518/77/5 523/76/5 530/80/5 
s 64
f 531/4/6 532/1/6 533/2/6 534/3/6 
s 2
f 529/80/48 526/3/49 525/4/49 535/79/48 
f 518/76/1 529/80/48 535/79/48 519/77/46 
f 520/78/45 532/1/50 531/2/50 517/75/45 
s 4
f 536/78/51 528/1/52 527/2/52 530/75/51 
f 522/77/2 536/78/51 530/75/51 523/76/2 
f 524/80/47 534/3/53 533/4/53 521/79/47 
s 8
f 535/78/3 525/1/3 528/2/3 536/75/3 
f 519/77/3 535/78/3 536/75/3 522/76/3 
f 521/80/3 533/3/3 532/4/3 520/79/3 
s 32
f 517/78/5 531/1/5 534/2/5 524/75/5 
f 518/77/5 517/78/5 524/75/5 523/76/5 
f 530/80/5 527/3/5 526/4/5 529/79/5 
s 2
f 537/75/45 538/76/1 539/77/46 540/78/45 
s 4
f 541/79/47 542/77/2 543/76/2 544/80/47 
s 8
f 540/79/3 539/77/3 542/76/3 541/80/3 
s 16
f 545/4/4 546/1/4 547/2/4 548/3/4 
s 32
f 549/79/5 538/77/5 543/76/5 550/80/5 
s 64
f 551/4/6 552/1/6 553/2/6 554/3/6 
s 2
f 549/80/48 546/3/49 545/4/49 555/79/48 
f 538/76/1 549/80/48 555/79/48 539/77/46 
f 540/78/45 552/1/50 551/2/50 537/75/45 
s 4
f 556/78/51 548/1/52 547/2/52 550/75/51 
f 542/77/2 556/78/51 550/75/51 543/76/2 
f 544/80/47 554/3/53 553/4/53 541/79/47 
s 8
f 555/78/3 545/1/3 548/2/3 556/75/3 
f 539/77/3 555/78/3 556/75/3 542/76/3 
f 541/80/3 553/3/3 552/4/3 540/79/3 
s 32
f 537/78/5 551/1/5 554/2/5 544/75/5 
f 538/77/5 537/78/5 544/75/5 543/76/5 
f 550/80/5 547/3/5 546/4/5 549/79/5 
s 2
f 557/75/45 558/76/1 559/77/46 560/78/45 
s 4
f 561/79/47 562/77/2 563/76/2 564/80/47 
s 8
f 560/79/3 559/77/3 562/76/3 561/80/3 
s 16
f 565/4/4 566/1/4 567/2/4 568/3/4 
s 32
f 569/79/5 558/77/5 563/76/5 570/80/5 
s 64
f 571/4/6 572/1/6 573/2/6 574/3/6 
s 2
f 569/80/48 566/3/49 565/4/49 575/79/48 
f 558/76/1 569/80/48 575/79/48 559/77/46 
f 560/78/45 572/1/50 571/2/50 557/75/45 
s 4
f 576/78/51 568/1/52 567/2/52 570/75/51 
f 562/77/2 576/78/51 570/75/51 563/76/2 
f 564/80/47 574/3/53 573/4/53 561/79/47 
s 8
f 575/78/3 565/1/3 568/2/3 576/75/3 
f 559/77/3 575/78/3 576/75/3 562/76/3 
f 561/80/3 573/3/3 572/4/3 560/79/3 
s 32
f 557/78/5 571/1/5 574/2/5 564/75/5 
f 558/77/5 557/78/5 564/75/5 563/76/5 
f 570/80/5 567/3/5 566/4/5 569/79/5 
usemtl 03___Default
s 2
f 577/1/54 578/2/54 579/75/55 580/78/55 
f 580/78/55 579/75/55 581/76/46 582/77/1 
f 582/77/1 581/76/46 583/80/56 584/79/56 
f 584/79/56 583/80/56 585/3/57 586/4/57 
s 4
f 587/4/58 588/79/59 589/80/59 590/3/58 
f 588/79/59 591/77/60 592/76/2 589/80/59 
f 591/77/60 593/78/61 594/75/61 592/76/2 
f 593/78/61 595/1/62 596/2/62 594/75/61 
s 8
f 577/4/3 580/79/3 588/80/3 587/3/3 
f 580/79/3 582/77/3 591/76/3 588/80/3 
f 582/77/3 584/78/3 593/75/3 591/76/3 
f 584/78/3 586/1/3 595/2/3 593/75/3 
s 16
f 586/4/4 585/1/4 596/2/4 595/3/4 
s 32
f 585/4/5 583/79/5 594/80/5 596/3/5 
f 583/79/5 581/77/5 592/76/5 594/80/5 
f 581/77/5 579/78/5 589/75/5 592/76/5 
f 579/78/5 578/1/5 590/2/5 589/75/5 
s 64
f 578/4/6 577/1/6 587/2/6 590/3/6 
usemtl 07___Default
s 2
f 597/81/1 598/82/1 599/83/1 600/84/1 
s 4
f 601/85/2 602/86/2 603/87/2 604/88/2 
usemtl 08___Default
s 8
f 597/89/63 600/90/63 605/91/64 606/92/64 
f 606/92/64 605/91/64 607/93/65 608/94/3 
f 608/94/3 607/93/65 609/95/66 610/96/66 
f 610/96/66 609/95/66 602/97/67 601/98/67 
s 16
f 600/99/68 599/100/68 611/101/69 605/102/69 
f 605/102/69 611/101/69 612/103/70 607/104/4 
f 607/104/4 612/103/70 613/105/71 609/106/71 
f 609/107/71 613/108/71 603/109/72 602/110/72 
s 32
f 599/111/73 598/112/73 614/113/74 611/114/74 
f 611/114/74 614/113/74 615/115/5 612/116/5 
f 612/116/5 615/115/5 616/117/75 613/118/75 
f 613/118/75 616/117/75 604/119/76 603/120/76 
s 64
f 598/121/77 597/122/77 606/123/78 614/124/78 
f 614/124/78 606/123/78 608/125/79 615/126/6 
f 615/126/6 608/125/79 610/127/80 616/128/80 
f 616/129/80 610/130/80 601/131/81 604/132/81 
s 2
f 617/133/82 618/134/82 619/135/83 620/136/83 
f 620/136/83 619/135/83 621/137/1 622/138/1 
f 622/138/1 621/137/1 623/139/1 624/140/1 
f 624/140/1 623/139/1 625/141/1 626/142/1 
f 626/142/1 625/141/1 627/143/1 628/144/1 
s 4
f 629/145/84 630/146/85 631/147/85 632/148/84 
f 630/146/85 633/149/86 634/150/86 631/147/85 
f 635/151/2 636/152/2 637/153/2 638/154/2 
f 639/155/87 640/156/88 641/157/88 642/158/87 
f 640/156/88 643/159/89 644/160/89 641/157/88 
s 8
f 617/161/90 620/162/91 630/163/92 629/164/90 
f 620/162/91 622/165/93 633/166/94 630/163/92 
f 622/165/93 624/167/95 639/168/96 633/166/94 
f 624/167/95 626/169/97 640/170/98 639/168/96 
f 626/169/97 628/171/99 643/172/99 640/170/98 
s 16
f 628/173/4 627/174/4 644/175/4 643/176/4 
s 32
f 627/177/100 625/178/101 641/179/102 644/180/100 
f 625/178/101 623/181/103 642/182/104 641/179/102 
f 623/181/103 621/183/105 634/184/106 642/182/104 
f 621/183/105 619/185/107 631/186/108 634/184/106 
f 619/185/107 618/187/109 632/188/109 631/186/108 
s 64
f 618/189/6 617/190/6 629/191/6 632/192/6 
s off
f 634/150/2 633/149/2 645/193/2 646/194/2 
f 633/149/2 639/155/2 647/195/2 645/193/2 
f 639/155/2 642/158/2 648/196/2 647/195/2 
f 642/158/2 634/150/2 646/194/2 648/196/2 
f 646/197/6 645/198/6 649/199/6 650/200/6 
f 645/201/110 647/202/110 651/203/110 649/204/110 
f 647/205/4 648/206/4 652/207/4 651/208/4 
f 648/209/111 646/210/111 650/211/111 652/212/111 
f 650/200/112 649/199/112 635/213/112 638/214/112 
f 649/204/113 651/203/113 636/215/113 635/216/113 
f 651/208/114 652/207/114 637/217/114 636/218/114 
f 652/212/115 650/211/115 638/219/115 637/220/115 
s 2
f 653/221/116 654/222/116 655/223/117 656/224/117 
f 656/224/117 655/223/117 657/225/1 658/226/1 
f 658/226/1 657/225/1 659/227/1 660/228/1 
f 660/228/1 659/227/1 661/229/1 662/230/1 
f 662/230/1 661/229/1 663/231/1 664/232/1 
s 4
f 665/233/118 666/234/119 667/235/119 668/236/118 
f 666/234/119 669/237/87 670/238/87 667/235/119 
f 671/239/2 672/240/2 673/241/2 674/242/2 
f 675/243/86 676/244/120 677/245/120 678/246/86 
f 676/244/120 679/247/121 680/248/121 677/245/120 
s 8
f 653/249/100 656/250/101 666/251/102 665/252/100 
f 656/250/101 658/253/103 669/254/104 666/251/102 
f 658/253/103 660/255/105 675/256/106 669/254/104 
f 660/255/105 662/257/107 676/258/108 675/256/106 
f 662/257/107 664/259/109 679/260/109 676/258/108 
s 16
f 664/261/6 663/262/6 680/263/6 679/264/6 
s 32
f 663/265/90 661/266/91 677/267/92 680/268/90 
f 661/266/91 659/269/93 678/270/94 677/267/92 
f 659/269/93 657/271/95 670/272/96 678/270/94 
f 657/271/95 655/273/97 667/274/98 670/272/96 
f 655/273/97 654/275/99 668/276/99 667/274/98 
s 64
f 654/277/4 653/278/4 665/279/4 668/280/4 
s off
f 670/238/2 669/237/2 681/281/2 682/282/2 
f 669/237/2 675/243/2 683/283/2 681/281/2 
f 675/243/2 678/246/2 684/284/2 683/283/2 
f 678/246/2 670/238/2 682/282/2 684/284/2 
f 682/285/70 681/286/70 685/287/70 686/288/70 
f 681/289/122 683/290/122 687/291/122 685/292/122 
f 683/293/6 684/294/6 688/295/6 687/296/6 
f 684/297/123 682/298/123 686/299/123 688/300/123 
f 686/288/114 685/287/114 671/301/114 674/302/114 
f 685/292/115 687/291/115 672/303/115 671/304/115 
f 687/296/124 688/295/124 673/305/124 672/306/124 
f 688/307/113 686/308/113 674/309/113 673/310/113 
# 616 polygons

