# File produced by Amaz3D Software. 

mtllib cherry.mtl
o Mesh_0
v 0.084495 1.754063 -0.000000
v -0.075910 1.754063 -0.075683
v -0.101389 1.754063 0.041422
v -0.003674 1.754063 0.101283
v 0.173383 1.769697 -0.041600
v 0.079214 1.777556 -0.270840
v 0.154185 1.780346 0.236096
v 0.259952 1.779842 -0.061069
v -0.151511 1.788617 -0.319537
v -0.313467 1.779699 -0.054112
v -0.177335 1.779316 0.245624
v -0.007259 1.793218 0.365700
v 0.417287 1.827699 -0.096548
v 0.274972 1.814180 -0.315734
v 0.131414 1.813887 -0.407007
v -0.074699 1.839410 -0.505216
v -0.435051 1.816788 -0.043610
v -0.374125 1.812458 0.219949
v -0.251743 1.830681 0.417207
v 0.157043 1.816840 0.396585
v 0.328428 1.810238 0.209217
v -0.421590 1.838684 -0.274060
v 0.553591 1.900254 -0.127161
v 0.406079 1.877346 -0.389445
v 0.276752 1.878532 -0.502238
v 0.113495 1.877298 -0.568738
v -0.239833 1.877294 -0.527294
v -0.434632 1.877880 -0.384851
v -0.576448 1.878948 0.064047
v -0.501024 1.878639 0.291362
v -0.184505 1.878471 0.550299
v -0.012383 1.876547 0.577948
v 0.209168 1.876871 0.525523
v 0.384476 1.882706 0.382020
v 0.500372 1.883092 0.172185
v -0.563953 1.883784 -0.170241
v -0.376040 1.918361 0.520635
v 0.613771 1.948867 -0.140618
v 0.498360 1.969829 -0.475591
v 0.374511 2.028054 -0.668095
v 0.143102 1.966124 -0.691212
v -0.077361 1.998175 -0.733871
v -0.227989 2.001187 -0.702712
v -0.419101 1.970827 -0.569059
v -0.612019 1.972342 -0.353533
v -0.701129 1.974572 -0.073051
v -0.670431 1.975958 0.220462
v -0.622503 2.037294 0.449897
v -0.242752 2.030869 0.729832
v -0.013095 1.969325 0.706427
v 0.214930 2.030537 0.734895
v 0.350399 2.034995 0.673193
v 0.470440 2.043244 0.576497
v 0.559320 1.984990 0.350399
v 0.697858 2.043933 0.158005
v 0.685226 2.006121 -0.000428
v 0.705371 2.096837 -0.334341
v -0.451099 2.029907 0.613508
v 0.801432 2.196413 -0.181890
v 0.669150 2.166794 -0.509986
v 0.559656 2.160434 -0.643375
v 0.264532 2.151044 -0.820093
v 0.090679 2.149005 -0.855987
v -0.430255 2.166081 -0.755511
v -0.575879 2.169350 -0.652148
v -0.695015 2.172875 -0.521973
v -0.783160 2.175381 -0.366799
v -0.791304 2.104763 -0.177819
v -0.806620 2.104141 -0.005263
v -0.830494 2.173069 0.169764
v -0.779433 2.173362 0.345039
v -0.095931 2.166416 0.868993
v 0.079894 2.164165 0.868643
v 0.648403 2.095646 0.398600
v -0.089280 2.151884 -0.851986
v -0.263850 2.158814 -0.819120
v -0.578215 2.183605 0.639522
v -0.434356 2.180663 0.745741
v 0.794584 2.155601 0.000022
v 0.441581 2.225966 -0.774007
v -0.865562 2.255694 -0.205367
v -0.883193 2.261540 -0.013576
v -0.725799 2.269785 0.527986
v -0.284945 2.251373 0.860036
v 0.256483 2.230811 0.862287
v 0.413901 2.222845 0.783154
v 0.551254 2.226780 0.670048
v 0.665097 2.231600 0.527014
v 0.752928 2.232262 0.364128
v 0.808807 2.228860 0.186282
v 0.820282 2.376554 -0.385371
v -0.101507 2.368702 -0.942166
v -0.293529 2.379761 -0.909287
v -0.639534 2.420810 0.708236
v -0.482099 2.414384 0.826253
v 0.878596 2.362637 0.000931
v 0.858562 2.350166 -0.193834
v 0.742799 2.424986 -0.558661
v 0.621152 2.421610 -0.706059
v 0.469383 2.413414 -0.821780
v 0.291471 2.409670 -0.902488
v 0.096193 2.408887 -0.944698
v -0.474991 2.433441 -0.842909
v -0.632086 2.440556 -0.730975
v -0.760092 2.445441 -0.588616
v -0.855038 2.451202 -0.419500
v -0.913648 2.457909 -0.225303
v -0.933439 2.472244 -0.019287
v -0.915160 2.480020 0.185417
v -0.861297 2.477354 0.381919
v -0.770609 2.473104 0.561474
v -0.304353 2.444048 0.916296
v -0.107053 2.427849 0.961419
v 0.091546 2.424449 0.962077
v 0.277830 2.420509 0.920256
v 0.445297 2.413195 0.836736
v 0.590945 2.404169 0.712241
v 0.710500 2.401761 0.558484
v 0.801723 2.399247 0.385577
v 0.861734 2.402513 0.197571
v 0.899090 2.718681 -0.197965
v 0.851044 2.748591 -0.384708
v 0.762798 2.754116 -0.556672
v 0.637225 2.760052 -0.704962
v 0.478033 2.761870 -0.823617
v 0.291991 2.758916 -0.908133
v 0.093395 2.687170 -0.956906
v -0.107578 2.689370 -0.961005
v -0.302373 2.699174 -0.928077
v -0.482562 2.710039 -0.855171
v -0.638576 2.719842 -0.742502
v -0.765932 2.729138 -0.598391
v -0.860951 2.749550 -0.426883
v -0.914089 2.845812 -0.228713
v -0.933127 2.862006 -0.020791
v -0.921031 2.783113 0.184297
v -0.866712 2.775974 0.383638
v -0.775555 2.767453 0.565380
v -0.642635 2.822552 0.713995
v -0.489262 2.734964 0.837807
v -0.307481 2.721510 0.924634
v -0.108041 2.712354 0.970856
v 0.095272 2.699223 0.971974
v 0.286853 2.689593 0.929839
v 0.459262 2.685518 0.845737
v 0.608688 2.690893 0.721504
v 0.732040 2.702542 0.566018
v 0.826902 2.704141 0.390131
v 0.889466 2.697193 0.199683
v 0.914948 2.690327 0.001341
v 0.848879 2.898375 -0.184495
v 0.088516 2.889941 -0.909744
v -0.103827 2.890082 -0.913619
v -0.289810 2.895861 -0.881383
v -0.460707 2.903617 -0.811106
v -0.607902 2.912671 -0.703364
v -0.726624 2.938589 -0.563740
v -0.817330 2.964187 -0.398472
v -0.873642 2.997104 0.176285
v -0.819874 2.993640 0.363831
v -0.732492 2.979361 0.535428
v -0.460580 2.942012 0.793442
v -0.288165 2.922378 0.875714
v -0.099998 2.906346 0.919737
v 0.091979 2.892472 0.920999
v 0.275068 2.885243 0.881162
v 0.441783 2.885370 0.800890
v 0.586208 2.896506 0.681142
v 0.705323 2.901934 0.534463
v 0.797014 2.888267 0.370158
v 0.857427 2.872557 0.191734
v 0.882321 2.865043 0.004329
v 0.781004 2.932510 -0.350064
v 0.699238 2.933245 -0.506306
v 0.582070 2.942866 -0.640430
v 0.434531 2.956164 -0.746795
v 0.264263 2.964209 -0.824813
v -0.829751 3.069811 -0.196667
v -0.848192 3.079326 -0.010064
v -0.575509 3.049424 0.643853
v 0.730787 3.015619 -0.157593
v 0.005851 3.013211 -0.834345
v -0.258091 3.040986 -0.775780
v -0.447037 3.044558 -0.696221
v -0.643153 3.084467 -0.489686
v -0.717877 3.112904 -0.342612
v -0.771617 3.116040 0.267388
v -0.661908 3.099560 0.489142
v -0.412864 3.067400 0.721344
v -0.181389 3.040126 0.818405
v 0.171280 3.011121 0.823909
v 0.386760 3.046534 0.695651
v 0.520960 3.042662 0.596543
v 0.667409 3.015960 0.427820
v 0.785666 2.982029 0.096432
v 0.622589 3.061751 -0.254788
v 0.557540 3.024900 -0.501398
v 0.290227 3.062686 -0.677914
v 0.008788 3.093202 -0.731552
v -0.694936 3.190112 -0.155307
v -0.711871 3.198892 -0.005113
v -0.706039 3.174426 0.240791
v -0.523150 3.177764 0.499862
v -0.356566 3.157404 0.629249
v -0.173607 3.106148 0.741392
v 0.144755 3.091404 0.727974
v 0.570102 3.086393 -0.122791
v -0.224179 3.140462 -0.608433
v -0.527036 3.194481 -0.343167
v -0.587073 3.234033 0.192869
v -0.214903 3.197159 0.576380
v 0.411927 3.130975 0.469464
v 0.502397 3.116169 0.329019
v 0.141433 3.135014 -0.577793
v -0.080413 3.174725 -0.527663
v -0.521691 3.245430 -0.085930
v -0.352105 3.247858 0.396822
v 0.282912 3.144027 0.545603
v 0.323237 3.114868 -0.393101
v -0.329039 3.187568 -0.401544
v -0.406351 3.250139 0.293882
v 0.016974 3.187549 0.492804
v 0.297438 3.172208 0.396635
v 0.481910 3.107584 -0.103832
v 0.389966 3.109434 -0.083462
v 0.177907 3.120018 -0.362605
v -0.096374 3.157900 -0.385820
v -0.221697 3.168263 -0.319728
v -0.352403 3.197893 -0.141879
v -0.383447 3.222764 0.076934
v -0.300457 3.224221 0.254368
v -0.191175 3.204325 0.322797
v -0.008871 3.181272 0.376505
v 0.255601 3.166748 0.293026
v 0.405253 3.122162 0.039675
v 0.293958 3.091908 -0.062081
v -0.028966 3.107492 0.200051
v 0.242128 3.088909 0.035067
v -0.023962 3.026921 -0.097152
v -0.090355 3.040644 -0.021793
v -0.043381 3.049792 0.085025
v 0.095725 3.037278 0.039098
v 0.072563 3.023045 -0.075153
#243 Vertices

vn 0.086468 -0.996230 -0.007017
vn -0.045236 -0.995152 -0.087325
vn 0.059650 -0.985528 -0.158670
vn 0.114728 -0.989486 -0.088066
vn 0.011497 -0.993442 0.113761
vn 0.131896 -0.983894 0.120647
vn 0.244411 -0.969662 -0.004355
vn -0.134953 -0.967486 -0.213912
vn -0.185024 -0.982143 -0.034073
vn -0.087584 -0.995447 0.037617
vn -0.121642 -0.983272 0.135570
vn 0.005336 -0.962612 0.270831
vn 0.233822 -0.953278 -0.191280
vn 0.396312 -0.908096 -0.135275
vn 0.106340 -0.944959 -0.309427
vn -0.051268 -0.900651 -0.431508
vn -0.283838 -0.949964 0.130398
vn -0.352794 -0.935504 -0.019194
vn -0.191243 -0.928445 0.318459
vn 0.204322 -0.936514 0.284945
vn 0.326411 -0.939101 0.107446
vn -0.283568 -0.942309 -0.177886
vn 0.459291 -0.887571 0.035634
vn 0.434697 -0.853104 -0.288535
vn 0.267513 -0.852437 -0.449207
vn 0.063158 -0.861211 -0.504309
vn -0.227492 -0.869553 -0.438321
vn -0.358712 -0.867938 -0.343524
vn -0.504532 -0.850229 -0.150194
vn -0.498919 -0.864286 0.063949
vn -0.453812 -0.841934 0.291894
vn 0.039286 -0.878007 0.477033
vn -0.174284 -0.821090 0.543541
vn 0.251960 -0.847504 0.467176
vn 0.415018 -0.840931 0.347267
vn 0.538297 -0.829734 0.147571
vn 0.644142 -0.741078 -0.189433
vn -0.374961 -0.798109 0.471622
vn 0.581908 -0.715148 -0.387230
vn 0.389510 -0.690825 -0.609132
vn 0.162881 -0.726597 -0.667478
vn -0.060319 -0.723545 -0.687637
vn -0.239357 -0.722559 -0.648550
vn -0.451904 -0.707822 -0.542929
vn -0.624688 -0.701353 -0.343320
vn -0.712032 -0.701414 -0.032071
vn -0.700588 -0.686098 0.196078
vn -0.622005 -0.644185 0.445124
vn -0.259393 -0.662751 0.702479
vn -0.024262 -0.721319 0.692178
vn 0.219032 -0.689249 0.690623
vn 0.436098 -0.662091 0.609470
vn 0.545578 -0.685432 0.482211
vn 0.590597 -0.740318 0.321131
vn 0.737128 -0.645313 0.200531
vn 0.711494 -0.702686 0.002957
vn 0.765932 -0.580531 -0.276284
vn -0.465172 -0.636016 0.615710
vn 0.860503 -0.487945 -0.146436
vn 0.756394 -0.440605 -0.483461
vn 0.612200 -0.465361 -0.639258
vn 0.267027 -0.463815 -0.844732
vn 0.073510 -0.489644 -0.868818
vn -0.441454 -0.473476 -0.762193
vn -0.614793 -0.452725 -0.645810
vn -0.708240 -0.494407 -0.503943
vn -0.838065 -0.431468 -0.333891
vn -0.804962 -0.567835 -0.172043
vn -0.843366 -0.537238 0.010487
vn -0.884061 -0.431883 0.178640
vn -0.836219 -0.415434 0.357983
vn -0.099614 -0.476735 0.873385
vn 0.109434 -0.486583 0.866754
vn 0.729010 -0.580035 0.363460
vn -0.120988 -0.469647 -0.874525
vn -0.242302 -0.515682 -0.821804
vn -0.609017 -0.445465 0.656246
vn -0.450440 -0.475683 0.755533
vn 0.874169 -0.484684 0.030177
vn 0.455527 -0.396431 -0.797081
vn -0.935840 -0.317317 -0.153339
vn -0.944886 -0.326320 0.026552
vn -0.754271 -0.382924 0.533334
vn -0.315655 -0.398732 0.861031
vn 0.319382 -0.421863 0.848544
vn 0.486468 -0.443989 0.752478
vn 0.648935 -0.444397 0.617572
vn 0.753993 -0.434227 0.492891
vn 0.857592 -0.384169 0.341979
vn 0.876418 -0.437637 0.200911
vn 0.908838 -0.220843 -0.353894
vn -0.085371 -0.193174 -0.977443
vn -0.298022 -0.226396 -0.927323
vn -0.677557 -0.144491 0.721137
vn -0.504073 -0.198171 0.840618
vn 0.976554 -0.215174 -0.006461
vn 0.970518 -0.158905 -0.181230
vn 0.813607 -0.143062 -0.563540
vn 0.681165 -0.155996 -0.715317
vn 0.509999 -0.123472 -0.851267
vn 0.305717 -0.144949 -0.941024
vn 0.110378 -0.179290 -0.977585
vn -0.506694 -0.171606 -0.844874
vn -0.659984 -0.192185 -0.726282
vn -0.804887 -0.177491 -0.566263
vn -0.917962 -0.149909 -0.367251
vn -0.977589 -0.099126 -0.185722
vn -0.995978 -0.089599 0.000329
vn -0.972260 -0.134776 0.191171
vn -0.922004 -0.152547 0.355862
vn -0.823407 -0.127437 0.552957
vn -0.307183 -0.118161 0.944286
vn -0.108380 -0.171506 0.979204
vn 0.104175 -0.189298 0.976378
vn 0.319895 -0.171858 0.931736
vn 0.546851 -0.163312 0.821147
vn 0.716544 -0.162889 0.678257
vn 0.831992 -0.162321 0.530511
vn 0.911647 -0.165722 0.376080
vn 0.964312 -0.172817 0.200591
vn 0.939912 0.097754 -0.327124
vn 0.989315 -0.009811 -0.145461
vn 0.840439 0.115677 -0.529417
vn 0.689716 0.139281 -0.710557
vn 0.513426 0.147274 -0.845402
vn 0.328661 0.123086 -0.936393
vn 0.127237 0.073792 -0.989124
vn -0.070055 0.059792 -0.995750
vn -0.260908 0.053836 -0.963861
vn -0.466226 0.066426 -0.882168
vn -0.660738 0.076541 -0.746704
vn -0.805854 0.082464 -0.586344
vn -0.908247 0.058458 -0.414330
vn -0.966249 0.150360 -0.209178
vn -0.992869 0.117220 -0.021679
vn -0.982073 0.081633 0.169910
vn -0.930957 0.087148 0.354576
vn -0.846289 0.065925 0.528628
vn -0.682453 0.138116 0.717762
vn -0.523141 0.074353 0.848997
vn -0.335743 0.084469 0.938159
vn -0.117870 0.087294 0.989185
vn 0.100392 0.084836 0.991324
vn 0.322388 0.079800 0.943238
vn 0.536727 0.068273 0.840990
vn 0.709751 0.051209 0.702589
vn 0.831565 0.034174 0.554376
vn 0.916419 0.020717 0.399683
vn 0.973800 0.011495 0.227117
vn 0.999703 0.010024 0.022227
vn 0.894050 0.426497 -0.137019
vn 0.129198 0.382597 -0.914837
vn -0.058673 0.405780 -0.912085
vn -0.232086 0.423213 -0.875800
vn -0.410209 0.384124 -0.827150
vn -0.566277 0.448487 -0.691513
vn -0.711299 0.417980 -0.565108
vn -0.832997 0.375610 -0.406243
vn -0.916019 0.366384 0.163317
vn -0.861375 0.370812 0.347177
vn -0.767488 0.352730 0.535298
vn -0.426522 0.425536 0.798122
vn -0.301529 0.362881 0.881702
vn -0.073630 0.434024 0.897888
vn 0.091324 0.368584 0.925098
vn 0.300336 0.418839 0.856955
vn 0.476368 0.412923 0.776253
vn 0.642980 0.405303 0.649851
vn 0.769761 0.341414 0.539355
vn 0.839489 0.426854 0.336234
vn 0.913503 0.346080 0.213872
vn 0.897114 0.441600 0.013253
vn 0.674355 0.685143 -0.275363
vn 0.713107 0.550467 -0.434125
vn 0.555549 0.632037 -0.540272
vn 0.459825 0.559169 -0.689848
vn 0.272435 0.597580 -0.754107
vn -0.782718 0.588170 -0.203491
vn -0.832255 0.554380 -0.003811
vn -0.505751 0.588087 0.631165
vn 0.596528 0.800217 -0.061705
vn 0.024854 0.669169 -0.742695
vn -0.142631 0.741136 -0.656029
vn -0.306422 0.775845 -0.551516
vn -0.451933 0.741435 -0.496015
vn -0.564891 0.738819 -0.367484
vn -0.679799 0.683998 0.264614
vn -0.605163 0.674558 0.422787
vn -0.274050 0.678283 0.681784
vn -0.082824 0.667585 0.739913
vn 0.140824 0.665281 0.733191
vn 0.321481 0.758756 0.566515
vn 0.488119 0.758668 0.431466
vn 0.551625 0.813501 0.184194
vn 0.590776 0.803551 0.072733
vn 0.338816 0.924978 -0.172103
vn 0.382293 0.881204 -0.278087
vn 0.289364 0.855781 -0.428845
vn 0.069291 0.870093 -0.487992
vn -0.412423 0.888231 -0.202369
vn -0.486560 0.873549 -0.013097
vn -0.524196 0.833499 0.174639
vn -0.326518 0.877008 0.352480
vn -0.219403 0.825149 0.520568
vn -0.032794 0.825385 0.563617
vn 0.119373 0.864384 0.488458
vn 0.407009 0.913234 0.018631
vn -0.124637 0.910002 -0.395426
vn -0.216004 0.919342 -0.328866
vn -0.251497 0.961076 0.114379
vn 0.034257 0.935373 0.352001
vn 0.166079 0.934322 0.315373
vn 0.325175 0.909608 0.258600
vn 0.373361 0.926310 0.050514
vn 0.224363 0.948246 -0.224703
vn 0.073951 0.992596 -0.096358
vn -0.033584 0.996015 -0.082622
vn -0.010549 0.991048 0.133091
vn 0.183275 0.981506 -0.055290
vn 0.135491 0.990572 -0.020241
vn 0.094312 0.990889 -0.096149
vn 0.085649 0.995609 -0.037782
vn 0.105533 0.991491 0.076210
vn 0.170554 0.985217 0.016096
vn -0.035455 0.999039 0.025755
vn -0.024659 0.978480 0.204863
vn 0.139767 0.951799 0.273026
vn 0.333104 0.924817 0.183724
vn 0.452788 0.891616 -0.002227
vn 0.358441 0.928894 -0.093143
vn 0.370229 0.902053 -0.221878
vn 0.191907 0.930832 -0.311004
vn 0.058544 0.954440 -0.292605
vn -0.089688 0.963204 -0.253366
vn -0.103579 0.980277 -0.168312
vn -0.214348 0.968157 0.129332
vn 0.265161 0.923901 -0.275857
vn -0.264417 0.944322 -0.195802
vn 0.044525 0.953858 0.296938
vn 0.414124 0.909341 0.040014
vn 0.354328 0.903343 -0.241708
vn -0.107713 0.938794 -0.327205
vn -0.067884 0.984093 -0.164172
#243 Normals

vt 0.133333 0.033333
vt 0.333333 0.033333
vt 0.164782 0.097090
vt 0.000000 0.066667
vt 0.733334 0.033333
vt 0.966667 0.033333
vt 0.820406 0.101895
vt 1.000000 0.100000
vt 1.000000 0.066667
vt 0.000000 0.100000
vt 0.284603 0.122400
vt 0.438375 0.108814
vt 0.533333 0.033333
vt 0.620026 0.102345
vt 0.720070 0.127475
vt 0.096897 0.153361
vt 0.000000 0.166667
vt 0.163140 0.152973
vt 0.239184 0.186002
vt 0.550300 0.154250
vt 0.449779 0.156238
vt 0.631492 0.174943
vt 0.784987 0.156346
vt 0.882575 0.149241
vt 0.374362 0.183485
vt 1.000000 0.233333
vt 1.000000 0.166667
vt 0.083713 0.217046
vt 0.133640 0.217533
vt 0.183097 0.219031
vt 0.283949 0.217282
vt 0.350465 0.218799
vt 0.419325 0.222969
vt 0.483366 0.218871
vt 0.550134 0.216800
vt 0.716863 0.216863
vt 0.666957 0.216958
vt 0.783799 0.217132
vt 0.849760 0.215801
vt 0.917299 0.216497
vt 0.000000 0.233333
vt 0.000000 0.266667
vt 0.616590 0.248489
vt 0.083887 0.282725
vt 0.133893 0.319217
vt 0.182932 0.282932
vt 0.233386 0.300555
vt 0.266675 0.300533
vt 0.317363 0.282298
vt 0.383276 0.282748
vt 0.449825 0.283091
vt 0.516651 0.283318
vt 0.566086 0.317179
vt 0.666544 0.316119
vt 0.716063 0.282277
vt 0.767187 0.319018
vt 0.799856 0.321730
vt 0.833171 0.322150
vt 0.883600 0.283600
vt 0.933997 0.322312
vt 0.966756 0.303111
vt 1.000000 0.266667
vt 0.033750 0.351242
vt 0.615458 0.313877
vt 0.000000 0.400000
vt 0.067316 0.385723
vt 0.100664 0.385067
vt 0.166775 0.384471
vt 0.199840 0.383565
vt 0.300236 0.384078
vt 0.333672 0.384248
vt 0.366916 0.385040
vt 0.400257 0.384763
vt 0.433435 0.350361
vt 0.466840 0.348895
vt 0.499733 0.378633
vt 0.533177 0.379038
vt 0.700576 0.386614
vt 0.733710 0.386295
vt 0.884537 0.349347
vt 1.000000 0.400000
vt 0.233302 0.382629
vt 0.266684 0.382819
vt 0.599956 0.383350
vt 0.633416 0.383329
vt 0.966674 0.383045
vt 0.133354 0.416953
vt 0.433232 0.417243
vt 0.466585 0.415934
vt 0.566737 0.417441
vt 0.666771 0.418350
vt 0.766699 0.417351
vt 0.800088 0.416683
vt 0.833267 0.418069
vt 0.866608 0.418137
vt 0.899924 0.418040
vt 0.933250 0.417264
vt 0.033812 0.476085
vt 0.233527 0.477840
vt 0.266846 0.478665
vt 0.600246 0.478802
vt 0.633614 0.478730
vt 0.966501 0.473466
vt 0.000000 0.466667
vt 0.066955 0.494122
vt 0.100405 0.493113
vt 0.133576 0.492937
vt 0.166757 0.493305
vt 0.200110 0.494226
vt 0.300128 0.495288
vt 0.333481 0.494843
vt 0.366758 0.494033
vt 0.400018 0.492637
vt 0.433327 0.491894
vt 0.466805 0.492597
vt 0.500299 0.493690
vt 0.533596 0.494286
vt 0.566881 0.494631
vt 0.666781 0.495082
vt 0.700104 0.494395
vt 0.733416 0.494511
vt 0.766647 0.494957
vt 0.799859 0.494699
vt 0.833352 0.492409
vt 0.866697 0.490986
vt 0.899850 0.489440
vt 0.933182 0.489590
vt 1.000000 0.466667
vt 0.032951 0.609740
vt 0.000000 0.600000
vt 0.066086 0.609694
vt 0.099262 0.609119
vt 0.132514 0.608722
vt 0.166162 0.608650
vt 0.199854 0.588129
vt 0.233148 0.588468
vt 0.266488 0.588687
vt 0.299781 0.588613
vt 0.332937 0.588280
vt 0.366245 0.587588
vt 0.399628 0.587392
vt 0.432750 0.609901
vt 0.466407 0.611120
vt 0.499839 0.588207
vt 0.533234 0.588189
vt 0.566574 0.588314
vt 0.599986 0.608275
vt 0.633228 0.588053
vt 0.666514 0.588274
vt 0.699809 0.588512
vt 0.733175 0.588117
vt 0.766515 0.587800
vt 0.799802 0.587951
vt 0.833089 0.588495
vt 0.866498 0.589308
vt 0.899861 0.590280
vt 0.933233 0.590241
vt 0.966454 0.590092
vt 1.000000 0.600000
vt 0.000000 0.666667
vt 0.199441 0.652611
vt 0.232920 0.652333
vt 0.266376 0.651982
vt 0.299664 0.651639
vt 0.332686 0.651112
vt 0.365939 0.652903
vt 0.399605 0.652712
vt 0.499496 0.652656
vt 0.532913 0.653235
vt 0.566301 0.652540
vt 0.632993 0.651752
vt 0.666475 0.651712
vt 0.699803 0.651153
vt 0.733062 0.651031
vt 0.766388 0.650921
vt 0.799832 0.651496
vt 0.833421 0.653400
vt 0.866898 0.653796
vt 0.899936 0.652819
vt 0.932915 0.652432
vt 0.965933 0.651996
vt 1.000000 0.666667
vt 0.033033 0.681936
vt 0.066170 0.681618
vt 0.099302 0.681649
vt 0.132379 0.682686
vt 0.166024 0.682158
vt 0.433140 0.682521
vt 0.466758 0.681995
vt 0.599673 0.682949
vt 0.000000 0.733334
vt 0.213503 0.700749
vt 0.266515 0.713311
vt 0.308706 0.708970
vt 0.366318 0.713664
vt 0.399461 0.715392
vt 0.519464 0.699073
vt 0.566667 0.700000
vt 0.633333 0.700000
vt 0.681733 0.699103
vt 0.750191 0.698029
vt 0.799708 0.717413
vt 0.833770 0.714924
vt 0.878701 0.708703
vt 0.948121 0.708072
vt 1.000000 0.733334
vt 0.027975 0.766740
vt 0.083472 0.735853
vt 0.151861 0.741665
vt 0.213503 0.746378
vt 0.433733 0.748204
vt 0.466416 0.747154
vt 0.518498 0.731635
vt 0.586872 0.745063
vt 0.633332 0.747912
vt 0.679455 0.732653
vt 0.748887 0.740965
vt 0.000000 0.800000
vt 0.271977 0.781028
vt 0.377733 0.784353
vt 0.517329 0.783996
vt 0.659103 0.788765
vt 0.794299 0.787775
vt 0.833088 0.783725
vt 0.876331 0.791368
vt 1.000000 0.800000
vt 0.177477 0.797307
vt 0.239533 0.821622
vt 0.442285 0.818064
vt 0.598928 0.819967
vt 0.000000 0.833334
vt 0.107986 0.828133
vt 0.327445 0.826703
vt 0.564628 0.829304
vt 0.721881 0.830338
vt 0.819397 0.829711
vt 1.000000 0.833334
vt 0.000000 0.866667
vt 0.144145 0.865306
vt 0.255170 0.868918
vt 0.315267 0.871481
vt 0.408531 0.871755
vt 0.497216 0.867719
vt 0.576525 0.867624
vt 0.630426 0.873769
vt 0.712880 0.870936
vt 0.829835 0.867978
vt 0.951880 0.862529
vt 1.000000 0.866667
vt 0.000000 0.900000
vt 0.692666 0.930646
vt 0.945471 0.918216
vt 1.000000 0.900000
vt 0.266667 0.966667
vt 0.433333 0.966667
vt 0.633333 0.966667
vt 0.900000 0.966667
vt 0.100000 0.966667
vt 0.766667 0.966667
vt 1.000000 0.966667
vt 0.350000 0.000000
vt 0.550000 0.000000
vt 0.283333 1.000000
vt 0.450000 1.000000
#264 Texture Coordinates

usemtl blinn1SG
s 1
f 1/1/1 2/2/2 6/3/3
f 1/1/1 6/3/3 5/4/4
f 4/5/5 1/6/1 7/7/6
f 1/6/1 8/8/7 7/7/6
f 1/6/1 5/9/4 8/8/7
f 5/4/4 6/3/3 8/10/7
f 6/3/3 2/2/2 9/11/8
f 2/2/2 10/12/9 9/11/8
f 2/2/2 3/13/10 10/12/9
f 3/13/10 4/5/5 11/14/11
f 3/13/10 11/14/11 10/12/9
f 4/5/5 12/15/12 11/14/11
f 4/5/5 7/7/6 12/15/12
f 8/10/7 6/3/3 14/16/13
f 8/10/7 14/16/13 13/17/14
f 6/3/3 15/18/15 14/16/13
f 6/3/3 9/11/8 16/19/16
f 6/3/3 16/19/16 15/18/15
f 10/12/9 18/20/17 17/21/18
f 10/12/9 11/14/11 18/20/17
f 11/14/11 19/22/19 18/20/17
f 11/14/11 12/15/12 19/22/19
f 12/15/12 7/7/6 20/23/20
f 7/7/6 21/24/21 20/23/20
f 7/7/6 8/8/7 21/24/21
f 9/11/8 10/12/9 22/25/22
f 10/12/9 17/21/18 22/25/22
f 21/24/21 8/8/7 23/26/23
f 8/8/7 13/27/14 23/26/23
f 13/17/14 14/16/13 24/28/24
f 14/16/13 15/18/15 25/29/25
f 14/16/13 25/29/25 24/28/24
f 15/18/15 26/30/26 25/29/25
f 15/18/15 16/19/16 26/30/26
f 16/19/16 9/11/8 27/31/27
f 9/11/8 22/25/22 28/32/28
f 9/11/8 28/32/28 27/31/27
f 22/25/22 17/21/18 36/33/29
f 17/21/18 29/34/30 36/33/29
f 17/21/18 18/20/17 29/34/30
f 18/20/17 30/35/31 29/34/30
f 18/20/17 19/22/19 30/35/31
f 19/22/19 12/15/12 32/36/32
f 19/22/19 32/36/32 31/37/33
f 12/15/12 20/23/20 33/38/34
f 12/15/12 33/38/34 32/36/32
f 20/23/20 21/24/21 34/39/35
f 20/23/20 34/39/35 33/38/34
f 21/24/21 35/40/36 34/39/35
f 21/24/21 23/26/23 35/40/36
f 23/41/23 13/17/14 38/42/37
f 13/17/14 24/28/24 38/42/37
f 28/32/28 22/25/22 36/33/29
f 30/35/31 19/22/19 37/43/38
f 19/22/19 31/37/33 37/43/38
f 38/42/37 24/28/24 39/44/39
f 24/28/24 25/29/25 40/45/40
f 24/28/24 40/45/40 39/44/39
f 25/29/25 26/30/26 41/46/41
f 25/29/25 41/46/41 40/45/40
f 26/30/26 16/19/16 42/47/42
f 26/30/26 42/47/42 41/46/41
f 16/19/16 27/31/27 43/48/43
f 16/19/16 43/48/43 42/47/42
f 27/31/27 44/49/44 43/48/43
f 27/31/27 28/32/28 44/49/44
f 28/32/28 45/50/45 44/49/44
f 28/32/28 36/33/29 45/50/45
f 36/33/29 46/51/46 45/50/45
f 36/33/29 29/34/30 46/51/46
f 29/34/30 47/52/47 46/51/46
f 29/34/30 30/35/31 47/52/47
f 30/35/31 48/53/48 47/52/47
f 30/35/31 37/43/38 48/53/48
f 37/43/38 31/37/33 49/54/49
f 31/37/33 32/36/32 50/55/50
f 31/37/33 50/55/50 49/54/49
f 32/36/32 33/38/34 51/56/51
f 32/36/32 51/56/51 50/55/50
f 33/38/34 52/57/52 51/56/51
f 33/38/34 34/39/35 53/58/53
f 33/38/34 53/58/53 52/57/52
f 34/39/35 54/59/54 53/58/53
f 34/39/35 35/40/36 54/59/54
f 35/40/36 55/60/55 54/59/54
f 35/40/36 23/26/23 56/61/56
f 35/40/36 56/61/56 55/60/55
f 23/26/23 38/62/37 56/61/56
f 38/42/37 39/44/39 57/63/57
f 48/53/48 37/43/38 58/64/58
f 37/43/38 49/54/49 58/64/58
f 38/42/37 57/63/57 59/65/59
f 57/63/57 39/44/39 60/66/60
f 39/44/39 61/67/61 60/66/60
f 39/44/39 40/45/40 61/67/61
f 40/45/40 41/46/41 62/68/62
f 41/46/41 63/69/63 62/68/62
f 41/46/41 42/47/42 63/69/63
f 43/48/43 44/49/44 64/70/64
f 44/49/44 65/71/65 64/70/64
f 44/49/44 45/50/45 66/72/66
f 44/49/44 66/72/66 65/71/65
f 45/50/45 67/73/67 66/72/66
f 45/50/45 46/51/46 68/74/68
f 45/50/45 68/74/68 67/73/67
f 46/51/46 69/75/69 68/74/68
f 46/51/46 47/52/47 70/76/70
f 46/51/46 70/76/70 69/75/69
f 47/52/47 71/77/71 70/76/70
f 47/52/47 48/53/48 71/77/71
f 49/54/49 50/55/50 72/78/72
f 50/55/50 73/79/73 72/78/72
f 50/55/50 51/56/51 73/79/73
f 53/58/53 54/59/54 74/80/74
f 54/59/54 55/60/55 74/80/74
f 56/61/56 38/62/37 59/81/59
f 63/69/63 42/47/42 75/82/75
f 42/47/42 43/48/43 76/83/76
f 42/47/42 76/83/76 75/82/75
f 43/48/43 64/70/64 76/83/76
f 48/53/48 58/64/58 77/84/77
f 58/64/58 78/85/78 77/84/77
f 58/64/58 49/54/49 78/85/78
f 55/60/55 56/61/56 79/86/79
f 56/61/56 59/81/59 79/86/79
f 61/67/61 40/45/40 80/87/80
f 40/45/40 62/68/62 80/87/80
f 67/73/67 68/74/68 81/88/81
f 68/74/68 69/75/69 82/89/82
f 68/74/68 82/89/82 81/88/81
f 69/75/69 70/76/70 82/89/82
f 71/77/71 48/53/48 83/90/83
f 48/53/48 77/84/77 83/90/83
f 78/85/78 49/54/49 84/91/84
f 49/54/49 72/78/72 84/91/84
f 73/79/73 51/56/51 85/92/85
f 51/56/51 52/57/52 86/93/86
f 51/56/51 86/93/86 85/92/85
f 52/57/52 53/58/53 87/94/87
f 52/57/52 87/94/87 86/93/86
f 53/58/53 74/80/74 88/95/88
f 53/58/53 88/95/88 87/94/87
f 74/80/74 89/96/89 88/95/88
f 74/80/74 55/60/55 90/97/90
f 74/80/74 90/97/90 89/96/89
f 55/60/55 79/86/79 90/97/90
f 59/65/59 57/63/57 91/98/91
f 57/63/57 60/66/60 91/98/91
f 63/69/63 75/82/75 92/99/92
f 75/82/75 76/83/76 93/100/93
f 75/82/75 93/100/93 92/99/92
f 76/83/76 64/70/64 93/100/93
f 83/90/83 77/84/77 94/101/94
f 77/84/77 78/85/78 95/102/95
f 77/84/77 95/102/95 94/101/94
f 78/85/78 84/91/84 95/102/95
f 90/97/90 79/86/79 96/103/96
f 79/86/79 59/81/59 96/103/96
f 59/65/59 91/98/91 97/104/97
f 91/98/91 60/66/60 98/105/98
f 60/66/60 61/67/61 99/106/99
f 60/66/60 99/106/99 98/105/98
f 61/67/61 80/87/80 100/107/100
f 61/67/61 100/107/100 99/106/99
f 80/87/80 62/68/62 101/108/101
f 80/87/80 101/108/101 100/107/100
f 62/68/62 63/69/63 102/109/102
f 62/68/62 102/109/102 101/108/101
f 63/69/63 92/99/92 102/109/102
f 93/100/93 64/70/64 103/110/103
f 64/70/64 65/71/65 104/111/104
f 64/70/64 104/111/104 103/110/103
f 65/71/65 66/72/66 105/112/105
f 65/71/65 105/112/105 104/111/104
f 66/72/66 67/73/67 106/113/106
f 66/72/66 106/113/106 105/112/105
f 67/73/67 81/88/81 107/114/107
f 67/73/67 107/114/107 106/113/106
f 81/88/81 82/89/82 108/115/108
f 81/88/81 108/115/108 107/114/107
f 82/89/82 70/76/70 109/116/109
f 82/89/82 109/116/109 108/115/108
f 70/76/70 71/77/71 110/117/110
f 70/76/70 110/117/110 109/116/109
f 71/77/71 83/90/83 111/118/111
f 71/77/71 111/118/111 110/117/110
f 83/90/83 94/101/94 111/118/111
f 95/102/95 84/91/84 112/119/112
f 84/91/84 72/78/72 113/120/113
f 84/91/84 113/120/113 112/119/112
f 72/78/72 73/79/73 114/121/114
f 72/78/72 114/121/114 113/120/113
f 73/79/73 85/92/85 115/122/115
f 73/79/73 115/122/115 114/121/114
f 85/92/85 86/93/86 116/123/116
f 85/92/85 116/123/116 115/122/115
f 86/93/86 87/94/87 117/124/117
f 86/93/86 117/124/117 116/123/116
f 87/94/87 88/95/88 118/125/118
f 87/94/87 118/125/118 117/124/117
f 88/95/88 89/96/89 119/126/119
f 88/95/88 119/126/119 118/125/118
f 89/96/89 90/97/90 120/127/120
f 89/96/89 120/127/120 119/126/119
f 90/97/90 96/103/96 120/127/120
f 96/103/96 59/81/59 97/128/97
f 97/104/97 91/98/91 122/129/121
f 97/104/97 122/129/121 121/130/122
f 91/98/91 98/105/98 123/131/123
f 91/98/91 123/131/123 122/129/121
f 98/105/98 99/106/99 124/132/124
f 98/105/98 124/132/124 123/131/123
f 99/106/99 100/107/100 125/133/125
f 99/106/99 125/133/125 124/132/124
f 100/107/100 101/108/101 126/134/126
f 100/107/100 126/134/126 125/133/125
f 101/108/101 102/109/102 127/135/127
f 101/108/101 127/135/127 126/134/126
f 102/109/102 92/99/92 128/136/128
f 102/109/102 128/136/128 127/135/127
f 92/99/92 93/100/93 129/137/129
f 92/99/92 129/137/129 128/136/128
f 93/100/93 103/110/103 130/138/130
f 93/100/93 130/138/130 129/137/129
f 103/110/103 104/111/104 131/139/131
f 103/110/103 131/139/131 130/138/130
f 104/111/104 105/112/105 132/140/132
f 104/111/104 132/140/132 131/139/131
f 105/112/105 106/113/106 133/141/133
f 105/112/105 133/141/133 132/140/132
f 106/113/106 107/114/107 134/142/134
f 106/113/106 134/142/134 133/141/133
f 107/114/107 108/115/108 135/143/135
f 107/114/107 135/143/135 134/142/134
f 108/115/108 109/116/109 136/144/136
f 108/115/108 136/144/136 135/143/135
f 109/116/109 110/117/110 137/145/137
f 109/116/109 137/145/137 136/144/136
f 110/117/110 111/118/111 138/146/138
f 110/117/110 138/146/138 137/145/137
f 111/118/111 94/101/94 139/147/139
f 111/118/111 139/147/139 138/146/138
f 94/101/94 95/102/95 140/148/140
f 94/101/94 140/148/140 139/147/139
f 95/102/95 112/119/112 141/149/141
f 95/102/95 141/149/141 140/148/140
f 112/119/112 113/120/113 142/150/142
f 112/119/112 142/150/142 141/149/141
f 113/120/113 114/121/114 143/151/143
f 113/120/113 143/151/143 142/150/142
f 114/121/114 115/122/115 144/152/144
f 114/121/114 144/152/144 143/151/143
f 115/122/115 116/123/116 145/153/145
f 115/122/115 145/153/145 144/152/144
f 116/123/116 117/124/117 146/154/146
f 116/123/116 146/154/146 145/153/145
f 117/124/117 118/125/118 147/155/147
f 117/124/117 147/155/147 146/154/146
f 118/125/118 119/126/119 148/156/148
f 118/125/118 148/156/148 147/155/147
f 119/126/119 120/127/120 149/157/149
f 119/126/119 149/157/149 148/156/148
f 120/127/120 96/103/96 150/158/150
f 120/127/120 150/158/150 149/157/149
f 96/103/96 97/128/97 121/159/122
f 96/103/96 121/159/122 150/158/150
f 121/130/122 122/129/121 151/160/151
f 126/134/126 127/135/127 152/161/152
f 127/135/127 128/136/128 153/162/153
f 127/135/127 153/162/153 152/161/152
f 128/136/128 129/137/129 154/163/154
f 128/136/128 154/163/154 153/162/153
f 129/137/129 130/138/130 155/164/155
f 129/137/129 155/164/155 154/163/154
f 130/138/130 131/139/131 156/165/156
f 130/138/130 156/165/156 155/164/155
f 131/139/131 132/140/132 157/166/157
f 131/139/131 157/166/157 156/165/156
f 132/140/132 133/141/133 158/167/158
f 132/140/132 158/167/158 157/166/157
f 133/141/133 134/142/134 158/167/158
f 135/143/135 136/144/136 159/168/159
f 136/144/136 137/145/137 160/169/160
f 136/144/136 160/169/160 159/168/159
f 137/145/137 138/146/138 161/170/161
f 137/145/137 161/170/161 160/169/160
f 138/146/138 139/147/139 161/170/161
f 139/147/139 140/148/140 162/171/162
f 140/148/140 141/149/141 163/172/163
f 140/148/140 163/172/163 162/171/162
f 141/149/141 142/150/142 164/173/164
f 141/149/141 164/173/164 163/172/163
f 142/150/142 143/151/143 165/174/165
f 142/150/142 165/174/165 164/173/164
f 143/151/143 144/152/144 166/175/166
f 143/151/143 166/175/166 165/174/165
f 144/152/144 145/153/145 167/176/167
f 144/152/144 167/176/167 166/175/166
f 145/153/145 146/154/146 168/177/168
f 145/153/145 168/177/168 167/176/167
f 146/154/146 147/155/147 169/178/169
f 146/154/146 169/178/169 168/177/168
f 147/155/147 148/156/148 170/179/170
f 147/155/147 170/179/170 169/178/169
f 148/156/148 149/157/149 171/180/171
f 148/156/148 171/180/171 170/179/170
f 149/157/149 150/158/150 172/181/172
f 149/157/149 172/181/172 171/180/171
f 150/158/150 121/159/122 151/182/151
f 150/158/150 151/182/151 172/181/172
f 151/160/151 122/129/121 173/183/173
f 122/129/121 123/131/123 174/184/174
f 122/129/121 174/184/174 173/183/173
f 123/131/123 124/132/124 175/185/175
f 123/131/123 175/185/175 174/184/174
f 124/132/124 125/133/125 176/186/176
f 124/132/124 176/186/176 175/185/175
f 125/133/125 126/134/126 177/187/177
f 125/133/125 177/187/177 176/186/176
f 126/134/126 152/161/152 177/187/177
f 158/167/158 134/142/134 178/188/178
f 134/142/134 135/143/135 179/189/179
f 134/142/134 179/189/179 178/188/178
f 135/143/135 159/168/159 179/189/179
f 161/170/161 139/147/139 180/190/180
f 139/147/139 162/171/162 180/190/180
f 151/160/151 173/183/173 181/191/181
f 177/187/177 152/161/152 182/192/182
f 152/161/152 153/162/153 182/192/182
f 153/162/153 154/163/154 183/193/183
f 153/162/153 183/193/183 182/192/182
f 154/163/154 155/164/155 184/194/184
f 154/163/154 184/194/184 183/193/183
f 155/164/155 156/165/156 184/194/184
f 156/165/156 157/166/157 185/195/185
f 156/165/156 185/195/185 184/194/184
f 157/166/157 158/167/158 186/196/186
f 157/166/157 186/196/186 185/195/185
f 158/167/158 178/188/178 186/196/186
f 179/189/179 159/168/159 187/197/187
f 159/168/159 160/169/160 187/197/187
f 160/169/160 161/170/161 188/198/188
f 160/169/160 188/198/188 187/197/187
f 161/170/161 180/190/180 188/198/188
f 180/190/180 162/171/162 189/199/189
f 162/171/162 163/172/163 190/200/190
f 162/171/162 190/200/190 189/199/189
f 163/172/163 164/173/164 190/200/190
f 164/173/164 165/174/165 191/201/191
f 164/173/164 191/201/191 190/200/190
f 165/174/165 166/175/166 191/201/191
f 166/175/166 167/176/167 192/202/192
f 166/175/166 192/202/192 191/201/191
f 167/176/167 168/177/168 193/203/193
f 167/176/167 193/203/193 192/202/192
f 168/177/168 169/178/169 194/204/194
f 168/177/168 194/204/194 193/203/193
f 169/178/169 170/179/170 194/204/194
f 170/179/170 171/180/171 195/205/195
f 170/179/170 195/205/195 194/204/194
f 171/180/171 172/181/172 195/205/195
f 172/181/172 151/182/151 181/206/181
f 172/181/172 181/206/181 195/205/195
f 181/191/181 173/183/173 196/207/196
f 173/183/173 174/184/174 197/208/197
f 173/183/173 197/208/197 196/207/196
f 174/184/174 175/185/175 197/208/197
f 175/185/175 176/186/176 198/209/198
f 175/185/175 198/209/198 197/208/197
f 176/186/176 177/187/177 198/209/198
f 177/187/177 182/192/182 199/210/199
f 177/187/177 199/210/199 198/209/198
f 182/192/182 183/193/183 199/210/199
f 186/196/186 178/188/178 200/211/200
f 178/188/178 179/189/179 201/212/201
f 178/188/178 201/212/201 200/211/200
f 179/189/179 187/197/187 202/213/202
f 179/189/179 202/213/202 201/212/201
f 187/197/187 188/198/188 203/214/203
f 187/197/187 203/214/203 202/213/202
f 188/198/188 180/190/180 203/214/203
f 180/190/180 189/199/189 204/215/204
f 180/190/180 204/215/204 203/214/203
f 189/199/189 190/200/190 205/216/205
f 189/199/189 205/216/205 204/215/204
f 190/200/190 191/201/191 206/217/206
f 190/200/190 206/217/206 205/216/205
f 191/201/191 192/202/192 206/217/206
f 181/191/181 196/207/196 207/218/207
f 199/210/199 183/193/183 208/219/208
f 183/193/183 184/194/184 208/219/208
f 184/194/184 209/220/209 208/219/208
f 184/194/184 185/195/185 209/220/209
f 185/195/185 186/196/186 209/220/209
f 186/196/186 200/211/200 209/220/209
f 201/212/201 202/213/202 210/221/210
f 202/213/202 203/214/203 210/221/210
f 204/215/204 205/216/205 211/222/211
f 205/216/205 206/217/206 211/222/211
f 206/217/206 192/202/192 218/223/212
f 192/202/192 193/203/193 212/224/213
f 192/202/192 212/224/213 218/223/212
f 193/203/193 194/204/194 213/225/214
f 193/203/193 213/225/214 212/224/213
f 194/204/194 195/205/195 207/226/207
f 194/204/194 207/226/207 213/225/214
f 195/205/195 181/206/181 207/226/207
f 197/208/197 198/209/198 214/227/215
f 197/208/197 214/227/215 196/207/196
f 198/209/198 199/210/199 214/227/215
f 199/210/199 215/228/216 214/227/215
f 199/210/199 208/219/208 215/228/216
f 209/220/209 200/211/200 216/229/217
f 200/211/200 201/212/201 216/229/217
f 201/212/201 210/221/210 216/229/217
f 210/221/210 203/214/203 217/230/218
f 203/214/203 204/215/204 211/222/211
f 203/214/203 211/222/211 217/230/218
f 211/222/211 206/217/206 218/223/212
f 207/218/207 196/207/196 224/231/219
f 196/207/196 219/232/220 224/231/219
f 196/207/196 214/227/215 219/232/220
f 214/227/215 215/228/216 219/232/220
f 215/228/216 208/219/208 220/233/221
f 208/219/208 209/220/209 220/233/221
f 209/220/209 216/229/217 220/233/221
f 216/229/217 210/221/210 221/234/222
f 210/221/210 217/230/218 221/234/222
f 211/222/211 222/235/223 217/230/218
f 211/222/211 218/223/212 222/235/223
f 218/223/212 223/236/224 222/235/223
f 218/223/212 212/224/213 223/236/224
f 212/224/213 213/225/214 223/236/224
f 213/225/214 224/237/219 223/236/224
f 213/225/214 207/226/207 224/237/219
f 224/231/219 219/232/220 225/238/225
f 219/232/220 226/239/226 225/238/225
f 219/232/220 215/228/216 226/239/226
f 215/228/216 227/240/227 226/239/226
f 215/228/216 220/233/221 227/240/227
f 220/233/221 228/241/228 227/240/227
f 220/233/221 229/242/229 228/241/228
f 220/233/221 216/229/217 230/243/230
f 220/233/221 230/243/230 229/242/229
f 216/229/217 221/234/222 230/243/230
f 221/234/222 231/244/231 230/243/230
f 221/234/222 217/230/218 232/245/232
f 221/234/222 232/245/232 231/244/231
f 217/230/218 222/235/223 233/246/233
f 217/230/218 233/246/233 232/245/232
f 222/235/223 234/247/234 233/246/233
f 222/235/223 223/236/224 234/247/234
f 223/236/224 224/237/219 235/248/235
f 223/236/224 235/248/235 234/247/234
f 224/237/219 225/249/225 235/248/235
f 225/238/225 226/239/226 236/250/236
f 232/245/232 233/246/233 237/251/237
f 234/247/234 235/248/235 238/252/238
f 235/248/235 225/249/225 236/253/236
f 235/248/235 236/253/236 238/252/238
f 226/239/226 227/240/227 239/254/239
f 227/240/227 228/241/228 239/254/239
f 228/241/228 240/255/240 239/254/239
f 228/241/228 229/242/229 240/255/240
f 229/242/229 241/256/241 240/255/240
f 229/242/229 230/243/230 241/256/241
f 230/243/230 231/244/231 241/256/241
f 233/246/233 234/247/234 242/257/242
f 233/246/233 242/257/242 237/251/237
f 234/247/234 238/252/238 242/257/242
f 236/250/236 226/239/226 239/254/239
f 236/250/236 239/254/239 243/258/243
f 231/244/231 232/245/232 241/256/241
f 232/245/232 237/251/237 243/259/243
f 232/245/232 243/259/243 241/256/241
f 237/251/237 242/257/242 243/259/243
f 238/252/238 243/260/243 242/257/242
f 238/252/238 236/253/236 243/260/243
f 3/13/10 2/2/2 1/261/1
f 4/5/5 3/13/10 1/262/1
f 239/254/239 240/255/240 243/263/243
f 240/255/240 241/256/241 243/264/243
#482 polygons

o Mesh_1
v 0.054558 2.962228 -0.087872
v 0.024279 2.962228 -0.103300
v -0.042850 2.962228 -0.103300
v -0.097158 2.962228 -0.063843
v -0.117902 2.962228 0.000000
v -0.097158 2.962228 0.063843
v -0.042850 2.962228 0.103300
v 0.024279 2.962228 0.103300
v 0.099331 2.962228 0.000000
v -0.531524 5.175459 -0.030153
v -0.540236 5.156560 -0.010855
v -0.535430 5.152101 0.009574
v -0.510076 5.168429 0.035241
v -0.328698 5.019445 0.043024
v -0.360255 5.006541 0.011905
v -0.362586 5.018531 -0.043273
v -0.312501 5.043567 -0.017472
v -0.301323 5.034376 0.020065
v -0.353048 5.080513 0.053386
v -0.375228 5.047889 0.062896
v -0.394638 5.021463 0.046377
v -0.408036 5.007699 0.014764
v -0.400202 5.018379 -0.046717
v -0.352957 5.068520 -0.061769
v -0.377818 5.125046 -0.039076
v -0.345304 5.107691 0.019355
v 0.089249 4.196672 0.041772
v 0.017370 4.196272 0.031728
v 0.005139 4.210709 -0.006116
v 0.026747 4.216754 -0.041453
v -0.049941 4.662805 -0.016770
v 0.031277 4.438651 0.012615
v 0.110927 3.850748 0.048395
v 0.064780 3.565668 0.044592
v 0.048847 3.850515 0.023810
v 0.050751 3.609735 -0.028459
v 0.074470 3.573973 -0.046813
v 0.111160 3.836665 -0.048915
v 0.141890 3.749162 -0.015660
v 0.142845 3.859033 0.016722
v 0.065146 4.165395 0.050737
v 0.078744 4.181449 -0.047641
v 0.110248 4.179157 -0.015298
v 0.038576 3.979443 -0.023408
v -0.112656 4.741623 0.041569
v -0.128447 4.707105 0.039252
v -0.171139 4.738429 0.005280
v -0.143525 4.728817 -0.045820
v -0.101704 4.773470 -0.018685
v -0.096605 4.766620 0.022227
v 0.029155 3.491897 0.000222
v 0.101719 3.399578 -0.046298
v 0.121317 3.267359 -0.019618
v 0.124092 3.454225 0.031357
v 0.054189 3.282398 0.064102
v -0.004039 3.271241 0.010646
v 0.031025 3.271067 -0.059211
v -0.526157 5.157464 -0.056973
v -0.495460 5.194114 0.015218
v -0.458842 5.186345 0.020716
v -0.453465 5.147867 0.063700
v -0.493679 5.101390 0.054992
v -0.516389 5.090051 0.010276
v -0.518707 5.103018 -0.039169
v -0.435094 5.101766 -0.065253
v -0.410896 5.123115 -0.057669
v -0.460107 5.047707 -0.017330
v -0.458729 5.073256 -0.051173
v -0.544951 5.134299 -0.014940
#69 Vertices

vn -0.709617 0.636956 0.301215
vn -0.709748 0.636157 0.302591
vn -0.710334 0.635865 0.301831
vn -0.714554 0.629364 0.305472
vn -0.710715 0.635673 0.301336
vn -0.213005 -0.233523 0.948734
vn 0.489565 0.336502 0.804420
vn 0.001211 -0.141951 0.989873
vn -0.239125 -0.684470 0.688709
vn -0.679568 -0.669283 0.300411
vn -0.445381 -0.877349 0.178591
vn -0.227763 -0.294206 -0.928206
vn -0.289185 -0.654464 -0.698605
vn 0.272262 -0.023526 -0.961935
vn 0.718127 0.499621 -0.484431
vn 0.602098 0.719640 -0.345828
vn 0.723413 0.510937 0.464345
vn 0.653545 0.712989 0.254018
vn -0.575605 -0.772669 -0.267695
vn -0.289290 -0.397988 -0.870584
vn -0.063100 -0.069191 -0.995606
vn 0.234008 0.684745 -0.690192
vn -0.734475 -0.173679 0.656035
vn 0.144464 0.104942 0.983929
vn -0.505028 -0.223756 0.833595
vn -0.904576 -0.423878 0.045503
vn -0.947666 -0.254567 -0.192679
vn -0.389297 -0.076902 -0.917896
vn -0.264044 -0.130386 -0.955657
vn 0.389519 0.244981 -0.887840
vn 0.838105 0.304281 -0.452761
vn 0.418207 0.096363 -0.903226
vn 0.916175 0.306070 0.258736
vn 0.790980 0.427808 0.437415
vn 0.690984 0.164858 0.703820
vn -0.381409 0.028361 0.923971
vn 0.334389 0.000076 0.942435
vn -0.230380 -0.019989 0.972895
vn -0.930732 -0.023943 0.364919
vn -0.911351 0.043194 -0.409357
vn -0.980970 -0.074819 -0.179163
vn -0.280952 0.004436 -0.959712
vn 0.321612 0.001292 -0.946871
vn 0.945169 0.190523 -0.265247
vn 0.928998 0.009415 -0.369964
vn 0.929573 0.048519 0.365432
vn 0.760804 -0.033598 0.648111
vn -0.995553 0.091777 -0.021265
vn 0.374374 0.032077 -0.926723
vn 0.918078 -0.050685 -0.393147
vn -0.307889 0.183726 0.933515
vn -0.942584 0.293719 0.158952
vn -0.521804 0.194780 -0.830531
vn -0.325316 0.100910 -0.940206
vn 0.163742 0.827438 -0.537154
vn 0.239188 0.861857 -0.447204
vn 0.081253 0.381924 0.920615
vn 0.434099 0.867200 0.243971
vn -0.225335 0.447599 0.865378
vn -0.716120 -0.041890 0.696719
vn -0.472516 -0.348299 0.809578
vn -0.720200 -0.654994 0.228682
vn -0.949943 -0.295895 -0.100268
vn -0.638937 -0.589875 -0.493768
vn -0.963817 0.196968 -0.179612
vn 0.091249 0.117365 -0.988888
vn 0.771738 -0.041422 -0.634591
vn 0.960722 -0.088247 0.263109
vn 0.584980 -0.005566 0.811029
vn -0.302413 0.205606 0.930738
vn -0.733218 0.312437 0.603966
vn -0.938327 0.345749 -0.000000
vn -0.797387 0.326724 -0.507370
vn -0.302438 0.205224 -0.930814
#74 Normals

vt 0.546070 0.656137
vt 0.568170 0.663994
vt 0.542396 0.663305
vt 0.519389 0.661719
vt 0.500322 0.656046
vt 0.496393 0.661152
vt 0.447235 0.656031
vt 0.457856 0.660610
vt 0.407566 0.660418
vt 0.375000 0.656047
vt 0.375000 0.667753
vt 0.590498 0.655416
vt 0.625000 0.656047
vt 0.625000 0.667753
vt 0.593093 0.664874
vt 0.467142 0.668699
vt 0.441857 0.668978
vt 0.416932 0.668854
vt 0.396762 0.669025
vt 0.515702 0.509320
vt 0.562249 0.612575
vt 0.534579 0.604208
vt 0.493480 0.616092
vt 0.480732 0.510954
vt 0.443661 0.510574
vt 0.441259 0.607825
vt 0.375000 0.617875
vt 0.375000 0.579703
vt 0.411212 0.503841
vt 0.599694 0.542526
vt 0.625000 0.579703
vt 0.591383 0.616997
vt 0.575753 0.507538
vt 0.533094 0.400569
vt 0.566168 0.444298
vt 0.551085 0.504060
vt 0.507954 0.444467
vt 0.461367 0.406481
vt 0.467835 0.464199
vt 0.433639 0.400777
vt 0.408928 0.440557
vt 0.375000 0.503359
vt 0.625000 0.503359
vt 0.375000 0.427016
vt 0.600298 0.444846
vt 0.625000 0.427016
vt 0.625000 0.617875
vt 0.589037 0.382691
vt 0.487525 0.389080
vt 0.403024 0.372804
vt 0.375000 0.350672
vt 0.625000 0.350672
vt 0.545315 0.353482
vt 0.493862 0.351132
vt 0.443434 0.350854
vt 0.436961 0.685419
vt 0.437500 0.688440
vt 0.375000 0.688440
vt 0.569347 0.679277
vt 0.601637 0.683410
vt 0.550000 0.688440
vt 0.500000 0.688440
vt 0.526146 0.679016
vt 0.494175 0.679008
vt 0.479063 0.687137
vt 0.462253 0.678962
vt 0.600000 0.688440
vt 0.475000 0.688440
vt 0.412500 0.312500
vt 0.400000 0.312500
vt 0.612500 0.312500
vt 0.625000 0.312500
vt 0.562500 0.312500
vt 0.537500 0.312500
vt 0.512500 0.312500
vt 0.487500 0.312500
vt 0.462500 0.312500
vt 0.437500 0.312500
vt 0.648603 0.795466
vt 0.451716 0.992353
vt 0.351397 0.892034
vt 0.351397 0.795466
vt 0.500000 0.687500
#83 Texture Coordinates

usemtl lambert2SG
s 1
f 302/343/244 253/344/245 254/345/246
f 255/346/247 256/347/248 254/345/246
f 256/347/248 302/343/244 254/345/246
f 257/265/249 262/266/250 263/267/251
f 257/265/249 263/267/251 264/268/252
f 258/269/253 257/265/249 264/268/252
f 258/269/253 264/268/252 265/270/254
f 259/271/255 258/269/253 265/270/254
f 259/271/255 265/270/254 266/272/256
f 259/271/255 266/272/256 267/273/257
f 260/274/258 259/271/255 267/273/257
f 260/274/258 267/273/257 268/275/259
f 261/276/260 260/277/258 268/278/259
f 261/276/260 268/278/259 269/279/261
f 261/276/260 269/279/261 262/266/250
f 257/265/249 261/276/260 262/266/250
f 266/272/256 265/270/254 310/280/262
f 266/272/256 310/280/262 311/281/263
f 267/273/257 266/272/256 311/281/263
f 267/273/257 311/281/263 308/282/264
f 267/273/257 308/282/264 309/283/265
f 268/275/259 267/273/257 309/283/265
usemtl blinn2SG
s 1
f 271/284/266 288/285/267 289/286/268
f 271/284/266 289/286/268 290/287/269
f 272/288/270 271/284/266 290/287/269
f 273/289/271 272/288/270 290/287/269
f 273/289/271 290/287/269 291/290/272
f 292/291/273 273/289/271 291/290/272
f 274/292/274 285/293/275 292/291/273
f 275/294/276 274/295/274 293/296/277
f 270/297/278 275/294/276 293/296/277
f 270/297/278 293/296/277 288/285/267
f 277/298/279 276/299/280 284/300/281
f 277/298/279 284/300/281 278/301/282
f 279/302/283 278/301/282 287/303/284
f 280/304/285 279/302/283 287/303/284
f 280/304/285 287/303/284 273/289/271
f 281/305/286 280/304/285 273/289/271
f 284/300/281 270/297/278 288/285/267
f 271/284/266 284/300/281 288/285/267
f 285/293/275 273/289/271 292/291/273
f 286/306/287 285/293/275 274/292/274
f 286/307/287 274/295/274 275/294/276
f 270/297/278 286/307/287 275/294/276
f 278/301/282 284/300/281 271/284/266
f 287/303/284 278/301/282 271/284/266
f 287/303/284 271/284/266 272/288/270
f 287/303/284 272/288/270 273/289/271
f 281/305/286 273/289/271 285/293/275
f 282/308/288 281/305/286 285/293/275
f 282/308/288 285/293/275 286/306/287
f 283/309/289 282/310/288 286/307/287
f 283/309/289 286/307/287 270/297/278
f 276/299/280 283/309/289 270/297/278
f 276/299/280 270/297/278 284/300/281
f 289/286/268 288/285/267 257/265/249
f 290/287/269 289/286/268 257/265/249
f 290/287/269 257/265/249 258/269/253
f 290/287/269 258/269/253 259/271/255
f 291/290/272 290/287/269 259/271/255
f 292/291/273 291/290/272 259/271/255
f 292/291/273 259/271/255 260/274/258
f 293/296/277 292/311/273 260/277/258
f 293/296/277 260/277/258 261/276/260
f 288/285/267 293/296/277 261/276/260
f 288/285/267 261/276/260 257/265/249
f 274/295/274 292/311/273 293/296/277
f 277/298/279 297/312/290 276/299/280
f 294/313/291 277/298/279 278/301/282
f 294/313/291 278/301/282 279/302/283
f 295/314/292 280/304/285 281/305/286
f 296/315/293 295/314/292 281/305/286
f 296/315/293 281/305/286 282/308/288
f 297/312/290 296/316/293 282/310/288
f 297/312/290 282/310/288 283/309/289
f 297/312/290 283/309/289 276/299/280
f 298/317/294 297/312/290 277/298/279
f 299/318/295 298/317/294 277/298/279
f 299/318/295 277/298/279 294/313/291
f 300/319/296 299/318/295 294/313/291
f 300/319/296 294/313/291 279/302/283
f 300/319/296 279/302/283 280/304/285
f 295/314/292 300/319/296 280/304/285
usemtl lambert2SG
s 1
f 309/283/265 301/320/297 253/321/298
f 302/322/299 309/283/265 253/321/298
f 304/323/300 303/324/301 256/325/302
f 304/323/300 256/325/302 255/326/303
f 305/327/304 304/323/300 255/326/303
f 306/328/305 305/327/304 255/326/303
f 306/328/305 255/326/303 312/329/306
f 307/330/307 306/328/305 312/329/306
f 307/330/307 312/329/306 301/320/297
f 308/282/264 301/320/297 309/283/265
f 268/275/259 309/283/265 302/322/299
f 268/278/259 302/331/299 303/324/301
f 269/279/261 268/278/259 303/324/301
f 269/279/261 303/324/301 304/323/300
f 262/266/250 269/279/261 304/323/300
f 263/267/251 262/266/250 304/323/300
f 263/267/251 304/323/300 305/327/304
f 264/268/252 263/267/251 305/327/304
f 265/270/254 264/268/252 305/327/304
f 265/270/254 305/327/304 306/328/305
f 310/280/262 265/270/254 306/328/305
f 310/280/262 306/328/305 307/330/307
f 311/281/263 310/280/262 307/330/307
f 311/281/263 307/330/307 301/320/297
f 308/282/264 311/281/263 301/320/297
f 303/324/301 302/331/299 256/325/302
f 312/329/306 255/326/303 254/332/308
f 301/320/297 312/329/306 254/332/308
f 301/320/297 254/332/308 253/321/298
usemtl blinn2SG
s 1
f 245/333/309 300/319/296 295/314/292
f 244/334/310 245/333/309 295/314/292
f 244/334/310 295/314/292 296/315/293
f 252/335/311 244/336/310 296/316/293
f 252/335/311 296/316/293 297/312/290
f 251/337/312 252/335/311 297/312/290
f 251/337/312 297/312/290 298/317/294
f 250/338/313 251/337/312 298/317/294
f 249/339/314 250/338/313 298/317/294
f 249/339/314 298/317/294 299/318/295
f 248/340/315 249/339/314 299/318/295
f 247/341/316 248/340/315 299/318/295
f 247/341/316 299/318/295 300/319/296
f 246/342/317 247/341/316 300/319/296
f 245/333/309 246/342/317 300/319/296
#127 polygons

