# File produced by Amaz3D Software. 

mtllib cherry.mtl
o Mesh_0
v 0.037711 1.754063 -0.088197
v -0.075910 1.754063 -0.075683
v -0.101389 1.754063 0.041422
v -0.003674 1.754063 0.101283
v 0.084495 1.754063 -0.000000
v 0.173383 1.769697 -0.041600
v -0.006002 1.768815 -0.198870
v -0.150420 1.768840 -0.135186
v -0.202333 1.768829 0.018162
v -0.089650 1.766438 0.170010
v 0.092992 1.768824 0.162700
v 0.253342 1.780673 0.077211
v 0.259952 1.779842 -0.061069
v 0.103881 1.779345 -0.275581
v -0.130201 1.779325 -0.270597
v -0.277957 1.783129 -0.152358
v -0.298363 1.779354 0.037703
v -0.177335 1.779316 0.245624
v -0.009754 1.783240 0.316680
v 0.154225 1.779380 0.238347
v 0.341192 1.801673 -0.079402
v 0.301970 1.800618 -0.192477
v 0.205478 1.800609 -0.308892
v 0.069008 1.800565 -0.372127
v -0.083955 1.800554 -0.371302
v -0.225917 1.800548 -0.306168
v -0.435051 1.816788 -0.043610
v -0.414279 1.816450 0.137045
v -0.324713 1.816387 0.293599
v -0.182502 1.816287 0.399257
v 0.134341 1.800917 0.346020
v 0.250661 1.801117 0.254247
v 0.326625 1.800866 0.115878
v 0.417287 1.827699 -0.096548
v 0.320127 1.826397 -0.312405
v 0.175531 1.826405 -0.424277
v -0.006157 1.826346 -0.463197
v -0.191418 1.826410 -0.422260
v -0.346711 1.826471 -0.307697
v -0.467504 1.845149 -0.206803
v -0.013338 1.826418 0.463394
v 0.167908 1.826490 0.419722
v 0.307133 1.828897 0.308029
v 0.399396 1.828724 0.140181
v 0.465594 1.844560 -0.002162
v 0.553591 1.900254 -0.127161
v 0.459641 1.859996 -0.220029
v 0.440121 1.878640 -0.340874
v 0.366955 1.878341 -0.430497
v 0.276752 1.878532 -0.502238
v 0.171313 1.878475 -0.551645
v 0.056325 1.878486 -0.576627
v -0.062786 1.878743 -0.576303
v -0.180834 1.878652 -0.549725
v -0.290851 1.878700 -0.500237
v -0.388658 1.878752 -0.428905
v -0.469730 1.879027 -0.339002
v -0.566823 1.879715 -0.118836
v -0.536657 1.858902 0.059676
v -0.527929 1.879839 0.236336
v -0.466453 1.879277 0.341112
v -0.316950 1.858347 0.439210
v -0.184505 1.878471 0.550299
v -0.071056 1.877926 0.574237
v 0.042669 1.877742 0.573658
v 0.152389 1.877582 0.548269
v 0.254445 1.878927 0.497757
v 0.344598 1.883111 0.425682
v 0.419481 1.885091 0.335895
v 0.477608 1.885414 0.231372
v 0.515294 1.883197 0.116631
v 0.545311 1.918334 -0.261375
v -0.558482 1.900823 -0.248860
v -0.610722 1.901781 -0.000129
v -0.597272 1.901912 0.127116
v -0.428377 1.921436 0.478170
v -0.322392 1.920310 0.555531
v 0.562007 1.901579 -0.000000
v 0.613771 1.948867 -0.140618
v 0.542364 1.974609 -0.415547
v 0.454688 1.973792 -0.525868
v 0.343717 1.971872 -0.612962
v 0.214022 1.970769 -0.672926
v 0.072423 1.970602 -0.703434
v -0.074191 1.971174 -0.702843
v -0.218575 1.973322 -0.672290
v -0.353494 1.975145 -0.613130
v -0.472938 1.975618 -0.527041
v -0.571373 1.975755 -0.417108
v -0.644498 1.976675 -0.289301
v -0.689453 1.977563 -0.147908
v -0.705211 1.979180 -0.000544
v -0.690317 1.979987 0.146301
v -0.645523 1.980104 0.288061
v -0.572985 1.980399 0.417418
v -0.224697 1.975699 0.672945
v -0.083512 1.974540 0.704244
v 0.057330 1.973925 0.704174
v 0.192113 1.972666 0.673328
v 0.317528 1.976241 0.614892
v 0.428780 1.985159 0.528032
v 0.521246 1.989670 0.417458
v 0.592608 1.990111 0.289068
v 0.637495 1.984999 0.146957
v 0.653867 1.976888 -0.000579
v 0.655471 2.032849 -0.310867
v -0.510791 2.037505 0.567433
v -0.382790 2.035089 0.660307
v 0.718897 2.062995 -0.163870
v 0.629074 2.096066 -0.478832
v 0.528099 2.092942 -0.605333
v 0.399662 2.088440 -0.705283
v 0.249308 2.086257 -0.774316
v 0.084888 2.085662 -0.809233
v -0.082369 2.056757 -0.783966
v -0.243218 2.061208 -0.751851
v -0.405912 2.097823 -0.711330
v -0.543174 2.099489 -0.613153
v -0.656071 2.101151 -0.488622
v -0.739499 2.102780 -0.341942
v -0.791304 2.104763 -0.177819
v -0.806620 2.104141 -0.005263
v -0.787479 2.104136 0.164594
v -0.738422 2.104443 0.328518
v -0.656512 2.103544 0.477555
v -0.256699 2.099058 0.776946
v -0.093857 2.096037 0.816127
v 0.071309 2.094128 0.815838
v 0.228231 2.091496 0.780335
v 0.371622 2.089052 0.710049
v 0.497186 2.095829 0.607368
v 0.601134 2.099862 0.477498
v 0.681845 2.100205 0.330015
v 0.733419 2.095593 0.168427
v 0.729195 2.059908 -0.000000
v 0.742524 2.166928 -0.348926
v -0.089280 2.151884 -0.851986
v -0.263850 2.158814 -0.819120
v -0.578215 2.183605 0.639522
v -0.434356 2.180663 0.745741
v 0.794584 2.155601 0.000022
v 0.801432 2.196413 -0.181890
v 0.696219 2.237748 -0.525559
v 0.583583 2.232820 -0.664299
v 0.441581 2.225966 -0.774007
v 0.275250 2.221881 -0.849447
v 0.093238 2.221165 -0.888056
v -0.445240 2.243285 -0.788291
v -0.595285 2.246026 -0.681346
v -0.718337 2.249493 -0.546677
v -0.809591 2.253561 -0.387009
v -0.865562 2.255694 -0.205367
v -0.883193 2.261540 -0.013576
v -0.864642 2.267988 0.176217
v -0.812187 2.267857 0.359981
v -0.725799 2.269785 0.527986
v -0.284945 2.251373 0.860036
v -0.101778 2.238101 0.901617
v 0.082552 2.235020 0.901789
v 0.256483 2.230811 0.862287
v 0.413901 2.222845 0.783154
v 0.551254 2.226780 0.670048
v 0.665097 2.231600 0.527014
v 0.752928 2.232262 0.364128
v 0.808807 2.228860 0.186282
v 0.801647 2.313745 -0.375293
v -0.097225 2.303708 -0.920626
v -0.285062 2.313133 -0.887755
v -0.625510 2.349974 0.691344
v -0.471633 2.344256 0.806299
v 0.857873 2.300733 -0.000137
v 0.858562 2.350166 -0.193834
v 0.729003 2.355496 -0.547986
v 0.611317 2.353058 -0.692826
v 0.462213 2.345057 -0.807386
v 0.287572 2.341224 -0.886821
v 0.096244 2.339617 -0.927828
v -0.464891 2.360536 -0.826242
v -0.620112 2.367586 -0.716524
v -0.747334 2.373142 -0.576733
v -0.841709 2.379098 -0.410505
v -0.899965 2.385109 -0.219787
v -0.919444 2.397287 -0.018346
v -0.901164 2.403632 0.181456
v -0.847640 2.400993 0.374455
v -0.757892 2.397131 0.550607
v -0.298983 2.370104 0.898667
v -0.106042 2.355911 0.943147
v 0.088316 2.353179 0.943873
v 0.270899 2.349193 0.902723
v 0.435458 2.342303 0.820690
v 0.578426 2.338190 0.700067
v 0.696716 2.340202 0.549772
v 0.787966 2.341444 0.379196
v 0.846878 2.343222 0.193834
v 0.890425 2.523059 -0.199023
v 0.836050 2.479949 -0.388307
v 0.749844 2.481750 -0.561025
v 0.627397 2.481906 -0.709191
v 0.473019 2.472291 -0.826327
v 0.292840 2.467782 -0.908020
v 0.096034 2.464820 -0.950548
v -0.103821 2.467108 -0.954248
v -0.297715 2.476646 -0.921261
v -0.477834 2.486892 -0.848592
v -0.635308 2.494900 -0.736227
v -0.763665 2.501912 -0.593223
v -0.859223 2.512949 -0.423241
v -0.918377 2.524792 -0.227803
v -0.938211 2.539553 -0.020926
v -0.919814 2.543782 0.184872
v -0.865631 2.537498 0.383081
v -0.774583 2.530771 0.563949
v -0.646698 2.519617 0.715296
v -0.488534 2.512799 0.834839
v -0.306418 2.497829 0.921209
v -0.107492 2.482496 0.966909
v 0.092701 2.478675 0.967697
v 0.280868 2.472917 0.925473
v 0.449798 2.466343 0.841533
v 0.596360 2.463322 0.717470
v 0.717250 2.461840 0.562454
v 0.809903 2.460287 0.387378
v 0.871348 2.469782 0.198510
v 0.896686 2.474779 -0.000168
v 0.899090 2.718681 -0.197965
v 0.852012 2.688740 -0.387704
v 0.760940 2.626147 -0.564290
v 0.635428 2.631363 -0.713439
v 0.477042 2.628867 -0.831829
v 0.292429 2.691685 -0.913268
v 0.093395 2.687170 -0.956906
v -0.107577 2.618570 -0.962141
v -0.302686 2.628236 -0.929059
v -0.483453 2.639654 -0.855919
v -0.640658 2.650443 -0.742533
v -0.768432 2.660813 -0.598089
v -0.860951 2.749550 -0.426883
v -0.920229 2.765271 -0.229995
v -0.939704 2.777849 -0.021629
v -0.921031 2.783113 0.184297
v -0.866712 2.775974 0.383638
v -0.777805 2.693170 0.567190
v -0.649426 2.679471 0.719622
v -0.490555 2.664203 0.839995
v -0.307813 2.651103 0.927070
v -0.107536 2.641405 0.973312
v 0.095493 2.630671 0.974103
v 0.286577 2.622019 0.931600
v 0.459262 2.685518 0.845737
v 0.608688 2.690893 0.721504
v 0.732040 2.702542 0.566018
v 0.826902 2.704141 0.390131
v 0.889466 2.697193 0.199683
v 0.914948 2.690327 0.001341
v 0.759216 2.725766 -0.559664
v 0.632870 2.732942 -0.707591
v 0.473235 2.734558 -0.825332
v -0.108930 2.726526 -0.955339
v -0.302432 2.735416 -0.922259
v -0.481364 2.746313 -0.849237
v -0.636576 2.757236 -0.736172
v -0.762442 2.769413 -0.592317
v -0.769642 2.807183 0.562499
v -0.642326 2.793661 0.713449
v -0.484978 2.774024 0.832664
v -0.304195 2.759171 0.918878
v -0.105917 2.749109 0.964624
v 0.096103 2.736658 0.965376
v 0.286580 2.728095 0.923242
v 0.883194 2.814308 -0.193082
v 0.832382 2.814989 -0.377725
v 0.744212 2.820561 -0.545859
v 0.619344 2.828738 -0.690158
v 0.461664 2.834813 -0.805273
v 0.280682 2.836014 -0.886372
v 0.087312 2.831857 -0.928809
v -0.108027 2.832771 -0.932227
v -0.296842 2.840321 -0.899150
v -0.471045 2.850093 -0.827032
v -0.621880 2.860454 -0.715838
v -0.744124 2.878416 -0.574637
v -0.834994 2.904994 -0.407451
v -0.891760 2.928015 -0.217218
v -0.910337 2.940922 -0.016788
v -0.891482 2.937885 0.181699
v -0.837611 2.931063 0.373527
v -0.748040 2.919688 0.548447
v -0.623570 2.906009 0.695096
v -0.470242 2.884131 0.810918
v -0.294400 2.866398 0.894530
v -0.101874 2.853296 0.938852
v 0.094873 2.840400 0.939541
v 0.281140 2.832677 0.898526
v 0.449916 2.830402 0.817187
v 0.596486 2.835802 0.697362
v 0.717216 2.844947 0.547687
v 0.810543 2.836917 0.377725
v 0.871925 2.824201 0.193082
v 0.896689 2.816768 0.000000
v 0.848879 2.898375 -0.184495
v 0.799395 2.898311 -0.360926
v 0.714012 2.901696 -0.521583
v 0.593337 2.910552 -0.659544
v 0.441211 2.920512 -0.769800
v 0.267692 2.927531 -0.847357
v 0.082506 2.928372 -0.887996
v -0.104327 2.929334 -0.890647
v -0.284863 2.935409 -0.857969
v -0.451092 2.943682 -0.787979
v -0.594922 2.953791 -0.680781
v -0.711570 2.977291 -0.545028
v -0.797948 3.003515 -0.384444
v -0.852047 3.029182 -0.202895
v -0.869766 3.040712 -0.012444
v -0.851039 3.036296 0.175905
v -0.798351 3.032105 0.357947
v -0.711568 3.019460 0.523759
v -0.592083 3.006218 0.663198
v -0.445601 2.984160 0.773332
v -0.278266 2.964145 0.852522
v -0.095492 2.947988 0.894484
v 0.091505 2.934500 0.895148
v 0.269477 2.927836 0.856079
v 0.431729 2.927081 0.778663
v 0.572905 2.932850 0.664973
v 0.689489 2.934681 0.522828
v 0.779488 2.920556 0.360926
v 0.838625 2.904782 0.184495
v 0.862357 2.897953 0.000000
v 0.797089 2.965019 -0.172431
v 0.750054 2.964619 -0.337326
v 0.669387 2.965314 -0.487478
v 0.555540 2.974777 -0.616540
v 0.412472 2.988259 -0.719817
v 0.249642 2.999127 -0.792455
v 0.076249 3.006721 -0.830393
v -0.098368 3.008635 -0.832239
v -0.267146 3.013526 -0.800559
v -0.422452 3.020150 -0.734135
v -0.556824 3.030617 -0.633189
v -0.665491 3.056142 -0.505334
v -0.745887 3.081376 -0.354408
v -0.796185 3.107670 -0.185081
v -0.812673 3.117850 -0.008255
v -0.794622 3.115135 0.166625
v -0.744183 3.112037 0.335496
v -0.661908 3.099560 0.489142
v -0.549734 3.087406 0.618878
v -0.412864 3.067400 0.721344
v -0.256985 3.046352 0.794577
v -0.087293 3.027995 0.833345
v 0.086066 3.014431 0.834030
v 0.252161 3.008875 0.797662
v 0.404363 3.009071 0.725613
v 0.537222 3.012544 0.620165
v 0.647471 3.002952 0.488217
v 0.732347 2.984786 0.337326
v 0.787960 2.967640 0.172431
v 0.810239 2.961243 0.000000
v 0.730787 3.015619 -0.157593
v 0.666315 3.030815 -0.297730
v 0.613008 3.014441 -0.445531
v 0.509825 3.034766 -0.531924
v 0.372527 3.050529 -0.636279
v 0.224950 3.070897 -0.696301
v 0.071463 3.086064 -0.729476
v -0.090576 3.069823 -0.760466
v -0.244734 3.073680 -0.730473
v -0.415451 3.077418 -0.658205
v -0.608443 3.117147 -0.458046
v -0.681767 3.142330 -0.319496
v -0.727523 3.167508 -0.165276
v -0.742549 3.178415 -0.004834
v -0.725711 3.175282 0.154141
v -0.678614 3.170801 0.307362
v -0.602379 3.160100 0.446642
v -0.499407 3.149868 0.564830
v -0.374224 3.132674 0.658170
v -0.232075 3.111561 0.724327
v -0.078000 3.092048 0.759001
v 0.079090 3.078672 0.759405
v 0.230397 3.072238 0.726304
v 0.369783 3.072677 0.660990
v 0.492031 3.071201 0.565695
v 0.593929 3.052723 0.445889
v 0.672361 3.031727 0.308299
v 0.738456 3.010975 0.096461
v 0.570102 3.086393 -0.122791
v -0.080928 3.117621 -0.678804
v -0.247556 3.120631 -0.644001
v -0.545160 3.162382 -0.409508
v -0.609089 3.187165 -0.281708
v -0.649808 3.208657 -0.144639
v -0.663195 3.217892 -0.002438
v -0.629727 3.215039 0.213224
v -0.536214 3.204467 0.398617
v -0.443816 3.196695 0.504037
v -0.331835 3.181690 0.587297
v -0.164737 3.157387 0.653238
v 0.121087 3.122766 0.666447
v 0.306828 3.139481 0.542005
v 0.411927 3.130975 0.469464
v 0.484552 3.118039 0.372280
v 0.535435 3.105076 0.256672
v 0.653911 3.051860 0.124300
v 0.546356 3.081488 -0.266069
v 0.227876 3.120521 -0.545925
v 0.054666 3.144827 -0.588497
v -0.100659 3.156202 -0.588997
v -0.357928 3.166509 -0.482017
v -0.494180 3.203520 -0.320558
v -0.573997 3.238284 -0.083496
v -0.547632 3.241089 0.192272
v -0.413252 3.234382 0.412899
v -0.287513 3.217294 0.510705
v -0.159286 3.194548 0.565537
v 0.119032 3.158296 0.570604
v 0.586387 3.082008 0.066778
v 0.481910 3.107584 -0.103832
v 0.370452 3.109925 -0.333857
v 0.203956 3.134948 -0.455263
v -0.012821 3.167773 -0.502869
v -0.232711 3.179087 -0.450147
v -0.390944 3.204651 -0.316808
v -0.488069 3.242271 -0.071121
v -0.464031 3.248907 0.162185
v -0.347844 3.246593 0.353224
v -0.211904 3.226468 0.449396
v 0.016974 3.187549 0.492804
v 0.244090 3.177222 0.420952
v 0.342882 3.163561 0.354441
v 0.457881 3.134081 0.181576
v 0.491596 3.109369 0.000000
v 0.389966 3.109434 -0.083462
v 0.325051 3.104311 -0.235129
v 0.229175 3.112571 -0.321150
v 0.104427 3.134531 -0.389770
v -0.111945 3.161149 -0.392039
v -0.235486 3.172561 -0.332141
v -0.344660 3.197330 -0.204649
v -0.395296 3.220286 -0.026588
v -0.374732 3.226671 0.131425
v -0.286952 3.224830 0.279559
v -0.135474 3.200684 0.371461
v -0.006762 3.183806 0.393591
v 0.179859 3.177086 0.348667
v 0.309321 3.156697 0.252033
v 0.405253 3.122162 0.039675
v 0.293958 3.091908 -0.062081
v 0.190069 3.069899 -0.174276
v -0.067816 3.115436 -0.295686
v -0.170547 3.129069 -0.248810
v -0.253770 3.148458 -0.155910
v -0.292255 3.164594 -0.029371
v -0.271680 3.167445 0.104217
v -0.200357 3.145063 0.162979
v -0.134278 3.129026 0.192258
v -0.028966 3.107492 0.200051
v -0.006632 3.147468 0.292012
v 0.209324 3.133009 0.216296
v 0.294385 3.099779 0.029871
v 0.197614 3.064950 -0.041499
v -0.023962 3.026921 -0.097152
v 0.002367 3.058864 -0.196286
v -0.074022 3.069236 -0.182154
v -0.059611 3.032036 -0.076121
v -0.090355 3.040644 -0.021793
v -0.090468 3.044782 0.020099
v 0.117909 3.082202 0.136338
v 0.197939 3.074746 0.037394
v 0.072563 3.023045 -0.075153
v -0.043381 3.049792 0.085025
v 0.036316 3.047369 0.092571
v 0.095725 3.037278 0.039098
v 0.102485 3.028977 -0.021397
v -0.011681 1.743942 -0.000000
v 0.006772 3.002461 -0.000700
#478 Vertices

vn 0.080527 -0.989068 -0.123530
vn -0.074468 -0.992208 -0.099885
vn 0.021444 -0.993166 -0.114722
vn 0.112126 -0.991400 -0.067475
vn -0.100848 -0.992636 -0.067108
vn -0.122824 -0.991936 0.031276
vn -0.118167 -0.992547 0.029786
vn 0.024381 -0.992823 0.117079
vn -0.036036 -0.993101 0.111588
vn 0.121697 -0.991942 0.035234
vn 0.081055 -0.991502 0.101752
vn 0.168025 -0.984607 0.048124
vn 0.065348 -0.988490 -0.136445
vn 0.160291 -0.984448 -0.071897
vn -0.062352 -0.986046 -0.154352
vn -0.204865 -0.973167 -0.104764
vn -0.188213 -0.981296 0.040413
vn -0.123456 -0.982541 0.139180
vn 0.003487 -0.976725 0.214466
vn 0.102721 -0.986518 0.127400
vn 0.241804 -0.962036 -0.126558
vn 0.288018 -0.957585 -0.008700
vn 0.159743 -0.970555 -0.180293
vn 0.056663 -0.963352 -0.262188
vn -0.045126 -0.967248 -0.249791
vn -0.162587 -0.962374 -0.217719
vn -0.320187 -0.946601 -0.037765
vn -0.317322 -0.940752 0.119551
vn -0.241473 -0.951040 0.192908
vn -0.118951 -0.945032 0.304575
vn 0.145876 -0.958718 0.244089
vn 0.242739 -0.952671 0.183020
vn 0.273578 -0.959087 0.072847
vn 0.369784 -0.922052 -0.114370
vn 0.286361 -0.930485 -0.228464
vn 0.141174 -0.933245 -0.330338
vn -0.012955 -0.932301 -0.361452
vn -0.160432 -0.931353 -0.326870
vn -0.258335 -0.937501 -0.233142
vn -0.342352 -0.927612 -0.149433
vn 0.015054 -0.938170 0.345847
vn 0.164237 -0.933197 0.319640
vn 0.315672 -0.915730 0.248575
vn 0.377306 -0.913168 0.154159
vn 0.410239 -0.911718 0.021758
vn 0.440988 -0.885795 -0.144558
vn 0.514515 -0.853525 -0.082281
vn 0.425938 -0.863176 -0.271116
vn 0.364235 -0.846385 -0.388542
vn 0.257757 -0.867831 -0.424772
vn 0.151935 -0.851513 -0.501838
vn 0.047004 -0.867964 -0.494397
vn -0.077581 -0.848001 -0.524286
vn -0.163803 -0.862960 -0.477984
vn -0.284162 -0.842811 -0.457079
vn -0.344300 -0.861207 -0.373872
vn -0.440634 -0.846217 -0.299596
vn -0.514914 -0.852796 -0.087193
vn -0.427200 -0.902926 0.047162
vn -0.482107 -0.848242 0.219220
vn -0.393406 -0.874509 0.283664
vn -0.268016 -0.894503 0.357816
vn -0.165991 -0.853622 0.493738
vn -0.053178 -0.865850 0.497469
vn 0.074930 -0.846766 0.526662
vn 0.177367 -0.865296 0.468832
vn 0.328708 -0.838877 0.433863
vn 0.394637 -0.842969 0.365601
vn 0.488972 -0.816145 0.307918
vn 0.506111 -0.832446 0.225579
vn 0.550702 -0.823789 0.134531
vn 0.582807 -0.780916 -0.224734
vn -0.534616 -0.818277 -0.211205
vn -0.594848 -0.803625 0.018489
vn -0.576076 -0.804670 0.143673
vn -0.425295 -0.773286 0.470269
vn -0.308295 -0.787423 0.533777
vn 0.583411 -0.811836 0.023554
vn 0.675659 -0.728038 -0.115957
vn 0.586186 -0.718271 -0.374797
vn 0.475600 -0.738239 -0.478338
vn 0.348070 -0.744838 -0.569267
vn 0.206737 -0.746279 -0.632714
vn 0.066622 -0.749793 -0.658310
vn -0.078921 -0.757545 -0.647995
vn -0.221187 -0.748425 -0.625249
vn -0.346952 -0.735128 -0.582419
vn -0.462170 -0.732195 -0.500289
vn -0.562461 -0.727412 -0.393076
vn -0.648458 -0.710277 -0.273877
vn -0.694818 -0.707840 -0.127246
vn -0.716916 -0.697109 0.008383
vn -0.707210 -0.689766 0.155168
vn -0.644612 -0.706994 0.290920
vn -0.556682 -0.730321 0.395901
vn -0.224064 -0.719837 0.656986
vn -0.071039 -0.740219 0.668602
vn 0.075649 -0.744901 0.662872
vn 0.224753 -0.750038 0.622036
vn 0.379447 -0.750654 0.540868
vn 0.496903 -0.738777 0.455297
vn 0.574685 -0.727577 0.374657
vn 0.632374 -0.722649 0.279072
vn 0.666201 -0.725570 0.172410
vn 0.685803 -0.727189 0.029494
vn 0.706647 -0.657964 -0.260256
vn -0.521255 -0.627021 0.578911
vn -0.393046 -0.658136 0.642162
vn 0.785483 -0.604922 -0.130715
vn 0.696210 -0.566631 -0.440705
vn 0.574655 -0.585638 -0.571664
vn 0.422653 -0.591621 -0.686549
vn 0.251403 -0.592983 -0.764962
vn 0.085935 -0.606515 -0.790414
vn -0.086277 -0.637142 -0.765902
vn -0.229866 -0.647122 -0.726908
vn -0.407972 -0.586614 -0.699602
vn -0.548058 -0.584574 -0.598252
vn -0.669470 -0.575748 -0.469388
vn -0.763566 -0.561672 -0.318577
vn -0.824314 -0.545041 -0.153091
vn -0.848737 -0.528590 0.015447
vn -0.835150 -0.521598 0.174529
vn -0.780042 -0.530488 0.331839
vn -0.679431 -0.559440 0.474764
vn -0.283213 -0.564748 0.775145
vn -0.095219 -0.595969 0.797342
vn 0.085449 -0.603562 0.792724
vn 0.259090 -0.609349 0.749377
vn 0.438298 -0.614314 0.656135
vn 0.583039 -0.607662 0.539270
vn 0.675561 -0.595157 0.435207
vn 0.744510 -0.586046 0.319774
vn 0.782093 -0.593420 0.190220
vn 0.775736 -0.629301 0.047056
vn 0.813274 -0.499294 -0.298816
vn -0.095750 -0.475922 -0.874260
vn -0.269164 -0.506743 -0.819000
vn -0.604845 -0.458264 0.651273
vn -0.457459 -0.496402 0.737778
vn 0.873388 -0.486649 0.019131
vn 0.891404 -0.428494 -0.147618
vn 0.774030 -0.403320 -0.488069
vn 0.644295 -0.419083 -0.639729
vn 0.478152 -0.420040 -0.771322
vn 0.288190 -0.420789 -0.860164
vn 0.094059 -0.435210 -0.895402
vn -0.448926 -0.421050 -0.788151
vn -0.603876 -0.429085 -0.671729
vn -0.740177 -0.415972 -0.528304
vn -0.845620 -0.396962 -0.356859
vn -0.910660 -0.375813 -0.171646
vn -0.932978 -0.359753 0.011359
vn -0.916510 -0.357861 0.178731
vn -0.864103 -0.369583 0.341664
vn -0.760734 -0.398425 0.512388
vn -0.322852 -0.408778 0.853620
vn -0.120627 -0.436448 0.891607
vn 0.089432 -0.443386 0.891858
vn 0.287548 -0.446887 0.847118
vn 0.482272 -0.448692 0.752389
vn 0.645501 -0.449195 0.617700
vn 0.752039 -0.443085 0.487968
vn 0.829163 -0.433486 0.352957
vn 0.879584 -0.434112 0.194624
vn 0.891989 -0.301339 -0.336973
vn -0.094005 -0.293947 -0.951188
vn -0.282923 -0.322039 -0.903463
vn -0.657076 -0.273678 0.702390
vn -0.497259 -0.301462 0.813545
vn 0.956001 -0.293361 0.001314
vn 0.952027 -0.256411 -0.167027
vn 0.804666 -0.238122 -0.543885
vn 0.678753 -0.243124 -0.692954
vn 0.503607 -0.239724 -0.830008
vn 0.305013 -0.241038 -0.921340
vn 0.102466 -0.248070 -0.963308
vn -0.495050 -0.254729 -0.830685
vn -0.648167 -0.260303 -0.715627
vn -0.791786 -0.243633 -0.560106
vn -0.900453 -0.222680 -0.373628
vn -0.962445 -0.203962 -0.179161
vn -0.980833 -0.194708 0.007485
vn -0.963617 -0.197968 0.179583
vn -0.912162 -0.209902 0.351997
vn -0.810739 -0.225387 0.540281
vn -0.311741 -0.239563 0.919471
vn -0.120751 -0.257691 0.958653
vn 0.100540 -0.263483 0.959411
vn 0.317067 -0.268744 0.909530
vn 0.525606 -0.269255 0.806995
vn 0.694272 -0.265674 0.668882
vn 0.810111 -0.263518 0.523715
vn 0.891531 -0.259940 0.370950
vn 0.946492 -0.257229 0.194899
vn 0.928900 -0.135888 -0.344498
vn 0.980919 -0.120161 -0.152836
vn 0.831778 -0.134953 -0.538454
vn 0.685475 -0.111282 -0.719542
vn 0.497953 -0.090859 -0.862431
vn 0.304389 -0.075998 -0.949511
vn 0.116213 -0.088480 -0.989275
vn -0.082861 -0.126518 -0.988497
vn -0.276371 -0.138462 -0.951025
vn -0.480795 -0.128869 -0.867311
vn -0.669090 -0.115213 -0.734196
vn -0.822272 -0.091781 -0.561645
vn -0.924486 -0.064745 -0.375677
vn -0.982047 -0.057448 -0.179677
vn -0.998561 -0.053072 0.007731
vn -0.981401 -0.052133 0.184755
vn -0.932896 -0.061874 0.354791
vn -0.831532 -0.085670 0.548831
vn -0.683455 -0.105837 0.722279
vn -0.519358 -0.118154 0.846349
vn -0.335054 -0.109965 0.935760
vn -0.116863 -0.105476 0.987531
vn 0.106414 -0.110921 0.988116
vn 0.344103 -0.108508 0.932641
vn 0.554951 -0.099134 0.825955
vn 0.724341 -0.103968 0.681558
vn 0.838845 -0.107043 0.533743
vn 0.918407 -0.112554 0.379289
vn 0.971192 -0.121231 0.205156
vn 0.991036 -0.132663 0.015773
vn 0.935289 0.027285 -0.352831
vn 0.988698 0.020355 -0.148532
vn 0.843077 -0.028068 -0.537060
vn 0.690414 -0.010721 -0.723335
vn 0.526792 -0.009770 -0.849938
vn 0.319519 0.068380 -0.945110
vn 0.120548 0.059340 -0.990932
vn -0.058372 -0.003032 -0.998290
vn -0.266711 -0.007826 -0.963745
vn -0.477764 -0.007974 -0.878452
vn -0.665934 -0.003370 -0.746003
vn -0.803575 -0.007451 -0.595157
vn -0.914205 0.073688 -0.398497
vn -0.977083 0.068807 -0.201429
vn -0.997570 0.068897 -0.010326
vn -0.982427 0.072296 0.172077
vn -0.931483 0.073601 0.356262
vn -0.844742 0.019800 0.534807
vn -0.692380 0.016279 0.721350
vn -0.523501 0.014369 0.851904
vn -0.333757 0.011839 0.942585
vn -0.121747 0.009520 0.992516
vn 0.098357 0.007007 0.995126
vn 0.306567 -0.009783 0.951799
vn 0.534811 0.058958 0.842912
vn 0.709142 0.037707 0.704057
vn 0.831316 0.021485 0.555384
vn 0.915995 0.009038 0.401088
vn 0.973414 0.002021 0.229044
vn 0.999267 -0.002489 0.038208
vn 0.811675 0.142557 -0.566446
vn 0.676992 0.139044 -0.722737
vn 0.493494 0.146149 -0.857382
vn -0.087245 0.154039 -0.984205
vn -0.263523 0.142340 -0.954094
vn -0.473069 0.147206 -0.868640
vn -0.659163 0.150484 -0.736789
vn -0.805220 0.150824 -0.573475
vn -0.804850 0.168065 0.569184
vn -0.670710 0.155448 0.725248
vn -0.502171 0.158460 0.850126
vn -0.316315 0.161200 0.934858
vn -0.106072 0.161799 0.981106
vn 0.110239 0.160143 0.980919
vn 0.333338 0.152973 0.930314
vn 0.896562 0.276552 -0.345971
vn 0.951834 0.265998 -0.152501
vn 0.800630 0.303802 -0.516426
vn 0.651344 0.326635 -0.684880
vn 0.482326 0.323255 -0.814167
vn 0.297417 0.292133 -0.908956
vn 0.117380 0.277417 -0.953552
vn -0.057158 0.295478 -0.953638
vn -0.247202 0.315301 -0.916230
vn -0.445800 0.325184 -0.833977
vn -0.619020 0.326612 -0.714241
vn -0.757444 0.316575 -0.571015
vn -0.869836 0.288954 -0.399864
vn -0.940411 0.265537 -0.212408
vn -0.966261 0.257234 -0.013065
vn -0.948942 0.263687 0.173139
vn -0.894163 0.273453 0.354537
vn -0.790845 0.300335 0.533257
vn -0.632210 0.315516 0.707644
vn -0.465600 0.319429 0.825337
vn -0.289300 0.326732 0.899751
vn -0.090579 0.332847 0.938620
vn 0.112649 0.332137 0.936480
vn 0.312927 0.324306 0.892694
vn 0.512340 0.289425 0.808543
vn 0.673483 0.262615 0.690981
vn 0.801123 0.249112 0.544192
vn 0.890534 0.244618 0.383551
vn 0.946140 0.244249 0.212512
vn 0.969343 0.243799 0.030593
vn 0.796570 0.520237 -0.307945
vn 0.850094 0.506395 -0.144583
vn 0.706463 0.541713 -0.455474
vn 0.587848 0.548979 -0.594186
vn 0.445609 0.537983 -0.715547
vn 0.281923 0.515851 -0.808961
vn 0.104707 0.494428 -0.862889
vn -0.057360 0.494990 -0.867003
vn -0.219747 0.508554 -0.832517
vn -0.393919 0.520645 -0.757467
vn -0.539799 0.521198 -0.661036
vn -0.665999 0.510149 -0.544236
vn -0.767489 0.502632 -0.397896
vn -0.845368 0.489110 -0.214765
vn -0.876897 0.480539 -0.011587
vn -0.859982 0.480646 0.171492
vn -0.803694 0.486851 0.342130
vn -0.702935 0.497702 0.508109
vn -0.560055 0.501114 0.659714
vn -0.401168 0.499777 0.767650
vn -0.239969 0.507188 0.827753
vn -0.063985 0.515513 0.854489
vn 0.112076 0.515592 0.849473
vn 0.284194 0.508610 0.812742
vn 0.453975 0.495477 0.740547
vn 0.608238 0.486296 0.627345
vn 0.724530 0.495894 0.478692
vn 0.803092 0.504550 0.316972
vn 0.842863 0.510892 0.169031
vn 0.860355 0.509249 0.021327
vn 0.629401 0.736282 -0.248480
vn 0.678840 0.725018 -0.116299
vn 0.564984 0.743125 -0.358550
vn 0.474802 0.761732 -0.440825
vn 0.377053 0.749479 -0.544161
vn 0.253161 0.731293 -0.633341
vn 0.103595 0.703709 -0.702895
vn -0.046248 0.680844 -0.730967
vn -0.182096 0.695460 -0.695109
vn -0.315954 0.682461 -0.659105
vn -0.415674 0.712409 -0.565410
vn -0.529208 0.692863 -0.489775
vn -0.622603 0.689047 -0.370917
vn -0.698965 0.683300 -0.211068
vn -0.735728 0.677098 -0.015604
vn -0.721105 0.675891 0.152244
vn -0.667217 0.681185 0.301345
vn -0.577510 0.683771 0.446026
vn -0.455559 0.680650 0.573743
vn -0.312866 0.671680 0.671536
vn -0.171446 0.674751 0.717856
vn -0.028117 0.682302 0.730530
vn 0.108998 0.684216 0.721088
vn 0.240998 0.681614 0.690886
vn 0.380952 0.675580 0.631243
vn 0.518749 0.681620 0.516036
vn 0.606292 0.707988 0.362164
vn 0.649572 0.730521 0.210701
vn 0.696122 0.706804 0.125868
vn 0.679037 0.733858 0.019008
vn 0.428916 0.887014 -0.170990
vn 0.475753 0.878750 -0.038175
vn 0.471619 0.835864 -0.280904
vn 0.338991 0.906689 -0.250997
vn 0.321165 0.878373 -0.353997
vn 0.234695 0.880200 -0.412513
vn 0.109890 0.864325 -0.490782
vn -0.028833 0.820815 -0.570466
vn -0.141488 0.813024 -0.564777
vn -0.253569 0.838331 -0.482601
vn -0.363208 0.823243 -0.436292
vn -0.459825 0.823980 -0.331087
vn -0.519572 0.830714 -0.199900
vn -0.542933 0.839700 -0.011298
vn -0.566201 0.815497 0.119923
vn -0.495671 0.834034 0.242276
vn -0.435223 0.824229 0.362254
vn -0.341049 0.816115 0.466520
vn -0.205772 0.810600 0.548256
vn -0.111095 0.796590 0.594225
vn 0.024662 0.827392 0.561082
vn 0.099882 0.809508 0.578551
vn 0.189278 0.841049 0.506765
vn 0.283283 0.845556 0.452533
vn 0.403190 0.848442 0.342906
vn 0.473907 0.856407 0.204889
vn 0.496057 0.861309 0.109880
vn 0.492394 0.869865 0.029700
vn 0.369402 0.928681 -0.033069
vn -0.024130 0.892249 -0.450898
vn -0.138950 0.901156 -0.410621
vn -0.215884 0.898549 -0.382105
vn -0.284266 0.919590 -0.271196
vn -0.353137 0.916273 -0.189045
vn -0.341374 0.939889 -0.008479
vn -0.345835 0.927410 0.142507
vn -0.317065 0.912956 0.256867
vn -0.236417 0.901736 0.361909
vn -0.115786 0.890612 0.439778
vn 0.032893 0.896580 0.441658
vn 0.121490 0.902215 0.413822
vn 0.196330 0.931853 0.305130
vn 0.296736 0.925289 0.236194
vn 0.366487 0.923683 0.111784
vn 0.416490 0.907658 0.051901
vn 0.435608 0.899993 0.016072
vn 0.268498 0.952180 -0.145817
vn 0.246624 0.947570 -0.203194
vn 0.145173 0.944591 -0.294402
vn -0.010213 0.955997 -0.293199
vn -0.089488 0.952034 -0.292613
vn -0.098802 0.969542 -0.224111
vn -0.147956 0.984934 -0.089525
vn -0.171326 0.983126 0.064117
vn -0.151284 0.968445 0.198058
vn -0.044871 0.952783 0.300318
vn 0.079654 0.949081 0.304796
vn 0.118824 0.949088 0.291740
vn 0.341930 0.939421 -0.023934
vn 0.130729 0.990819 -0.034459
vn 0.082642 0.996435 0.016932
vn 0.142074 0.989665 0.019469
vn 0.106437 0.994293 -0.007250
vn 0.047913 0.996160 -0.073281
vn 0.121654 0.987482 -0.100394
vn 0.109681 0.990191 -0.086555
vn 0.067287 0.996978 -0.038829
vn 0.075887 0.997116 -0.000206
vn 0.119737 0.990613 0.065951
vn 0.104264 0.990539 0.089232
vn 0.116998 0.988415 0.096682
vn 0.194555 0.980728 0.017900
vn 0.248329 0.967854 -0.039892
vn 0.185965 0.979530 -0.077057
vn -0.092207 0.992858 0.075696
vn -0.104235 0.994341 -0.020529
vn -0.028349 0.970323 0.240145
vn 0.062883 0.954032 0.293035
vn 0.144838 0.962525 0.229275
vn 0.262210 0.957798 0.117764
vn 0.367472 0.929427 0.033621
vn 0.368706 0.928018 -0.053288
vn 0.349625 0.926901 -0.136448
vn 0.314005 0.922595 -0.224097
vn 0.229208 0.933600 -0.275419
vn 0.057301 0.973710 -0.220467
vn 0.000472 0.985754 -0.168193
vn -0.043944 0.980279 -0.192673
vn -0.019092 0.990788 -0.134067
vn -0.181460 0.971346 0.153491
vn -0.221119 0.974541 -0.037106
vn 0.176630 0.906495 0.383495
vn 0.347659 0.900284 0.261957
vn 0.455917 0.881134 0.125467
vn 0.502550 0.864218 -0.023888
vn 0.487540 0.862190 -0.137597
vn 0.416339 0.865061 -0.279879
vn 0.276154 0.884636 -0.375709
vn 0.096851 0.905222 -0.413755
vn 0.000436 0.919204 -0.393782
vn -0.129885 0.935219 -0.329387
vn -0.204186 0.957481 -0.203808
vn -0.306294 0.951906 -0.007685
vn -0.019046 0.952029 0.305414
vn 0.111429 0.916570 0.384036
vn 0.271784 0.901629 0.336449
vn 0.407359 0.893637 0.188339
vn 0.487071 0.872506 0.038665
vn 0.461219 0.866742 -0.189829
vn -0.147582 0.902332 -0.404989
vn -0.294819 0.924289 -0.242430
vn -0.201030 0.963598 0.176258
vn -0.327057 0.942477 -0.069066
vn 0.258692 0.881087 -0.395936
vn 0.003495 0.889634 -0.456661
vn -0.271764 0.914994 -0.298212
vn -0.000000 -1.000000 0.000000
vn 0.057049 0.990709 -0.123459
#478 Normals

vt 0.133333 0.033333
vt 0.333333 0.033333
vt 0.214205 0.066592
vt 0.000000 0.066667
vt 0.347858 0.066658
vt 0.533333 0.033333
vt 0.481200 0.066617
vt 0.733334 0.033333
vt 0.646728 0.062647
vt 0.966667 0.033333
vt 0.814221 0.066598
vt 0.924231 0.100403
vt 1.000000 0.066667
vt 1.000000 0.033333
vt 0.152841 0.102502
vt 0.000000 0.100000
vt 0.286148 0.102407
vt 0.385516 0.108839
vt 0.486468 0.102437
vt 0.620025 0.102342
vt 0.719056 0.109121
vt 0.819629 0.102519
vt 1.000000 0.100000
vt 0.051144 0.133371
vt 0.000000 0.133333
vt 0.117563 0.133402
vt 0.184078 0.133312
vt 0.250741 0.133286
vt 0.317523 0.133269
vt 0.449805 0.156276
vt 0.516507 0.155793
vt 0.583218 0.155829
vt 0.649881 0.155733
vt 0.785781 0.133861
vt 0.850429 0.133779
vt 0.917386 0.133454
vt 1.000000 0.133333
vt 0.000000 0.166667
vt 0.084390 0.167067
vt 0.150716 0.167092
vt 0.217451 0.166986
vt 0.284161 0.167049
vt 0.351105 0.167145
vt 0.400367 0.186757
vt 0.717733 0.167083
vt 0.786343 0.167045
vt 0.850706 0.166757
vt 0.917673 0.166666
vt 0.967322 0.185609
vt 1.000000 0.166667
vt 0.033333 0.200000
vt 0.000000 0.233333
vt 0.066956 0.217171
vt 0.100334 0.216991
vt 0.133643 0.217563
vt 0.166992 0.217709
vt 0.200326 0.217764
vt 0.233645 0.217692
vt 0.267181 0.217284
vt 0.300459 0.217194
vt 0.333834 0.217288
vt 0.367162 0.217494
vt 0.433781 0.217624
vt 0.484240 0.200580
vt 0.533565 0.217349
vt 0.567072 0.217047
vt 0.617762 0.200449
vt 0.666962 0.217021
vt 0.700385 0.216586
vt 0.733637 0.216384
vt 0.766801 0.216281
vt 0.800247 0.215698
vt 0.833801 0.215345
vt 0.867173 0.215174
vt 0.900678 0.215422
vt 0.934180 0.216028
vt 1.000000 0.233333
vt 0.033753 0.246690
vt 0.400000 0.233333
vt 0.466667 0.233333
vt 0.500000 0.233333
vt 0.600387 0.248126
vt 0.633444 0.247745
vt 0.966667 0.233333
vt 0.000000 0.266667
vt 0.066819 0.282786
vt 0.100135 0.283376
vt 0.133444 0.283602
vt 0.166767 0.283544
vt 0.200081 0.283469
vt 0.233384 0.283179
vt 0.266741 0.283009
vt 0.300158 0.282894
vt 0.333497 0.283011
vt 0.366869 0.282894
vt 0.400221 0.282890
vt 0.433578 0.282912
vt 0.466921 0.283460
vt 0.500068 0.283829
vt 0.533346 0.284070
vt 0.566709 0.284396
vt 0.666453 0.283268
vt 0.700063 0.283139
vt 0.733442 0.282968
vt 0.766656 0.282840
vt 0.799873 0.284152
vt 0.833234 0.285058
vt 0.866635 0.285230
vt 0.899986 0.285489
vt 0.933485 0.285097
vt 0.966804 0.284528
vt 1.000000 0.266667
vt 0.033529 0.316210
vt 0.600076 0.315513
vt 0.633462 0.315006
vt 0.000000 0.333333
vt 0.066885 0.350095
vt 0.100115 0.350657
vt 0.133392 0.350737
vt 0.166706 0.350634
vt 0.200007 0.350359
vt 0.233333 0.333333
vt 0.266667 0.333333
vt 0.300040 0.350261
vt 0.333390 0.350241
vt 0.366724 0.350348
vt 0.400086 0.350132
vt 0.433424 0.350336
vt 0.466837 0.348885
vt 0.500135 0.347767
vt 0.533345 0.348256
vt 0.566628 0.347811
vt 0.666809 0.349529
vt 0.700021 0.351134
vt 0.733395 0.350638
vt 0.766751 0.350683
vt 0.799998 0.350864
vt 0.833257 0.350889
vt 0.866758 0.349957
vt 0.900140 0.350093
vt 0.933465 0.350064
vt 0.966667 0.333333
vt 1.000000 0.333333
vt 0.033336 0.384598
vt 0.233312 0.382634
vt 0.266673 0.382810
vt 0.599956 0.383362
vt 0.633422 0.383349
vt 0.966670 0.383047
vt 0.000000 0.400000
vt 0.066728 0.417274
vt 0.100080 0.416951
vt 0.133368 0.416980
vt 0.166679 0.416461
vt 0.199985 0.416265
vt 0.299976 0.417795
vt 0.333403 0.417100
vt 0.366695 0.417269
vt 0.400000 0.417514
vt 0.433243 0.417300
vt 0.466591 0.415964
vt 0.499987 0.415794
vt 0.533395 0.416130
vt 0.566745 0.417456
vt 0.666774 0.418360
vt 0.700068 0.417996
vt 0.733373 0.417572
vt 0.766712 0.417380
vt 0.800089 0.416688
vt 0.833268 0.418074
vt 0.866607 0.418146
vt 0.899933 0.418090
vt 0.933248 0.417260
vt 1.000000 0.400000
vt 0.033406 0.450081
vt 0.233315 0.450934
vt 0.266650 0.451285
vt 0.600064 0.451459
vt 0.633395 0.451199
vt 0.966691 0.448098
vt 0.000000 0.466667
vt 0.066667 0.466667
vt 0.100000 0.466667
vt 0.133333 0.466667
vt 0.166667 0.466667
vt 0.200000 0.466667
vt 0.300000 0.466667
vt 0.333333 0.466667
vt 0.366667 0.466667
vt 0.400000 0.466667
vt 0.433333 0.466667
vt 0.466667 0.466667
vt 0.500000 0.466667
vt 0.533333 0.466667
vt 0.566667 0.466667
vt 0.666667 0.466667
vt 0.700000 0.466667
vt 0.733334 0.466667
vt 0.766667 0.466667
vt 0.800000 0.466667
vt 0.833334 0.466667
vt 0.866667 0.466667
vt 0.900000 0.466667
vt 0.933334 0.466667
vt 1.000000 0.466667
vt 0.033406 0.515961
vt 0.000000 0.533333
vt 0.066755 0.515413
vt 0.100092 0.515072
vt 0.133439 0.514142
vt 0.166703 0.514488
vt 0.200054 0.514831
vt 0.233391 0.515071
vt 0.266721 0.515035
vt 0.300048 0.514787
vt 0.333379 0.514389
vt 0.366679 0.514041
vt 0.399999 0.513595
vt 0.433323 0.513956
vt 0.466679 0.514984
vt 0.500094 0.514942
vt 0.533446 0.514555
vt 0.566762 0.514529
vt 0.600072 0.514581
vt 0.633374 0.514973
vt 0.666712 0.514599
vt 0.700076 0.513908
vt 0.733379 0.514374
vt 0.766672 0.514557
vt 0.799936 0.514536
vt 0.833265 0.514097
vt 0.866676 0.512792
vt 0.900018 0.511703
vt 0.933282 0.514210
vt 0.966699 0.516033
vt 1.000000 0.533333
vt 0.033030 0.589391
vt 0.000000 0.600000
vt 0.066667 0.566667
vt 0.100000 0.566667
vt 0.133333 0.566667
vt 0.166481 0.587945
vt 0.199850 0.588143
vt 0.233333 0.566667
vt 0.266667 0.566667
vt 0.300000 0.566667
vt 0.333333 0.566667
vt 0.366667 0.566667
vt 0.399618 0.587378
vt 0.433051 0.587316
vt 0.466508 0.587704
vt 0.499838 0.588215
vt 0.533234 0.588202
vt 0.566667 0.566667
vt 0.600000 0.566667
vt 0.633333 0.566667
vt 0.666667 0.566667
vt 0.700000 0.566667
vt 0.733334 0.566667
vt 0.766667 0.566667
vt 0.799803 0.587962
vt 0.833089 0.588509
vt 0.866498 0.589320
vt 0.899861 0.590290
vt 0.933233 0.590250
vt 0.966462 0.590105
vt 1.000000 0.600000
vt 0.066667 0.600000
vt 0.100000 0.600000
vt 0.133333 0.600000
vt 0.233333 0.600000
vt 0.266667 0.600000
vt 0.300000 0.600000
vt 0.333333 0.600000
vt 0.366667 0.600000
vt 0.566667 0.600000
vt 0.600000 0.600000
vt 0.633333 0.600000
vt 0.666667 0.600000
vt 0.700000 0.600000
vt 0.733334 0.600000
vt 0.766667 0.600000
vt 0.033333 0.633333
vt 0.000000 0.633333
vt 0.066667 0.633333
vt 0.100000 0.633333
vt 0.133333 0.633333
vt 0.166667 0.633333
vt 0.200000 0.633333
vt 0.233333 0.633333
vt 0.266667 0.633333
vt 0.300000 0.633333
vt 0.333333 0.633333
vt 0.366667 0.633333
vt 0.400000 0.633333
vt 0.433333 0.633333
vt 0.466667 0.633333
vt 0.500000 0.633333
vt 0.533333 0.633333
vt 0.566667 0.633333
vt 0.600000 0.633333
vt 0.633333 0.633333
vt 0.666667 0.633333
vt 0.700000 0.633333
vt 0.733334 0.633333
vt 0.766667 0.633333
vt 0.800000 0.633333
vt 0.833334 0.633333
vt 0.866667 0.633333
vt 0.900000 0.633333
vt 0.933334 0.633333
vt 0.966667 0.633333
vt 1.000000 0.633333
vt 0.033333 0.666667
vt 0.000000 0.666667
vt 0.066667 0.666667
vt 0.100000 0.666667
vt 0.133333 0.666667
vt 0.166667 0.666667
vt 0.200000 0.666667
vt 0.233333 0.666667
vt 0.266667 0.666667
vt 0.300000 0.666667
vt 0.333333 0.666667
vt 0.366667 0.666667
vt 0.400000 0.666667
vt 0.433333 0.666667
vt 0.466667 0.666667
vt 0.500000 0.666667
vt 0.533333 0.666667
vt 0.566667 0.666667
vt 0.600000 0.666667
vt 0.633333 0.666667
vt 0.666667 0.666667
vt 0.700000 0.666667
vt 0.733334 0.666667
vt 0.766667 0.666667
vt 0.800000 0.666667
vt 0.833334 0.666667
vt 0.866667 0.666667
vt 0.900000 0.666667
vt 0.933334 0.666667
vt 0.966667 0.666667
vt 1.000000 0.666667
vt 0.033333 0.700000
vt 0.000000 0.700000
vt 0.066667 0.700000
vt 0.100000 0.700000
vt 0.133333 0.700000
vt 0.166667 0.700000
vt 0.200000 0.700000
vt 0.233333 0.700000
vt 0.266667 0.700000
vt 0.300000 0.700000
vt 0.333333 0.700000
vt 0.366667 0.700000
vt 0.400000 0.700000
vt 0.433333 0.700000
vt 0.466667 0.700000
vt 0.500000 0.700000
vt 0.533333 0.700000
vt 0.566667 0.700000
vt 0.600000 0.700000
vt 0.633333 0.700000
vt 0.666667 0.700000
vt 0.700000 0.700000
vt 0.733334 0.700000
vt 0.766667 0.700000
vt 0.800000 0.700000
vt 0.833334 0.700000
vt 0.866667 0.700000
vt 0.900000 0.700000
vt 0.933334 0.700000
vt 0.966667 0.700000
vt 1.000000 0.700000
vt 0.033120 0.743571
vt 0.000000 0.733334
vt 0.066667 0.733334
vt 0.095373 0.742080
vt 0.132089 0.742243
vt 0.165672 0.745005
vt 0.199046 0.745788
vt 0.233333 0.733334
vt 0.266667 0.733334
vt 0.306664 0.729899
vt 0.366667 0.733334
vt 0.400000 0.733334
vt 0.433333 0.733334
vt 0.466667 0.733334
vt 0.500000 0.733334
vt 0.533333 0.733334
vt 0.566667 0.733334
vt 0.600000 0.733334
vt 0.633333 0.733334
vt 0.666667 0.733334
vt 0.700000 0.733334
vt 0.733334 0.733334
vt 0.766667 0.733334
vt 0.800000 0.733334
vt 0.833334 0.733334
vt 0.866667 0.733334
vt 0.900000 0.733334
vt 0.946571 0.730231
vt 1.000000 0.733334
vt 0.000000 0.800000
vt 0.233333 0.766667
vt 0.273893 0.764981
vt 0.366275 0.765287
vt 0.400000 0.766667
vt 0.433333 0.766667
vt 0.466667 0.766667
vt 0.517875 0.765198
vt 0.566667 0.766667
vt 0.600000 0.766667
vt 0.633333 0.766667
vt 0.676437 0.766908
vt 0.745598 0.765251
vt 0.799843 0.785117
vt 0.833093 0.783688
vt 0.864402 0.787940
vt 0.897210 0.794211
vt 0.937407 0.765273
vt 1.000000 0.800000
vt 0.038679 0.791517
vt 0.153434 0.797846
vt 0.200000 0.800000
vt 0.241751 0.798511
vt 0.318863 0.797413
vt 0.376872 0.798677
vt 0.444588 0.798746
vt 0.519494 0.798191
vt 0.589641 0.798895
vt 0.633333 0.800000
vt 0.671964 0.798458
vt 0.749414 0.798771
vt 0.949287 0.794869
vt 0.000000 0.833334
vt 0.084071 0.831604
vt 0.149709 0.831413
vt 0.219242 0.831325
vt 0.292362 0.831865
vt 0.359996 0.830850
vt 0.444450 0.830879
vt 0.519171 0.831542
vt 0.590913 0.831549
vt 0.645265 0.830940
vt 0.721881 0.830339
vt 0.800000 0.833334
vt 0.839453 0.831294
vt 0.907609 0.832185
vt 0.966667 0.833334
vt 1.000000 0.833334
vt 0.066667 0.866667
vt 0.000000 0.866667
vt 0.118587 0.868229
vt 0.174440 0.865607
vt 0.260402 0.865969
vt 0.316028 0.865684
vt 0.383560 0.865314
vt 0.456516 0.865257
vt 0.518984 0.865449
vt 0.587755 0.865271
vt 0.660256 0.866278
vt 0.713427 0.865234
vt 0.791413 0.865684
vt 0.857764 0.864863
vt 0.951887 0.862560
vt 1.000000 0.866667
vt 0.087565 0.914444
vt 0.000000 0.900000
vt 0.253434 0.900445
vt 0.315208 0.900560
vt 0.382325 0.899898
vt 0.451463 0.899871
vt 0.523000 0.901493
vt 0.575221 0.912847
vt 0.621123 0.920406
vt 0.692454 0.930686
vt 0.712200 0.900076
vt 0.837140 0.898166
vt 0.950803 0.900916
vt 1.000000 0.900000
vt 0.000000 0.933334
vt 0.266667 0.966667
vt 0.218423 0.935553
vt 0.283149 0.935018
vt 0.333333 0.966667
vt 0.433333 0.966667
vt 0.500000 0.966667
vt 0.826436 0.939205
vt 0.935875 0.933262
vt 1.000000 0.933334
vt 0.100000 0.966667
vt 0.000000 0.966667
vt 0.633333 0.966667
vt 0.766667 0.966667
vt 0.900000 0.966667
vt 1.000000 0.966667
vt 0.150000 0.000000
vt 0.350000 0.000000
vt 0.550000 0.000000
vt 0.750000 0.000000
vt 0.983333 0.000000
vt 0.016667 1.000000
vt 0.116667 1.000000
vt 0.283333 1.000000
vt 0.350000 1.000000
vt 0.450000 1.000000
vt 0.516667 1.000000
vt 0.650000 1.000000
vt 0.783333 1.000000
vt 0.916667 1.000000
#512 Texture Coordinates

usemtl blinn1SG
s 1
f 1/1/1 2/2/2 7/3/3
f 1/1/1 7/3/3 6/4/4
f 2/2/2 8/5/5 7/3/3
f 2/2/2 3/6/6 8/5/5
f 3/6/6 9/7/7 8/5/5
f 3/6/6 4/8/8 10/9/9
f 3/6/6 10/9/9 9/7/7
f 4/8/8 5/10/10 11/11/11
f 4/8/8 11/11/11 10/9/9
f 5/10/10 12/12/12 11/11/11
f 5/10/10 6/13/4 12/12/12
f 5/10/10 1/14/1 6/13/4
f 6/4/4 14/15/13 13/16/14
f 6/4/4 7/3/3 14/15/13
f 7/3/3 15/17/15 14/15/13
f 7/3/3 8/5/5 15/17/15
f 8/5/5 16/18/16 15/17/15
f 8/5/5 9/7/7 17/19/17
f 8/5/5 17/19/17 16/18/16
f 9/7/7 10/9/9 18/20/18
f 9/7/7 18/20/18 17/19/17
f 10/9/9 19/21/19 18/20/18
f 10/9/9 11/11/11 20/22/20
f 10/9/9 20/22/20 19/21/19
f 11/11/11 12/12/12 20/22/20
f 12/12/12 6/13/4 13/23/14
f 13/16/14 22/24/21 21/25/22
f 13/16/14 14/15/13 23/26/23
f 13/16/14 23/26/23 22/24/21
f 14/15/13 24/27/24 23/26/23
f 14/15/13 15/17/15 25/28/25
f 14/15/13 25/28/25 24/27/24
f 15/17/15 26/29/26 25/28/25
f 15/17/15 16/18/16 26/29/26
f 16/18/16 17/19/17 27/30/27
f 17/19/17 28/31/28 27/30/27
f 17/19/17 18/20/18 29/32/29
f 17/19/17 29/32/29 28/31/28
f 18/20/18 30/33/30 29/32/29
f 18/20/18 19/21/19 30/33/30
f 19/21/19 20/22/20 31/34/31
f 20/22/20 32/35/32 31/34/31
f 20/22/20 12/12/12 33/36/33
f 20/22/20 33/36/33 32/35/32
f 12/12/12 13/23/14 21/37/22
f 12/12/12 21/37/22 33/36/33
f 21/25/22 22/24/21 34/38/34
f 22/24/21 35/39/35 34/38/34
f 22/24/21 23/26/23 35/39/35
f 23/26/23 36/40/36 35/39/35
f 23/26/23 24/27/24 36/40/36
f 24/27/24 37/41/37 36/40/36
f 24/27/24 25/28/25 37/41/37
f 25/28/25 38/42/38 37/41/37
f 25/28/25 26/29/26 38/42/38
f 26/29/26 39/43/39 38/42/38
f 26/29/26 16/18/16 39/43/39
f 16/18/16 40/44/40 39/43/39
f 16/18/16 27/30/27 40/44/40
f 30/33/30 19/21/19 41/45/41
f 19/21/19 31/34/31 42/46/42
f 19/21/19 42/46/42 41/45/41
f 31/34/31 32/35/32 43/47/43
f 31/34/31 43/47/43 42/46/42
f 32/35/32 33/36/33 44/48/44
f 32/35/32 44/48/44 43/47/43
f 33/36/33 21/37/22 45/49/45
f 33/36/33 45/49/45 44/48/44
f 21/37/22 34/50/34 45/49/45
f 34/38/34 47/51/46 46/52/47
f 34/38/34 35/39/35 48/53/48
f 34/38/34 48/53/48 47/51/46
f 35/39/35 49/54/49 48/53/48
f 35/39/35 36/40/36 50/55/50
f 35/39/35 50/55/50 49/54/49
f 36/40/36 51/56/51 50/55/50
f 36/40/36 37/41/37 52/57/52
f 36/40/36 52/57/52 51/56/51
f 37/41/37 53/58/53 52/57/52
f 37/41/37 38/42/38 54/59/54
f 37/41/37 54/59/54 53/58/53
f 38/42/38 55/60/55 54/59/54
f 38/42/38 39/43/39 56/61/56
f 38/42/38 56/61/56 55/60/55
f 39/43/39 57/62/57 56/61/56
f 39/43/39 40/44/40 57/62/57
f 40/44/40 27/30/27 58/63/58
f 27/30/27 59/64/59 58/63/58
f 27/30/27 28/31/28 59/64/59
f 28/31/28 60/65/60 59/64/59
f 28/31/28 29/32/29 61/66/61
f 28/31/28 61/66/61 60/65/60
f 29/32/29 62/67/62 61/66/61
f 29/32/29 30/33/30 62/67/62
f 30/33/30 63/68/63 62/67/62
f 30/33/30 41/45/41 64/69/64
f 30/33/30 64/69/64 63/68/63
f 41/45/41 65/70/65 64/69/64
f 41/45/41 42/46/42 66/71/66
f 41/45/41 66/71/66 65/70/65
f 42/46/42 67/72/67 66/71/66
f 42/46/42 43/47/43 68/73/68
f 42/46/42 68/73/68 67/72/67
f 43/47/43 69/74/69 68/73/68
f 43/47/43 44/48/44 70/75/70
f 43/47/43 70/75/70 69/74/69
f 44/48/44 71/76/71 70/75/70
f 44/48/44 45/49/45 71/76/71
f 45/49/45 34/50/34 46/77/47
f 46/52/47 47/51/46 72/78/72
f 47/51/46 48/53/48 72/78/72
f 57/62/57 40/44/40 73/79/73
f 40/44/40 58/63/58 73/79/73
f 58/63/58 59/64/59 74/80/74
f 59/64/59 75/81/75 74/80/74
f 59/64/59 60/65/60 75/81/75
f 61/66/61 62/67/62 76/82/76
f 62/67/62 77/83/77 76/82/76
f 62/67/62 63/68/63 77/83/77
f 71/76/71 45/49/45 78/84/78
f 45/49/45 46/77/47 78/84/78
f 46/52/47 72/78/72 79/85/79
f 72/78/72 48/53/48 80/86/80
f 48/53/48 49/54/49 81/87/81
f 48/53/48 81/87/81 80/86/80
f 49/54/49 50/55/50 82/88/82
f 49/54/49 82/88/82 81/87/81
f 50/55/50 51/56/51 83/89/83
f 50/55/50 83/89/83 82/88/82
f 51/56/51 52/57/52 84/90/84
f 51/56/51 84/90/84 83/89/83
f 52/57/52 53/58/53 85/91/85
f 52/57/52 85/91/85 84/90/84
f 53/58/53 54/59/54 86/92/86
f 53/58/53 86/92/86 85/91/85
f 54/59/54 55/60/55 87/93/87
f 54/59/54 87/93/87 86/92/86
f 55/60/55 56/61/56 88/94/88
f 55/60/55 88/94/88 87/93/87
f 56/61/56 57/62/57 89/95/89
f 56/61/56 89/95/89 88/94/88
f 57/62/57 73/79/73 90/96/90
f 57/62/57 90/96/90 89/95/89
f 73/79/73 58/63/58 91/97/91
f 73/79/73 91/97/91 90/96/90
f 58/63/58 74/80/74 92/98/92
f 58/63/58 92/98/92 91/97/91
f 74/80/74 75/81/75 93/99/93
f 74/80/74 93/99/93 92/98/92
f 75/81/75 60/65/60 94/100/94
f 75/81/75 94/100/94 93/99/93
f 60/65/60 61/66/61 95/101/95
f 60/65/60 95/101/95 94/100/94
f 61/66/61 76/82/76 95/101/95
f 77/83/77 63/68/63 96/102/96
f 63/68/63 64/69/64 97/103/97
f 63/68/63 97/103/97 96/102/96
f 64/69/64 65/70/65 98/104/98
f 64/69/64 98/104/98 97/103/97
f 65/70/65 66/71/66 99/105/99
f 65/70/65 99/105/99 98/104/98
f 66/71/66 67/72/67 100/106/100
f 66/71/66 100/106/100 99/105/99
f 67/72/67 68/73/68 101/107/101
f 67/72/67 101/107/101 100/106/100
f 68/73/68 69/74/69 102/108/102
f 68/73/68 102/108/102 101/107/101
f 69/74/69 70/75/70 103/109/103
f 69/74/69 103/109/103 102/108/102
f 70/75/70 71/76/71 104/110/104
f 70/75/70 104/110/104 103/109/103
f 71/76/71 78/84/78 105/111/105
f 71/76/71 105/111/105 104/110/104
f 78/84/78 46/77/47 79/112/79
f 78/84/78 79/112/79 105/111/105
f 79/85/79 72/78/72 106/113/106
f 72/78/72 80/86/80 106/113/106
f 95/101/95 76/82/76 107/114/107
f 76/82/76 77/83/77 108/115/108
f 76/82/76 108/115/108 107/114/107
f 77/83/77 96/102/96 108/115/108
f 79/85/79 106/113/106 109/116/109
f 106/113/106 80/86/80 110/117/110
f 80/86/80 81/87/81 111/118/111
f 80/86/80 111/118/111 110/117/110
f 81/87/81 82/88/82 112/119/112
f 81/87/81 112/119/112 111/118/111
f 82/88/82 83/89/83 113/120/113
f 82/88/82 113/120/113 112/119/112
f 83/89/83 84/90/84 114/121/114
f 83/89/83 114/121/114 113/120/113
f 84/90/84 85/91/85 115/122/115
f 84/90/84 115/122/115 114/121/114
f 85/91/85 86/92/86 116/123/116
f 85/91/85 116/123/116 115/122/115
f 86/92/86 87/93/87 117/124/117
f 86/92/86 117/124/117 116/123/116
f 87/93/87 88/94/88 118/125/118
f 87/93/87 118/125/118 117/124/117
f 88/94/88 89/95/89 119/126/119
f 88/94/88 119/126/119 118/125/118
f 89/95/89 90/96/90 120/127/120
f 89/95/89 120/127/120 119/126/119
f 90/96/90 91/97/91 121/128/121
f 90/96/90 121/128/121 120/127/120
f 91/97/91 92/98/92 122/129/122
f 91/97/91 122/129/122 121/128/121
f 92/98/92 93/99/93 123/130/123
f 92/98/92 123/130/123 122/129/122
f 93/99/93 94/100/94 124/131/124
f 93/99/93 124/131/124 123/130/123
f 94/100/94 95/101/95 125/132/125
f 94/100/94 125/132/125 124/131/124
f 95/101/95 107/114/107 125/132/125
f 108/115/108 96/102/96 126/133/126
f 96/102/96 97/103/97 127/134/127
f 96/102/96 127/134/127 126/133/126
f 97/103/97 98/104/98 128/135/128
f 97/103/97 128/135/128 127/134/127
f 98/104/98 99/105/99 129/136/129
f 98/104/98 129/136/129 128/135/128
f 99/105/99 100/106/100 130/137/130
f 99/105/99 130/137/130 129/136/129
f 100/106/100 101/107/101 131/138/131
f 100/106/100 131/138/131 130/137/130
f 101/107/101 102/108/102 132/139/132
f 101/107/101 132/139/132 131/138/131
f 102/108/102 103/109/103 133/140/133
f 102/108/102 133/140/133 132/139/132
f 103/109/103 104/110/104 134/141/134
f 103/109/103 134/141/134 133/140/133
f 104/110/104 105/111/105 135/142/135
f 104/110/104 135/142/135 134/141/134
f 105/111/105 79/112/79 109/143/109
f 105/111/105 109/143/109 135/142/135
f 109/116/109 106/113/106 136/144/136
f 106/113/106 110/117/110 136/144/136
f 114/121/114 115/122/115 137/145/137
f 115/122/115 116/123/116 138/146/138
f 115/122/115 138/146/138 137/145/137
f 116/123/116 117/124/117 138/146/138
f 125/132/125 107/114/107 139/147/139
f 107/114/107 108/115/108 140/148/140
f 107/114/107 140/148/140 139/147/139
f 108/115/108 126/133/126 140/148/140
f 134/141/134 135/142/135 141/149/141
f 135/142/135 109/143/109 141/149/141
f 109/116/109 136/144/136 142/150/142
f 136/144/136 110/117/110 143/151/143
f 110/117/110 111/118/111 144/152/144
f 110/117/110 144/152/144 143/151/143
f 111/118/111 112/119/112 145/153/145
f 111/118/111 145/153/145 144/152/144
f 112/119/112 113/120/113 146/154/146
f 112/119/112 146/154/146 145/153/145
f 113/120/113 114/121/114 147/155/147
f 113/120/113 147/155/147 146/154/146
f 114/121/114 137/145/137 147/155/147
f 138/146/138 117/124/117 148/156/148
f 117/124/117 118/125/118 149/157/149
f 117/124/117 149/157/149 148/156/148
f 118/125/118 119/126/119 150/158/150
f 118/125/118 150/158/150 149/157/149
f 119/126/119 120/127/120 151/159/151
f 119/126/119 151/159/151 150/158/150
f 120/127/120 121/128/121 152/160/152
f 120/127/120 152/160/152 151/159/151
f 121/128/121 122/129/122 153/161/153
f 121/128/121 153/161/153 152/160/152
f 122/129/122 123/130/123 154/162/154
f 122/129/122 154/162/154 153/161/153
f 123/130/123 124/131/124 155/163/155
f 123/130/123 155/163/155 154/162/154
f 124/131/124 125/132/125 156/164/156
f 124/131/124 156/164/156 155/163/155
f 125/132/125 139/147/139 156/164/156
f 140/148/140 126/133/126 157/165/157
f 126/133/126 127/134/127 158/166/158
f 126/133/126 158/166/158 157/165/157
f 127/134/127 128/135/128 159/167/159
f 127/134/127 159/167/159 158/166/158
f 128/135/128 129/136/129 160/168/160
f 128/135/128 160/168/160 159/167/159
f 129/136/129 130/137/130 161/169/161
f 129/136/129 161/169/161 160/168/160
f 130/137/130 131/138/131 162/170/162
f 130/137/130 162/170/162 161/169/161
f 131/138/131 132/139/132 163/171/163
f 131/138/131 163/171/163 162/170/162
f 132/139/132 133/140/133 164/172/164
f 132/139/132 164/172/164 163/171/163
f 133/140/133 134/141/134 165/173/165
f 133/140/133 165/173/165 164/172/164
f 134/141/134 141/149/141 165/173/165
f 141/149/141 109/143/109 142/174/142
f 142/150/142 136/144/136 166/175/166
f 136/144/136 143/151/143 166/175/166
f 147/155/147 137/145/137 167/176/167
f 137/145/137 138/146/138 168/177/168
f 137/145/137 168/177/168 167/176/167
f 138/146/138 148/156/148 168/177/168
f 156/164/156 139/147/139 169/178/169
f 139/147/139 140/148/140 170/179/170
f 139/147/139 170/179/170 169/178/169
f 140/148/140 157/165/157 170/179/170
f 165/173/165 141/149/141 171/180/171
f 141/149/141 142/174/142 171/180/171
f 142/150/142 166/175/166 172/181/172
f 166/175/166 143/151/143 173/182/173
f 143/151/143 144/152/144 174/183/174
f 143/151/143 174/183/174 173/182/173
f 144/152/144 145/153/145 175/184/175
f 144/152/144 175/184/175 174/183/174
f 145/153/145 146/154/146 176/185/176
f 145/153/145 176/185/176 175/184/175
f 146/154/146 147/155/147 177/186/177
f 146/154/146 177/186/177 176/185/176
f 147/155/147 167/176/167 177/186/177
f 168/177/168 148/156/148 178/187/178
f 148/156/148 149/157/149 179/188/179
f 148/156/148 179/188/179 178/187/178
f 149/157/149 150/158/150 180/189/180
f 149/157/149 180/189/180 179/188/179
f 150/158/150 151/159/151 181/190/181
f 150/158/150 181/190/181 180/189/180
f 151/159/151 152/160/152 182/191/182
f 151/159/151 182/191/182 181/190/181
f 152/160/152 153/161/153 183/192/183
f 152/160/152 183/192/183 182/191/182
f 153/161/153 154/162/154 184/193/184
f 153/161/153 184/193/184 183/192/183
f 154/162/154 155/163/155 185/194/185
f 154/162/154 185/194/185 184/193/184
f 155/163/155 156/164/156 186/195/186
f 155/163/155 186/195/186 185/194/185
f 156/164/156 169/178/169 186/195/186
f 170/179/170 157/165/157 187/196/187
f 157/165/157 158/166/158 188/197/188
f 157/165/157 188/197/188 187/196/187
f 158/166/158 159/167/159 189/198/189
f 158/166/158 189/198/189 188/197/188
f 159/167/159 160/168/160 190/199/190
f 159/167/159 190/199/190 189/198/189
f 160/168/160 161/169/161 191/200/191
f 160/168/160 191/200/191 190/199/190
f 161/169/161 162/170/162 192/201/192
f 161/169/161 192/201/192 191/200/191
f 162/170/162 163/171/163 193/202/193
f 162/170/162 193/202/193 192/201/192
f 163/171/163 164/172/164 194/203/194
f 163/171/163 194/203/194 193/202/193
f 164/172/164 165/173/165 195/204/195
f 164/172/164 195/204/195 194/203/194
f 165/173/165 171/180/171 195/204/195
f 171/180/171 142/174/142 172/205/172
f 172/181/172 166/175/166 197/206/196
f 172/181/172 197/206/196 196/207/197
f 166/175/166 173/182/173 198/208/198
f 166/175/166 198/208/198 197/206/196
f 173/182/173 174/183/174 199/209/199
f 173/182/173 199/209/199 198/208/198
f 174/183/174 175/184/175 200/210/200
f 174/183/174 200/210/200 199/209/199
f 175/184/175 176/185/176 201/211/201
f 175/184/175 201/211/201 200/210/200
f 176/185/176 177/186/177 202/212/202
f 176/185/176 202/212/202 201/211/201
f 177/186/177 167/176/167 203/213/203
f 177/186/177 203/213/203 202/212/202
f 167/176/167 168/177/168 204/214/204
f 167/176/167 204/214/204 203/213/203
f 168/177/168 178/187/178 205/215/205
f 168/177/168 205/215/205 204/214/204
f 178/187/178 179/188/179 206/216/206
f 178/187/178 206/216/206 205/215/205
f 179/188/179 180/189/180 207/217/207
f 179/188/179 207/217/207 206/216/206
f 180/189/180 181/190/181 208/218/208
f 180/189/180 208/218/208 207/217/207
f 181/190/181 182/191/182 209/219/209
f 181/190/181 209/219/209 208/218/208
f 182/191/182 183/192/183 210/220/210
f 182/191/182 210/220/210 209/219/209
f 183/192/183 184/193/184 211/221/211
f 183/192/183 211/221/211 210/220/210
f 184/193/184 185/194/185 212/222/212
f 184/193/184 212/222/212 211/221/211
f 185/194/185 186/195/186 213/223/213
f 185/194/185 213/223/213 212/222/212
f 186/195/186 169/178/169 214/224/214
f 186/195/186 214/224/214 213/223/213
f 169/178/169 170/179/170 215/225/215
f 169/178/169 215/225/215 214/224/214
f 170/179/170 187/196/187 216/226/216
f 170/179/170 216/226/216 215/225/215
f 187/196/187 188/197/188 217/227/217
f 187/196/187 217/227/217 216/226/216
f 188/197/188 189/198/189 218/228/218
f 188/197/188 218/228/218 217/227/217
f 189/198/189 190/199/190 219/229/219
f 189/198/189 219/229/219 218/228/218
f 190/199/190 191/200/191 220/230/220
f 190/199/190 220/230/220 219/229/219
f 191/200/191 192/201/192 221/231/221
f 191/200/191 221/231/221 220/230/220
f 192/201/192 193/202/193 222/232/222
f 192/201/192 222/232/222 221/231/221
f 193/202/193 194/203/194 223/233/223
f 193/202/193 223/233/223 222/232/222
f 194/203/194 195/204/195 224/234/224
f 194/203/194 224/234/224 223/233/223
f 195/204/195 171/180/171 225/235/225
f 195/204/195 225/235/225 224/234/224
f 171/180/171 172/205/172 196/236/197
f 171/180/171 196/236/197 225/235/225
f 196/207/197 197/206/196 227/237/226
f 196/207/197 227/237/226 226/238/227
f 197/206/196 198/208/198 228/239/228
f 197/206/196 228/239/228 227/237/226
f 198/208/198 199/209/199 229/240/229
f 198/208/198 229/240/229 228/239/228
f 199/209/199 200/210/200 230/241/230
f 199/209/199 230/241/230 229/240/229
f 200/210/200 201/211/201 231/242/231
f 200/210/200 231/242/231 230/241/230
f 201/211/201 202/212/202 232/243/232
f 201/211/201 232/243/232 231/242/231
f 202/212/202 203/213/203 233/244/233
f 202/212/202 233/244/233 232/243/232
f 203/213/203 204/214/204 234/245/234
f 203/213/203 234/245/234 233/244/233
f 204/214/204 205/215/205 235/246/235
f 204/214/204 235/246/235 234/245/234
f 205/215/205 206/216/206 236/247/236
f 205/215/205 236/247/236 235/246/235
f 206/216/206 207/217/207 237/248/237
f 206/216/206 237/248/237 236/247/236
f 207/217/207 208/218/208 238/249/238
f 207/217/207 238/249/238 237/248/237
f 208/218/208 209/219/209 239/250/239
f 208/218/208 239/250/239 238/249/238
f 209/219/209 210/220/210 240/251/240
f 209/219/209 240/251/240 239/250/239
f 210/220/210 211/221/211 241/252/241
f 210/220/210 241/252/241 240/251/240
f 211/221/211 212/222/212 242/253/242
f 211/221/211 242/253/242 241/252/241
f 212/222/212 213/223/213 243/254/243
f 212/222/212 243/254/243 242/253/242
f 213/223/213 214/224/214 244/255/244
f 213/223/213 244/255/244 243/254/243
f 214/224/214 215/225/215 245/256/245
f 214/224/214 245/256/245 244/255/244
f 215/225/215 216/226/216 246/257/246
f 215/225/215 246/257/246 245/256/245
f 216/226/216 217/227/217 247/258/247
f 216/226/216 247/258/247 246/257/246
f 217/227/217 218/228/218 248/259/248
f 217/227/217 248/259/248 247/258/247
f 218/228/218 219/229/219 249/260/249
f 218/228/218 249/260/249 248/259/248
f 219/229/219 220/230/220 250/261/250
f 219/229/219 250/261/250 249/260/249
f 220/230/220 221/231/221 251/262/251
f 220/230/220 251/262/251 250/261/250
f 221/231/221 222/232/222 252/263/252
f 221/231/221 252/263/252 251/262/251
f 222/232/222 223/233/223 253/264/253
f 222/232/222 253/264/253 252/263/252
f 223/233/223 224/234/224 254/265/254
f 223/233/223 254/265/254 253/264/253
f 224/234/224 225/235/225 255/266/255
f 224/234/224 255/266/255 254/265/254
f 225/235/225 196/236/197 226/267/227
f 225/235/225 226/267/227 255/266/255
f 227/237/226 228/239/228 256/268/256
f 228/239/228 229/240/229 257/269/257
f 228/239/228 257/269/257 256/268/256
f 229/240/229 230/241/230 258/270/258
f 229/240/229 258/270/258 257/269/257
f 230/241/230 231/242/231 258/270/258
f 232/243/232 233/244/233 259/271/259
f 233/244/233 234/245/234 260/272/260
f 233/244/233 260/272/260 259/271/259
f 234/245/234 235/246/235 261/273/261
f 234/245/234 261/273/261 260/272/260
f 235/246/235 236/247/236 262/274/262
f 235/246/235 262/274/262 261/273/261
f 236/247/236 237/248/237 263/275/263
f 236/247/236 263/275/263 262/274/262
f 237/248/237 238/249/238 263/275/263
f 242/253/242 243/254/243 264/276/264
f 243/254/243 244/255/244 265/277/265
f 243/254/243 265/277/265 264/276/264
f 244/255/244 245/256/245 266/278/266
f 244/255/244 266/278/266 265/277/265
f 245/256/245 246/257/246 267/279/267
f 245/256/245 267/279/267 266/278/266
f 246/257/246 247/258/247 268/280/268
f 246/257/246 268/280/268 267/279/267
f 247/258/247 248/259/248 269/281/269
f 247/258/247 269/281/269 268/280/268
f 248/259/248 249/260/249 270/282/270
f 248/259/248 270/282/270 269/281/269
f 249/260/249 250/261/250 270/282/270
f 226/238/227 227/237/226 272/283/271
f 226/238/227 272/283/271 271/284/272
f 227/237/226 256/268/256 273/285/273
f 227/237/226 273/285/273 272/283/271
f 256/268/256 257/269/257 274/286/274
f 256/268/256 274/286/274 273/285/273
f 257/269/257 258/270/258 275/287/275
f 257/269/257 275/287/275 274/286/274
f 258/270/258 231/242/231 276/288/276
f 258/270/258 276/288/276 275/287/275
f 231/242/231 232/243/232 277/289/277
f 231/242/231 277/289/277 276/288/276
f 232/243/232 259/271/259 278/290/278
f 232/243/232 278/290/278 277/289/277
f 259/271/259 260/272/260 279/291/279
f 259/271/259 279/291/279 278/290/278
f 260/272/260 261/273/261 280/292/280
f 260/272/260 280/292/280 279/291/279
f 261/273/261 262/274/262 281/293/281
f 261/273/261 281/293/281 280/292/280
f 262/274/262 263/275/263 282/294/282
f 262/274/262 282/294/282 281/293/281
f 263/275/263 238/249/238 283/295/283
f 263/275/263 283/295/283 282/294/282
f 238/249/238 239/250/239 284/296/284
f 238/249/238 284/296/284 283/295/283
f 239/250/239 240/251/240 285/297/285
f 239/250/239 285/297/285 284/296/284
f 240/251/240 241/252/241 286/298/286
f 240/251/240 286/298/286 285/297/285
f 241/252/241 242/253/242 287/299/287
f 241/252/241 287/299/287 286/298/286
f 242/253/242 264/276/264 288/300/288
f 242/253/242 288/300/288 287/299/287
f 264/276/264 265/277/265 289/301/289
f 264/276/264 289/301/289 288/300/288
f 265/277/265 266/278/266 290/302/290
f 265/277/265 290/302/290 289/301/289
f 266/278/266 267/279/267 291/303/291
f 266/278/266 291/303/291 290/302/290
f 267/279/267 268/280/268 292/304/292
f 267/279/267 292/304/292 291/303/291
f 268/280/268 269/281/269 293/305/293
f 268/280/268 293/305/293 292/304/292
f 269/281/269 270/282/270 294/306/294
f 269/281/269 294/306/294 293/305/293
f 270/282/270 250/261/250 295/307/295
f 270/282/270 295/307/295 294/306/294
f 250/261/250 251/262/251 296/308/296
f 250/261/250 296/308/296 295/307/295
f 251/262/251 252/263/252 297/309/297
f 251/262/251 297/309/297 296/308/296
f 252/263/252 253/264/253 298/310/298
f 252/263/252 298/310/298 297/309/297
f 253/264/253 254/265/254 299/311/299
f 253/264/253 299/311/299 298/310/298
f 254/265/254 255/266/255 300/312/300
f 254/265/254 300/312/300 299/311/299
f 255/266/255 226/267/227 271/313/272
f 255/266/255 271/313/272 300/312/300
f 271/284/272 272/283/271 302/314/301
f 271/284/272 302/314/301 301/315/302
f 272/283/271 273/285/273 303/316/303
f 272/283/271 303/316/303 302/314/301
f 273/285/273 274/286/274 304/317/304
f 273/285/273 304/317/304 303/316/303
f 274/286/274 275/287/275 305/318/305
f 274/286/274 305/318/305 304/317/304
f 275/287/275 276/288/276 306/319/306
f 275/287/275 306/319/306 305/318/305
f 276/288/276 277/289/277 307/320/307
f 276/288/276 307/320/307 306/319/306
f 277/289/277 278/290/278 308/321/308
f 277/289/277 308/321/308 307/320/307
f 278/290/278 279/291/279 309/322/309
f 278/290/278 309/322/309 308/321/308
f 279/291/279 280/292/280 310/323/310
f 279/291/279 310/323/310 309/322/309
f 280/292/280 281/293/281 311/324/311
f 280/292/280 311/324/311 310/323/310
f 281/293/281 282/294/282 312/325/312
f 281/293/281 312/325/312 311/324/311
f 282/294/282 283/295/283 313/326/313
f 282/294/282 313/326/313 312/325/312
f 283/295/283 284/296/284 314/327/314
f 283/295/283 314/327/314 313/326/313
f 284/296/284 285/297/285 315/328/315
f 284/296/284 315/328/315 314/327/314
f 285/297/285 286/298/286 316/329/316
f 285/297/285 316/329/316 315/328/315
f 286/298/286 287/299/287 317/330/317
f 286/298/286 317/330/317 316/329/316
f 287/299/287 288/300/288 318/331/318
f 287/299/287 318/331/318 317/330/317
f 288/300/288 289/301/289 319/332/319
f 288/300/288 319/332/319 318/331/318
f 289/301/289 290/302/290 320/333/320
f 289/301/289 320/333/320 319/332/319
f 290/302/290 291/303/291 321/334/321
f 290/302/290 321/334/321 320/333/320
f 291/303/291 292/304/292 322/335/322
f 291/303/291 322/335/322 321/334/321
f 292/304/292 293/305/293 323/336/323
f 292/304/292 323/336/323 322/335/322
f 293/305/293 294/306/294 324/337/324
f 293/305/293 324/337/324 323/336/323
f 294/306/294 295/307/295 325/338/325
f 294/306/294 325/338/325 324/337/324
f 295/307/295 296/308/296 326/339/326
f 295/307/295 326/339/326 325/338/325
f 296/308/296 297/309/297 327/340/327
f 296/308/296 327/340/327 326/339/326
f 297/309/297 298/310/298 328/341/328
f 297/309/297 328/341/328 327/340/327
f 298/310/298 299/311/299 329/342/329
f 298/310/298 329/342/329 328/341/328
f 299/311/299 300/312/300 330/343/330
f 299/311/299 330/343/330 329/342/329
f 300/312/300 271/313/272 301/344/302
f 300/312/300 301/344/302 330/343/330
f 301/315/302 302/314/301 332/345/331
f 301/315/302 332/345/331 331/346/332
f 302/314/301 303/316/303 333/347/333
f 302/314/301 333/347/333 332/345/331
f 303/316/303 304/317/304 334/348/334
f 303/316/303 334/348/334 333/347/333
f 304/317/304 305/318/305 335/349/335
f 304/317/304 335/349/335 334/348/334
f 305/318/305 306/319/306 336/350/336
f 305/318/305 336/350/336 335/349/335
f 306/319/306 307/320/307 337/351/337
f 306/319/306 337/351/337 336/350/336
f 307/320/307 308/321/308 338/352/338
f 307/320/307 338/352/338 337/351/337
f 308/321/308 309/322/309 339/353/339
f 308/321/308 339/353/339 338/352/338
f 309/322/309 310/323/310 340/354/340
f 309/322/309 340/354/340 339/353/339
f 310/323/310 311/324/311 341/355/341
f 310/323/310 341/355/341 340/354/340
f 311/324/311 312/325/312 342/356/342
f 311/324/311 342/356/342 341/355/341
f 312/325/312 313/326/313 343/357/343
f 312/325/312 343/357/343 342/356/342
f 313/326/313 314/327/314 344/358/344
f 313/326/313 344/358/344 343/357/343
f 314/327/314 315/328/315 345/359/345
f 314/327/314 345/359/345 344/358/344
f 315/328/315 316/329/316 346/360/346
f 315/328/315 346/360/346 345/359/345
f 316/329/316 317/330/317 347/361/347
f 316/329/316 347/361/347 346/360/346
f 317/330/317 318/331/318 348/362/348
f 317/330/317 348/362/348 347/361/347
f 318/331/318 319/332/319 349/363/349
f 318/331/318 349/363/349 348/362/348
f 319/332/319 320/333/320 350/364/350
f 319/332/319 350/364/350 349/363/349
f 320/333/320 321/334/321 351/365/351
f 320/333/320 351/365/351 350/364/350
f 321/334/321 322/335/322 352/366/352
f 321/334/321 352/366/352 351/365/351
f 322/335/322 323/336/323 353/367/353
f 322/335/322 353/367/353 352/366/352
f 323/336/323 324/337/324 354/368/354
f 323/336/323 354/368/354 353/367/353
f 324/337/324 325/338/325 355/369/355
f 324/337/324 355/369/355 354/368/354
f 325/338/325 326/339/326 356/370/356
f 325/338/325 356/370/356 355/369/355
f 326/339/326 327/340/327 357/371/357
f 326/339/326 357/371/357 356/370/356
f 327/340/327 328/341/328 358/372/358
f 327/340/327 358/372/358 357/371/357
f 328/341/328 329/342/329 359/373/359
f 328/341/328 359/373/359 358/372/358
f 329/342/329 330/343/330 360/374/360
f 329/342/329 360/374/360 359/373/359
f 330/343/330 301/344/302 331/375/332
f 330/343/330 331/375/332 360/374/360
f 331/346/332 332/345/331 362/376/361
f 331/346/332 362/376/361 361/377/362
f 332/345/331 333/347/333 363/378/363
f 332/345/331 363/378/363 362/376/361
f 333/347/333 334/348/334 364/379/364
f 333/347/333 364/379/364 363/378/363
f 334/348/334 335/349/335 365/380/365
f 334/348/334 365/380/365 364/379/364
f 335/349/335 336/350/336 366/381/366
f 335/349/335 366/381/366 365/380/365
f 336/350/336 337/351/337 367/382/367
f 336/350/336 367/382/367 366/381/366
f 337/351/337 338/352/338 368/383/368
f 337/351/337 368/383/368 367/382/367
f 338/352/338 339/353/339 369/384/369
f 338/352/338 369/384/369 368/383/368
f 339/353/339 340/354/340 370/385/370
f 339/353/339 370/385/370 369/384/369
f 340/354/340 341/355/341 370/385/370
f 341/355/341 342/356/342 371/386/371
f 341/355/341 371/386/371 370/385/370
f 342/356/342 343/357/343 372/387/372
f 342/356/342 372/387/372 371/386/371
f 343/357/343 344/358/344 373/388/373
f 343/357/343 373/388/373 372/387/372
f 344/358/344 345/359/345 374/389/374
f 344/358/344 374/389/374 373/388/373
f 345/359/345 346/360/346 375/390/375
f 345/359/345 375/390/375 374/389/374
f 346/360/346 347/361/347 376/391/376
f 346/360/346 376/391/376 375/390/375
f 347/361/347 348/362/348 377/392/377
f 347/361/347 377/392/377 376/391/376
f 348/362/348 349/363/349 378/393/378
f 348/362/348 378/393/378 377/392/377
f 349/363/349 350/364/350 379/394/379
f 349/363/349 379/394/379 378/393/378
f 350/364/350 351/365/351 380/395/380
f 350/364/350 380/395/380 379/394/379
f 351/365/351 352/366/352 381/396/381
f 351/365/351 381/396/381 380/395/380
f 352/366/352 353/367/353 382/397/382
f 352/366/352 382/397/382 381/396/381
f 353/367/353 354/368/354 383/398/383
f 353/367/353 383/398/383 382/397/382
f 354/368/354 355/369/355 384/399/384
f 354/368/354 384/399/384 383/398/383
f 355/369/355 356/370/356 385/400/385
f 355/369/355 385/400/385 384/399/384
f 356/370/356 357/371/357 386/401/386
f 356/370/356 386/401/386 385/400/385
f 357/371/357 358/372/358 387/402/387
f 357/371/357 387/402/387 386/401/386
f 358/372/358 359/373/359 388/403/388
f 358/372/358 388/403/388 387/402/387
f 359/373/359 360/374/360 388/403/388
f 360/374/360 331/375/332 361/404/362
f 360/374/360 361/404/362 388/403/388
f 361/377/362 362/376/361 389/405/389
f 362/376/361 363/378/363 364/379/364
f 367/382/367 368/383/368 390/406/390
f 368/383/368 369/384/369 391/407/391
f 368/383/368 391/407/391 390/406/390
f 369/384/369 370/385/370 391/407/391
f 370/385/370 392/408/392 391/407/391
f 370/385/370 371/386/371 392/408/392
f 371/386/371 372/387/372 393/409/393
f 371/386/371 393/409/393 392/408/392
f 372/387/372 373/388/373 394/410/394
f 372/387/372 394/410/394 393/409/393
f 373/388/373 374/389/374 395/411/395
f 373/388/373 395/411/395 394/410/394
f 374/389/374 375/390/375 396/412/396
f 374/389/374 396/412/396 395/411/395
f 375/390/375 376/391/376 396/412/396
f 376/391/376 377/392/377 397/413/397
f 376/391/376 397/413/397 396/412/396
f 377/392/377 378/393/378 398/414/398
f 377/392/377 398/414/398 397/413/397
f 378/393/378 379/394/379 399/415/399
f 378/393/378 399/415/399 398/414/398
f 379/394/379 380/395/380 400/416/400
f 379/394/379 400/416/400 399/415/399
f 380/395/380 381/396/381 400/416/400
f 381/396/381 382/397/382 401/417/401
f 381/396/381 401/417/401 400/416/400
f 382/397/382 383/398/383 401/417/401
f 383/398/383 384/399/384 402/418/402
f 383/398/383 402/418/402 401/417/401
f 384/399/384 385/400/385 403/419/403
f 384/399/384 403/419/403 402/418/402
f 385/400/385 386/401/386 404/420/404
f 385/400/385 404/420/404 403/419/403
f 386/401/386 387/402/387 405/421/405
f 386/401/386 405/421/405 404/420/404
f 387/402/387 388/403/388 406/422/406
f 387/402/387 406/422/406 405/421/405
f 388/403/388 361/404/362 389/423/389
f 388/403/388 389/423/389 406/422/406
f 389/405/389 362/376/361 407/424/407
f 362/376/361 364/379/364 407/424/407
f 364/379/364 365/380/365 408/425/408
f 364/379/364 408/425/408 407/424/407
f 365/380/365 366/381/366 408/425/408
f 366/381/366 367/382/367 409/426/409
f 366/381/366 409/426/409 408/425/408
f 367/382/367 390/406/390 410/427/410
f 367/382/367 410/427/410 409/426/409
f 390/406/390 391/407/391 410/427/410
f 391/407/391 411/428/411 410/427/410
f 391/407/391 392/408/392 411/428/411
f 392/408/392 412/429/412 411/428/411
f 392/408/392 393/409/393 412/429/412
f 393/409/393 394/410/394 413/430/413
f 393/409/393 413/430/413 412/429/412
f 394/410/394 395/411/395 413/430/413
f 395/411/395 396/412/396 414/431/414
f 395/411/395 414/431/414 413/430/413
f 396/412/396 397/413/397 415/432/415
f 396/412/396 415/432/415 414/431/414
f 397/413/397 398/414/398 415/432/415
f 398/414/398 399/415/399 416/433/416
f 398/414/398 416/433/416 415/432/415
f 399/415/399 400/416/400 417/434/417
f 399/415/399 417/434/417 416/433/416
f 400/416/400 401/417/401 418/435/418
f 400/416/400 418/435/418 417/434/417
f 401/417/401 402/418/402 418/435/418
f 405/421/405 406/422/406 419/436/419
f 406/422/406 389/423/389 419/436/419
f 389/405/389 407/424/407 420/437/420
f 407/424/407 421/438/421 420/437/420
f 407/424/407 408/425/408 422/439/422
f 407/424/407 422/439/422 421/438/421
f 408/425/408 409/426/409 423/440/423
f 408/425/408 423/440/423 422/439/422
f 409/426/409 410/427/410 423/440/423
f 410/427/410 424/441/424 423/440/423
f 410/427/410 411/428/411 424/441/424
f 411/428/411 425/442/425 424/441/424
f 411/428/411 412/429/412 425/442/425
f 412/429/412 413/430/413 426/443/426
f 412/429/412 426/443/426 425/442/425
f 413/430/413 414/431/414 427/444/427
f 413/430/413 427/444/427 426/443/426
f 414/431/414 415/432/415 428/445/428
f 414/431/414 428/445/428 427/444/427
f 415/432/415 416/433/416 429/446/429
f 415/432/415 429/446/429 428/445/428
f 416/433/416 417/434/417 429/446/429
f 417/434/417 430/447/430 429/446/429
f 417/434/417 418/435/418 430/447/430
f 418/435/418 402/418/402 431/448/431
f 418/435/418 431/448/431 430/447/430
f 402/418/402 403/419/403 432/449/432
f 402/418/402 432/449/432 431/448/431
f 403/419/403 404/420/404 432/449/432
f 404/420/404 405/421/405 433/450/433
f 404/420/404 433/450/433 432/449/432
f 405/421/405 419/436/419 433/450/433
f 419/436/419 434/451/434 433/450/433
f 419/436/419 389/423/389 420/452/420
f 419/436/419 420/452/420 434/451/434
f 420/437/420 421/438/421 436/453/435
f 420/437/420 436/453/435 435/454/436
f 421/438/421 437/455/437 436/453/435
f 421/438/421 422/439/422 437/455/437
f 422/439/422 438/456/438 437/455/437
f 422/439/422 423/440/423 438/456/438
f 423/440/423 439/457/439 438/456/438
f 423/440/423 424/441/424 439/457/439
f 424/441/424 440/458/440 439/457/439
f 424/441/424 425/442/425 440/458/440
f 425/442/425 441/459/441 440/458/440
f 425/442/425 426/443/426 442/460/442
f 425/442/425 442/460/442 441/459/441
f 426/443/426 427/444/427 443/461/443
f 426/443/426 443/461/443 442/460/442
f 427/444/427 428/445/428 444/462/444
f 427/444/427 444/462/444 443/461/443
f 428/445/428 429/446/429 445/463/445
f 428/445/428 445/463/445 444/462/444
f 429/446/429 430/447/430 446/464/446
f 429/446/429 446/464/446 445/463/445
f 430/447/430 447/465/447 446/464/446
f 430/447/430 431/448/431 447/465/447
f 431/448/431 432/449/432 448/466/448
f 431/448/431 448/466/448 447/465/447
f 432/449/432 433/450/433 449/467/449
f 432/449/432 449/467/449 448/466/448
f 433/450/433 434/451/434 449/467/449
f 434/451/434 420/452/420 435/468/436
f 434/451/434 435/468/436 449/467/449
f 435/454/436 436/453/435 451/469/450
f 435/454/436 451/469/450 450/470/451
f 436/453/435 437/455/437 451/469/450
f 438/456/438 439/457/439 452/471/452
f 439/457/439 440/458/440 453/472/453
f 439/457/439 453/472/453 452/471/452
f 440/458/440 441/459/441 454/473/454
f 440/458/440 454/473/454 453/472/453
f 441/459/441 442/460/442 455/474/455
f 441/459/441 455/474/455 454/473/454
f 442/460/442 443/461/443 456/475/456
f 442/460/442 456/475/456 455/474/455
f 443/461/443 444/462/444 457/476/457
f 443/461/443 457/476/457 456/475/456
f 444/462/444 458/477/458 457/476/457
f 444/462/444 445/463/445 458/477/458
f 445/463/445 459/478/459 458/477/458
f 445/463/445 446/464/446 460/479/460
f 445/463/445 460/479/460 459/478/459
f 446/464/446 447/465/447 461/480/461
f 446/464/446 461/480/461 460/479/460
f 447/465/447 448/466/448 461/480/461
f 448/466/448 449/467/449 462/481/462
f 448/466/448 462/481/462 461/480/461
f 449/467/449 435/468/436 450/482/451
f 449/467/449 450/482/451 462/481/462
f 450/470/451 451/469/450 463/483/463
f 437/455/437 438/456/438 464/484/464
f 438/456/438 465/485/465 464/484/464
f 438/456/438 452/471/452 465/485/465
f 452/471/452 466/486/466 465/485/465
f 452/471/452 453/472/453 466/486/466
f 453/472/453 467/487/467 466/486/466
f 453/472/453 454/473/454 467/487/467
f 454/473/454 468/488/468 467/487/467
f 454/473/454 455/474/455 468/488/468
f 455/474/455 469/489/469 468/488/468
f 455/474/455 456/475/456 469/489/469
f 456/475/456 457/476/457 469/489/469
f 460/479/460 461/480/461 470/490/470
f 460/479/460 470/490/470 459/478/459
f 461/480/461 462/481/462 471/491/471
f 461/480/461 471/491/471 470/490/470
f 462/481/462 450/482/451 463/492/463
f 462/481/462 463/492/463 471/491/471
f 463/483/463 472/493/472 476/494/473
f 463/483/463 451/469/450 472/493/472
f 451/469/450 437/455/437 464/484/464
f 451/469/450 464/484/464 472/493/472
f 465/485/465 466/486/466 464/484/464
f 466/486/466 467/487/467 464/484/464
f 469/489/469 457/476/457 473/495/474
f 457/476/457 458/477/458 473/495/474
f 458/477/458 459/478/459 474/496/475
f 458/477/458 474/496/475 473/495/474
f 459/478/459 470/490/470 474/496/475
f 470/490/470 475/497/476 474/496/475
f 470/490/470 471/491/471 475/497/476
f 471/491/471 476/498/473 475/497/476
f 471/491/471 463/492/463 476/498/473
f 2/2/2 1/1/1 477/499/477
f 3/6/6 2/2/2 477/500/477
f 4/8/8 3/6/6 477/501/477
f 5/10/10 4/8/8 477/502/477
f 1/14/1 5/10/10 477/503/477
f 476/494/473 472/493/472 478/504/478
f 472/493/472 464/484/464 478/505/478
f 464/484/464 467/487/467 478/506/478
f 467/487/467 468/488/468 478/507/478
f 468/488/468 469/489/469 478/508/478
f 469/489/469 473/495/474 478/509/478
f 473/495/474 474/496/475 478/510/478
f 474/496/475 475/497/476 478/511/478
f 475/497/476 476/498/473 478/512/478
#952 polygons

o Mesh_1
v 0.094015 2.962228 -0.033564
v 0.054558 2.962228 -0.087872
v 0.024279 2.962228 -0.103300
v -0.042850 2.962228 -0.103300
v -0.097158 2.962228 -0.063843
v -0.117902 2.962228 0.000000
v -0.097158 2.962228 0.063843
v -0.042850 2.962228 0.103300
v 0.024279 2.962228 0.103300
v 0.078587 2.962228 0.063843
v 0.099331 2.962228 0.000000
v -0.495460 5.194114 0.015218
v -0.531524 5.175459 -0.030153
v -0.540236 5.156560 -0.010855
v -0.535430 5.152101 0.009574
v -0.510076 5.168429 0.035241
v -0.526180 5.190191 0.004801
v -0.320276 5.023942 0.040755
v -0.338208 5.014112 0.037475
v -0.360255 5.006541 0.011905
v -0.367542 5.011578 -0.024137
v -0.356013 5.024789 -0.046649
v -0.333299 5.037535 -0.042968
v -0.312501 5.043567 -0.017472
v -0.304979 5.041177 0.004757
v -0.307434 5.033505 0.028748
v -0.348084 5.065894 0.057148
v -0.371472 5.039326 0.063650
v -0.392515 5.017479 0.046445
v -0.405706 5.006717 0.011666
v -0.405194 5.012020 -0.028977
v -0.389604 5.031765 -0.058009
v -0.365504 5.057986 -0.064989
v -0.343610 5.080758 -0.047712
v -0.332958 5.090487 -0.020379
v -0.333168 5.086904 0.027457
v 0.009304 4.431836 0.040483
v -0.085806 4.647436 0.041414
v -0.050915 4.425719 0.029970
v -0.055036 4.408403 -0.004233
v -0.043062 4.409869 -0.030680
v -0.018152 4.411889 -0.044793
v 0.090443 4.184902 -0.039841
v 0.030482 4.432581 -0.016291
v 0.031277 4.438651 0.012615
v 0.117544 3.748162 0.044615
v 0.098744 4.004125 0.048548
v 0.071561 3.746505 0.044958
v 0.045012 3.743836 0.016031
v 0.048760 3.745184 -0.022460
v 0.070818 3.743226 -0.044608
v 0.108888 3.726711 -0.049197
v 0.141890 3.749162 -0.015660
v 0.139642 3.746414 0.022494
v 0.071501 4.169648 0.049493
v 0.062849 4.089008 0.047578
v 0.023027 4.159038 0.030817
v 0.014146 4.159727 -0.006491
v 0.027269 4.165684 -0.034232
v 0.055067 4.136062 -0.046412
v 0.071672 4.166699 -0.048922
v 0.110248 4.179157 -0.015298
v 0.113449 4.176185 0.007428
v 0.100349 4.170200 0.035073
v 0.043929 3.984492 0.030617
v 0.035620 3.983091 -0.007203
v 0.049401 3.985237 -0.035279
v 0.107609 3.986358 -0.044745
v 0.131745 3.990671 -0.015698
v 0.133252 3.990179 0.015166
v -0.125823 4.758617 0.045502
v -0.148980 4.750646 0.041701
v -0.167416 4.744909 0.020553
v -0.170166 4.739779 -0.009693
v -0.165700 4.751016 -0.037156
v -0.122203 4.713914 -0.048392
v -0.120871 4.767567 -0.045885
v -0.101704 4.773470 -0.018685
v -0.097029 4.771531 0.004442
v -0.105920 4.766260 0.031484
v -0.104266 4.630114 0.036152
v -0.123196 4.624290 0.017197
v -0.122636 4.643937 -0.032627
v -0.059441 4.658709 -0.033805
v -0.049941 4.662805 -0.016770
v -0.050356 4.658653 0.016022
v 0.104419 3.493748 0.044665
v 0.073266 3.490230 0.049828
v 0.045032 3.489548 0.035792
v 0.029155 3.491897 0.000222
v 0.044763 3.492760 -0.035515
v 0.072722 3.493922 -0.049816
v 0.103833 3.494352 -0.045051
v 0.128600 3.493416 -0.015622
v 0.131468 3.500718 0.007431
v 0.116253 3.439794 0.034637
v 0.072472 3.272441 0.062159
v 0.032524 3.267330 0.056830
v 0.004255 3.267456 0.029160
v -0.002102 3.268326 -0.009740
v 0.015787 3.268963 -0.044996
v 0.051000 3.268587 -0.063064
v 0.089647 3.264410 -0.057326
v 0.121317 3.267359 -0.019618
v 0.119291 3.285034 0.028162
v -0.496090 5.133208 -0.062060
v -0.472081 5.159123 -0.054165
v -0.439068 5.171141 -0.014118
v -0.438830 5.174140 0.016380
v -0.445454 5.158184 0.050678
v -0.463519 5.132304 0.066788
v -0.482177 5.112076 0.062337
v -0.499355 5.097440 0.046838
v -0.516389 5.090051 0.010276
v -0.519475 5.098714 -0.029761
v -0.510351 5.113743 -0.051304
v -0.441795 5.108033 -0.060460
v -0.410079 5.115580 -0.061156
v -0.392085 5.121440 -0.052240
v -0.377818 5.125046 -0.039076
v -0.358917 5.121808 0.013311
v -0.372143 5.103591 0.053518
v -0.392827 5.074477 0.067953
v -0.405286 5.054213 0.061334
v -0.423875 5.047128 0.052098
v -0.437763 5.033128 0.023545
v -0.466922 5.055129 -0.011830
v -0.464618 5.078839 -0.046260
v -0.430648 5.094358 -0.069771
v -0.357994 5.094679 0.045876
v -0.377789 5.063388 0.061565
v -0.454577 5.040926 -0.019603
v -0.453079 5.064468 -0.054234
v -0.497112 5.193602 -0.032012
v -0.480021 5.188717 0.024566
v -0.505486 5.149838 0.046093
v -0.539916 5.131203 0.001838
v -0.543200 5.140661 -0.027049
v -0.534191 5.159194 -0.045835
v -0.516666 5.179000 -0.047733
#140 Vertices

vn -0.179194 0.970205 0.163071
vn -0.526903 0.809043 -0.260429
vn -0.710334 0.635865 0.301831
vn -0.934155 0.340097 0.108117
vn -0.836929 0.263365 0.479779
vn -0.591085 0.474739 0.652106
vn 0.118680 0.024508 0.992630
vn 0.539727 0.299163 0.786890
vn 0.121971 -0.240380 0.962985
vn -0.452539 -0.436279 0.777734
vn -0.167443 -0.743464 0.647475
vn -0.702700 -0.642087 0.306490
vn -0.305730 -0.938362 0.161265
vn -0.709847 -0.646699 -0.279101
vn -0.354164 -0.881984 -0.310920
vn -0.192018 -0.227264 -0.954715
vn -0.245502 -0.585784 -0.772389
vn 0.134379 -0.117549 -0.983933
vn 0.531951 0.362841 -0.765098
vn 0.528886 0.318415 -0.786697
vn 0.755843 0.536132 -0.375852
vn 0.772791 0.593821 -0.223987
vn 0.802951 0.578803 0.142328
vn 0.780802 0.589823 0.206054
vn 0.633767 0.440654 0.635738
vn 0.478040 0.369235 0.796959
vn 0.178895 -0.084590 0.980225
vn -0.198790 -0.366954 0.908750
vn -0.443665 -0.620669 0.646476
vn -0.571298 -0.779371 0.257292
vn -0.548515 -0.764323 -0.339032
vn -0.381076 -0.448230 -0.808623
vn -0.011883 0.059813 -0.998139
vn 0.165795 0.256299 -0.952272
vn 0.417511 0.648381 -0.636622
vn 0.603814 0.770613 -0.203874
vn 0.612342 0.753658 0.238823
vn -0.804999 -0.239163 0.542934
vn -0.141658 -0.025844 0.989578
vn -0.413630 -0.158479 0.896546
vn -0.849577 -0.298661 0.434766
vn -0.950072 -0.299198 -0.088565
vn -0.878299 -0.466292 -0.105658
vn -0.716649 -0.226991 -0.659461
vn -0.626185 -0.235011 -0.743413
vn -0.312562 -0.099901 -0.944629
vn -0.217108 -0.114018 -0.969466
vn 0.303959 0.164305 -0.938410
vn 0.590062 0.155776 -0.792187
vn 0.649251 0.235196 -0.723295
vn 0.875162 0.285731 -0.390449
vn 0.923020 0.354515 -0.149508
vn 0.899785 0.302723 0.314238
vn 0.841057 0.323273 0.433726
vn 0.524884 0.187339 0.830302
vn 0.658096 0.399229 0.638377
vn -0.488977 0.000849 0.872296
vn 0.266177 0.019249 0.963732
vn -0.328650 -0.053142 0.942956
vn -0.805908 -0.050007 0.589924
vn -0.947272 0.008814 0.320308
vn -0.996913 -0.068477 -0.038414
vn -0.915959 0.010394 -0.401138
vn -0.780837 -0.056477 -0.622176
vn -0.418435 0.001741 -0.908245
vn -0.313118 -0.048009 -0.948500
vn 0.306654 -0.007151 -0.951794
vn 0.928399 -0.000697 -0.371583
vn 0.609116 0.036928 -0.792221
vn 0.896232 0.070837 -0.437893
vn 0.919966 0.062871 0.386923
vn 0.896817 -0.013407 0.442199
vn 0.469042 0.007356 0.883145
vn 0.145736 0.047792 0.988168
vn -0.779178 -0.159531 0.606161
vn -0.975867 -0.210058 -0.059666
vn -0.776260 -0.175835 -0.605394
vn 0.107641 0.028860 -0.993771
vn 0.924678 0.186616 -0.331881
vn 0.959264 0.239563 0.149738
vn 0.704691 0.160638 0.691091
vn -0.398627 -0.229747 0.887870
vn 0.221052 0.154879 0.962886
vn -0.732921 -0.465602 0.496025
vn -0.675172 -0.459567 -0.577010
vn 0.721357 0.506273 -0.472580
vn 0.829645 0.554728 0.062986
vn -0.088755 0.028724 0.995639
vn 0.450727 -0.005427 0.892645
vn -0.733928 0.079033 0.674613
vn -0.993213 0.103674 -0.052720
vn -0.698155 0.074369 -0.712073
vn -0.093677 0.033345 -0.995044
vn 0.521906 -0.006723 -0.852977
vn 0.814811 -0.031712 -0.578859
vn 0.990532 -0.041472 0.130868
vn 0.689423 -0.011676 0.724265
vn 0.048143 0.107217 0.993069
vn -0.481061 0.201373 0.853246
vn -0.877912 0.266283 0.397949
vn -0.935688 0.294235 -0.194716
vn -0.689010 0.231163 -0.686898
vn -0.140867 0.135207 -0.980752
vn 0.417972 0.040992 -0.907534
vn 0.997024 -0.069019 0.034331
vn 0.836445 -0.035947 0.546871
vn 0.240557 0.533687 -0.810747
vn -0.137644 -0.045873 -0.989419
vn -0.164450 0.484324 -0.859294
vn 0.153359 0.930197 -0.333488
vn 0.421042 0.841705 -0.338019
vn 0.123286 0.991775 0.034403
vn 0.506845 0.857555 0.087798
vn 0.105303 0.768923 0.630610
vn 0.310776 0.671387 0.672798
vn -0.222051 0.537815 0.813294
vn 0.030850 0.297779 0.954136
vn -0.633328 0.067252 0.770956
vn -0.293404 -0.196552 0.935565
vn -0.612253 -0.455878 0.646004
vn -0.811300 -0.114515 0.573306
vn -0.725891 -0.652256 0.218275
vn -0.923938 -0.351695 0.150498
vn -0.669038 -0.662404 -0.337060
vn -0.895890 -0.277159 -0.347224
vn -0.514425 -0.396601 -0.760312
vn -0.694336 0.060917 -0.717068
vn -0.097008 0.014293 -0.995181
vn 0.397456 0.470421 0.787866
vn 0.060995 0.014834 0.998028
vn -0.622895 -0.752246 -0.214773
vn -0.409730 -0.474776 -0.778915
vn -0.616113 0.776308 -0.133233
vn -0.978856 0.204351 0.009048
vn 0.155297 0.105752 -0.982191
vn 0.756073 -0.020492 -0.654166
vn 0.838988 -0.041006 -0.542603
vn 0.985849 -0.060995 0.156146
vn 0.885257 -0.046535 0.462769
vn 0.426318 0.048251 0.903286
vn -0.266352 0.201508 0.942577
vn -0.746838 0.307923 0.589421
vn -0.936559 0.348518 0.037306
vn -0.788627 0.315480 -0.527770
vn -0.336263 0.215491 -0.916783
#145 Normals

vt 0.556264 0.656047
vt 0.568782 0.660515
vt 0.543725 0.660554
vt 0.532588 0.656092
vt 0.519862 0.660584
vt 0.500316 0.656040
vt 0.495149 0.660626
vt 0.467161 0.656035
vt 0.469563 0.660637
vt 0.435552 0.656081
vt 0.444548 0.660571
vt 0.419369 0.660541
vt 0.406148 0.656040
vt 0.394811 0.660579
vt 0.375000 0.656047
vt 0.375000 0.660581
vt 0.604676 0.655933
vt 0.625000 0.656047
vt 0.625000 0.660581
vt 0.594424 0.660687
vt 0.579811 0.655922
vt 0.568534 0.667798
vt 0.543466 0.667340
vt 0.526908 0.668925
vt 0.513558 0.669296
vt 0.494336 0.667924
vt 0.468045 0.667754
vt 0.443226 0.667850
vt 0.418150 0.667858
vt 0.399105 0.668282
vt 0.386453 0.667897
vt 0.375000 0.667753
vt 0.625000 0.667753
vt 0.593580 0.668433
vt 0.512862 0.544229
vt 0.552854 0.582733
vt 0.531007 0.579609
vt 0.505891 0.579218
vt 0.481073 0.541506
vt 0.480944 0.615634
vt 0.455711 0.541157
vt 0.456948 0.581394
vt 0.430775 0.540426
vt 0.427708 0.600904
vt 0.404276 0.616842
vt 0.399649 0.504168
vt 0.393279 0.579138
vt 0.375000 0.541531
vt 0.375000 0.579703
vt 0.599776 0.542526
vt 0.625000 0.541531
vt 0.625000 0.579703
vt 0.594091 0.580606
vt 0.568363 0.542544
vt 0.580839 0.618076
vt 0.531569 0.427949
vt 0.562776 0.469977
vt 0.541396 0.488496
vt 0.512876 0.466312
vt 0.499906 0.427265
vt 0.481289 0.465152
vt 0.468733 0.426903
vt 0.455823 0.464711
vt 0.443620 0.426175
vt 0.434550 0.495653
vt 0.412433 0.423432
vt 0.375000 0.427016
vt 0.406217 0.464159
vt 0.375000 0.465187
vt 0.625000 0.427016
vt 0.625000 0.465187
vt 0.600296 0.465812
vt 0.593775 0.427163
vt 0.568894 0.427901
vt 0.556544 0.504460
vt 0.512701 0.503860
vt 0.481419 0.503373
vt 0.456274 0.503203
vt 0.418285 0.501265
vt 0.375000 0.503359
vt 0.606458 0.503351
vt 0.625000 0.503359
vt 0.581472 0.503469
vt 0.532451 0.618249
vt 0.556618 0.618254
vt 0.506641 0.618013
vt 0.455549 0.617253
vt 0.375000 0.617875
vt 0.605769 0.617820
vt 0.625000 0.617875
vt 0.543819 0.389152
vt 0.568935 0.389535
vt 0.518781 0.389006
vt 0.487564 0.389078
vt 0.456273 0.388838
vt 0.431313 0.388791
vt 0.406290 0.388804
vt 0.375000 0.388844
vt 0.606411 0.390151
vt 0.625000 0.388844
vt 0.584312 0.380256
vt 0.556906 0.351879
vt 0.531486 0.350902
vt 0.506390 0.350725
vt 0.481351 0.350660
vt 0.456242 0.350635
vt 0.431204 0.350572
vt 0.406134 0.350128
vt 0.625000 0.350672
vt 0.594198 0.353919
vt 0.407534 0.678999
vt 0.432082 0.678838
vt 0.418709 0.687206
vt 0.394020 0.687178
vt 0.375000 0.678150
vt 0.375000 0.688440
vt 0.606116 0.679042
vt 0.625000 0.678150
vt 0.600000 0.688440
vt 0.593815 0.687237
vt 0.581123 0.679172
vt 0.550000 0.688440
vt 0.556552 0.679093
vt 0.543842 0.687111
vt 0.537556 0.679104
vt 0.519589 0.679021
vt 0.500000 0.688440
vt 0.494186 0.679007
vt 0.492934 0.687163
vt 0.468685 0.678939
vt 0.467873 0.687172
vt 0.450322 0.678765
vt 0.443055 0.687180
vt 0.417404 0.669942
vt 0.567381 0.669837
vt 0.542455 0.669823
vt 0.467774 0.669935
vt 0.442414 0.669959
vt 0.437500 0.688440
vt 0.475000 0.688440
vt 0.412500 0.312500
vt 0.400000 0.312500
vt 0.375000 0.312500
vt 0.375000 0.350672
vt 0.612500 0.312500
vt 0.625000 0.312500
vt 0.587500 0.312500
vt 0.562500 0.312500
vt 0.537500 0.312500
vt 0.512500 0.312500
vt 0.487500 0.312500
vt 0.462500 0.312500
vt 0.437500 0.312500
vt 0.648603 0.795466
vt 0.451716 0.992353
vt 0.500000 0.837500
vt 0.351397 0.892034
vt 0.351397 0.795466
vt 0.500000 0.687500
#159 Texture Coordinates

usemtl lambert2SG
s 1
f 490/666/479 491/667/480 495/668/481
f 491/667/480 492/669/482 495/668/481
f 492/669/482 493/670/483 495/668/481
f 493/670/483 494/671/484 495/668/481
f 494/671/484 490/666/479 495/668/481
f 496/513/485 505/514/486 506/515/487
f 497/516/488 496/513/485 506/515/487
f 497/516/488 506/515/487 507/517/489
f 498/518/490 497/516/488 507/517/489
f 498/518/490 507/517/489 508/519/491
f 499/520/492 498/518/490 508/519/491
f 499/520/492 508/519/491 509/521/493
f 500/522/494 499/520/492 509/521/493
f 500/522/494 509/521/493 510/523/495
f 500/522/494 510/523/495 511/524/496
f 501/525/497 500/522/494 511/524/496
f 501/525/497 511/524/496 512/526/498
f 502/527/499 501/525/497 512/526/498
f 502/527/499 512/526/498 513/528/500
f 503/529/501 502/530/499 513/531/500
f 503/529/501 513/531/500 514/532/502
f 504/533/503 503/529/501 514/532/502
f 504/533/503 514/532/502 505/514/486
f 496/513/485 504/533/503 505/514/486
f 506/515/487 505/514/486 608/534/504
f 506/515/487 608/534/504 609/535/505
f 507/517/489 506/515/487 609/535/505
f 507/517/489 609/535/505 602/536/506
f 507/517/489 602/536/506 603/537/507
f 508/519/491 507/517/489 603/537/507
f 508/519/491 603/537/507 604/538/508
f 509/521/493 508/519/491 604/538/508
f 509/521/493 604/538/508 610/539/509
f 510/523/495 509/521/493 610/539/509
f 510/523/495 610/539/509 611/540/510
f 511/524/496 510/523/495 611/540/510
f 511/524/496 611/540/510 607/541/511
f 512/526/498 511/524/496 607/541/511
f 512/526/498 607/541/511 596/542/512
f 512/526/498 596/542/512 597/543/513
f 513/528/500 512/526/498 597/543/513
f 513/528/500 597/543/513 598/544/514
f 514/532/502 513/531/500 598/545/514
f 514/532/502 598/545/514 599/546/515
f 505/514/486 514/532/502 599/546/515
f 505/514/486 599/546/515 608/534/504
usemtl blinn2SG
s 1
f 517/547/516 516/548/517 559/549/518
f 517/547/516 559/549/518 560/550/519
f 518/551/520 517/547/516 560/550/519
f 518/551/520 560/550/519 552/552/521
f 519/553/522 518/551/520 552/552/521
f 519/553/522 552/552/521 561/554/523
f 520/555/524 519/553/522 561/554/523
f 520/555/524 561/554/523 554/556/525
f 555/557/526 520/555/524 554/556/525
f 521/558/527 555/557/526 562/559/528
f 522/560/529 521/558/527 562/559/528
f 522/560/529 562/559/528 563/561/530
f 523/562/531 522/563/529 563/564/530
f 523/562/531 563/564/530 564/565/532
f 515/566/533 523/562/531 564/565/532
f 515/566/533 564/565/532 558/567/534
f 515/566/533 558/567/534 516/548/517
f 526/568/535 525/569/536 534/570/537
f 526/568/535 534/570/537 543/571/538
f 527/572/539 526/568/535 543/571/538
f 527/572/539 543/571/538 544/573/540
f 528/574/541 527/572/539 544/573/540
f 528/574/541 544/573/540 545/575/542
f 529/576/543 528/574/541 545/575/542
f 529/576/543 545/575/542 538/577/544
f 530/578/545 529/576/543 538/577/544
f 531/579/546 530/578/545 546/580/547
f 531/579/546 546/580/547 547/581/548
f 531/582/546 547/583/548 548/584/549
f 532/585/550 531/582/546 548/584/549
f 524/586/551 532/585/550 548/584/549
f 524/586/551 548/584/549 525/569/536
f 533/587/552 515/566/533 516/548/517
f 534/570/537 533/587/552 516/548/517
f 535/588/553 534/570/537 516/548/517
f 535/588/553 516/548/517 517/547/516
f 536/589/554 535/588/553 517/547/516
f 536/589/554 517/547/516 518/551/520
f 537/590/555 536/589/554 518/551/520
f 537/590/555 518/551/520 519/553/522
f 538/577/544 537/590/555 519/553/522
f 538/577/544 519/553/522 520/555/524
f 539/591/556 538/577/544 520/555/524
f 539/591/556 520/555/524 555/557/526
f 521/558/527 539/591/556 555/557/526
f 540/592/557 521/558/527 522/560/529
f 541/593/558 540/594/557 522/563/529
f 541/593/558 522/563/529 523/562/531
f 542/595/559 541/593/558 523/562/531
f 542/595/559 523/562/531 515/566/533
f 533/587/552 542/595/559 515/566/533
f 534/570/537 525/569/536 533/587/552
f 543/571/538 534/570/537 535/588/553
f 544/573/540 543/571/538 535/588/553
f 544/573/540 535/588/553 536/589/554
f 545/575/542 544/573/540 536/589/554
f 545/575/542 536/589/554 537/590/555
f 538/577/544 545/575/542 537/590/555
f 530/578/545 538/577/544 539/591/556
f 546/580/547 530/578/545 539/591/556
f 546/580/547 539/591/556 521/558/527
f 547/581/548 546/580/547 521/558/527
f 547/581/548 521/558/527 540/592/557
f 548/584/549 547/583/548 540/594/557
f 548/584/549 540/594/557 541/593/558
f 548/584/549 541/593/558 542/595/559
f 525/569/536 548/584/549 542/595/559
f 525/569/536 542/595/559 533/587/552
f 550/596/560 549/597/561 496/513/485
f 550/596/560 496/513/485 497/516/488
f 551/598/562 550/596/560 497/516/488
f 551/598/562 497/516/488 498/518/490
f 552/552/521 551/598/562 498/518/490
f 552/552/521 498/518/490 499/520/492
f 553/599/563 552/552/521 499/520/492
f 553/599/563 499/520/492 500/522/494
f 554/556/525 553/599/563 500/522/494
f 555/557/526 554/556/525 500/522/494
f 555/557/526 500/522/494 501/525/497
f 556/600/564 555/557/526 501/525/497
f 556/600/564 501/525/497 502/527/499
f 557/601/565 556/602/564 502/530/499
f 557/601/565 502/530/499 503/529/501
f 558/567/534 557/601/565 503/529/501
f 558/567/534 503/529/501 504/533/503
f 549/597/561 558/567/534 504/533/503
f 549/597/561 504/533/503 496/513/485
f 559/549/518 516/548/517 549/597/561
f 559/549/518 549/597/561 550/596/560
f 560/550/519 559/549/518 550/596/560
f 560/550/519 550/596/560 551/598/562
f 552/552/521 560/550/519 551/598/562
f 561/554/523 552/552/521 553/599/563
f 554/556/525 561/554/523 553/599/563
f 562/559/528 555/557/526 556/600/564
f 563/561/530 562/559/528 556/600/564
f 563/564/530 556/602/564 557/601/565
f 564/565/532 563/564/530 557/601/565
f 564/565/532 557/601/565 558/567/534
f 516/548/517 558/567/534 549/597/561
f 566/603/566 565/604/567 524/586/551
f 566/603/566 524/586/551 525/569/536
f 566/603/566 525/569/536 526/568/535
f 567/605/568 566/603/566 526/568/535
f 567/605/568 526/568/535 527/572/539
f 568/606/569 567/605/568 527/572/539
f 568/606/569 527/572/539 528/574/541
f 569/607/570 568/606/569 528/574/541
f 569/607/570 528/574/541 529/576/543
f 570/608/571 569/607/570 529/576/543
f 570/608/571 529/576/543 530/578/545
f 571/609/572 570/608/571 530/578/545
f 572/610/573 571/609/572 530/578/545
f 572/610/573 530/578/545 531/579/546
f 573/611/574 572/612/573 531/582/546
f 573/611/574 531/582/546 532/585/550
f 574/613/575 573/611/574 532/585/550
f 565/604/567 574/613/575 532/585/550
f 565/604/567 532/585/550 524/586/551
f 575/614/576 565/604/567 566/603/566
f 576/615/577 575/614/576 566/603/566
f 576/615/577 566/603/566 567/605/568
f 577/616/578 576/615/577 567/605/568
f 577/616/578 567/605/568 568/606/569
f 578/617/579 577/616/578 568/606/569
f 579/618/580 578/617/579 568/606/569
f 579/618/580 568/606/569 569/607/570
f 580/619/581 579/618/580 569/607/570
f 580/619/581 569/607/570 570/608/571
f 581/620/582 580/619/581 570/608/571
f 581/620/582 570/608/571 571/609/572
f 572/610/573 581/620/582 571/609/572
f 582/621/583 572/612/573 573/611/574
f 583/622/584 582/621/583 573/611/574
f 583/622/584 573/611/574 574/613/575
f 575/614/576 574/613/575 565/604/567
usemtl lambert2SG
s 1
f 585/623/585 584/624/586 618/625/587
f 585/623/585 618/625/587 612/626/588
f 586/627/589 585/623/585 612/626/588
f 586/627/589 612/626/588 490/628/590
f 587/629/591 586/630/589 490/631/590
f 587/629/591 490/631/590 613/632/592
f 588/633/593 587/629/591 613/632/592
f 588/633/593 613/632/592 494/634/594
f 589/635/595 588/633/593 494/634/594
f 589/635/595 494/634/594 614/636/596
f 590/637/597 589/635/595 614/636/596
f 591/638/598 590/637/597 614/636/596
f 591/638/598 614/636/596 493/639/599
f 592/640/600 591/638/598 493/639/599
f 592/640/600 493/639/599 615/641/601
f 593/642/602 592/640/600 615/641/601
f 593/642/602 615/641/601 616/643/603
f 594/644/604 593/642/602 616/643/603
f 594/644/604 616/643/603 617/645/605
f 584/624/586 594/644/604 617/645/605
f 584/624/586 617/645/605 618/625/587
f 595/646/606 584/624/586 585/623/585
f 596/542/512 595/646/606 585/623/585
f 597/543/513 596/542/512 585/623/585
f 597/543/513 585/623/585 586/627/589
f 598/544/514 597/543/513 586/627/589
f 598/545/514 586/630/589 587/629/591
f 599/546/515 598/545/514 587/629/591
f 599/546/515 587/629/591 588/633/593
f 600/647/607 599/546/515 588/633/593
f 600/647/607 588/633/593 589/635/595
f 601/648/608 600/647/607 589/635/595
f 601/648/608 589/635/595 590/637/597
f 602/536/506 601/648/608 590/637/597
f 602/536/506 590/637/597 591/638/598
f 603/537/507 602/536/506 591/638/598
f 604/538/508 603/537/507 591/638/598
f 604/538/508 591/638/598 592/640/600
f 605/649/609 604/538/508 592/640/600
f 605/649/609 592/640/600 593/642/602
f 606/650/610 605/649/609 593/642/602
f 606/650/610 593/642/602 594/644/604
f 606/650/610 594/644/604 584/624/586
f 595/646/606 606/650/610 584/624/586
f 596/542/512 607/541/511 595/646/606
f 608/534/504 599/546/515 600/647/607
f 609/535/505 608/534/504 600/647/607
f 609/535/505 600/647/607 601/648/608
f 602/536/506 609/535/505 601/648/608
f 610/539/509 604/538/508 605/649/609
f 611/540/510 610/539/509 605/649/609
f 611/540/510 605/649/609 606/650/610
f 607/541/511 611/540/510 606/650/610
f 607/541/511 606/650/610 595/646/606
f 612/626/588 491/651/611 490/628/590
f 613/632/592 490/631/590 494/634/594
f 614/636/596 494/634/594 493/639/599
f 615/641/601 493/639/599 492/652/612
f 616/643/603 615/641/601 492/652/612
f 617/645/605 616/643/603 492/652/612
f 617/645/605 492/652/612 491/651/611
f 618/625/587 617/645/605 491/651/611
f 612/626/588 618/625/587 491/651/611
usemtl blinn2SG
s 1
f 481/653/613 580/619/581 581/620/582
f 480/654/614 481/653/613 581/620/582
f 480/654/614 581/620/582 572/610/573
f 479/655/615 480/654/614 572/610/573
f 479/655/615 572/610/573 582/656/583
f 489/657/616 479/658/615 582/621/583
f 488/659/617 489/657/616 582/621/583
f 488/659/617 582/621/583 583/622/584
f 487/660/618 488/659/617 583/622/584
f 487/660/618 583/622/584 574/613/575
f 487/660/618 574/613/575 575/614/576
f 486/661/619 487/660/618 575/614/576
f 486/661/619 575/614/576 576/615/577
f 485/662/620 486/661/619 576/615/577
f 485/662/620 576/615/577 577/616/578
f 484/663/621 485/662/620 577/616/578
f 484/663/621 577/616/578 578/617/579
f 483/664/622 484/663/621 578/617/579
f 483/664/622 578/617/579 579/618/580
f 482/665/623 483/664/622 579/618/580
f 482/665/623 579/618/580 580/619/581
f 481/653/613 482/665/623 580/619/581
#267 polygons

